<svg width="141" height="201" viewBox="0 0 141 201" fill="none" xmlns="http://www.w3.org/2000/svg">
<path d="M32.2201 100.97H28.0601V125.62C28.0601 126.09 28.9901 126.46 30.1401 126.46C31.2901 126.46 32.2201 126.08 32.2201 125.62V100.97Z" fill="#FFE212" stroke="#001F2C" stroke-linejoin="round"/>
<path d="M29.5301 100.97H28.0601V125.62C28.0601 126 28.6801 126.32 29.5301 126.43V100.97Z" fill="#001F2C" stroke="#001E2B" stroke-miterlimit="10"/>
<path d="M44.57 72.2999L44.19 49.3799C44.19 48.5099 47.53 42.1699 47.24 41.3999C47.24 41.3999 43.67 35.0099 37.57 37.9899L24.13 45.2299C19.43 47.7599 16.51 52.6499 16.51 57.9999V84.2899C16.51 93.2899 21.44 101.52 29.38 105.77L52.88 118.33L82.27 102.5V100.5L55.02 90.8199C48.23 87.1899 44.58 80.0199 44.58 72.3199L44.57 72.2999Z" fill="#001F2C" stroke="#001E2B" stroke-miterlimit="10"/>
<path d="M47.66 68.4499V43.4799C47.66 39.4499 43.36 36.8799 39.81 38.7899L24.97 46.7799C20.85 48.9999 18.27 53.3099 18.27 57.9899V84.2799C18.27 92.6099 22.86 100.27 30.21 104.2L52.87 116.31L82.26 100.48L59.6 88.3699C52.25 84.4399 47.66 76.7799 47.66 68.4499Z" fill="#00C954" stroke="#001E2B" stroke-miterlimit="10"/>
<path d="M28.1801 61.42C28.7655 61.42 29.2401 60.538 29.2401 59.45C29.2401 58.362 28.7655 57.48 28.1801 57.48C27.5947 57.48 27.1201 58.362 27.1201 59.45C27.1201 60.538 27.5947 61.42 28.1801 61.42Z" fill="white" stroke="#001F2C" stroke-linejoin="round"/>
<path d="M28.18 57.48C28.1 57.48 28.02 57.5 27.95 57.53C28.42 57.73 28.78 58.51 28.78 59.45C28.78 60.39 28.43 61.18 27.95 61.37C28.02 61.4 28.1 61.42 28.18 61.42C28.76 61.42 29.24 60.54 29.24 59.45C29.24 58.36 28.77 57.48 28.18 57.48Z" fill="#001E2B" stroke="#001F2C" stroke-linejoin="round"/>
<path d="M39.1601 55.3299C39.7455 55.3299 40.2201 54.4479 40.2201 53.3599C40.2201 52.2719 39.7455 51.3899 39.1601 51.3899C38.5747 51.3899 38.1001 52.2719 38.1001 53.3599C38.1001 54.4479 38.5747 55.3299 39.1601 55.3299Z" fill="white" stroke="#001F2C" stroke-linejoin="round"/>
<path d="M39.1599 51.3899C39.0799 51.3899 38.9999 51.4099 38.9299 51.4399C39.3999 51.6399 39.7599 52.4199 39.7599 53.3599C39.7599 54.2999 39.4099 55.0899 38.9299 55.2799C38.9999 55.3099 39.0799 55.3299 39.1599 55.3299C39.7399 55.3299 40.2199 54.4499 40.2199 53.3599C40.2199 52.2699 39.7499 51.3899 39.1599 51.3899Z" fill="#001E2B" stroke="#001F2C" stroke-linejoin="round"/>
<path d="M28.1801 79.4599C28.7655 79.4599 29.2401 78.5779 29.2401 77.4899C29.2401 76.4019 28.7655 75.5199 28.1801 75.5199C27.5947 75.5199 27.1201 76.4019 27.1201 77.4899C27.1201 78.5779 27.5947 79.4599 28.1801 79.4599Z" fill="white" stroke="#001F2C" stroke-linejoin="round"/>
<path d="M28.18 75.5299C28.1 75.5299 28.02 75.5499 27.95 75.5799C28.42 75.7799 28.78 76.5599 28.78 77.4999C28.78 78.4399 28.43 79.2299 27.95 79.4199C28.02 79.4499 28.1 79.4699 28.18 79.4699C28.76 79.4699 29.24 78.5899 29.24 77.4999C29.24 76.4099 28.77 75.5299 28.18 75.5299Z" fill="#001E2B" stroke="#001F2C" stroke-linejoin="round"/>
<path d="M39.1601 73.3799C39.7455 73.3799 40.2201 72.4979 40.2201 71.4099C40.2201 70.3219 39.7455 69.4399 39.1601 69.4399C38.5747 69.4399 38.1001 70.3219 38.1001 71.4099C38.1001 72.4979 38.5747 73.3799 39.1601 73.3799Z" fill="white" stroke="#001F2C" stroke-linejoin="round"/>
<path d="M39.1599 69.4399C39.0799 69.4399 38.9999 69.4599 38.9299 69.4899C39.3999 69.6899 39.7599 70.4699 39.7599 71.4099C39.7599 72.3499 39.4099 73.1399 38.9299 73.3299C38.9999 73.3599 39.0799 73.3799 39.1599 73.3799C39.7399 73.3799 40.2199 72.4999 40.2199 71.4099C40.2199 70.3199 39.7499 69.4399 39.1599 69.4399Z" fill="#001E2B" stroke="#001F2C" stroke-linejoin="round"/>
<path d="M73.0401 129.06H68.8801V162.95C68.8801 163.42 69.8101 163.79 70.9601 163.79C72.1101 163.79 73.0401 163.41 73.0401 162.95V129.06Z" fill="#FFE212" stroke="#001F2C" stroke-linejoin="round"/>
<path d="M70.3501 129.06H68.8801V162.95C68.8801 163.33 69.5001 163.65 70.3501 163.76V129.06Z" fill="#001F2C" stroke="#001E2B" stroke-miterlimit="10"/>
<path d="M45.5001 114.63H41.3401V148.52C41.3401 148.99 42.2701 149.36 43.4201 149.36C44.5701 149.36 45.5001 148.98 45.5001 148.52V114.63Z" fill="#FFE212" stroke="#001F2C" stroke-linejoin="round"/>
<path d="M42.8101 114.63H41.3401V148.52C41.3401 148.9 41.9601 149.22 42.8101 149.33V114.63Z" fill="#001F2C" stroke="#001E2B" stroke-miterlimit="10"/>
<path d="M53.5501 111.15H49.3901V135.8C49.3901 136.27 50.3201 136.64 51.4701 136.64C52.6201 136.64 53.5501 136.26 53.5501 135.8V111.15Z" fill="#FFE212" stroke="#001F2C" stroke-linejoin="round"/>
<path d="M50.8601 111.15H49.3901V135.8C49.3901 136.18 50.0101 136.5 50.8601 136.61V111.15Z" fill="#001F2C" stroke="#001E2B" stroke-miterlimit="10"/>
<path d="M124.33 100.55H120.17V134.44C120.17 134.91 121.1 135.28 122.25 135.28C123.4 135.28 124.33 134.9 124.33 134.44V100.55Z" fill="#FFE212" stroke="#001F2C" stroke-linejoin="round"/>
<path d="M121.64 100.55H120.17V134.44C120.17 134.82 120.79 135.14 121.64 135.25V100.55Z" fill="#001F2C" stroke="#001E2B" stroke-miterlimit="10"/>
<path d="M38.6701 114.58V103.32L92.9801 74.0699L125.26 91.3199V102.59C125.26 103.89 124.55 105.08 123.4 105.7L73.2001 132.74C71.7901 133.5 70.0901 133.5 68.6801 132.74L40.5201 117.69C39.3701 117.08 38.6501 115.88 38.6501 114.57L38.6701 114.58Z" fill="#FF9F10" stroke="#001F2C" stroke-linejoin="round"/>
<path d="M70.9602 133.31V119.94L38.6802 103.32V114.58C38.6802 115.88 39.4002 117.08 40.5502 117.7L68.7102 132.75C69.4202 133.13 70.1902 133.32 70.9702 133.31H70.9602Z" fill="#001F2C" stroke="#001E2B" stroke-miterlimit="10"/>
<path d="M35.5601 102.83V98.8599L93.7801 67.5099L128.38 85.9999V89.9699L70.1701 121.33L35.5601 102.83Z" fill="#001F2C" stroke="#001E2B" stroke-miterlimit="10"/>
<path d="M128.38 85.9999L70.1701 117.36L35.5601 98.8599L93.7801 67.5099L128.38 85.9999Z" fill="#FFE212" stroke="#001F2C" stroke-linejoin="round"/>
<path d="M70.1702 117.36V121.33L128.38 89.97V86L70.1702 117.36Z" fill="#FF9F10" stroke="#001F2C" stroke-linejoin="round"/>
<path d="M114.9 81.32L94.3301 92L67.0701 80.06L87.6401 69.37L114.9 81.32Z" fill="#001E2B" stroke="#001F2C" stroke-miterlimit="10"/>
<path d="M111.66 72.5099L94.1001 91.4799L66.8401 79.5299L84.4001 60.5599L111.66 72.5099Z" fill="#00D2FF" stroke="#001F2C" stroke-linejoin="round"/>
<path d="M91.81 86.2399C91.81 86.2399 91.57 87.0699 92.52 89.2399C93.47 91.4099 94.31 91.9799 94.33 91.9999L111.32 73.6499L108.8 67.8899L91.81 86.2399Z" fill="#FFF5F4" stroke="#001F2C" stroke-linejoin="round"/>
<path d="M92 87.84L109.34 69.12" stroke="#001F2C" stroke-linejoin="round"/>
<path d="M92.3501 88.6499L109.69 69.9299" stroke="#001F2C" stroke-linejoin="round"/>
<path d="M92.71 89.46L110.04 70.74" stroke="#001F2C" stroke-linejoin="round"/>
<path d="M93.0601 90.2599L110.39 71.5399" stroke="#001F2C" stroke-linejoin="round"/>
<path d="M93.4102 91.07L110.74 72.35" stroke="#001F2C" stroke-linejoin="round"/>
<path d="M109.37 67.2599L91.81 86.2399L64.55 74.2899L82.11 55.3199L109.37 67.2599Z" fill="#00C954" stroke="#001E2B" stroke-miterlimit="10"/>
<path d="M67.0701 80.0599C67.0701 80.0599 66.1101 79.4999 65.1701 77.3399C64.2301 75.1799 64.5501 74.2999 64.5501 74.2999L91.8101 86.2499C91.8101 86.2499 91.5701 87.0799 92.5201 89.2499C93.4701 91.4199 94.3301 92.0099 94.3301 92.0099L67.0701 80.0599Z" fill="#001E2B" stroke="#001F2C" stroke-miterlimit="10"/>
<path d="M111.66 72.5L94.31 91.3C94 90.95 93.5 90.26 92.96 89.04C92.29 87.51 92.26 86.72 92.27 86.45L109.58 67.75L109.36 67.26L91.8 86.23C91.8 86.23 91.56 87.06 92.51 89.23C93.46 91.4 94.32 91.99 94.32 91.99L111.88 73.02L111.65 72.5H111.66Z" fill="#001E2B" stroke="#001F2C" stroke-miterlimit="10"/>
<path d="M92.52 63.0899L83.28 59.0399L69.95 73.4499L79.19 77.4899L92.52 63.0899Z" fill="#FFE212" stroke="#001F2C" stroke-linejoin="round"/>
<path d="M95.47 86.49L97.2 88.89L99.18 86.76L95.47 86.49Z" fill="#001E2B" stroke="#001F2C" stroke-miterlimit="10"/>
<path d="M102.53 86.1899L100.49 86.9799L100.34 88.5599L95.47 86.4899L97.65 84.1299L102.53 86.1899Z" fill="#00C954" stroke="#001E2B" stroke-miterlimit="10"/>
<path d="M48.4502 96.77L51.7602 96.53L71.4502 95.12C71.5202 95.12 71.6002 95.13 71.6702 95.17L76.9102 96.44L77.6402 96.62L71.9402 98.9C71.9402 98.9 71.9202 98.92 71.9002 98.92H71.8802C71.8802 98.92 71.8502 98.95 71.8302 98.96H71.8102C71.8102 98.96 71.7602 98.98 71.7302 98.98L52.0402 100.39L48.7302 100.63C48.2802 100.66 47.8502 99.82 47.7702 98.76C47.6902 97.69 48.0002 96.8 48.4502 96.77Z" fill="#001E2B" stroke="#001E2B" stroke-miterlimit="10"/>
<path d="M79.4202 94.8899L73.2402 93.3899L73.5102 97.2499L79.4202 94.8899Z" fill="#00ED64" stroke="#001E2B" stroke-miterlimit="10"/>
<path d="M78.6902 94.71L79.4202 94.89L73.5102 97.25L73.4802 96.79L78.6902 94.71Z" fill="#001F2C"/>
<path d="M77.6003 95.0199C77.5903 94.8099 77.5603 94.6099 77.5203 94.4299L79.4303 94.8899L77.6103 95.6199C77.6203 95.4299 77.6203 95.2299 77.6103 95.0199H77.6003Z" fill="#001F2C"/>
<path d="M53.5503 94.7999L73.2403 93.3899C73.6903 93.3599 74.1203 94.1999 74.2003 95.2599C74.2803 96.3199 73.9703 97.2199 73.5203 97.2499L53.8303 98.6599L53.5503 94.7999Z" fill="#00ED64" stroke="#001E2B" stroke-miterlimit="10"/>
<path d="M74.1902 95.9099C74.1302 96.6699 73.8702 97.2299 73.5102 97.2499L53.8202 98.6599L53.7302 97.3699L74.1902 95.9099Z" fill="#001F2C"/>
<path d="M50.2302 95.03L53.5402 94.79C53.9902 94.76 54.4202 95.6 54.5002 96.66C54.5802 97.72 54.2702 98.62 53.8202 98.65L50.5102 98.89L50.2302 95.03Z" fill="#00ED64" stroke="#001E2B" stroke-miterlimit="10"/>
<path d="M50.5151 98.8755C50.9668 98.8432 51.2714 97.9552 51.1954 96.892C51.1193 95.8288 50.6915 94.9931 50.2398 95.0254C49.7881 95.0577 49.4835 95.9458 49.5595 97.0089C49.6356 98.0721 50.0634 98.9078 50.5151 98.8755Z" fill="#00885A" stroke="#001E2B" stroke-miterlimit="10"/>
<path d="M74.1002 94.62L54.4102 96.03" stroke="#231F20" stroke-miterlimit="10"/>
<path d="M54.5002 97.3099L74.1902 95.9099" stroke="#231F20" stroke-miterlimit="10"/>
<path d="M59.5301 62.03C62.1368 62.03 64.2501 59.9168 64.2501 57.31C64.2501 54.7032 62.1368 52.59 59.5301 52.59C56.9233 52.59 54.8101 54.7032 54.8101 57.31C54.8101 59.9168 56.9233 62.03 59.5301 62.03Z" fill="white" stroke="#001E2B" stroke-miterlimit="10"/>
<path d="M56.6702 61.06C56.6702 61.06 62.6102 59.08 63.4702 54.7C64.4902 56.07 64.8702 59.1899 62.6502 60.8499C60.4302 62.5099 58.2702 61.9399 56.6802 61.0499L56.6702 61.06Z" fill="#023430"/>
<path d="M85.6401 51.7899L112.9 63.7399" stroke="#001E2B" stroke-miterlimit="10"/>
<path d="M12.6201 60.34V86.63C12.6201 95.63 17.5501 103.86 25.4901 108.11" stroke="#001E2B" stroke-miterlimit="10"/>
<path d="M104.99 119.15L115.64 113.41" stroke="#001E2B" stroke-miterlimit="10"/>
<path d="M82.8401 131.08L102.08 120.72" stroke="#001E2B" stroke-miterlimit="10"/>
</svg>
