<svg id="dh_-_speakers" data-name="dh - speakers" xmlns="http://www.w3.org/2000/svg" xmlns:xlink="http://www.w3.org/1999/xlink" viewBox="0 0 500 246"><defs><clipPath id="clip-path"><rect width="500" height="246" fill="none"/></clipPath><linearGradient id="linear-gradient" x1="144.74079" y1="135.57555" x2="239.43568" y2="135.57555" gradientUnits="userSpaceOnUse"><stop offset="0" stop-color="#f87216"/><stop offset="1" stop-color="#d24f93"/></linearGradient><linearGradient id="linear-gradient-2" x1="144.74089" y1="128.72266" x2="239.43563" y2="128.72266" xlink:href="#linear-gradient"/><linearGradient id="linear-gradient-3" x1="185.03293" y1="107.01393" x2="199.56695" y2="107.01393" xlink:href="#linear-gradient"/><linearGradient id="linear-gradient-4" x1="142.52613" y1="67.71055" x2="249.78674" y2="67.71055" xlink:href="#linear-gradient"/><linearGradient id="linear-gradient-5" x1="144.36103" y1="59.2867" x2="239.81549" y2="59.2867" gradientUnits="userSpaceOnUse"><stop offset="0" stop-color="#0ad05b"/><stop offset="1" stop-color="#7accda"/></linearGradient><linearGradient id="linear-gradient-6" x1="144.36102" y1="59.2867" x2="239.81548" y2="59.2867" gradientUnits="userSpaceOnUse"><stop offset="0" stop-color="#7accda"/><stop offset="0.99796" stop-color="#6e60f9"/></linearGradient><clipPath id="clip-path-2"><circle cx="192.08822" cy="59.2867" r="47.72723" fill="none" stroke="#0c1c27" stroke-linecap="round" stroke-linejoin="round"/></clipPath><linearGradient id="linear-gradient-7" x1="139.22756" y1="59.48484" x2="246.1542" y2="59.48484" gradientUnits="userSpaceOnUse"><stop offset="0" stop-color="#7accda"/><stop offset="1" stop-color="#0ad05b"/></linearGradient><linearGradient id="linear-gradient-8" x1="353.79502" y1="150.57792" x2="355.55919" y2="150.57792" gradientUnits="userSpaceOnUse"><stop offset="0" stop-color="#d24f93"/><stop offset="1" stop-color="#f87216"/></linearGradient><linearGradient id="linear-gradient-9" x1="232.6421" y1="152.79182" x2="355.55919" y2="152.79182" xlink:href="#linear-gradient"/><linearGradient id="linear-gradient-10" x1="233.87865" y1="157.47537" x2="353.79502" y2="157.47537" xlink:href="#linear-gradient-5"/><linearGradient id="linear-gradient-11" x1="232.6421" y1="136.05824" x2="355.55919" y2="136.05824" xlink:href="#linear-gradient"/><linearGradient id="linear-gradient-12" x1="322.79551" y1="172.97225" x2="336.18123" y2="172.97225" xlink:href="#linear-gradient-6"/><linearGradient id="linear-gradient-13" x1="256.86403" y1="130.63152" x2="351.20774" y2="130.63152" xlink:href="#linear-gradient-6"/><linearGradient id="linear-gradient-14" x1="257.9543" y1="133.51247" x2="349.65227" y2="133.51247" xlink:href="#linear-gradient-5"/><linearGradient id="linear-gradient-15" x1="256.86403" y1="115.8775" x2="351.20774" y2="115.8775" xlink:href="#linear-gradient-6"/><linearGradient id="linear-gradient-16" x1="271.95604" y1="118.20126" x2="326.53113" y2="118.20126" xlink:href="#linear-gradient-6"/><linearGradient id="linear-gradient-17" x1="311.792" y1="105.42823" x2="328.59231" y2="105.42823" xlink:href="#linear-gradient-6"/><linearGradient id="linear-gradient-18" x1="297.17456" y1="134.67111" x2="351.20774" y2="134.67111" xlink:href="#linear-gradient-6"/><linearGradient id="linear-gradient-19" x1="139.99942" y1="145.98896" x2="151.80163" y2="145.98896" gradientTransform="matrix(-1, 0, 0, 1, 423.74496, 0)" xlink:href="#linear-gradient"/></defs><g clip-path="url(#clip-path)"><polygon points="225.079 60.073 258.189 40.958 258.372 41.063 225.263 60.179 225.079 60.073" fill="none" stroke="#21313c" stroke-linecap="round" stroke-linejoin="round"/><polygon points="92.826 136.641 92.643 136.535 125.752 117.42 125.935 117.526 92.826 136.641" fill="none" stroke="#21313c" stroke-linecap="round" stroke-linejoin="round"/><polygon points="159.044 98.41 158.861 98.304 191.97 79.189 192.154 79.294 159.044 98.41" fill="none" stroke="#21313c" stroke-linecap="round" stroke-linejoin="round"/><polygon points="125.935 117.526 125.752 117.42 158.861 98.304 159.044 98.41 125.935 117.526" fill="none" stroke="#21313c" stroke-linecap="round" stroke-linejoin="round"/><polygon points="225.263 60.179 192.154 79.294 191.97 79.189 225.079 60.073 225.263 60.179" fill="none" stroke="#21313c" stroke-linecap="round" stroke-linejoin="round"/><polygon points="324.407 155.651 357.516 136.535 390.625 155.651 357.516 174.767 324.407 155.651" fill="none" stroke="#21313c" stroke-linecap="round" stroke-linejoin="round"/><polygon points="357.516 212.997 390.625 232.113 357.516 251.229 324.407 232.113 357.516 212.997" fill="none" stroke="#21313c" stroke-linecap="round" stroke-linejoin="round"/><polygon points="324.407 232.113 357.516 251.229 324.407 270.344 291.298 251.228 324.407 232.113" fill="none" stroke="#21313c" stroke-linecap="round" stroke-linejoin="round"/><polygon points="225.079 136.535 191.97 117.42 225.079 98.304 258.188 117.42 225.079 136.535" fill="none" stroke="#21313c" stroke-linecap="round" stroke-linejoin="round"/><polygon points="158.861 174.766 125.752 155.651 158.861 136.535 191.97 155.651 158.861 174.766" fill="none" stroke="#21313c" stroke-linecap="round" stroke-linejoin="round"/><polygon points="258.188 117.42 225.079 98.304 258.189 79.189 291.298 98.304 258.188 117.42" fill="none" stroke="#21313c" stroke-linecap="round" stroke-linejoin="round"/><polygon points="258.189 79.189 291.298 60.073 324.407 79.189 291.298 98.304 258.189 79.189" fill="none" stroke="#21313c" stroke-linecap="round" stroke-linejoin="round"/><polygon points="291.298 136.535 324.407 117.42 357.516 136.535 324.407 155.651 291.298 136.535" fill="none" stroke="#21313c" stroke-linecap="round" stroke-linejoin="round"/><polygon points="191.97 155.651 158.861 136.535 191.97 117.42 225.079 136.535 191.97 155.651" fill="none" stroke="#21313c" stroke-linecap="round" stroke-linejoin="round"/><polygon points="92.643 251.228 59.534 270.344 26.425 251.229 59.534 232.113 92.643 251.228" fill="none" stroke="#21313c" stroke-linecap="round" stroke-linejoin="round"/><polygon points="59.534 232.113 26.425 212.997 59.534 193.882 92.643 212.997 59.534 232.113" fill="none" stroke="#21313c" stroke-linecap="round" stroke-linejoin="round"/><polygon points="92.643 212.997 59.534 193.882 92.643 174.766 125.752 193.882 92.643 212.997" fill="none" stroke="#21313c" stroke-linecap="round" stroke-linejoin="round"/><polygon points="225.079 174.766 191.97 155.651 225.079 136.535 258.189 155.651 225.079 174.766" fill="none" stroke="#21313c" stroke-linecap="round" stroke-linejoin="round"/><polygon points="258.189 155.651 291.298 136.535 324.407 155.651 291.298 174.766 258.189 155.651" fill="none" stroke="#21313c" stroke-linecap="round" stroke-linejoin="round"/><polygon points="225.079 212.997 191.97 193.882 225.079 174.766 258.188 193.882 225.079 212.997" fill="none" stroke="#21313c" stroke-linecap="round" stroke-linejoin="round"/><polygon points="258.188 193.882 225.079 174.766 258.189 155.651 291.298 174.766 258.188 193.882" fill="none" stroke="#21313c" stroke-linecap="round" stroke-linejoin="round"/><polygon points="291.298 174.766 324.407 155.651 357.516 174.767 324.407 193.882 291.298 174.766" fill="none" stroke="#21313c" stroke-linecap="round" stroke-linejoin="round"/><polygon points="324.407 193.882 357.516 212.997 324.407 232.113 291.298 212.997 324.407 193.882" fill="none" stroke="#21313c" stroke-linecap="round" stroke-linejoin="round"/><polygon points="291.298 212.997 324.407 232.113 291.298 251.228 258.189 232.113 291.298 212.997" fill="none" stroke="#21313c" stroke-linecap="round" stroke-linejoin="round"/><polygon points="291.298 174.766 324.407 193.882 291.298 212.997 258.188 193.882 291.298 174.766" fill="none" stroke="#21313c" stroke-linecap="round" stroke-linejoin="round"/><polygon points="258.188 193.882 291.298 212.997 258.189 232.113 225.079 212.997 258.188 193.882" fill="none" stroke="#21313c" stroke-linecap="round" stroke-linejoin="round"/><polygon points="125.752 232.113 92.643 212.997 125.752 193.882 158.861 212.997 125.752 232.113" fill="none" stroke="#21313c" stroke-linecap="round" stroke-linejoin="round"/><polygon points="158.861 212.997 125.752 193.882 158.861 174.766 191.97 193.882 158.861 212.997" fill="none" stroke="#21313c" stroke-linecap="round" stroke-linejoin="round"/><polygon points="191.97 193.882 158.861 174.766 191.97 155.651 225.079 174.766 191.97 193.882" fill="none" stroke="#21313c" stroke-linecap="round" stroke-linejoin="round"/><polygon points="291.298 98.304 324.407 79.189 357.516 98.304 324.407 117.42 291.298 98.304" fill="none" stroke="#21313c" stroke-linecap="round" stroke-linejoin="round"/><polygon points="258.189 155.651 225.079 136.535 258.188 117.42 291.298 136.535 258.189 155.651" fill="none" stroke="#21313c" stroke-linecap="round" stroke-linejoin="round"/><polygon points="258.189 232.113 291.298 251.228 258.189 270.344 225.08 251.229 258.189 232.113" fill="none" stroke="#21313c" stroke-linecap="round" stroke-linejoin="round"/><polygon points="158.861 251.228 125.752 270.344 92.643 251.228 125.752 232.113 158.861 251.228" fill="none" stroke="#21313c" stroke-linecap="round" stroke-linejoin="round"/><polygon points="258.188 117.42 291.298 98.304 324.407 117.42 291.298 136.535 258.188 117.42" fill="none" stroke="#21313c" stroke-linecap="round" stroke-linejoin="round"/><polygon points="92.643 251.228 59.534 232.113 92.643 212.997 125.752 232.113 92.643 251.228" fill="none" stroke="#21313c" stroke-linecap="round" stroke-linejoin="round"/><polygon points="125.752 155.651 92.826 136.641 125.935 117.526 158.861 136.535 125.752 155.651" fill="none" stroke="#21313c" stroke-linecap="round" stroke-linejoin="round"/><polygon points="390.625 117.42 390.808 117.314 423.887 136.447 423.734 136.535 390.625 117.42" fill="none" stroke="#21313c" stroke-linecap="round" stroke-linejoin="round"/><polygon points="357.516 98.304 357.729 98.181 390.808 117.314 390.625 117.42 357.516 98.304" fill="none" stroke="#21313c" stroke-linecap="round" stroke-linejoin="round"/><polygon points="423.734 136.535 423.887 136.447 456.965 155.58 456.843 155.651 423.734 136.535" fill="none" stroke="#21313c" stroke-linecap="round" stroke-linejoin="round"/><polygon points="158.861 136.535 125.935 117.526 159.044 98.41 191.97 117.42 158.861 136.535" fill="none" stroke="#21313c" stroke-linecap="round" stroke-linejoin="round"/><polygon points="489.952 174.766 490.044 174.713 523.122 193.847 523.061 193.882 489.952 174.766" fill="none" stroke="#21313c" stroke-linecap="round" stroke-linejoin="round"/><polygon points="324.407 79.189 324.651 79.048 357.729 98.181 357.516 98.304 324.407 79.189" fill="none" stroke="#21313c" stroke-linecap="round" stroke-linejoin="round"/><polygon points="225.079 98.304 192.154 79.294 225.263 60.179 258.189 79.189 225.079 98.304" fill="none" stroke="#21313c" stroke-linecap="round" stroke-linejoin="round"/><polygon points="191.97 117.42 159.044 98.41 192.154 79.294 225.079 98.304 191.97 117.42" fill="none" stroke="#21313c" stroke-linecap="round" stroke-linejoin="round"/><polygon points="291.298 60.073 291.572 59.915 324.651 79.048 324.407 79.189 291.298 60.073" fill="none" stroke="#21313c" stroke-linecap="round" stroke-linejoin="round"/><polygon points="258.372 41.063 258.677 40.887 291.572 59.915 291.298 60.073 258.372 41.063" fill="none" stroke="#21313c" stroke-linecap="round" stroke-linejoin="round"/><polygon points="258.189 79.189 225.263 60.179 258.372 41.063 291.298 60.073 258.189 79.189" fill="none" stroke="#21313c" stroke-linecap="round" stroke-linejoin="round"/><polygon points="456.843 155.651 456.965 155.58 490.044 174.713 489.952 174.766 456.843 155.651" fill="none" stroke="#21313c" stroke-linecap="round" stroke-linejoin="round"/><polygon points="523.061 193.882 523.244 193.988 490.135 213.103 489.952 212.997 523.061 193.882" fill="none" stroke="#21313c" stroke-linecap="round" stroke-linejoin="round"/><polygon points="489.952 212.997 490.135 213.103 457.026 232.219 456.843 232.113 489.952 212.997" fill="none" stroke="#21313c" stroke-linecap="round" stroke-linejoin="round"/><polygon points="456.843 232.113 457.026 232.219 423.917 251.334 423.734 251.228 456.843 232.113" fill="none" stroke="#21313c" stroke-linecap="round" stroke-linejoin="round"/><polygon points="390.625 232.113 423.734 251.228 390.625 270.344 357.516 251.229 390.625 232.113" fill="none" stroke="#21313c" stroke-linecap="round" stroke-linejoin="round"/><polygon points="423.734 212.997 456.843 232.113 423.734 251.228 390.625 232.113 423.734 212.997" fill="none" stroke="#21313c" stroke-linecap="round" stroke-linejoin="round"/><polygon points="390.625 155.651 423.734 136.535 456.843 155.651 423.734 174.766 390.625 155.651" fill="none" stroke="#21313c" stroke-linecap="round" stroke-linejoin="round"/><polygon points="357.516 136.535 390.625 117.42 423.734 136.535 390.625 155.651 357.516 136.535" fill="none" stroke="#21313c" stroke-linecap="round" stroke-linejoin="round"/><polygon points="423.734 174.766 456.843 155.651 489.952 174.766 456.843 193.882 423.734 174.766" fill="none" stroke="#21313c" stroke-linecap="round" stroke-linejoin="round"/><polygon points="456.843 193.882 489.952 212.997 456.843 232.113 423.734 212.997 456.843 193.882" fill="none" stroke="#21313c" stroke-linecap="round" stroke-linejoin="round"/><polygon points="489.952 174.766 523.061 193.882 489.952 212.997 456.843 193.882 489.952 174.766" fill="none" stroke="#21313c" stroke-linecap="round" stroke-linejoin="round"/><polygon points="324.407 117.42 357.516 98.304 390.625 117.42 357.516 136.535 324.407 117.42" fill="none" stroke="#21313c" stroke-linecap="round" stroke-linejoin="round"/><polygon points="390.779 139.635 390.779 156.762 257.956 231.885 126.763 156.14 126.763 139.013 390.779 139.635" fill="#21313c" stroke="#0c1c27" stroke-linecap="round" stroke-linejoin="round"/><polygon points="257.956 63.268 390.779 139.635 257.956 214.757 126.763 139.013 257.956 63.268" fill="#21313c" stroke="#0c1c27" stroke-linecap="round" stroke-linejoin="round"/><line x1="257.95609" y1="214.75723" x2="257.95609" y2="231.88453" fill="#21313c" stroke="#0c1c27" stroke-linecap="round" stroke-linejoin="round"/><path d="M239.43568,128.72254h-11.2824l-34.98357-20.0563a3.12543,3.12543,0,0,0-2.8262,0l-34.74,20.0563H144.74079v6.85295h.01666a1.04653,1.04653,0,0,0,.571.72141l45.67827,26.188a3.125,3.125,0,0,0,2.8262-.00014l45.02421-25.99366a.9287.9287,0,0,0,.56185-.91559h.01666Z" stroke="#0c1c27" stroke-linecap="round" stroke-linejoin="round" fill="url(#linear-gradient)"/><path d="M238.848,128.00122a.86609.86609,0,0,1,.00922,1.637L193.833,155.632a3.12536,3.12536,0,0,1-2.82615,0l-45.67833-26.18788a.8661.8661,0,0,1-.0092-1.637l45.02427-25.99375a3.1254,3.1254,0,0,1,2.82614,0Z" stroke="#0c1c27" stroke-linecap="round" stroke-linejoin="round" fill="url(#linear-gradient-2)"/><path d="M185.03293,81.522v46.50912c0,2.47131,3.25362,4.4747,7.267,4.4747s7.267-2.00339,7.267-4.4747V81.522Z" stroke="#0c1c27" stroke-linecap="round" stroke-linejoin="round" fill="url(#linear-gradient-3)"/><path d="M241.91748,30.24291l-.09709.05687a57.62728,57.62728,0,0,0-9.03414-11.71112l-6.94975,6.94975a47.72557,47.72557,0,1,1-74.924,57.87368l-8.38641,4.89968a57.64451,57.64451,0,0,0,8.92815,11.60886l-.06406.06406a57.32184,57.32184,0,0,0,37.05948,16.72886c.03332.00215.06636.005.09953.007.70849.04338,1.41713.07067,2.12634.088.318.00877.63567.01911.95408.02284.431.00345.86159-.00287,1.29246-.00905.58425-.00646,1.16822-.01738,1.75305-.04179.17149-.00761.34269-.01925.51417-.02844a57.54817,57.54817,0,0,0,46.72815-86.50927Z" stroke="#0c1c27" stroke-linecap="round" stroke-linejoin="round" fill="url(#linear-gradient-4)"/><circle cx="192.08826" cy="59.2867" r="47.72723" stroke="#0c1c27" stroke-linecap="round" stroke-linejoin="round" fill="url(#linear-gradient-5)"/><circle cx="192.08825" cy="59.2867" r="47.72723" fill="url(#linear-gradient-6)"/><g clip-path="url(#clip-path-2)"><g id="Oac0GI"><path d="M192.17883,6.09c30.20745-.03507,53.916,23.536,53.97527,53.66224.05684,28.91-23.94643,52.97413-52.68117,53.12666-31.02407.16469-53.95208-24.17915-54.24254-52.8805A53.14847,53.14847,0,0,1,192.17883,6.09ZM145.23144,40.57487a12.44335,12.44335,0,0,0-.58907,1.28647,50.99566,50.99566,0,0,0,42.21485,68.38776A49.82884,49.82884,0,0,0,218.602,103.464a50.38923,50.38923,0,0,0,12.68244-10.479c1.45526-1.67724,1.71274-3.8718.42327-5.16327a4.78346,4.78346,0,0,1-1.22882-3.6568,4.73043,4.73043,0,0,0-.69407-2.71491c-1.09817-1.31124-1.24109-2.6232-.30393-3.84027,1.56139-2.02777.91152-3.729-.367-5.48261a4.87343,4.87343,0,0,1-.95841-1.55143c-.47685-2.02242-.832-4.07353-1.21489-6.02132-1.22092-.51857-2.58839-1.13813-3.98823-1.67293a3.14472,3.14472,0,0,0-1.58441-.2125c-1.82691.32417-3.65189.6876-5.447,1.154-1.568.4074-2.80511.34667-3.73908-1.25791a15.846,15.846,0,0,0-2.18867-2.4643c-1.92533-2.105-2.097-4.07973-.74282-6.67853a1.70875,1.70875,0,0,0-.37227-1.53762c-.86054-.84042-1.12526-1.535-.01844-2.31593,1.24995-.88191,2.55736-1.69251,3.73626-2.66021a3.0307,3.0307,0,0,0,1.04555-1.73016c.32684-2.35747,1.63048-3.50265,4.032-3.59789,1.30369-.0517,2.58822-.47682,3.89246-.6503,1.96661-.26158,3.94291-.45034,6.24615-.70693-.88168,2.93727.77523,3.47178,2.74451,3.8339a24.795,24.795,0,0,1,2.79021.88311,2.46068,2.46068,0,0,0,.6172.007l.487-2.04153c1.38927.5138,2.62328.99076,3.872,1.42553,1.0067.3505,2.03115.65005,3.04772.97221l.532-.69317c-1.42493-2.482-2.84984-4.964-4.52012-7.87339l-1.9564,3.89585a22.174,22.174,0,0,1-1.564-3.50247,4.20184,4.20184,0,0,0-4.77718-2.96632c.22543,1.55092.24615,1.51969,2.3139,2.89165.39732.26363.85018.94291.768,1.31918a2.95384,2.95384,0,0,1-1.09863,1.75911c-.3756.2388-1.14854-.14721-1.744-.2541l.10152-.43182,2.09553-.59255-4.84943-3.76152c-.43572.27423-1.01187.9417-1.44882.86047-2.20181-.40931-2.98975,1.3172-3.62647,2.62983-.91513,1.88657-2.26424,2.07385-3.99429,1.96808-2.2821-.13951-3.04153-.91439-2.85905-3.06673.14886-1.75586,1.0842-2.3939,3.23855-2.17658.54544.055,1.165.38557,1.59925.21177a1.5667,1.5667,0,0,0,.6288-1.30779,13.31519,13.31519,0,0,0-.6374-2.40809c2.60985-.50085,2.5305-.57648,4.17133-2.29758a5.38651,5.38651,0,0,1,2.544-1.15132,11.03324,11.03324,0,0,1,2.49073-.03745l-.31195-2.18181c-1.37738.36338-3.64735-.5547-4.07545-1.72395-.74932-2.04659,1.64589-1.82745,2.39258-2.98211-9.91521-8.377-21.16559-13.1185-34.23737-13.05874a50.049,50.049,0,0,0-28.21915,8.74837c2.9314-.03112,5.047,3.00242,8.09235,2.18884l.17755-.63521-2.80283-.72238c.38617-1.87949-1.42665-1.12678-2.5293-1.54651.40923-.33507.63694-.52458.86784-.71012,2.26792-1.8223,3.62124-1.75911,5.74637.14933a2.372,2.372,0,0,0,3.18151.12177,12.31727,12.31727,0,0,1,1.66854-.76457c-.67612,2.408-2.496,2.16052-4.14651,2.75564.349.599.86369,1.31806,1.2736,1.26258a27.70431,27.70431,0,0,0,4.40164-1.08021,1.60973,1.60973,0,0,0-.05679-1.24468c-1.037-.82353-.41985-1.28853.34621-1.407a18.57632,18.57632,0,0,1,3.00377-.04152,12.94634,12.94634,0,0,0-.75564,2.74576c-.01122.18305,1.11419.43576,2.14526.81369-.89154-2.7467.62115-3.15408,2.25885-3.69363,2.776-.9146,4.81821.80653,7.094,1.717.1816.07265.29366.36261.40043.57085.37383.72911.73118,1.46666,1.26483,2.54442l-4.01444,2.182-4.06068-.95563,3.49648-2.01471a3.77371,3.77371,0,0,0-5.069-.54361c-.68982.52791-1.44473.97079-2.17013,1.45221l.18265.14535L182.06,22.5909l-.84727-1.99449c-1.82717.97477-3.55758,1.83415-5.21363,2.81862-.52538.31232-1.29642,1.1316-1.18457,1.41778a4.46968,4.46968,0,0,0,1.599,1.98789,7.24821,7.24821,0,0,0,2.29331.59623l.375,2.71364.45132.22048c.40639-.50162.77891-1.0363,1.228-1.49628.52793-.54078,1.055-1.31113,1.70194-1.45907,1.31714-.30117,1.55892-.96507,1.56374-2.19222.0101-2.57627.81306-2.98916,3.29614-2.67368,1.87548.23828,2.07346,1.23861,1.706,3.05452l3.57872-1.2339c.23345,1.8174.30732,1.76261,1.8825,3.88586.30631.41289-.12712,1.46849-.39113,2.16226-.09985.26236-.68557.33984-1.02465.49043.15087,1.4054,2.83245.72419,1.96678,2.899l-3.42019-1.037.65224-2.04146c-1.38.08185-2.47424.225-3.561.18145a14.68278,14.68278,0,0,1-1.90313-.5c-.094-.01723-.45314.6248-.39436.68823a20.42008,20.42008,0,0,0,1.67038,1.46607c-.23624.10584-.6138.41006-.766.32251-1.73959-1.0005-2.34172.57371-3.26554,1.3979-.4423.3946-.82019.86535-1.281,1.23447a51.66744,51.66744,0,0,0-4.12087,3.277c-.95338.93961-1.3785,2.47267-2.40554,3.268-2.10192,1.62767-4.89127,2.63778-3.67072,6.43051l-.78035.00883L169.7815,45.9933l.3104-.4498c-1.21286,0-2.42616.021-3.63852-.00394-3.58674-.07369-5.42722,1.09746-6.88465,4.2618-.62857,1.36476-.75733,2.78854.35449,3.72985,1.11584.94472,2.5092.59664,3.71666-.30558.83288-.62232,1.75959-1.1191,2.64436-1.672l.4381.37725-.92355,3.04256,2.6511.66585.49666,4.52014c2.1264.5298,4.15908,1.38582,5.74868-1.052a2.93412,2.93412,0,0,1,4.53646-.07837c1.13485,1.56327,2.40537.92118,3.73781.69016.49159-.08524,1.17738-.26574,1.47115-.028.64578.52273,1.02534,1.36592,1.651,1.9243a3.98914,3.98914,0,0,0,1.986,1.145c2.40256.219,3.02106.6731,3.18724,3.22554a2.10315,2.10315,0,0,0,1.78711,2.20726c1.72.33836,3.4692.52609,5.19589.83436a3.91954,3.91954,0,0,1,1.75686.61186c.94867.77609,1.76248,1.717,2.87494,2.83469-.11432.32809-.16244,1.27416-.66017,1.75077-1.8717,1.79233-2.04255,4.068-2.19329,6.40735-.18309,2.84159-.9475,3.53348-3.86556,3.62652-1.64321.05239-2.65106,1.06731-2.15883,2.60289a4.118,4.118,0,0,1-1.19951,4.59989c-.68266.68653-1.12138,1.61077-1.77764,2.32965A11.5041,11.5041,0,0,1,188.576,96.028a25.98891,25.98891,0,0,1-3.73666,1.50911l1.61661,1.26279-1.46056,2.05682c.76448.32128,1.42017.59684,2.3165.97355-.5705,1.78286-.78851,3.683,1.40738,4.78945-.28173.38288-.501,1.0177-.85585,1.10564a3.739,3.739,0,0,1-4.01945-1.56184c-1.36293-1.87187-2.89031-3.82025-3.50844-5.97661-.50257-1.75322.37859-3.8842-1.34238-5.43144a1.0374,1.0374,0,0,1-.23154-.85506,8.59774,8.59774,0,0,0-.37727-5.15884c-.47381-1.29794-.119-2.90516-.10158-4.37418.04394-3.71221-.45143-4.4398-3.9236-5.84585a2.41289,2.41289,0,0,1-1.05636-.83226c-.83081-1.25-1.45339-2.659-2.39664-3.80957a5.56569,5.56569,0,0,1,.573-8.15446c.59488-.55442.67086-1.8042.73816-2.75164.08887-1.25124-.98949-1.1082-1.81388-1.23447-1.35106-.207-2.74863-.17754-3.6226-1.641a5.71266,5.71266,0,0,0-4.47663-2.8457c-.30594-.03294-.81751-.31915-.83471-.52207-.11831-1.396-.90193-1.12015-1.81635-.88015a4.45378,4.45378,0,0,1-5.84956-4.66523,1.6295,1.6295,0,0,0-.28672-.81139c-1.13394-1.92236-2.83339-3.57153-2.81679-6.05235.0014-.21068-.60356-.42541-.92683-.63826l-.57415.4206,2.56425,6.59634-.60178.41706a8.31831,8.31831,0,0,1-1.74347-1.26786,7.51685,7.51685,0,0,1-1.60919-5.31767,3.4074,3.4074,0,0,0-.77044-1.83139A25.71654,25.71654,0,0,0,145.23144,40.57487Z" stroke="#0c1c27" stroke-linecap="round" stroke-linejoin="round" fill="url(#linear-gradient-7)"/></g></g><circle cx="192.08822" cy="59.2867" r="47.72723" fill="none" stroke="#0c1c27" stroke-linecap="round" stroke-linejoin="round"/><rect x="353.79502" y="141.85303" width="1.76417" height="17.44979" stroke="#0c1c27" stroke-linecap="round" stroke-linejoin="round" fill="url(#linear-gradient-8)"/><path d="M354.92447,158.06712a.93555.93555,0,0,1,.01,1.76828l-48.63489,28.07826a3.376,3.376,0,0,1-3.05279,0l-69.96992-40.39715a.93556.93556,0,0,1-.00994-1.76829L281.90177,117.67a3.376,3.376,0,0,1,3.05278,0Z" stroke="#0c1c27" stroke-linecap="round" stroke-linejoin="round" fill="url(#linear-gradient-9)"/><path d="M353.17028,142.91989,306.29951,170.1638a3.37587,3.37587,0,0,1-3.05275,0l-68.72008-39.70558a1.07842,1.07842,0,0,1-.63471-.89034l-.01332,14.85426a1.07848,1.07848,0,0,0,.63476.89034l68.72,39.7056a3.376,3.376,0,0,0,3.05279,0l46.87073-27.2439a1.07,1.07,0,0,0,.62478-.87794L353.795,142.042A1.07,1.07,0,0,1,353.17028,142.91989Z" stroke="#0c1c27" stroke-linecap="round" stroke-linejoin="round" fill="url(#linear-gradient-10)"/><path d="M354.92447,141.33354a.93555.93555,0,0,1,.01,1.76828l-48.63489,28.07826a3.376,3.376,0,0,1-3.05279,0l-69.96992-40.39716a.93555.93555,0,0,1-.00994-1.76828l48.63489-28.07826a3.376,3.376,0,0,1,3.05278,0Z" stroke="#0c1c27" stroke-linecap="round" stroke-linejoin="round" fill="url(#linear-gradient-11)"/><path d="M234.51341,141.87188l68.72,39.7056a3.376,3.376,0,0,0,3.05279,0L353.157,154.33354" fill="none" stroke="#0c1c27" stroke-linecap="round" stroke-linejoin="round"/><polygon points="322.796 168.92 336.181 161.066 336.181 177.024 330.034 174.536 322.796 184.878 322.796 168.92" stroke="#0c1c27" stroke-linecap="round" stroke-linejoin="round" fill="url(#linear-gradient-12)"/><path d="M234.51341,135.45308l68.72,39.7056a3.376,3.376,0,0,0,3.05279,0L353.157,147.91474" fill="none" stroke="#0c1c27" stroke-linecap="round" stroke-linejoin="round"/><path d="M234.51341,138.66248l68.72,39.7056a3.376,3.376,0,0,0,3.05279,0L353.157,151.12414" fill="none" stroke="#0c1c27" stroke-linecap="round" stroke-linejoin="round"/><path d="M350.6481,125.93528a.82487.82487,0,0,1,.00878,1.55909L297.85837,157.4505a2.97664,2.97664,0,0,1-2.69164,0l-37.74306-22.12274a.82488.82488,0,0,1-.00877-1.5591l52.79851-29.95612a2.97662,2.97662,0,0,1,2.69163,0Z" stroke="#0c1c27" stroke-linecap="round" stroke-linejoin="round" fill="url(#linear-gradient-13)"/><path d="M349.10143,112.58l-51.24308,29.22047a2.97652,2.97652,0,0,1-2.69161,0l-36.64107-21.513a.95083.95083,0,0,1-.55963-.785l-.01174,13.097a.95087.95087,0,0,0,.55966.785l36.641,21.513a2.97669,2.97669,0,0,0,2.69165,0l51.243-29.22048a.94345.94345,0,0,0,.55087-.77408l.01171-13.097A.94349.94349,0,0,1,349.10143,112.58Z" stroke="#0c1c27" stroke-linecap="round" stroke-linejoin="round" fill="url(#linear-gradient-14)"/><path d="M350.6481,111.18126a.82487.82487,0,0,1,.00878,1.55909l-52.79851,29.95612a2.97661,2.97661,0,0,1-2.69164,0l-37.74306-22.12274a.82488.82488,0,0,1-.00877-1.5591l52.79851-29.95612a2.97662,2.97662,0,0,1,2.69163,0Z" stroke="#0c1c27" stroke-linecap="round" stroke-linejoin="round" fill="url(#linear-gradient-15)"/><path d="M326.04074,118.418a.72281.72281,0,0,1,.00769,1.36618l-24.4141,13.62875a2.60827,2.60827,0,0,1-2.35858,0l-26.82932-15.42835a.72281.72281,0,0,1-.00768-1.36618l24.4141-13.62875a2.60828,2.60828,0,0,1,2.35857,0Z" stroke="#0c1c27" stroke-linecap="round" stroke-linejoin="round" fill="url(#linear-gradient-16)"/><line x1="311.792" y1="100.49081" x2="328.59231" y2="110.36566" stroke="#0c1c27" stroke-linecap="round" stroke-linejoin="round" fill="url(#linear-gradient-17)"/><polygon points="297.175 157.703 351.208 127.025 351.208 111.639 297.175 143.007 297.175 157.703" stroke="#0c1c27" stroke-linecap="round" stroke-linejoin="round" fill="url(#linear-gradient-18)"/><path d="M258.514,130.35088l36.641,21.513a2.99577,2.99577,0,0,0,2.01986.2512" fill="none" stroke="#0c1c27" stroke-linecap="round" stroke-linejoin="round"/><polygon points="283.746 142.416 271.943 135.491 271.943 149.562 277.363 147.368 283.746 156.487 283.746 142.416" stroke="#0c1c27" stroke-linecap="round" stroke-linejoin="round" fill="url(#linear-gradient-19)"/><path d="M258.514,124.69141l36.641,21.513a2.99288,2.99288,0,0,0,2.0053.25433" fill="none" stroke="#0c1c27" stroke-linecap="round" stroke-linejoin="round"/><path d="M258.514,127.52115l36.641,21.513a2.99586,2.99586,0,0,0,2.01991.25119" fill="none" stroke="#0c1c27" stroke-linecap="round" stroke-linejoin="round"/><path d="M362.70466,83.92488a7.04741,7.04741,0,0,0,.6502,3.15359,3.8977,3.8977,0,0,0,1.757,1.82139l2.73528,1.49314.01948-.03217c-1.51251-.72082-2.45873-2.45854-2.45873-5.00719a11.60386,11.60386,0,0,1,.28974-2.53576c.88809-4.1576,3.79055-8.50187,7.23385-10.49059.02577-.01285.04509-.02573.07086-.03862a5.4698,5.4698,0,0,1,4.90427-.66288c-.77888-.4248-2.23326-1.20352-2.39415-1.27435a.02027.02027,0,0,0-.01289-.00644c-1.30007-.72722-3.05707-.64359-5.00074.40547h-.0066c-.0836.0515-.17379.09655-.26366.148a12.16438,12.16438,0,0,0-1.23566.83023c-.18666.14161-.37333.29606-.56.457q-.164.13512-.3284.28963c-.09019.09007-.18666.17374-.27654.26386a17.36845,17.36845,0,0,0-2.99266,3.90662c-.12884.22524-.25109.44408-.36076.66933-.14142.27674-.27654.55348-.39879.83026-.09019.19307-.17378.39258-.25109.5921a.43035.43035,0,0,0-.04494.11584,12.99879,12.99879,0,0,0-.4827,1.35153c-.02576.08367-.05153.16734-.0707.251-.06442.2124-.116.4248-.1675.63716A12.14535,12.14535,0,0,0,362.70466,83.92488Z" fill="#21313c" stroke="#0c1c27" stroke-linecap="round" stroke-linejoin="round"/><path d="M365.40789,85.35364c0,2.54865.94622,4.28637,2.45873,5.00719a.3201.3201,0,0,0,.08359.03217,1.97828,1.97828,0,0,0,.3218.12873.86113.86113,0,0,0,.17379.04506,2.672,2.672,0,0,0,.59834.12228,6.31591,6.31591,0,0,0,3.88734-.99116,11.41626,11.41626,0,0,0,1.57693-1.10052q.30876-.26069.61783-.54064a.27971.27971,0,0,1,.04509-.03861c.18651-.18019.37318-.36042.547-.547a15.23672,15.23672,0,0,0,1.11341-1.28075c.206-.27034.40555-.54064.59866-.81738.13513-.19307.27026-.39258.39894-.59854a.13432.13432,0,0,1,.02577-.03861c.12869-.2124.26382-.43124.39266-.65.02562-.04506.04494-.08367.07071-.12229.12869-.23812.25738-.47625.37978-.71438.07071-.13517.13513-.27033.19939-.40546.06443-.12873.12241-.25746.18023-.39259.18023-.39262.34757-.79165.48914-1.19711.05154-.13513.09663-.2703.14173-.40547.04494-.13513.09-.2703.12869-.40547.03849-.12869.07715-.26386.1158-.399.03221-.11584.06442-.22524.09-.33464a4.22893,4.22893,0,0,0,.10952-.47625c.032-.13517.05782-.27034.08359-.40547a11.02713,11.02713,0,0,0,.19311-1.564c.01289-.13513.01289-.27674.01289-.41187a1.68573,1.68573,0,0,0,.00644-.18023q0-.27027-.01933-.52131c0-.08367-.00644-.16734-.01288-.24457-.00644-.103-.01933-.206-.03221-.30891-.00645-.08367-.01933-.1609-.03206-.23813a7.1981,7.1981,0,0,0-.18666-.90105,1.72548,1.72548,0,0,0-.058-.16734,2.41523,2.41523,0,0,0-.10292-.30247,1.30435,1.30435,0,0,0-.09019-.21884,3.11725,3.11725,0,0,0-.15446-.33464,3.50324,3.50324,0,0,0-.38606-.61142c-.0451-.06439-.0902-.12873-.14173-.19307-.05783-.06439-.11581-.12873-.18007-.19311a3.03763,3.03763,0,0,0-.33468-.30892c-.07087-.0579-.14173-.11584-.21888-.16734a.22726.22726,0,0,0-.05154-.03217,2.65449,2.65449,0,0,0-.22516-.14157.64272.64272,0,0,0-.0902-.0515c-.06426-.03217-.13513-.07079-.20583-.103-.0066,0-.01289-.0064-.01933-.0064a5.4698,5.4698,0,0,0-4.90427.66288c-.02577.01289-.04509.02577-.07086.03862-3.4433,1.98872-6.34576,6.333-7.23385,10.49059A11.60386,11.60386,0,0,0,365.40789,85.35364Z" fill="#21313c" stroke="#0c1c27" stroke-linecap="round" stroke-linejoin="round"/><path d="M365.69763,82.81788l8.81078,5.77951q.30876-.26069.61783-.54064a.27971.27971,0,0,1,.04509-.03861c.18651-.18019.37318-.36042.547-.547.38622-.40547.75956-.83027,1.11341-1.28075.206-.27034.40555-.54064.59866-.81738.13513-.19307.27026-.39258.39894-.59854a.13432.13432,0,0,1,.02577-.03861c.12869-.2124.26382-.43124.39266-.65.02562-.04506.04494-.08367.07071-.12229.12869-.23812.25738-.47625.37978-.71438.07071-.13517.13513-.27033.19939-.40546.06443-.12873.12241-.25746.18023-.39259.18023-.39262.34757-.79165.48914-1.19711.05154-.13513.09663-.2703.14173-.40547.04494-.13513.09-.2703.12869-.40547.03849-.12869.07715-.26386.1158-.399.03221-.11584.06442-.22524.09-.33464a4.22893,4.22893,0,0,0,.10952-.47625c.032-.13517.05782-.27034.08359-.40547a13.3159,13.3159,0,0,0,.19311-1.564c.01289-.13513.01289-.27674.01289-.41187l-7.44-4.56311c-.02577.01289-.04509.02577-.07086.03862C369.48818,74.316,366.58572,78.66028,365.69763,82.81788Z" fill="#21313c" stroke="#0c1c27" stroke-linecap="round" stroke-linejoin="round"/><path d="M365.40789,85.35364c0,2.54865.94622,4.28637,2.45873,5.00719a.3201.3201,0,0,0,.08359.03217,1.97828,1.97828,0,0,0,.3218.12873.86113.86113,0,0,0,.17379.04506,2.672,2.672,0,0,0,.59834.12228,6.31591,6.31591,0,0,0,3.88734-.99116,11.41626,11.41626,0,0,0,1.57693-1.10052q.30876-.26069.61783-.54064a.27971.27971,0,0,1,.04509-.03861c.18651-.18019.37318-.36042.547-.547a15.23672,15.23672,0,0,0,1.11341-1.28075c.206-.27034.40555-.54064.59866-.81738.13513-.19307.27026-.39258.39894-.59854a.13432.13432,0,0,1,.02577-.03861c.12869-.2124.26382-.43124.39266-.65.02562-.04506.04494-.08367.07071-.12229.12869-.23812.25738-.47625.37978-.71438.07071-.13517.13513-.27033.19939-.40546.06443-.12873.12241-.25746.18023-.39259.18023-.39262.34757-.79165.48914-1.19711.05154-.13513.09663-.2703.14173-.40547.04494-.13513.09-.2703.12869-.40547.03849-.12869.07715-.26386.1158-.399.03221-.11584.06442-.22524.09-.33464a4.22893,4.22893,0,0,0,.10952-.47625c.032-.13517.05782-.27034.08359-.40547a11.02713,11.02713,0,0,0,.19311-1.564c.01289-.13513.01289-.27674.01289-.41187a1.68573,1.68573,0,0,0,.00644-.18023q0-.27027-.01933-.52131c0-.08367-.00644-.16734-.01288-.24457-.00644-.103-.01933-.206-.03221-.30891-.00645-.08367-.01933-.1609-.03206-.23813a7.1981,7.1981,0,0,0-.18666-.90105,1.72548,1.72548,0,0,0-.058-.16734,2.41523,2.41523,0,0,0-.10292-.30247,1.30435,1.30435,0,0,0-.09019-.21884,3.11725,3.11725,0,0,0-.15446-.33464,3.50324,3.50324,0,0,0-.38606-.61142c-.0451-.06439-.0902-.12873-.14173-.19307-.05783-.06439-.11581-.12873-.18007-.19311a3.03763,3.03763,0,0,0-.33468-.30892c-.07087-.0579-.14173-.11584-.21888-.16734a.22726.22726,0,0,0-.05154-.03217,2.65449,2.65449,0,0,0-.22516-.14157.64272.64272,0,0,0-.0902-.0515c-.06426-.03217-.13513-.07079-.20583-.103-.0066,0-.01289-.0064-.01933-.0064a5.4698,5.4698,0,0,0-4.90427.66288c-.02577.01289-.04509.02577-.07086.03862-3.4433,1.98872-6.34576,6.333-7.23385,10.49059A11.60386,11.60386,0,0,0,365.40789,85.35364Z" fill="#21313c" stroke="#0c1c27" stroke-linecap="round" stroke-linejoin="round"/><path d="M287.75908,233.36778a5.03747,5.03747,0,0,0,.46474,2.25412,2.786,2.786,0,0,0,1.25587,1.30189l1.95513,1.06727.01392-.023c-1.08111-.51523-1.75745-1.75732-1.75745-3.579a8.29456,8.29456,0,0,1,.2071-1.81251,12.04434,12.04434,0,0,1,5.17061-7.49847c.01842-.00918.03223-.01839.05065-.0276a3.9097,3.9097,0,0,1,3.50547-.47381c-.55673-.30364-1.59628-.86026-1.71129-.91088a.01449.01449,0,0,0-.00921-.0046,3.67825,3.67825,0,0,0-3.57443.28982h-.00472c-.05975.03681-.12422.069-.18846.10582a8.69469,8.69469,0,0,0-.88322.59343c-.13342.10122-.26685.21162-.40028.32663q-.11726.09657-.23473.207c-.06447.06438-.13342.12419-.19767.1886a12.41478,12.41478,0,0,0-2.13909,2.79238c-.09209.161-.17947.31742-.25786.47841-.10108.19781-.19767.39562-.28505.59346-.06447.138-.12422.28061-.17947.42322a.3076.3076,0,0,0-.03213.0828,9.29338,9.29338,0,0,0-.345.966c-.01842.05981-.03684.11961-.05054.17942-.04605.15181-.08288.30363-.11972.45542A8.6813,8.6813,0,0,0,287.75908,233.36778Z" fill="#21313c" stroke="#0c1c27" stroke-linecap="round" stroke-linejoin="round"/><path d="M289.69129,234.389c0,1.82172.67634,3.06381,1.75745,3.579a.22882.22882,0,0,0,.05975.023,1.41372,1.41372,0,0,0,.23.092.61543.61543,0,0,0,.12421.03221,1.91014,1.91014,0,0,0,.42769.08741,4.51452,4.51452,0,0,0,2.77859-.70847,8.15962,8.15962,0,0,0,1.12716-.78663q.2207-.18632.44161-.38643a.19989.19989,0,0,1,.03223-.0276c.13331-.1288.26674-.25762.391-.391a10.89173,10.89173,0,0,0,.79584-.91545c.14724-.19323.28988-.38644.42791-.58425.09658-.138.19317-.28061.28516-.42782a.09587.09587,0,0,1,.01841-.0276c.092-.15182.18858-.30824.28067-.46463.01831-.03221.03212-.05981.05054-.08741.092-.17021.184-.34042.27146-.51063.05054-.09661.09659-.19323.14252-.28982.04605-.092.08749-.184.12882-.28061.12883-.28064.24844-.56585.34963-.85567.03684-.09659.06907-.19321.10131-.28982s.06435-.19321.092-.28982c.02752-.092.05514-.1886.08277-.28522.023-.0828.046-.161.06436-.23919a3.0243,3.0243,0,0,0,.07828-.34042c.02291-.09662.04133-.19323.05975-.28982a7.882,7.882,0,0,0,.138-1.1179c.00921-.09658.00921-.1978.00921-.29439a1.20576,1.20576,0,0,0,.0046-.12882q0-.1932-.01381-.37263c0-.0598-.00461-.11961-.00921-.17481-.0046-.07359-.01381-.14721-.023-.2208-.00461-.05981-.01382-.115-.02292-.17021a5.14561,5.14561,0,0,0-.13342-.644,1.23522,1.23522,0,0,0-.04144-.11962,1.72535,1.72535,0,0,0-.07357-.2162.93217.93217,0,0,0-.06447-.15642,2.22758,2.22758,0,0,0-.1104-.23919,2.50392,2.50392,0,0,0-.276-.437c-.03223-.046-.06446-.092-.1013-.138-.04133-.046-.08278-.092-.12871-.138a2.1697,2.1697,0,0,0-.23923-.22081c-.05065-.04138-.1013-.0828-.15645-.11961a.16217.16217,0,0,0-.03683-.023,1.90075,1.90075,0,0,0-.161-.1012.4603.4603,0,0,0-.06446-.03681c-.04594-.023-.09659-.05059-.14713-.07362-.00472,0-.00921-.00457-.01382-.00457a3.9097,3.9097,0,0,0-3.50547.47381c-.01842.00921-.03223.01842-.05065.0276a12.04434,12.04434,0,0,0-5.17061,7.49847A8.29456,8.29456,0,0,0,289.69129,234.389Z" fill="#21313c" stroke="#0c1c27" stroke-linecap="round" stroke-linejoin="round"/><path d="M289.89839,232.57652l6.29777,4.13107q.2207-.18632.44161-.38643a.19989.19989,0,0,1,.03223-.0276c.13331-.1288.26674-.25762.391-.391.27606-.28982.54291-.59345.79584-.91545.14724-.19323.28988-.38644.42791-.58425.09658-.138.19317-.28061.28516-.42782a.09587.09587,0,0,1,.01841-.0276c.092-.15182.18858-.30824.28067-.46463.01831-.03221.03212-.05981.05054-.08741.092-.17021.184-.34042.27146-.51063.05054-.09661.09659-.19323.14252-.28982.04605-.092.08749-.184.12882-.28061.12883-.28064.24844-.56585.34963-.85567.03684-.09659.06907-.19321.10131-.28982s.06435-.19321.092-.28982c.02752-.092.05514-.1886.08277-.28522.023-.0828.046-.161.06436-.23919a3.0243,3.0243,0,0,0,.07828-.34042c.02291-.09662.04133-.19323.05975-.28982a9.51785,9.51785,0,0,0,.138-1.1179c.00921-.09658.00921-.1978.00921-.29439l-5.318-3.26162c-.01842.00921-.03223.01842-.05065.0276A12.04434,12.04434,0,0,0,289.89839,232.57652Z" fill="#21313c" stroke="#0c1c27" stroke-linecap="round" stroke-linejoin="round"/><path d="M289.69129,234.389c0,1.82172.67634,3.06381,1.75745,3.579a.22882.22882,0,0,0,.05975.023,1.41372,1.41372,0,0,0,.23.092.61543.61543,0,0,0,.12421.03221,1.91014,1.91014,0,0,0,.42769.08741,4.51452,4.51452,0,0,0,2.77859-.70847,8.15962,8.15962,0,0,0,1.12716-.78663q.2207-.18632.44161-.38643a.19989.19989,0,0,1,.03223-.0276c.13331-.1288.26674-.25762.391-.391a10.89173,10.89173,0,0,0,.79584-.91545c.14724-.19323.28988-.38644.42791-.58425.09658-.138.19317-.28061.28516-.42782a.09587.09587,0,0,1,.01841-.0276c.092-.15182.18858-.30824.28067-.46463.01831-.03221.03212-.05981.05054-.08741.092-.17021.184-.34042.27146-.51063.05054-.09661.09659-.19323.14252-.28982.04605-.092.08749-.184.12882-.28061.12883-.28064.24844-.56585.34963-.85567.03684-.09659.06907-.19321.10131-.28982s.06435-.19321.092-.28982c.02752-.092.05514-.1886.08277-.28522.023-.0828.046-.161.06436-.23919a3.0243,3.0243,0,0,0,.07828-.34042c.02291-.09662.04133-.19323.05975-.28982a7.882,7.882,0,0,0,.138-1.1179c.00921-.09658.00921-.1978.00921-.29439a1.20576,1.20576,0,0,0,.0046-.12882q0-.1932-.01381-.37263c0-.0598-.00461-.11961-.00921-.17481-.0046-.07359-.01381-.14721-.023-.2208-.00461-.05981-.01382-.115-.02292-.17021a5.14561,5.14561,0,0,0-.13342-.644,1.23522,1.23522,0,0,0-.04144-.11962,1.72535,1.72535,0,0,0-.07357-.2162.93217.93217,0,0,0-.06447-.15642,2.22758,2.22758,0,0,0-.1104-.23919,2.50392,2.50392,0,0,0-.276-.437c-.03223-.046-.06446-.092-.1013-.138-.04133-.046-.08278-.092-.12871-.138a2.1697,2.1697,0,0,0-.23923-.22081c-.05065-.04138-.1013-.0828-.15645-.11961a.16217.16217,0,0,0-.03683-.023,1.90075,1.90075,0,0,0-.161-.1012.4603.4603,0,0,0-.06446-.03681c-.04594-.023-.09659-.05059-.14713-.07362-.00472,0-.00921-.00457-.01382-.00457a3.9097,3.9097,0,0,0-3.50547.47381c-.01842.00921-.03223.01842-.05065.0276a12.04434,12.04434,0,0,0-5.17061,7.49847A8.29456,8.29456,0,0,0,289.69129,234.389Z" fill="#21313c" stroke="#0c1c27" stroke-linecap="round" stroke-linejoin="round"/><path d="M109.34945,90.952a10.8738,10.8738,0,0,1,.31749-1.176c-.00419.103-.00859.206-.00859.309a3.77542,3.77542,0,0,0,.17184,1.18027l.00419.00429a1.88714,1.88714,0,0,0,1.96152,1.42491,1.92715,1.92715,0,0,0,2.40768,1.43776,3.75409,3.75409,0,0,0,1.10293-.43778,8.09753,8.09753,0,0,0,3.66108-6.34336c0-1.66954-.84119-2.63092-2.06442-2.60946a6.09813,6.09813,0,0,1,.07293.90557,3.77883,3.77883,0,0,0-.14166-.90128,2.0814,2.0814,0,0,0-.9443-1.2661,2.44421,2.44421,0,0,0-2.31756.12445,9.86084,9.86084,0,0,1,1.73393-1.28756c.02137-.01286.03856-.02145.06014-.03431a4.517,4.517,0,0,1,4.03851-.54078c.07313.03434.14606.06866.21459.103a.09731.09731,0,0,0,.02158.01289,2.42508,2.42508,0,0,1,.22319.14161c.06434.04293.12448.08584.18442.133a3.217,3.217,0,0,1,.75987.87555c.04275.073.08571.14591.12427.22316a2.46367,2.46367,0,0,1,.13308.28758,3.9146,3.9146,0,0,1,.20181.5708,5.72879,5.72879,0,0,1,.16744.80687c.02137.1545.03856.31759.04715.485a.09379.09379,0,0,1,0,.03434,1.12131,1.12131,0,0,1,.00859.17166c.00859.09873.00859.20173.00859.30473,0,.0515,0,.09871-.0044.15024q0,.16094-.01278.32189c-.0044.073-.00859.1502-.01718.22745,0,.04291-.0044.08584-.0086.12875-.00859.09873-.01718.19744-.03017.29184v.0086c-.02557.21459-.05994.43348-.1029.65237-.03.16309-.06433.33045-.10289.49784-.03018.133-.06455.2618-.09892.39485-.03416.133-.06853.26182-.11149.39057-.06873.23605-.14585.4721-.236.70814q-.05814.15455-.11588.309c-.04737.11589-.09452.236-.14167.35194-.09451.21889-.18882.43348-.29192.64807-.05155.1116-.1073.21889-.163.32619s-.11149.21459-.16744.31759c-.05575.1073-.11589.2103-.17583.3176-.12029.21459-.25336.42918-.38643.63948-.05994.09441-.12008.18455-.18023.27469q-.1031.14805-.206.29614c-.06853.0987-.13726.19313-.206.28754-.14166.18885-.28752.37769-.43778.56224l-.21878.2575c-.01719.01718-.03018.03864-.04736.05579-.06434.073-.12868.14594-.19741.21889-.07712.08585-.15864.16739-.236.25323a3.32425,3.32425,0,0,1-.24456.24464c-.16325.1588-.33069.3176-.49793.46351l-.25755.21889a9.20226,9.20226,0,0,1-1.29615.90987,5.082,5.082,0,0,1-3.38634.78971,1.111,1.111,0,0,1-.11589-.02145,3.11179,3.11179,0,0,1-.66515-.22319c-1.2446-.588-2.02565-2.02147-2.02565-4.12018A9.868,9.868,0,0,1,109.34945,90.952Z" fill="#21313c" stroke="#0c1c27" stroke-linecap="round" stroke-linejoin="round"/><path d="M106.89441,91.8662a5.82021,5.82021,0,0,0,.53229,2.5966,3.20606,3.20606,0,0,0,1.4462,1.49786l2.249,1.22746.01719-.02575c-1.2446-.588-2.02565-2.02147-2.02565-4.12018a9.868,9.868,0,0,1,.236-2.09016,10.8738,10.8738,0,0,1,.31749-1.176,14.62415,14.62415,0,0,1,3.90564-6.17171,9.86084,9.86084,0,0,1,1.73393-1.28756c.02137-.01286.03856-.02145.06014-.03431a4.517,4.517,0,0,1,4.03851-.54078c-.65657-.35623-1.884-1.02147-1.97409-1.05581a4.26813,4.26813,0,0,0-4.12883.33478c-.07293.03861-.14585.07725-.21878.12016-.1117.06439-.22759.133-.33908.206-.09451.06007-.189.12446-.28333.18885-.05155.03431-.1031.073-.15465.11156-.08132.0558-.15864.11589-.236.176-.18023.13734-.36045.28325-.53209.43775-.0987.08154-.19321.16739-.28773.25753a12.57112,12.57112,0,0,0-1.24879,1.35621c-.06873.08585-.14166.17169-.206.26183-.206.26609-.40341.54075-.588.824-.05575.08584-.11149.16739-.163.2532a12.73873,12.73873,0,0,0-.7339,1.28756c-.06454.12448-.12448.24894-.18462.37769-.03437.06439-.06434.133-.09451.20173-.03856.08584-.07712.17166-.11568.2618a14.1029,14.1029,0,0,0-.65678,1.87554c-.02577.103-.05155.2103-.07292.3133A10.13893,10.13893,0,0,0,106.89441,91.8662Z" fill="#21313c" stroke="#0c1c27" stroke-linecap="round" stroke-linejoin="round"/><path d="M109.34945,90.952l.48074.31333.00419.00429c-.11149-.34337.54068-.46782.54068-.91846a8.1989,8.1989,0,0,1,3.81992-6.30475,3.196,3.196,0,0,1,1.69516-.56653.90089.90089,0,0,1,.468.16309l.43338-.485-1.42483-.87553c-.02158.01286-.03877.02145-.06014.03431a9.86084,9.86084,0,0,0-1.73393,1.28756,14.62415,14.62415,0,0,0-3.90564,6.17171A10.8738,10.8738,0,0,0,109.34945,90.952Z" fill="#21313c" stroke="#0c1c27" stroke-linecap="round" stroke-linejoin="round"/><path d="M107.18214,89.53143h.0042c.02137-.103.04715-.2103.07292-.3133C107.23349,89.32113,107.20771,89.42843,107.18214,89.53143Z" fill="#21313c" stroke="#0c1c27" stroke-linecap="round" stroke-linejoin="round"/><path d="M111.7959,92.69456a1.92715,1.92715,0,0,0,2.40768,1.43776,3.75409,3.75409,0,0,0,1.10293-.43778,8.09753,8.09753,0,0,0,3.66108-6.34336c0-1.66954-.84119-2.63092-2.06442-2.60946a6.09813,6.09813,0,0,1,.07293.90557c.00419.06869.00419.13735.00419.2103a8.08955,8.08955,0,0,1-3.66086,6.33909c-.08152.04721-.15885.09014-.24037.133a3.96328,3.96328,0,0,1-.56226.22748c-.07293.02146-.14586.04291-.21879.06007a.79426.79426,0,0,1-.16325.03434.9465.9465,0,0,1-.14585.02575A1.60914,1.60914,0,0,1,111.7959,92.69456Z" fill="#21313c" stroke="#0c1c27" stroke-linecap="round" stroke-linejoin="round"/><path d="M115.30651,93.69454a3.75409,3.75409,0,0,1-1.10293.43778l2.39908,1.57511.25755-.21889c.16724-.14591.33468-.30471.49793-.46351a3.32425,3.32425,0,0,0,.24456-.24464c.07733-.08584.15885-.16738.236-.25323.06873-.07295.13307-.14591.19741-.21889.01718-.01715.03017-.03861.04736-.05579l.21878-.2575c.15026-.18455.29612-.37339.43778-.56224.06874-.09441.13747-.18884.206-.28754q.10311-.14811.206-.29614c.06015-.09014.12029-.18028.18023-.27469.13307-.2103.26614-.42489.38643-.63948.05994-.1073.12008-.2103.17583-.3176.05595-.103.11169-.21029.16744-.31759s.11149-.21459.163-.32619c.1031-.21459.19741-.42918.29192-.64807.04715-.11589.0943-.23605.14167-.35194q.05784-.1545.11588-.309c.09012-.236.16724-.47209.236-.70814.043-.12875.07733-.25753.11149-.39057.03437-.133.06874-.2618.09892-.39485.03856-.16739.07292-.33475.10289-.49784.043-.21889.07733-.43778.1029-.65237v-.0086c.013-.0944.02158-.19311.03017-.29184.0042-.04291.0086-.08584.0086-.12875.00859-.07725.01278-.1545.01718-.22745q.01288-.16095.01278-.32189L116.79148,83.158l-.43338.485a1.62766,1.62766,0,0,1,.54067,1.09872h.0044c1.22323-.02146,2.06442.93992,2.06442,2.60946A8.09753,8.09753,0,0,1,115.30651,93.69454Z" fill="#21313c" stroke="#0c1c27" stroke-linecap="round" stroke-linejoin="round"/><path d="M111.98031,92.67307l.0086.0043a.9465.9465,0,0,0,.14585-.02575C112.08342,92.66021,112.03187,92.66878,111.98031,92.67307Z" fill="#21313c" stroke="#0c1c27" stroke-linecap="round" stroke-linejoin="round"/><path d="M109.34945,90.952a10.8738,10.8738,0,0,1,.31749-1.176,14.62415,14.62415,0,0,1,3.90564-6.17171,9.86084,9.86084,0,0,1,1.73393-1.28756c.02137-.01286.03856-.02145.06014-.03431a4.517,4.517,0,0,1,4.03851-.54078c.07313.03434.14606.06866.21459.103a.09731.09731,0,0,0,.02158.01289,2.42508,2.42508,0,0,1,.22319.14161c.06434.04293.12448.08584.18442.133a3.217,3.217,0,0,1,.75987.87555c.04275.073.08571.14591.12427.22316a2.46367,2.46367,0,0,1,.13308.28758,3.9146,3.9146,0,0,1,.20181.5708,5.72879,5.72879,0,0,1,.16744.80687c.02137.1545.03856.31759.04715.485a.09379.09379,0,0,1,0,.03434,1.12131,1.12131,0,0,1,.00859.17166c.00859.09873.00859.20173.00859.30473,0,.0515,0,.09871-.0044.15024q0,.16094-.01278.32189c-.0044.073-.00859.1502-.01718.22745,0,.04291-.0044.08584-.0086.12875-.00859.09873-.01718.19744-.03017.29184v.0086c-.02557.21459-.05994.43348-.1029.65237-.03.16309-.06433.33045-.10289.49784-.03018.133-.06455.2618-.09892.39485-.03416.133-.06853.26182-.11149.39057-.06873.23605-.14585.4721-.236.70814q-.05814.15455-.11588.309c-.04737.11589-.09452.236-.14167.35194-.09451.21889-.18882.43348-.29192.64807-.05155.1116-.1073.21889-.163.32619s-.11149.21459-.16744.31759c-.05575.1073-.11589.2103-.17583.3176-.12029.21459-.25336.42918-.38643.63948-.05994.09441-.12008.18455-.18023.27469q-.1031.14805-.206.29614c-.06853.0987-.13726.19313-.206.28754-.14166.18885-.28752.37769-.43778.56224l-.21878.2575c-.01719.01718-.03018.03864-.04736.05579-.06434.073-.12868.14594-.19741.21889-.07712.08585-.15864.16739-.236.25323a3.32425,3.32425,0,0,1-.24456.24464c-.16325.1588-.33069.3176-.49793.46351l-.25755.21889a9.20226,9.20226,0,0,1-1.29615.90987,5.082,5.082,0,0,1-3.38634.78971,1.111,1.111,0,0,1-.11589-.02145,3.11179,3.11179,0,0,1-.66515-.22319c-1.2446-.588-2.02565-2.02147-2.02565-4.12018A9.868,9.868,0,0,1,109.34945,90.952Zm4.85413,3.18029a3.75409,3.75409,0,0,0,1.10293-.43778,8.09753,8.09753,0,0,0,3.66108-6.34336c0-1.66954-.84119-2.63092-2.06442-2.60946h-.0044a.34719.34719,0,0,0-.06433.00429,3.37517,3.37517,0,0,0-1.52793.49355,8.08962,8.08962,0,0,0-3.66087,6.33909,3.85054,3.85054,0,0,0,.15026,1.11591A1.92715,1.92715,0,0,0,114.20358,94.13232Z" fill="#21313c" stroke="#0c1c27" stroke-linecap="round" stroke-linejoin="round"/></g></svg>