<svg id="dh_-_speakers" data-name="dh - speakers" xmlns="http://www.w3.org/2000/svg" xmlns:xlink="http://www.w3.org/1999/xlink" viewBox="0 0 140 200"><defs><linearGradient id="linear-gradient" x1="66.47458" y1="93.23102" x2="129.5015" y2="93.23102" gradientUnits="userSpaceOnUse"><stop offset="0" stop-color="#0ad05b"/><stop offset="1" stop-color="#7accda"/></linearGradient><linearGradient id="linear-gradient-2" x1="66.4665" y1="103.41314" x2="129.50149" y2="103.41314" gradientUnits="userSpaceOnUse"><stop offset="0" stop-color="#7dc5db"/><stop offset="0.49537" stop-color="#0ad05b"/><stop offset="0.72845" stop-color="#7accda"/><stop offset="1" stop-color="#0ad05b"/></linearGradient><linearGradient id="linear-gradient-3" x1="35.27106" y1="70.99663" x2="80.53322" y2="70.99663" xlink:href="#linear-gradient"/><linearGradient id="linear-gradient-4" x1="11.37949" y1="82.37388" x2="92.22215" y2="82.37388" xlink:href="#linear-gradient"/><linearGradient id="linear-gradient-5" x1="11.37141" y1="99.47642" x2="92.22213" y2="99.47642" xlink:href="#linear-gradient-2"/><linearGradient id="linear-gradient-6" x1="97.984" y1="58.43198" x2="129.40344" y2="58.43198" gradientUnits="userSpaceOnUse"><stop offset="0" stop-color="#7accda"/><stop offset="1" stop-color="#0ad05b"/></linearGradient><linearGradient id="linear-gradient-7" x1="99.77887" y1="35.90542" x2="136.74602" y2="72.87257" gradientUnits="userSpaceOnUse"><stop offset="0" stop-color="#0ad05b"/><stop offset="0.57769" stop-color="#7accda"/><stop offset="0.59129" stop-color="#6bcdc9"/><stop offset="0.62696" stop-color="#48cea2"/><stop offset="0.6622" stop-color="#2dcf83"/><stop offset="0.69643" stop-color="#1acf6d"/><stop offset="0.7292" stop-color="#0ed060"/><stop offset="0.75891" stop-color="#0ad05b"/><stop offset="1" stop-color="#7dc5db"/></linearGradient><linearGradient id="linear-gradient-8" x1="77.57026" y1="86.67829" x2="78.25021" y2="86.67829" gradientUnits="userSpaceOnUse"><stop offset="0" stop-color="#d24f93"/><stop offset="1" stop-color="#f87216"/></linearGradient><linearGradient id="linear-gradient-9" x1="29.93421" y1="87.81801" x2="78.25021" y2="87.81801" gradientUnits="userSpaceOnUse"><stop offset="0" stop-color="#f87216"/><stop offset="1" stop-color="#d24f93"/></linearGradient><linearGradient id="linear-gradient-10" x1="31.35141" y1="89.33675" x2="77.57026" y2="89.33675" xlink:href="#linear-gradient"/><linearGradient id="linear-gradient-11" x1="30.87481" y1="81.08203" x2="78.25021" y2="81.08203" xlink:href="#linear-gradient-9"/><linearGradient id="linear-gradient-12" x1="65.62225" y1="94.55381" x2="70.78145" y2="94.55381" gradientUnits="userSpaceOnUse"><stop offset="0" stop-color="#7accda"/><stop offset="0.99796" stop-color="#6e60f9"/></linearGradient><linearGradient id="linear-gradient-13" x1="437.49973" y1="82.35" x2="461.3566" y2="82.35" gradientTransform="matrix(-1, 0, 0, 1, 506.81196, 0)" xlink:href="#linear-gradient-8"/><linearGradient id="linear-gradient-14" x1="454.91356" y1="76.76642" x2="462.25762" y2="76.76642" gradientTransform="matrix(-1, 0, 0, 1, 506.81196, 0)" xlink:href="#linear-gradient-9"/></defs><polygon points="102.466 110.061 102.561 140.582 99.526 142.242 99.431 111.721 102.466 110.061" fill="#21313c" stroke="#0c1c27" stroke-linecap="round" stroke-linejoin="round"/><polygon points="99.526 142.242 96.586 140.533 96.517 110.028 99.431 111.721 99.526 142.242" fill="#21313c" stroke="#0c1c27" stroke-linecap="round" stroke-linejoin="round"/><polygon points="96.491 110.004 99.431 111.712 102.466 110.052 99.526 108.344 96.491 110.004" fill="#21313c" stroke="#0c1c27" stroke-linecap="round" stroke-linejoin="round"/><polygon points="129.406 94.07 129.502 124.59 126.467 126.25 126.371 95.729 129.406 94.07" fill="#21313c" stroke="#0c1c27" stroke-linecap="round" stroke-linejoin="round"/><polygon points="126.467 126.25 123.527 124.542 123.458 94.036 126.371 95.729 126.467 126.25" fill="#21313c" stroke="#0c1c27" stroke-linecap="round" stroke-linejoin="round"/><polygon points="123.432 94.012 126.371 95.72 129.406 94.061 126.467 92.352 123.432 94.012" fill="#21313c" stroke="#0c1c27" stroke-linecap="round" stroke-linejoin="round"/><polygon points="125.651 54.046 125.746 92.401 124.228 93.231 124.133 54.876 125.651 54.046" fill="#21313c" stroke="#0c1c27" stroke-linecap="round" stroke-linejoin="round"/><polygon points="124.228 93.231 121.288 91.523 121.22 53.183 124.133 54.876 124.228 93.231" fill="#21313c" stroke="#0c1c27" stroke-linecap="round" stroke-linejoin="round"/><polygon points="108.13 47.46 108.225 85.815 106.708 86.644 106.613 48.29 108.13 47.46" fill="#21313c" stroke="#0c1c27" stroke-linecap="round" stroke-linejoin="round"/><polygon points="106.708 86.644 103.768 84.936 103.699 46.597 106.613 48.29 106.708 86.644" fill="#21313c" stroke="#0c1c27" stroke-linecap="round" stroke-linejoin="round"/><polygon points="65.139 111.218 65.234 162.499 62.199 164.158 62.104 112.878 65.139 111.218" fill="#21313c" stroke="#0c1c27" stroke-linecap="round" stroke-linejoin="round"/><polygon points="62.199 164.158 59.259 162.45 59.19 111.185 62.104 112.878 62.199 164.158" fill="#21313c" stroke="#0c1c27" stroke-linecap="round" stroke-linejoin="round"/><polygon points="59.164 111.16 62.104 112.869 65.139 111.209 62.199 109.5 59.164 111.16" fill="#21313c" stroke="#0c1c27" stroke-linecap="round" stroke-linejoin="round"/><polygon points="17.354 83.439 17.449 134.72 14.414 136.38 14.319 85.099 17.354 83.439" fill="#21313c" stroke="#0c1c27" stroke-linecap="round" stroke-linejoin="round"/><polygon points="14.414 136.38 11.475 134.672 11.406 83.406 14.319 85.099 14.414 136.38" fill="#21313c" stroke="#0c1c27" stroke-linecap="round" stroke-linejoin="round"/><polygon points="11.379 83.382 14.319 85.09 17.354 83.43 14.414 81.722 11.379 83.382" fill="#21313c" stroke="#0c1c27" stroke-linecap="round" stroke-linejoin="round"/><polygon points="44.281 67.296 44.377 118.577 41.342 120.237 41.247 68.956 44.281 67.296" fill="#21313c" stroke="#0c1c27" stroke-linecap="round" stroke-linejoin="round"/><polygon points="41.342 120.237 38.402 118.529 38.333 67.263 41.247 68.956 41.342 120.237" fill="#21313c" stroke="#0c1c27" stroke-linecap="round" stroke-linejoin="round"/><polygon points="38.307 67.239 41.247 68.947 44.281 67.287 41.342 65.579 38.307 67.239" fill="#21313c" stroke="#0c1c27" stroke-linecap="round" stroke-linejoin="round"/><path d="M129.11662,93.48915a.5673.5673,0,0,1,.006,1.07225l-28.85007,16.76583a2.04711,2.04711,0,0,1-1.85115,0L66.85946,92.9729a.5673.5673,0,0,1-.006-1.07226L95.70351,75.13481a2.04712,2.04712,0,0,1,1.85114,0Z" stroke="#0c1c27" stroke-linecap="round" stroke-linejoin="round" fill="url(#linear-gradient)"/><path d="M129.12266,94.5614l-28.85009,16.76583a2.04709,2.04709,0,0,1-1.85114,0l-31.562-18.35435a.65391.65391,0,0,1-.38488-.53988l-.00808,2.84483a.654.654,0,0,0,.38491.53989l31.56195,18.35436a2.04716,2.04716,0,0,0,1.85116,0l28.85006-16.76583a.64887.64887,0,0,0,.37886-.53237l.008-2.84483A.64883.64883,0,0,1,129.12266,94.5614Z" stroke="#0c1c27" stroke-linecap="round" stroke-linejoin="round" fill="url(#linear-gradient-2)"/><path d="M80.15438,61.34688,51.3043,78.11271a2.04709,2.04709,0,0,1-1.85114,0L35.664,70.1118a.654.654,0,0,1-.38489-.53989l-.00807,2.84483a.654.654,0,0,0,.38491.53989l13.78912,8.00093a2.04714,2.04714,0,0,0,1.85115,0L80.14631,64.19171a.64885.64885,0,0,0,.37886-.53237l.008-2.84483A.64887.64887,0,0,1,80.15438,61.34688Z" stroke="#0c1c27" stroke-linecap="round" stroke-linejoin="round" fill="url(#linear-gradient-3)"/><polygon points="92.066 95.075 92.161 146.356 89.126 148.016 89.031 96.735 92.066 95.075" fill="#21313c" stroke="#0c1c27" stroke-linecap="round" stroke-linejoin="round"/><polygon points="89.126 148.016 86.186 146.307 86.118 95.042 89.031 96.735 89.126 148.016" fill="#21313c" stroke="#0c1c27" stroke-linecap="round" stroke-linejoin="round"/><polygon points="86.091 95.017 89.031 96.726 92.066 95.066 89.126 93.358 86.091 95.017" fill="#21313c" stroke="#0c1c27" stroke-linecap="round" stroke-linejoin="round"/><path d="M91.83728,94.63595,57.24971,74.6576,80.15438,61.34684a.56727.56727,0,0,0-.006-1.0722l-13.78915-8.001a2.04726,2.04726,0,0,0-1.85115,0L40.90725,65.989a1.49338,1.49338,0,0,0-.29884.12556L11.75834,82.88037a.5673.5673,0,0,0,.006,1.07225L61.142,112.47406a2.04724,2.04724,0,0,0,1.8512,0L91.8433,95.70825A.56734.56734,0,0,0,91.83728,94.63595Z" stroke="#0c1c27" stroke-linecap="round" stroke-linejoin="round" fill="url(#linear-gradient-4)"/><path d="M91.8433,95.70824,62.99321,112.47407a2.04709,2.04709,0,0,1-1.85114,0L11.76437,83.95262a.65394.65394,0,0,1-.38488-.53989l-.00807,2.84483a.65393.65393,0,0,0,.3849.53989L61.134,115.31893a2.04719,2.04719,0,0,0,1.85116,0L91.83522,98.55308a.64885.64885,0,0,0,.37886-.53237l.00805-2.84484A.64884.64884,0,0,1,91.8433,95.70824Z" stroke="#0c1c27" stroke-linecap="round" stroke-linejoin="round" fill="url(#linear-gradient-5)"/><g style="isolation:isolate"><path d="M128.47841,54.19706a2.047,2.047,0,0,1,.925,1.60283l-.09459,23.13568c-.00167.587-.42081.82581-.93108.53121L98.909,62.6669a2.047,2.047,0,0,1-.925-1.60282l.0946-23.13568c.00166-.587.42081-.82581.93106-.53122Z" stroke="#0c1c27" stroke-linecap="round" stroke-linejoin="round" fill="url(#linear-gradient-6)"/><path d="M130.93808,52.76766,101.46932,35.96777a.65329.65329,0,0,0-.65936-.06318L98.35029,37.334a.65326.65326,0,0,1,.65936.06317l29.46876,16.79989a2.047,2.047,0,0,1,.925,1.60283l-.0946,23.13569a.64894.64894,0,0,1-.27169.59437l2.45968-1.4294a.649.649,0,0,0,.27169-.59437l.0946-23.13569A2.047,2.047,0,0,0,130.93808,52.76766Z" stroke="#0c1c27" stroke-linecap="round" stroke-linejoin="round" fill="url(#linear-gradient-7)"/></g><rect x="77.57026" y="83.3155" width="0.67996" height="6.7256" stroke="#0c1c27" stroke-linecap="round" stroke-linejoin="round" fill="url(#linear-gradient-8)"/><path d="M78.00558,89.56482a.36058.36058,0,0,1,.00383.68154L58.32368,101.64129a1.3012,1.3012,0,0,1-1.17662,0L30.17885,86.0712a.36059.36059,0,0,1-.00383-.68155L49.86075,73.99473a1.3012,1.3012,0,0,1,1.17662,0Z" stroke="#0c1c27" stroke-linecap="round" stroke-linejoin="round" fill="url(#linear-gradient-9)"/><path d="M77.32947,83.72669l-18.0652,10.5005a1.30118,1.30118,0,0,1-1.17661,0L31.60118,78.92365a.41567.41567,0,0,1-.24464-.34316l-.00513,5.72521a.41566.41566,0,0,0,.24465.34316L58.08253,99.95242a1.3012,1.3012,0,0,0,1.17662,0l18.06518-10.5005a.41243.41243,0,0,0,.24081-.33839l.00512-5.72521A.41242.41242,0,0,1,77.32947,83.72669Z" stroke="#0c1c27" stroke-linecap="round" stroke-linejoin="round" fill="url(#linear-gradient-10)"/><path d="M78.00558,83.11527a.36058.36058,0,0,1,.00383.68154L59.26428,94.61889a1.30122,1.30122,0,0,1-1.17663,0L31.11945,79.0488a.36058.36058,0,0,1-.00383-.68154L49.86075,67.54517a1.30123,1.30123,0,0,1,1.17662,0Z" stroke="#0c1c27" stroke-linecap="round" stroke-linejoin="round" fill="url(#linear-gradient-11)"/><path d="M31.64722,83.05118,58.13369,98.35474a1.3012,1.3012,0,0,0,1.17662,0L77.37549,87.85422" fill="none" stroke="#0c1c27" stroke-linecap="round" stroke-linejoin="round"/><polygon points="65.622 92.992 70.781 89.965 70.781 96.116 68.412 95.157 65.622 99.143 65.622 92.992" stroke="#0c1c27" stroke-linecap="round" stroke-linejoin="round" fill="url(#linear-gradient-12)"/><path d="M31.59606,81.31225,58.08253,96.61581a1.30123,1.30123,0,0,0,1.17662,0l18.06518-10.5005" fill="none" stroke="#0c1c27" stroke-linecap="round" stroke-linejoin="round"/><path d="M45.66973,82.44473a.316.316,0,0,0-.00336.59721l10.67234,5.95765a1.14019,1.14019,0,0,0,1.031,0l11.72813-6.74433a.316.316,0,0,0,.00336-.59721L58.42888,75.70041a1.1402,1.1402,0,0,0-1.031,0Z" stroke="#0c1c27" stroke-linecap="round" stroke-linejoin="round" fill="url(#linear-gradient-13)"/><line x1="51.8984" y1="74.60808" x2="44.55434" y2="78.92476" stroke="#0c1c27" stroke-linecap="round" stroke-linejoin="round" fill="url(#linear-gradient-14)"/></svg>