<svg width="501" height="247" viewBox="0 0 501 247" fill="none" xmlns="http://www.w3.org/2000/svg">
<path d="M326.82 214.7L270.86 239.16L223.15 187.52L279.11 163.06L326.82 214.7Z" fill="#00D2FF" stroke="#001F2C" stroke-linejoin="round"/>
<path d="M270.86 225.65C270.86 225.65 269.55 227.23 269.55 232.81C269.55 238.39 270.82 240.44 270.86 240.5L324.98 216.85V201.99L270.86 225.65Z" fill="#FFF5F4" stroke="#001F2C" stroke-linejoin="round"/>
<path d="M269.76 229.31L324.98 205.18" stroke="#001F2C" stroke-linejoin="round"/>
<path d="M269.76 231.39L324.98 207.26" stroke="#001F2C" stroke-linejoin="round"/>
<path d="M269.76 233.47L324.98 209.34" stroke="#001F2C" stroke-linejoin="round"/>
<path d="M269.76 235.54L324.98 211.41" stroke="#001F2C" stroke-linejoin="round"/>
<path d="M269.76 237.62L324.98 213.49" stroke="#001F2C" stroke-linejoin="round"/>
<path d="M326.82 201.19L270.86 225.65L223.15 174.01L279.11 149.55L326.82 201.19Z" fill="#B45AF2" stroke="#001F2C" stroke-linejoin="round"/>
<path d="M223.15 188.87C223.15 188.87 221.61 186.76 221.61 181.17C221.61 175.58 223.15 174.01 223.15 174.01L270.86 225.65C270.86 225.65 269.55 227.23 269.55 232.81C269.55 238.39 270.86 240.51 270.86 240.51L223.15 188.87Z" fill="#001E2B" stroke="#001F2C" stroke-miterlimit="10"/>
<path d="M326.82 214.7L271.47 238.98C271.14 237.94 270.7 235.97 270.7 232.81C270.7 228.88 271.38 227.11 271.65 226.56L326.81 202.46V201.19L270.85 225.65C270.85 225.65 269.54 227.23 269.54 232.81C269.54 238.39 270.85 240.51 270.85 240.51L326.81 216.05V214.7H326.82Z" fill="#001E2B" stroke="#001F2C" stroke-miterlimit="10"/>
<path d="M294.29 176.21L278.12 158.71L235.63 177.28L251.8 194.78L294.29 176.21Z" fill="#5400F8" stroke="#001F2C" stroke-linejoin="round"/>
<path d="M298.46 188.57L292.53 182.15L262.34 195.34L268.27 201.77L298.46 188.57Z" fill="#5400F8" stroke="#001F2C" stroke-linejoin="round"/>
<path d="M278.54 229.65L280.02 236.5L286.32 233.75L278.54 229.65Z" fill="#001E2B" stroke="#001F2C" stroke-miterlimit="10"/>
<path d="M294.1 235.69L288.94 235.45L287.13 238.73L278.54 229.65L285.51 226.6L294.1 235.69Z" fill="#B45AF2" stroke="#001F2C" stroke-linejoin="round"/>
<path d="M291.64 151.53L325.9 188.62" stroke="#001E2B" stroke-miterlimit="10"/>
<path d="M254.22 207.63C268.26 205.72 278.37 200.34 278.37 194C278.37 186.06 262.52 179.62 242.96 179.62C238.14 179.62 233.54 180.01 229.35 180.72L254.21 207.63H254.22Z" fill="#001F2C"/>
<path d="M250.66 99.0699L297.83 137.86L357.8 101.19L310.63 62.3899L250.66 99.0699Z" fill="#001E2B" stroke="#001F2C" stroke-miterlimit="10"/>
<path d="M301.51 124.86C301.51 124.86 302.34 126.73 300.82 132.11C299.32 137.41 297.52 139.1 297.47 139.15L251.85 101.63L255.9 87.3398L301.52 124.86H301.51Z" fill="#001E2B" stroke="#001F2C" stroke-miterlimit="10"/>
<path d="M301.57 128.68L255.02 90.4099" stroke="#001F2C" stroke-linejoin="round"/>
<path d="M301.01 130.68L254.45 92.4099" stroke="#001F2C" stroke-miterlimit="10"/>
<path d="M300.44 132.68L253.89 94.4099" stroke="#001F2C" stroke-linejoin="round"/>
<path d="M299.87 134.68L253.32 96.4099" stroke="#001F2C" stroke-linejoin="round"/>
<path d="M299.31 136.68L252.75 98.4099" stroke="#001F2C" stroke-linejoin="round"/>
<path d="M254.34 86.0699L301.51 124.86L361.49 88.1899L314.32 49.3899L254.34 86.0699Z" fill="#5400F8" stroke="#001F2C" stroke-linejoin="round"/>
<path d="M357.44 102.48C357.44 102.48 359.5 100.87 361.02 95.4999C362.54 90.1299 361.49 88.1899 361.49 88.1899L301.51 124.87C301.51 124.87 302.34 126.74 300.82 132.12C299.3 137.49 297.46 139.17 297.46 139.17L357.44 102.49V102.48Z" fill="#5400F8" stroke="#001F2C" stroke-linejoin="round"/>
<path d="M250.29 100.36L297.46 139.15C297.46 139.15 299.3 137.48 300.82 132.1C302.34 126.72 301.51 124.85 301.51 124.85L254.34 86.0598L253.99 87.2798L300.49 125.51C300.6 126.12 300.78 128 299.7 131.78C298.84 134.82 297.88 136.59 297.28 137.5L250.65 99.0498L250.28 100.35L250.29 100.36Z" fill="#B45AF2" stroke="#001F2C" stroke-linejoin="round"/>
<path d="M304.01 63.31L311.47 58.75L336.91 79.67L329.45 84.24L304.01 63.31Z" fill="white" stroke="#001F2C" stroke-linejoin="round"/>
<path d="M316.74 79.0299L300.15 65.3899L292.69 69.9499L309.28 83.5999L316.74 79.0299Z" fill="white" stroke="#001F2C" stroke-linejoin="round"/>
<path d="M293.03 126.62L289.74 132.8L284.43 128.44L293.03 126.62Z" fill="#001E2B" stroke="#001F2C" stroke-miterlimit="10"/>
<path d="M276.42 128.18L281.44 129.36L282.29 133.01L293.03 126.62L287.16 121.79L276.42 128.18Z" fill="#B45AF2" stroke="#001F2C" stroke-linejoin="round"/>
<path d="M321.62 116.93L330.34 122.76L339.06 128.59L329.65 133.23L320.24 137.87L320.93 127.4L321.62 116.93Z" fill="white" stroke="#001E2B" stroke-width="0.75" stroke-miterlimit="10"/>
<path d="M326.83 127.49L320.24 137.87L339.06 128.59L326.83 127.49Z" fill="#001E2B"/>
<path d="M326.83 127.49L321.62 116.93" stroke="#001E2B" stroke-width="0.75" stroke-miterlimit="10"/>
<path d="M252.62 164.8C245.27 163.68 234.73 165.02 223.71 168.94C212.69 172.86 203.67 178.48 198.68 183.99L191.87 186.41L194.79 194.63V194.67C197.5 202.24 214.81 203 233.46 196.37C252.12 189.73 265.06 178.21 262.36 170.64L259.42 162.38L252.6 164.8H252.62Z" fill="#001F2C"/>
<path d="M230.548 188.209C249.208 181.572 262.15 170.049 259.455 162.473C256.761 154.897 239.449 154.135 220.79 160.773C202.13 167.41 189.188 178.932 191.883 186.508C194.577 194.084 211.889 194.846 230.548 188.209Z" fill="#00885A" stroke="#001E2B" stroke-miterlimit="10"/>
<path d="M201.37 183.12C199.35 177.44 204.87 169.86 214.86 163.12C199.49 169.89 189.5 179.75 191.9 186.49C194.3 193.23 208.27 194.57 224.46 190.11C212.46 191.19 203.39 188.8 201.37 183.12Z" fill="#001F2C"/>
<path d="M226.41 163.44L218.16 166.38L220.97 174.27C221.3 175.2 223.41 175.29 225.69 174.48C227.97 173.67 229.55 172.26 229.22 171.34L226.41 163.45V163.44Z" fill="#00C954" stroke="#001E2B" stroke-miterlimit="10"/>
<path d="M221.07 165.34L218.15 166.38L220.96 174.27C221.23 175.02 222.68 175.22 224.45 174.83L221.07 165.34Z" fill="#001F2C" stroke="#001E2B" stroke-miterlimit="10"/>
<path d="M230.998 48.2173L223.086 44.457L169.374 157.473L177.286 161.233L230.998 48.2173Z" fill="#001F2C" stroke="#001E2B" stroke-miterlimit="10"/>
<path d="M230.99 48.2147L225.878 45.7852L172.166 158.801L177.278 161.23L230.99 48.2147Z" fill="#00C954" stroke="#001E2B" stroke-miterlimit="10"/>
<path d="M200.2 153.88C228.394 153.88 251.25 131.024 251.25 102.83C251.25 74.6359 228.394 51.78 200.2 51.78C172.006 51.78 149.15 74.6359 149.15 102.83C149.15 131.024 172.006 153.88 200.2 153.88Z" fill="#A6FFEC" stroke="#001F2C" stroke-miterlimit="10"/>
<path d="M236.19 138.97C236.05 138.91 235.9 138.9 235.76 138.95L232.04 140.27C231.9 140.32 231.78 140.43 231.72 140.56L230.02 144.14C229.99 144.19 229.98 144.25 229.97 144.3C232.19 142.71 234.29 140.94 236.25 138.98L236.2 138.96L236.19 138.97Z" fill="#00ED64" stroke="#001E2B" stroke-miterlimit="10"/>
<path d="M229.191 101.734L229.526 101.03C229.659 100.75 229.996 100.622 230.286 100.76L230.656 100.936C230.936 101.069 231.063 101.406 230.926 101.695L230.591 102.4C230.458 102.68 230.121 102.807 229.832 102.67L229.461 102.494C229.181 102.361 229.054 102.023 229.191 101.734Z" fill="#00ED64" stroke="#001E2B" stroke-miterlimit="10"/>
<path d="M246.81 116.68C247.11 116.58 247.43 116.73 247.53 117.02L248.43 119.54C249.02 117.85 249.51 116.15 249.91 114.44C249.73 114.4 249.56 114.28 249.5 114.09L248.96 112.57C248.91 112.43 248.92 112.27 248.98 112.14L249.73 110.56C249.79 110.42 249.8 110.27 249.75 110.13L249.01 108.04L249.22 107.65L250.78 107.09C250.88 107.06 250.98 107.05 251.08 107.07C251.75 99.0601 250.49 91.0701 247.55 83.7501L245.57 82.8101C245.43 82.7501 245.28 82.7401 245.14 82.7901L235.53 86.2101C235.39 86.2601 235.27 86.3701 235.21 86.5001L234.29 88.4401C234.23 88.5801 234.22 88.7301 234.27 88.8701L234.51 89.5401C234.62 89.8401 234.94 89.9901 235.23 89.8801L236.31 89.5001C236.61 89.3901 236.93 89.5501 237.03 89.8401L237.12 90.1001C237.17 90.2401 237.16 90.4001 237.1 90.5301L236.74 91.2801C236.68 91.4201 236.67 91.5701 236.72 91.7101L236.98 92.4501C237.09 92.7501 237.41 92.9001 237.71 92.7901L238.78 92.4101C238.92 92.3601 239.04 92.2501 239.1 92.1201L240.41 89.3601C240.47 89.2201 240.59 89.1201 240.73 89.0701L244.98 87.5601C245.28 87.4501 245.6 87.6101 245.71 87.9001L245.95 88.5901C246.06 88.8901 245.9 89.2101 245.61 89.3101L243.27 90.1401C243.13 90.1901 243.01 90.3001 242.95 90.4301L240.95 94.6401C240.89 94.7801 240.77 94.8801 240.63 94.9301L237.87 95.9101C237.73 95.9601 237.57 95.9501 237.44 95.8901L231.88 93.2501C231.74 93.1901 231.59 93.1801 231.45 93.2301L228.62 94.2401C228.48 94.2901 228.32 94.2801 228.19 94.2201L226.87 93.5901C226.59 93.4601 226.25 93.5801 226.11 93.8601L226.09 93.9001C226.04 94.0101 226.03 94.1301 226.07 94.2501L226.72 96.0901C226.77 96.2301 226.76 96.3901 226.7 96.5201L226.36 97.2501C226.23 97.5301 225.89 97.6501 225.6 97.5201L223.1 96.3301C222.96 96.2701 222.81 96.2601 222.67 96.3101L221.77 96.6301C221.63 96.6801 221.51 96.7901 221.45 96.9201L220.72 98.4501C220.66 98.5901 220.65 98.7401 220.7 98.8801L221.14 100.1C221.19 100.24 221.18 100.4 221.12 100.53L220.53 101.78C220.47 101.91 220.36 102.01 220.22 102.06L213.21 104.8C213.08 104.85 212.97 104.95 212.9 105.09L210.22 110.72C210.16 110.86 210.15 111.01 210.2 111.15L212.09 116.46C212.14 116.6 212.25 116.72 212.38 116.78L220.6 120.69C220.88 120.82 221 121.16 220.87 121.45L219.71 123.88C219.65 124.02 219.64 124.17 219.69 124.31L220.7 127.16C220.75 127.3 220.74 127.46 220.68 127.59L217.33 134.65C217.27 134.79 217.26 134.94 217.31 135.08L217.86 136.63C217.91 136.77 217.9 136.93 217.84 137.06L215.5 141.99C215.44 142.13 215.43 142.28 215.48 142.42L216.01 143.9C216.06 144.04 216.17 144.16 216.3 144.22L218.42 145.23C218.56 145.29 218.71 145.3 218.85 145.25L223.53 143.58C223.67 143.53 223.79 143.42 223.85 143.29L225.65 139.5C225.71 139.36 225.83 139.26 225.97 139.21L230.95 137.44C231.09 137.39 231.21 137.28 231.27 137.15L233.63 132.18C233.69 132.04 233.81 131.94 233.95 131.89L240.49 129.56C240.63 129.51 240.75 129.4 240.81 129.27L241.67 127.45C241.8 127.17 241.68 126.83 241.4 126.69L239.37 125.73C239.23 125.67 239.13 125.55 239.08 125.41L236.02 116.81C235.91 116.51 236.07 116.19 236.36 116.09L238.03 115.5C238.33 115.4 238.65 115.55 238.75 115.84L242.02 125.02C242.12 125.32 242.45 125.47 242.74 125.36L246.64 123.97C246.84 123.53 247.03 123.09 247.22 122.65L245.46 117.72C245.36 117.42 245.51 117.1 245.8 117L246.81 116.64V116.68ZM241.07 112.64C241.01 112.78 240.89 112.88 240.75 112.93L239.92 113.23C239.78 113.28 239.62 113.27 239.49 113.21L229.5 108.46C229.36 108.4 229.26 108.28 229.21 108.14L227.79 104.14C227.74 104 227.63 103.88 227.5 103.82L224.08 102.19C223.85 102.08 223.76 101.81 223.87 101.59L223.93 101.47C223.98 101.36 224.07 101.28 224.19 101.24L229.73 99.2701C229.87 99.2201 230.03 99.2301 230.16 99.2901L231.2 99.7801C231.34 99.8401 231.44 99.9601 231.49 100.1L232.34 102.49C232.45 102.79 232.29 103.11 232 103.21L231.31 103.46C231.01 103.57 230.86 103.89 230.97 104.18L231.45 105.52C231.56 105.82 231.88 105.97 232.17 105.86L234.26 105.12C234.56 105.01 234.71 104.69 234.6 104.4L233.41 101.07C233.3 100.77 233.46 100.45 233.75 100.35L233.94 100.28C234.24 100.18 234.56 100.33 234.66 100.62L236 104.38C236.05 104.52 236.04 104.68 235.98 104.81L235.44 105.95C235.31 106.23 235.43 106.57 235.71 106.71L236.08 106.89C236.36 107.02 236.7 106.9 236.84 106.62L237.01 106.26C237.23 105.8 237.89 105.84 238.06 106.31L238.46 107.43C238.51 107.57 238.5 107.73 238.44 107.86L238.23 108.31C238.1 108.59 238.22 108.93 238.5 109.07L241.1 110.31C241.24 110.37 241.34 110.49 241.39 110.63L241.59 111.2C241.64 111.34 241.63 111.5 241.57 111.63L241.1 112.63L241.07 112.64ZM246.55 108.34C246.42 108.62 246.08 108.74 245.79 108.61L244.26 107.88C244.12 107.82 244.02 107.7 243.97 107.56L243.62 106.59C243.57 106.45 243.46 106.33 243.33 106.27L241.94 105.61C241.8 105.55 241.65 105.54 241.51 105.59L240.93 105.8C240.79 105.85 240.63 105.84 240.5 105.78L239.5 105.31C239.22 105.18 239.1 104.84 239.23 104.55L239.46 104.07C239.52 103.93 239.64 103.83 239.78 103.78L241.59 103.14C241.73 103.09 241.89 103.1 242.02 103.16L245.56 104.84C245.7 104.9 245.8 105.02 245.85 105.16L246.71 107.59C246.76 107.73 246.75 107.89 246.69 108.02L246.54 108.34H246.55Z" fill="#00ED64" stroke="#001E2B" stroke-miterlimit="10"/>
<path d="M235.095 108.331L235.202 108.105C235.335 107.825 235.673 107.698 235.962 107.835L236.621 108.149C236.901 108.282 237.029 108.619 236.891 108.908L236.78 109.143C236.647 109.423 236.309 109.55 236.02 109.413L235.361 109.1C235.081 108.967 234.953 108.629 235.091 108.34L235.095 108.331Z" fill="#00ED64" stroke="#001E2B" stroke-miterlimit="10"/>
<path d="M192.07 121.19L192.88 119.5C192.94 119.36 193.06 119.26 193.2 119.21L195.58 118.36C195.72 118.31 195.84 118.2 195.9 118.07L196.51 116.79C196.57 116.65 196.58 116.5 196.53 116.36L195.35 113.03C195.3 112.89 195.19 112.77 195.06 112.71L192.95 111.71C192.81 111.65 192.71 111.53 192.66 111.39L190.36 104.92C190.31 104.78 190.2 104.66 190.07 104.6L188.4 103.8C188.26 103.74 188.16 103.62 188.11 103.48L187.04 100.48C186.99 100.34 186.88 100.22 186.75 100.16L182.21 98.0002C182.07 97.9402 181.92 97.9302 181.78 97.9802L180.54 98.4202C180.4 98.4702 180.24 98.4602 180.11 98.4002L177.65 97.2302C177.37 97.1002 177.25 96.7602 177.38 96.4702L178.16 94.8302C178.22 94.6902 178.23 94.5402 178.18 94.4002L177.84 93.4302C177.73 93.1302 177.41 92.9802 177.12 93.0902L176.72 93.2302C176.42 93.3402 176.1 93.1802 176 92.8902L175.91 92.6302C175.8 92.3302 175.96 92.0102 176.25 91.9102L176.98 91.6502C177.28 91.5402 177.43 91.2202 177.32 90.9302L177.13 90.3902C177.02 90.0902 176.7 89.9402 176.41 90.0502L174.84 90.6102C174.7 90.6602 174.54 90.6502 174.41 90.5902L173.43 90.1302C173.29 90.0702 173.19 89.9502 173.14 89.8102L172.65 88.4202C172.6 88.2802 172.61 88.1202 172.67 87.9902L174.14 84.9002C174.2 84.7602 174.32 84.6602 174.46 84.6102L176.15 84.0102C176.29 83.9602 176.45 83.9702 176.58 84.0302L180.71 85.9902C180.99 86.1202 181.11 86.4602 180.98 86.7502L180.56 87.6402C180.5 87.7802 180.49 87.9302 180.54 88.0702L181 89.3602C181.04 89.4702 181.12 89.5702 181.23 89.6202L181.29 89.6502C181.57 89.7802 181.91 89.6602 182.05 89.3802L182.22 89.0202C182.28 88.8802 182.29 88.7302 182.24 88.5902L181.99 87.9002C181.94 87.7602 181.95 87.6002 182.01 87.4702L183.06 85.2702C183.12 85.1302 183.24 85.0302 183.38 84.9802L192.98 81.5702C193.28 81.4602 193.6 81.6202 193.7 81.9102L194.13 83.1102C194.23 83.4102 194.56 83.5602 194.85 83.4502L196.91 82.7202C197.21 82.6202 197.36 82.2902 197.25 82.0002L197.14 81.7002C197.03 81.4002 196.71 81.2502 196.42 81.3602L195.86 81.5602C195.75 81.6002 195.62 81.5902 195.51 81.5402L195.4 81.4902C195.12 81.3602 195 81.0202 195.13 80.7302L195.5 79.9502C195.63 79.6702 195.51 79.3302 195.23 79.1902L194.34 78.7702C194.06 78.6402 193.94 78.3002 194.07 78.0102L194.23 77.6702C194.36 77.3902 194.7 77.2702 194.99 77.4002L199.48 79.5302C199.62 79.5902 199.72 79.7102 199.77 79.8502L199.98 80.4502C200.09 80.7502 199.93 81.0702 199.64 81.1702L199.31 81.2902C198.83 81.4602 198.8 82.1202 199.26 82.3402L201.24 83.2802C201.7 83.5002 202.19 83.0502 202.02 82.5802L201.25 80.4102C201.2 80.2702 201.21 80.1102 201.27 79.9802L201.77 78.9302C201.83 78.7902 201.84 78.6402 201.79 78.5002L199.79 72.8802C199.74 72.7402 199.63 72.6202 199.5 72.5602L198.08 71.8902C197.94 71.8302 197.84 71.7102 197.79 71.5702L196.63 68.3102C196.58 68.1702 196.47 68.0502 196.34 67.9902L194.68 67.2002C194.4 67.0702 194.06 67.1902 193.92 67.4702L190.96 73.6902C190.83 73.9702 190.49 74.0902 190.2 73.9602L188.28 73.0502C188 72.9202 187.88 72.5802 188.01 72.2902L189.13 69.9302C189.26 69.6502 189.14 69.3102 188.86 69.1702L187.18 68.3702C187.04 68.3102 186.94 68.1902 186.89 68.0502L185.62 64.4802C185.51 64.1802 185.67 63.8602 185.96 63.7602L196.6 59.9802C196.9 59.8702 197.22 60.0302 197.32 60.3202L198.43 63.4402C198.53 63.7402 198.38 64.0602 198.09 64.1602L196.97 64.5602C196.83 64.6102 196.67 64.6002 196.54 64.5402L196.04 64.3002C195.76 64.1702 195.43 64.2902 195.3 64.5602C195.17 64.8302 195.29 65.1702 195.56 65.3002L197.6 66.2702C197.74 66.3302 197.84 66.4502 197.89 66.5902L199.15 70.1402C199.26 70.4402 199.58 70.5902 199.87 70.4802L201.05 70.0602C201.35 69.9502 201.5 69.6302 201.39 69.3402L200.42 66.6002C200.34 66.3602 200.46 66.1102 200.69 66.0202H200.7C200.94 65.9302 201.19 66.0602 201.28 66.2902L201.73 67.5402C201.84 67.8402 202.16 67.9902 202.45 67.8802L203.68 67.4402C203.98 67.3302 204.13 67.0102 204.02 66.7202L202.02 61.1002C201.97 60.9602 201.86 60.8402 201.73 60.7802L200.29 60.1002C200.15 60.0402 200.05 59.9202 200 59.7802L198.91 56.7102C198.86 56.5702 198.75 56.4502 198.62 56.3902L193.83 54.1102C193.55 53.9802 193.21 54.1002 193.07 54.3802L192.3 56.0002C192.24 56.1402 192.23 56.2902 192.28 56.4302L193.05 58.6002C193.16 58.9002 193 59.2202 192.71 59.3202L191.29 59.8202C190.99 59.9302 190.67 59.7702 190.57 59.4802L189.89 57.5702C189.84 57.4302 189.85 57.2702 189.91 57.1402L191.56 53.6602C191.69 53.3802 191.57 53.0402 191.29 52.9002L190.85 52.6902C190.49 52.7602 190.14 52.8302 189.78 52.9002L188.3 56.0102C188.17 56.2902 187.83 56.4102 187.54 56.2802L183.84 54.5202C177.35 56.7102 171.3 60.2002 166.11 64.8402L166.55 66.0702C166.6 66.2102 166.59 66.3702 166.53 66.5002L164.8 70.1402C164.74 70.2802 164.73 70.4302 164.78 70.5702L165.53 72.6702C165.58 72.8102 165.57 72.9702 165.51 73.1002L164.22 75.8102C164.16 75.9502 164.15 76.1002 164.2 76.2402L164.86 78.1102C164.91 78.2502 164.9 78.4102 164.84 78.5402L163.7 80.9302C163.57 81.2102 163.69 81.5502 163.97 81.6902L164.69 82.0302C164.83 82.0902 164.93 82.2102 164.98 82.3502L165.39 83.4902C165.44 83.6302 165.55 83.7502 165.68 83.8102L166.36 84.1302C166.64 84.2602 166.98 84.1402 167.12 83.8602L167.38 83.3202C167.44 83.1802 167.45 83.0302 167.4 82.8902L165.99 78.9302L166.54 79.1902C166.68 79.2502 166.78 79.3702 166.83 79.5102L168.8 85.0402C168.85 85.1802 168.84 85.3402 168.78 85.4702L168.27 86.5502C168.21 86.6902 168.2 86.8402 168.25 86.9802L169.58 90.7102C169.63 90.8502 169.74 90.9702 169.87 91.0302L172.84 92.4402C172.98 92.5002 173.08 92.6202 173.13 92.7602L175.08 98.2402C175.13 98.3802 175.24 98.5002 175.37 98.5602L176.47 99.0802C176.61 99.1402 176.76 99.1502 176.9 99.1002L177.26 98.9702C177.56 98.8602 177.88 99.0202 177.98 99.3102L178.18 99.8802C178.23 100.02 178.22 100.18 178.16 100.31L176.11 104.63C175.98 104.91 175.64 105.03 175.35 104.9L174.49 104.49C174.21 104.36 173.87 104.48 173.73 104.76L173.3 105.67C173.17 105.95 173.29 106.29 173.57 106.43L174.34 106.8C174.62 106.93 174.74 107.27 174.61 107.56L174.31 108.2C174.25 108.34 174.24 108.49 174.29 108.63L175.71 112.64C175.76 112.78 175.75 112.94 175.69 113.07L171.05 122.84C170.99 122.98 170.87 123.08 170.73 123.13L169.62 123.53C169.48 123.58 169.36 123.69 169.3 123.82L164.57 133.78C164.51 133.92 164.5 134.07 164.55 134.21L164.87 135.12C164.92 135.26 165.03 135.38 165.16 135.44L166.03 135.85C166.31 135.98 166.65 135.86 166.79 135.58L167.84 133.36C167.9 133.22 168.02 133.12 168.16 133.07L171.17 132C171.31 131.95 171.43 131.84 171.49 131.71L172.05 130.52C172.11 130.38 172.23 130.28 172.37 130.23L185.09 125.7C185.23 125.65 185.35 125.54 185.41 125.41L186.27 123.59C186.33 123.45 186.45 123.35 186.59 123.3L191.73 121.47C191.87 121.42 191.99 121.31 192.05 121.18L192.07 121.19Z" fill="#00ED64" stroke="#001E2B" stroke-miterlimit="10"/>
<path d="M193.43 52.65L198.09 54.87C198.37 55 198.71 54.88 198.85 54.6L198.89 54.51C199.02 54.23 198.9 53.89 198.62 53.75L195 52.03C194.37 52.1 193.74 52.18 193.11 52.26L193.13 52.32C193.18 52.46 193.29 52.58 193.42 52.64L193.43 52.65Z" fill="#00ED64" stroke="#001E2B" stroke-miterlimit="10"/>
<path d="M187.86 53.29C187.75 53.32 187.64 53.35 187.53 53.37C187.58 53.37 187.63 53.37 187.68 53.35L187.86 53.29Z" fill="#00ED64" stroke="#001E2B" stroke-miterlimit="10"/>
<path d="M202.78 51.8301C200.95 51.7401 199.12 51.7401 197.31 51.8501L199.42 52.8501C199.56 52.9101 199.71 52.9201 199.85 52.8701L202.78 51.8301Z" fill="#00ED64" stroke="#001E2B" stroke-miterlimit="10"/>
<path d="M191.63 62.6902C191.49 62.6302 191.34 62.6202 191.2 62.6702L190.87 62.7902C190.57 62.9002 190.42 63.2202 190.53 63.5102L190.75 64.1402C190.8 64.2802 190.91 64.4002 191.04 64.4602L192.39 65.1002C192.67 65.2302 193.01 65.1102 193.15 64.8302L193.46 64.1802C193.59 63.9002 193.47 63.5602 193.19 63.4202L191.63 62.6802V62.6902Z" fill="#00ED64" stroke="#001E2B" stroke-miterlimit="10"/>
<path d="M204.9 52.22L203.63 54.88C203.5 55.16 203.62 55.5 203.9 55.64L208.96 58.05C209.1 58.11 209.2 58.23 209.25 58.37L210.46 61.78C210.51 61.92 210.5 62.08 210.44 62.21L207.23 68.96C207.17 69.1 207.16 69.25 207.21 69.39L209.35 75.41C209.46 75.71 209.78 75.86 210.07 75.75L219.11 72.53C219.25 72.48 219.41 72.49 219.54 72.55L221.99 73.71C222.13 73.77 222.28 73.78 222.42 73.73L224.69 72.92C224.83 72.87 224.95 72.76 225.01 72.63L226.01 70.53C226.07 70.39 226.19 70.29 226.33 70.24L227.76 69.73C227.9 69.68 228.02 69.57 228.08 69.44L229.76 65.9C229.82 65.76 229.94 65.66 230.08 65.61L233.57 64.37C233.57 64.37 233.65 64.33 233.69 64.31C230.26 61.33 226.38 58.76 222.07 56.71C218.4 54.97 214.62 53.7 210.82 52.88L209.24 53.44C209.1 53.49 208.94 53.48 208.81 53.42L205.93 52.08C205.64 52.05 205.34 52.02 205.05 51.99C204.97 52.04 204.91 52.12 204.87 52.21L204.9 52.22Z" fill="#00ED64" stroke="#001E2B" stroke-miterlimit="10"/>
<path d="M227.33 90.4101C227.19 90.4601 227.07 90.5701 227.01 90.7001L226.83 91.0801C226.7 91.3601 226.82 91.7001 227.1 91.8401L229.01 92.7501C229.15 92.8101 229.3 92.8201 229.44 92.7701L229.95 92.5901C230.09 92.5401 230.21 92.4301 230.27 92.3001L230.6 91.6101C230.66 91.4701 230.67 91.3201 230.62 91.1801L229.98 89.3901C229.93 89.2501 229.94 89.0901 230 88.9601L230.88 87.1101C231.01 86.8301 230.89 86.4901 230.61 86.3501L230.09 86.1001C229.95 86.0401 229.8 86.0301 229.66 86.0801L228.62 86.4501C228.48 86.5001 228.36 86.6101 228.3 86.7401L227.81 87.7601C227.75 87.9001 227.74 88.0501 227.79 88.1901L228.25 89.4801C228.35 89.7801 228.2 90.1001 227.91 90.2001L227.34 90.4001L227.33 90.4101Z" fill="#00ED64" stroke="#001E2B" stroke-miterlimit="10"/>
<path d="M225.16 88.6402L224.92 88.7302C224.78 88.7802 224.66 88.8902 224.6 89.0202L224.28 89.6902C224.15 89.9702 224.27 90.3102 224.55 90.4502L224.71 90.5302C224.99 90.6602 225.33 90.5402 225.47 90.2602L225.87 89.4202C226.09 88.9602 225.64 88.4702 225.17 88.6402H225.16Z" fill="#00ED64" stroke="#001E2B" stroke-miterlimit="10"/>
<path d="M226.38 76.98L223.74 75.75C223.61 75.69 223.45 75.68 223.31 75.73L221.99 76.2C221.69 76.3 221.54 76.63 221.65 76.92L222.22 78.51C222.27 78.65 222.38 78.77 222.51 78.83L224.27 79.67C224.41 79.73 224.56 79.74 224.7 79.69L226.68 78.99C226.98 78.88 227.13 78.56 227.02 78.27L226.67 77.3C226.62 77.16 226.51 77.04 226.37 76.98H226.38Z" fill="#00ED64" stroke="#001E2B" stroke-miterlimit="10"/>
<path d="M166.34 86.7399C176.05 66.3099 196.56 54.4999 217.8 54.9099C193.3 45.8799 165.52 56.8799 154.09 80.9199C142.67 104.96 151.69 133.45 174.16 146.74C160.44 130.53 156.63 107.17 166.34 86.7399Z" fill="#001F2C"/>
<path d="M228.87 42.49C225.94 41.1 222.95 39.94 219.94 39L216.39 46.47C219.42 47.34 222.42 48.47 225.37 49.87C254.62 63.77 267.06 98.74 253.16 127.99C239.26 157.24 204.29 169.68 175.04 155.78C172.1 154.38 169.33 152.77 166.73 150.97L163.18 158.44C165.81 160.19 168.59 161.77 171.53 163.16C204.86 179 244.71 164.82 260.55 131.49C276.39 98.16 262.21 58.31 228.88 42.47L228.87 42.49Z" fill="#00885A" stroke="#001E2B" stroke-miterlimit="10"/>
<path d="M270.94 57.6099L265.8 52.0899L235.22 19.2499C235.11 19.1299 234.95 19.0499 234.78 18.9999L224.1 12.9999L222.61 12.1599L228.56 24.7799C228.56 24.7799 228.57 24.8499 228.58 24.8799C228.58 24.8999 228.59 24.9199 228.6 24.9399C228.61 24.9799 228.63 25.0199 228.65 25.0599C228.65 25.0799 228.67 25.0899 228.68 25.1099C228.71 25.1599 228.74 25.2099 228.78 25.2499L259.36 58.0899L264.5 63.6099C265.2 64.3599 267.21 63.6299 268.99 61.9799C270.77 60.3299 271.64 58.3699 270.94 57.6199V57.6099Z" fill="#001E2B" stroke="#001E2B" stroke-miterlimit="10"/>
<path d="M222.33 6.48999L234.94 13.58L228.5 19.57L222.33 6.48999Z" fill="#00ED64" stroke="#001E2B" stroke-miterlimit="10"/>
<path d="M223.82 7.32999L222.33 6.48999L228.5 19.57L229.26 18.87L223.82 7.32999Z" fill="#001F2C"/>
<path d="M225.16 9.54C225.51 9.22 225.86 8.93 226.21 8.68L222.32 6.5L224.22 10.53C224.49 10.2 224.8 9.86 225.15 9.54H225.16Z" fill="#001F2C"/>
<path d="M265.52 46.42L234.94 13.58C234.24 12.83 232.23 13.56 230.45 15.21C228.67 16.86 227.8 18.82 228.5 19.57L259.08 52.41L265.52 46.42Z" fill="#00ED64" stroke="#001E2B" stroke-miterlimit="10"/>
<path d="M229.45 16.29C228.37 17.64 227.95 18.98 228.5 19.57L259.08 52.41L261.23 50.41L229.45 16.28V16.29Z" fill="#001F2C"/>
<path d="M270.66 51.9499L265.52 46.4299C264.82 45.6799 262.81 46.4099 261.03 48.0599C259.25 49.7099 258.38 51.6699 259.08 52.4199L264.22 57.9399L270.66 51.9499Z" fill="#00ED64" stroke="#001E2B" stroke-miterlimit="10"/>
<path d="M268.706 56.2981C270.484 54.642 271.355 52.6868 270.651 51.931C269.948 51.1752 267.935 51.905 266.157 53.561C264.379 55.2171 263.508 57.1723 264.211 57.9281C264.915 58.6839 266.927 57.9541 268.706 56.2981Z" fill="#00C954" stroke="#001E2B" stroke-miterlimit="10"/>
<path d="M231.59 14.29L262.17 47.13" stroke="#231F20" stroke-miterlimit="10"/>
<path d="M260.03 49.13L229.45 16.29" stroke="#231F20" stroke-miterlimit="10"/>
<path d="M170.22 215.31C181.42 215.31 190.5 206.23 190.5 195.03C190.5 183.83 181.42 174.75 170.22 174.75C159.02 174.75 149.94 183.83 149.94 195.03C149.94 206.23 159.02 215.31 170.22 215.31Z" fill="#00ED64" stroke="#001E2B" stroke-miterlimit="10"/>
<path d="M171.25 179.84C171.25 179.84 169.93 185.67 163.55 183.05" stroke="#001E2B" stroke-linecap="round" stroke-linejoin="round"/>
<path d="M161.35 213.26C159.51 211.5 157.95 209.39 156.77 206.96C151.37 195.91 155.95 182.57 167.01 177.17C169.25 176.08 171.58 175.4 173.92 175.09C169.79 174.32 165.38 174.82 161.32 176.81C151.26 181.73 147.09 193.87 152 203.93C154.07 208.16 157.42 211.35 161.35 213.26Z" fill="#231F20" stroke="#001E2B" stroke-linejoin="round"/>
<path d="M168.14 183.05C168.14 183.05 157.17 176.89 162.52 165.12L168.02 167.1C168.02 167.1 163.46 173.15 168.14 183.05Z" fill="white" stroke="#001E2B" stroke-linejoin="round"/>
<path d="M145.08 76.64C152.25 61.55 164.82 50.75 179.37 45.47" stroke="#001E2B" stroke-miterlimit="10"/>
<path d="M150.73 138.59C139.51 123.03 135.94 102.6 142.28 83.6001" stroke="#001E2B" stroke-miterlimit="10"/>
<path d="M177.27 42.7L181.47 45.2299L178.94 49.43" stroke="#001E2B" stroke-miterlimit="10"/>
</svg>
