<svg width="141" height="201" viewBox="0 0 141 201" fill="none" xmlns="http://www.w3.org/2000/svg">
<path d="M112.62 131.75L132.77 120.9L99.2301 102.98L79.0801 113.83L112.62 131.75Z" fill="#006CFA" stroke="#001F2C" stroke-linejoin="round"/>
<path d="M112.62 120.6L132.77 109.75L99.2301 91.8201L79.0801 102.67L112.62 120.6Z" fill="#006CFA" stroke="#001F2C" stroke-linejoin="round"/>
<path d="M112.62 120.6V131.75L132.77 120.9V109.75L112.62 120.6Z" fill="#0D427C" stroke="#001F2C" stroke-linejoin="round"/>
<path d="M79.0801 102.67V113.83L112.62 131.75V120.6L79.0801 102.67Z" fill="#006CFA" stroke="#001F2C" stroke-linejoin="round"/>
<path d="M112.62 120.6V131.75L132.77 120.9V109.75L112.62 120.6Z" fill="#0D427C" stroke="#001F2C" stroke-linejoin="round"/>
<path d="M126.26 119.98V117.67L119.13 121.52V123.83L126.26 119.98Z" fill="#0D427C" stroke="#001F2C" stroke-linejoin="round"/>
<path d="M112.62 120.59L132.77 109.74L99.2301 91.8201L79.0801 102.67L112.62 120.59Z" fill="#006CFA" stroke="#001F2C" stroke-linejoin="round"/>
<path d="M112.62 109.44L132.77 98.59L99.2301 80.66L79.0801 91.51L112.62 109.44Z" fill="#006CFA" stroke="#001F2C" stroke-linejoin="round"/>
<path d="M112.62 109.44V120.59L132.77 109.74V98.59L112.62 109.44Z" fill="#0D427C" stroke="#001F2C" stroke-linejoin="round"/>
<path d="M79.0801 91.51V102.67L112.62 120.59V109.44L79.0801 91.51Z" fill="#006CFA" stroke="#001F2C" stroke-linejoin="round"/>
<path d="M112.62 109.44V120.59L132.77 109.74V98.59L112.62 109.44Z" fill="#0D427C" stroke="#001F2C" stroke-linejoin="round"/>
<path d="M126.26 108.82V106.52L119.13 110.36V112.67L126.26 108.82Z" fill="#0D427C" stroke="#001F2C" stroke-linejoin="round"/>
<path d="M112.62 109.44L132.77 98.59L99.2301 80.66L79.0801 91.51L112.62 109.44Z" fill="#006CFA" stroke="#001F2C" stroke-linejoin="round"/>
<path d="M112.62 98.29L132.77 87.43L99.2301 69.51L79.0801 80.36L112.62 98.29Z" fill="#006CFA" stroke="#001F2C" stroke-linejoin="round"/>
<path d="M112.62 98.2901V109.44L132.77 98.59V87.4301L112.62 98.2901Z" fill="#0D427C" stroke="#001F2C" stroke-linejoin="round"/>
<path d="M79.0801 80.36V91.51L112.62 109.44V98.29L79.0801 80.36Z" fill="#006CFA" stroke="#001F2C" stroke-linejoin="round"/>
<path d="M112.62 98.2901V109.44L132.77 98.59V87.4301L112.62 98.2901Z" fill="#0D427C" stroke="#001F2C" stroke-linejoin="round"/>
<path d="M126.26 97.67V95.36L119.13 99.2V101.51L126.26 97.67Z" fill="#0D427C" stroke="#001F2C" stroke-linejoin="round"/>
<path d="M49.0901 126.73H44.9001V167.92C44.9001 168.39 45.8401 168.77 46.9901 168.77C48.1401 168.77 49.0801 168.39 49.0801 167.92V126.73H49.0901Z" fill="#00D2FF" stroke="#001F2C" stroke-linejoin="round"/>
<path d="M46.3902 126.73H44.9102V167.92C44.9102 168.3 45.5302 168.63 46.3902 168.73V126.73Z" fill="#001F2C" stroke="#001E2B" stroke-miterlimit="10"/>
<path d="M17.0201 110.45H12.8301V151.64C12.8301 152.11 13.7701 152.49 14.9201 152.49C16.0701 152.49 17.0101 152.11 17.0101 151.64V110.45H17.0201Z" fill="#00D2FF" stroke="#001F2C" stroke-linejoin="round"/>
<path d="M14.3101 110.45H12.8301V151.64C12.8301 152.02 13.4501 152.35 14.3101 152.45V110.45Z" fill="#001F2C" stroke="#001E2B" stroke-miterlimit="10"/>
<path d="M135.1 87.3L98.2201 67.59L10.1201 115.04L47.0001 134.75L135.1 87.3Z" fill="#006CFA" stroke="#001F2C" stroke-linejoin="round"/>
<path d="M135.1 82.71L98.2201 63L10.1201 110.45L47.0001 130.16L135.1 82.71Z" fill="#006CFA" stroke="#001F2C" stroke-linejoin="round"/>
<path d="M47 130.16V134.75L135.1 87.3V82.71L47 130.16Z" fill="#0D427C" stroke="#001F2C" stroke-linejoin="round"/>
<path d="M10.1201 110.45V115.04L47.0001 134.75V130.16L10.1201 110.45Z" fill="#001F2C" stroke="#001E2B" stroke-miterlimit="10"/>
<path d="M47.35 115.54C54.8445 115.54 60.92 113.073 60.92 110.03C60.92 106.987 54.8445 104.52 47.35 104.52C39.8555 104.52 33.78 106.987 33.78 110.03C33.78 113.073 39.8555 115.54 47.35 115.54Z" fill="#001F2C"/>
<path d="M77.69 107.09C82.0531 107.09 85.59 105.653 85.59 103.88C85.59 102.107 82.0531 100.67 77.69 100.67C73.327 100.67 69.79 102.107 69.79 103.88C69.79 105.653 73.327 107.09 77.69 107.09Z" fill="#001F2C"/>
<path d="M72.3 137.73L66.08 136.32L61.76 141L63.64 147.08L69.85 148.49L74.18 143.82L72.3 137.73Z" fill="white" stroke="#001E2B" stroke-width="0.75" stroke-miterlimit="10"/>
<path d="M63.64 147.08L69.85 148.49L67.97 142.41L61.76 141L63.64 147.08Z" fill="#001E2B" stroke="#001E2B" stroke-width="0.75" stroke-miterlimit="10"/>
<path d="M72.3 137.73L67.97 142.41" stroke="#001E2B" stroke-width="0.75" stroke-miterlimit="10"/>
<path d="M103.85 79.38L101.73 80.08L89.1101 84.24C89.1101 84.24 89.0201 84.29 88.9901 84.33L86.0501 86.46L85.6401 86.76L89.7701 86.72H89.8201C89.8201 86.72 89.8401 86.73 89.8601 86.72H89.8801C89.8801 86.72 89.9101 86.72 89.9301 86.71L102.55 82.55L104.67 81.85C104.96 81.75 105.01 81.12 104.79 80.44C104.56 79.76 104.15 79.28 103.86 79.38H103.85Z" fill="#001E2B" stroke="#001E2B" stroke-linejoin="round"/>
<path d="M52.95 91.42C50.06 91.4 46.06 92.51 42.04 94.64C38.02 96.77 34.85 99.44 33.24 101.85L30.75 103.17L32.34 106.18V106.2C33.81 108.97 40.53 108.29 47.35 104.68C54.17 101.07 58.51 95.9 57.05 93.14L55.45 90.12L52.96 91.44L52.95 91.42Z" fill="#001F2C"/>
<path d="M45.7569 101.673C52.5774 98.0663 56.9198 92.8984 55.456 90.1301C53.9921 87.3619 47.2763 88.0416 40.4558 91.6483C33.6353 95.255 29.2929 100.423 30.7567 103.191C32.2206 105.959 38.9364 105.28 45.7569 101.673Z" fill="#00885A" stroke="#001E2B" stroke-miterlimit="10"/>
<path d="M34.2102 101.36C33.1102 99.28 34.8202 96.05 38.2902 92.89C32.7402 96.36 29.4502 100.73 30.7502 103.19C32.0502 105.65 37.5102 105.39 43.5102 102.76C38.9402 103.85 35.3102 103.44 34.2202 101.36H34.2102Z" fill="#001F2C"/>
<path d="M42.76 92.37L39.74 93.97L41.26 96.85C41.44 97.19 42.26 97.11 43.09 96.66C43.92 96.21 44.45 95.59 44.27 95.25L42.75 92.37H42.76Z" fill="#00C954" stroke="#001E2B" stroke-miterlimit="10"/>
<path d="M40.81 93.4L39.74 93.96L41.26 96.84C41.41 97.12 41.98 97.11 42.64 96.86L40.81 93.39V93.4Z" fill="#001F2C" stroke="#001E2B" stroke-miterlimit="10"/>
<path d="M38.0712 47.6743L34.8125 46.6699L20.4507 93.2669L23.7094 94.2713L38.0712 47.6743Z" fill="#001F2C" stroke="#001E2B" stroke-miterlimit="10"/>
<path d="M38.0792 47.6805L35.9673 47.0295L21.6055 93.6265L23.7174 94.2774L38.0792 47.6805Z" fill="#00C954" stroke="#001E2B" stroke-miterlimit="10"/>
<path d="M29.2501 90.36C40.2351 90.36 49.1401 81.4549 49.1401 70.47C49.1401 59.485 40.2351 50.58 29.2501 50.58C18.2652 50.58 9.36011 59.485 9.36011 70.47C9.36011 81.4549 18.2652 90.36 29.2501 90.36Z" fill="#A6FFEC" stroke="#001F2C" stroke-miterlimit="10"/>
<path d="M45.1601 82.3799C45.1001 82.3599 45.0401 82.3699 44.9901 82.3999L43.6301 83.1199C43.5801 83.1499 43.5401 83.1899 43.5201 83.2499L43.0601 84.7299C43.0601 84.7299 43.0601 84.7699 43.0601 84.7999C43.8301 84.0599 44.5401 83.2599 45.1801 82.3999H45.1601V82.3799Z" fill="#00C954" stroke="#001E2B" stroke-miterlimit="10"/>
<path d="M40.4564 68.1061L40.3651 68.4023C40.3293 68.5184 40.3944 68.6416 40.5105 68.6773L40.6634 68.7245C40.7795 68.7603 40.9027 68.6951 40.9385 68.579L41.0298 68.2828C41.0656 68.1667 41.0005 68.0435 40.8843 68.0077L40.7314 67.9606C40.6153 67.9248 40.4922 67.9899 40.4564 68.1061Z" fill="#00C954" stroke="#001E2B" stroke-miterlimit="10"/>
<path d="M48.0102 73.19C48.1202 73.13 48.2502 73.17 48.3102 73.28L48.8002 74.2C48.9302 73.52 49.0302 72.83 49.0802 72.15C49.0102 72.15 48.9402 72.11 48.9002 72.04L48.6102 71.49C48.5802 71.44 48.5802 71.38 48.5902 71.32L48.7902 70.67C48.8102 70.61 48.8002 70.55 48.7702 70.5L48.3702 69.74L48.4302 69.58L49.0002 69.28C49.0002 69.28 49.0802 69.25 49.1202 69.26C48.9302 66.13 48.0002 63.13 46.4502 60.47L45.6302 60.22C45.5702 60.2 45.5102 60.21 45.4602 60.24L41.9502 62.1C41.9002 62.13 41.8602 62.17 41.8402 62.23L41.5902 63.03C41.5702 63.09 41.5802 63.15 41.6102 63.2L41.7402 63.45C41.8002 63.56 41.9302 63.6 42.0402 63.54L42.4302 63.33C42.5402 63.27 42.6702 63.31 42.7302 63.42L42.7802 63.51C42.8102 63.56 42.8102 63.62 42.8002 63.68L42.7002 63.99C42.6802 64.05 42.6902 64.11 42.7202 64.16L42.8602 64.43C42.9202 64.54 43.0502 64.58 43.1602 64.52L43.5502 64.31C43.6002 64.28 43.6402 64.24 43.6602 64.18L44.0102 63.04C44.0302 62.98 44.0702 62.94 44.1202 62.91L45.6702 62.09C45.7802 62.03 45.9102 62.07 45.9702 62.18L46.1002 62.43C46.1602 62.54 46.1202 62.67 46.0102 62.73L45.1602 63.18C45.1102 63.21 45.0702 63.25 45.0502 63.31L44.5202 65.04C44.5002 65.1 44.4602 65.14 44.4102 65.17L43.4002 65.7C43.3502 65.73 43.2902 65.73 43.2302 65.72L40.9402 65.01C40.8802 64.99 40.8202 65 40.7702 65.03L39.7402 65.58C39.6902 65.61 39.6302 65.61 39.5702 65.6L39.0302 65.43C38.9102 65.39 38.7902 65.46 38.7502 65.58V65.6C38.7502 65.6 38.7402 65.69 38.7502 65.73L39.1102 66.4C39.1402 66.45 39.1402 66.51 39.1302 66.57L39.0402 66.87C39.0002 66.99 38.8802 67.05 38.7602 67.02L37.7302 66.7C37.6702 66.68 37.6102 66.69 37.5602 66.72L37.2302 66.89C37.1802 66.92 37.1402 66.96 37.1202 67.02L36.9302 67.65C36.9102 67.71 36.9202 67.77 36.9502 67.82L37.1902 68.27C37.2202 68.32 37.2202 68.38 37.2102 68.44L37.0502 68.96C37.0302 69.01 37.0002 69.06 36.9502 69.09L34.4002 70.54C34.4002 70.54 34.3102 70.61 34.3002 70.67L33.5802 72.99C33.5602 73.05 33.5702 73.11 33.6002 73.16L34.6302 75.1C34.6602 75.15 34.7002 75.19 34.7602 75.21L38.1502 76.25C38.2702 76.29 38.3302 76.41 38.3002 76.53L37.9902 77.53C37.9702 77.59 37.9802 77.65 38.0102 77.7L38.5602 78.74C38.5902 78.79 38.5902 78.85 38.5802 78.91L37.6802 81.82C37.6602 81.88 37.6702 81.94 37.7002 81.99L38.0002 82.56C38.0302 82.61 38.0302 82.67 38.0202 82.73L37.3902 84.76C37.3702 84.82 37.3802 84.88 37.4102 84.93L37.7002 85.47C37.7302 85.52 37.7702 85.56 37.8302 85.58L38.7002 85.85C38.7602 85.87 38.8202 85.86 38.8702 85.83L40.5802 84.93C40.6302 84.9 40.6702 84.86 40.6902 84.8L41.1702 83.24C41.1902 83.18 41.2302 83.14 41.2802 83.11L43.1002 82.15C43.1502 82.12 43.1902 82.08 43.2102 82.02L43.8402 79.97C43.8602 79.91 43.9002 79.87 43.9502 79.84L46.3402 78.58C46.3902 78.55 46.4302 78.51 46.4502 78.45L46.6802 77.7C46.7202 77.58 46.6502 77.46 46.5302 77.42L45.6902 77.16C45.6302 77.14 45.5902 77.1 45.5602 77.05L43.9002 73.91C43.8402 73.8 43.8802 73.67 43.9902 73.61L44.6002 73.29C44.7102 73.23 44.8402 73.27 44.9002 73.38L46.6702 76.74C46.7302 76.85 46.8602 76.89 46.9702 76.83L48.4002 76.08C48.4502 75.9 48.5002 75.72 48.5502 75.54L47.6002 73.74C47.5402 73.63 47.5802 73.5 47.6902 73.44L48.0602 73.25L48.0102 73.19ZM45.5702 71.95C45.5502 72.01 45.5102 72.05 45.4602 72.08L45.1602 72.24C45.1102 72.27 45.0502 72.27 44.9902 72.26L40.8702 70.99C40.8102 70.97 40.7702 70.93 40.7402 70.88L39.9702 69.42C39.9402 69.37 39.9002 69.33 39.8402 69.31L38.4302 68.87C38.3402 68.84 38.2902 68.74 38.3102 68.65V68.6C38.3102 68.6 38.3702 68.52 38.4102 68.5L40.4402 67.43C40.4902 67.4 40.5502 67.4 40.6102 67.41L41.0402 67.54C41.1002 67.56 41.1402 67.6 41.1702 67.65L41.6302 68.53C41.6902 68.64 41.6502 68.77 41.5402 68.83L41.2902 68.96C41.1802 69.02 41.1402 69.15 41.2002 69.26L41.4602 69.75C41.5202 69.86 41.6502 69.9 41.7602 69.84L42.5302 69.44C42.6402 69.38 42.6802 69.25 42.6202 69.14L41.9802 67.92C41.9202 67.81 41.9602 67.68 42.0702 67.62L42.1402 67.58C42.2502 67.52 42.3802 67.56 42.4402 67.67L43.1702 69.04C43.2002 69.09 43.2002 69.15 43.1902 69.21L43.0402 69.68C43.0002 69.8 43.0702 69.92 43.1902 69.96L43.3402 70.01C43.4602 70.05 43.5802 69.98 43.6202 69.86L43.6702 69.71C43.7302 69.52 43.9802 69.5 44.0802 69.67L44.3002 70.08C44.3302 70.13 44.3302 70.19 44.3202 70.25L44.2602 70.43C44.2202 70.55 44.2902 70.67 44.4102 70.71L45.4802 71.04C45.5402 71.06 45.5802 71.1 45.6102 71.15L45.7202 71.36C45.7502 71.41 45.7502 71.47 45.7402 71.53L45.6102 71.94L45.5702 71.95ZM47.4402 69.99C47.4002 70.11 47.2802 70.17 47.1602 70.14L46.5302 69.95C46.4702 69.93 46.4302 69.89 46.4002 69.84L46.2102 69.48C46.1802 69.43 46.1402 69.39 46.0802 69.37L45.5102 69.19C45.4502 69.17 45.3902 69.18 45.3402 69.21L45.1302 69.32C45.0802 69.35 45.0202 69.35 44.9602 69.34L44.5502 69.21C44.4302 69.17 44.3702 69.05 44.4002 68.93L44.4602 68.73C44.4802 68.67 44.5202 68.63 44.5702 68.6L45.2302 68.25C45.2802 68.22 45.3402 68.22 45.4002 68.23L46.8602 68.68C46.9202 68.7 46.9602 68.74 46.9902 68.79L47.4602 69.68C47.4902 69.73 47.4902 69.79 47.4802 69.85L47.4402 69.98V69.99Z" fill="#00C954" stroke="#001E2B" stroke-miterlimit="10"/>
<path d="M43.0396 70.5282L43.0101 70.6237C42.9743 70.7399 43.0394 70.863 43.1556 70.8988L43.4327 70.9842C43.5488 71.02 43.6719 70.9549 43.7077 70.8388L43.7372 70.7432C43.773 70.6271 43.7079 70.5039 43.5917 70.4682L43.3146 70.3827C43.1985 70.347 43.0754 70.4121 43.0396 70.5282Z" fill="#00C954" stroke="#001E2B" stroke-miterlimit="10"/>
<path d="M27.1501 78L27.3701 77.3C27.3901 77.24 27.4301 77.2 27.4801 77.17L28.3501 76.71C28.4001 76.68 28.4401 76.64 28.4601 76.58L28.6201 76.05C28.6401 75.99 28.6301 75.93 28.6001 75.88L27.9601 74.66C27.9301 74.61 27.8901 74.57 27.8301 74.55L26.9601 74.28C26.9001 74.26 26.8601 74.22 26.8301 74.17L25.5801 71.81C25.5501 71.76 25.5101 71.72 25.4501 71.7L24.7601 71.49C24.7001 71.47 24.6601 71.43 24.6301 71.38L24.0501 70.28C24.0201 70.23 23.9801 70.19 23.9201 70.17L22.0501 69.59C21.9901 69.57 21.9301 69.58 21.8801 69.61L21.4301 69.85C21.3801 69.88 21.3201 69.88 21.2601 69.87L20.2501 69.56C20.1301 69.52 20.0701 69.4 20.1001 69.28L20.3101 68.61C20.3301 68.55 20.3201 68.49 20.2901 68.44L20.1001 68.09C20.0401 67.98 19.9101 67.94 19.8001 68L19.6501 68.08C19.5401 68.14 19.4101 68.1 19.3501 67.99L19.3001 67.89C19.2401 67.78 19.2801 67.65 19.3901 67.59L19.6601 67.45C19.7701 67.39 19.8101 67.26 19.7501 67.15L19.6501 66.95C19.5901 66.84 19.4601 66.8 19.3501 66.86L18.7801 67.16C18.7301 67.19 18.6701 67.19 18.6101 67.18L18.2101 67.06C18.1501 67.04 18.1101 67 18.0801 66.95L17.8101 66.44C17.7801 66.39 17.7801 66.33 17.7901 66.27L18.1801 65C18.2001 64.94 18.2401 64.9 18.2901 64.87L18.9101 64.54C18.9601 64.51 19.0201 64.51 19.0801 64.52L20.7801 65.05C20.9001 65.09 20.9601 65.21 20.9301 65.33L20.8201 65.7C20.8001 65.76 20.8101 65.82 20.8401 65.87L21.0901 66.34C21.0901 66.34 21.1501 66.41 21.1901 66.43H21.2201C21.3401 66.47 21.4601 66.41 21.5001 66.29L21.5501 66.14C21.5701 66.08 21.5601 66.02 21.5301 65.97L21.4001 65.72C21.3701 65.67 21.3701 65.61 21.3801 65.55L21.6601 64.64C21.6801 64.58 21.7201 64.54 21.7701 64.51L25.2801 62.65C25.3901 62.59 25.5201 62.63 25.5801 62.74L25.8101 63.18C25.8701 63.29 26.0001 63.33 26.1101 63.27L26.8601 62.87C26.9701 62.81 27.0101 62.68 26.9501 62.57L26.8901 62.46C26.8301 62.35 26.7001 62.31 26.5901 62.37L26.3801 62.48C26.3801 62.48 26.2901 62.51 26.2501 62.49H26.2001C26.0801 62.44 26.0201 62.32 26.0501 62.2L26.1501 61.88C26.1901 61.76 26.1201 61.64 26.0001 61.6L25.6301 61.49C25.5101 61.45 25.4501 61.33 25.4801 61.21L25.5201 61.07C25.5601 60.95 25.6801 60.89 25.8001 60.92L27.6501 61.49C27.7101 61.51 27.7501 61.55 27.7801 61.6L27.9001 61.82C27.9601 61.93 27.9201 62.06 27.8101 62.12L27.6901 62.18C27.5201 62.27 27.5401 62.53 27.7301 62.59L28.5501 62.84C28.7401 62.9 28.9001 62.7 28.8101 62.53L28.3901 61.74C28.3601 61.69 28.3601 61.63 28.3701 61.57L28.5001 61.14C28.5201 61.08 28.5101 61.02 28.4801 60.97L27.3901 58.92C27.3601 58.87 27.3201 58.83 27.2601 58.81L26.6701 58.63C26.6101 58.61 26.5701 58.57 26.5401 58.52L25.9101 57.33C25.8801 57.28 25.8401 57.24 25.7801 57.22L25.0901 57.01C24.9701 56.97 24.8501 57.04 24.8101 57.16L24.0201 59.72C23.9801 59.84 23.8601 59.9 23.7401 59.87L22.9501 59.63C22.8301 59.59 22.7701 59.47 22.8001 59.35L23.1001 58.38C23.1401 58.26 23.0701 58.14 22.9501 58.1L22.2601 57.89C22.2001 57.87 22.1601 57.83 22.1301 57.78L21.4401 56.47C21.3801 56.36 21.4201 56.23 21.5301 56.17L25.4201 54.11C25.5301 54.05 25.6601 54.09 25.7201 54.2L26.3201 55.34C26.3801 55.45 26.3401 55.58 26.2301 55.64L25.8201 55.86C25.7701 55.89 25.7101 55.89 25.6501 55.88L25.4401 55.82C25.3301 55.78 25.2001 55.85 25.1701 55.96C25.1401 56.07 25.2001 56.2 25.3101 56.23L26.1501 56.49C26.2101 56.51 26.2501 56.55 26.2801 56.6L26.9701 57.9C27.0301 58.01 27.1601 58.05 27.2701 57.99L27.7001 57.76C27.8101 57.7 27.8501 57.57 27.7901 57.46L27.2601 56.46C27.2101 56.37 27.2501 56.27 27.3301 56.22C27.4201 56.17 27.5201 56.21 27.5701 56.29L27.8101 56.75C27.8701 56.86 28.0001 56.9 28.1101 56.84L28.5601 56.6C28.6701 56.54 28.7101 56.41 28.6501 56.3L27.5601 54.24C27.5301 54.19 27.4901 54.15 27.4301 54.13L26.8401 53.95C26.7801 53.93 26.7401 53.89 26.7101 53.84L26.1201 52.72C26.0901 52.67 26.0501 52.63 25.9901 52.61L24.0201 52C23.9001 51.96 23.7801 52.03 23.7401 52.15L23.5301 52.82C23.5101 52.88 23.5201 52.94 23.5501 52.99L23.9701 53.78C24.0301 53.89 23.9901 54.02 23.8801 54.08L23.3601 54.35C23.2501 54.41 23.1201 54.37 23.0601 54.26L22.6901 53.56C22.6601 53.51 22.6601 53.45 22.6701 53.39L23.1101 51.96C23.1501 51.84 23.0801 51.72 22.9601 51.68L22.7801 51.62C22.6501 51.67 22.5101 51.71 22.3801 51.76L21.9901 53.04C21.9501 53.16 21.8301 53.22 21.7101 53.19L20.1801 52.72C17.8001 53.93 15.6601 55.62 13.9201 57.7L14.1601 58.15C14.1901 58.2 14.1901 58.26 14.1801 58.32L13.7201 59.82C13.7001 59.88 13.7101 59.94 13.7401 59.99L14.1501 60.76C14.1801 60.81 14.1801 60.87 14.1701 60.93L13.8301 62.05C13.8101 62.11 13.8201 62.17 13.8501 62.22L14.2101 62.9C14.2401 62.95 14.2401 63.01 14.2301 63.07L13.9301 64.06C13.8901 64.18 13.9601 64.3 14.0801 64.34L14.3801 64.43C14.4401 64.45 14.4801 64.49 14.5101 64.54L14.7301 64.96C14.7601 65.01 14.8001 65.05 14.8601 65.07L15.1401 65.16C15.2601 65.2 15.3801 65.13 15.4201 65.01L15.4901 64.79C15.5101 64.73 15.5001 64.67 15.4701 64.62L14.7001 63.17L14.9301 63.24C14.9901 63.26 15.0301 63.3 15.0601 63.35L16.1301 65.37C16.1601 65.42 16.1601 65.48 16.1501 65.54L16.0101 65.98C15.9901 66.04 16.0001 66.1 16.0301 66.15L16.7501 67.51C16.7801 67.56 16.8201 67.6 16.8801 67.62L18.1001 68C18.1601 68.02 18.2001 68.06 18.2301 68.11L19.2901 70.11C19.3201 70.16 19.3601 70.2 19.4201 70.22L19.8701 70.36C19.9301 70.38 19.9901 70.37 20.0401 70.34L20.1701 70.27C20.2801 70.21 20.4101 70.25 20.4701 70.36L20.5801 70.57C20.6101 70.62 20.6101 70.68 20.6001 70.74L20.0501 72.52C20.0101 72.64 19.8901 72.7 19.7701 72.67L19.4201 72.56C19.3001 72.52 19.1801 72.59 19.1401 72.71L19.0201 73.09C18.9801 73.21 19.0501 73.33 19.1701 73.37L19.4901 73.47C19.6101 73.51 19.6701 73.63 19.6401 73.75L19.5601 74.01C19.5401 74.07 19.5501 74.13 19.5801 74.18L20.3501 75.64C20.3801 75.69 20.3801 75.75 20.3701 75.81L19.1301 79.84C19.1101 79.9 19.0701 79.94 19.0201 79.97L18.6101 80.19C18.5601 80.22 18.5201 80.26 18.5001 80.32L17.2301 84.43C17.2101 84.49 17.2201 84.55 17.2501 84.6L17.4301 84.93C17.4601 84.98 17.5001 85.02 17.5601 85.04L17.9201 85.15C18.0401 85.19 18.1601 85.12 18.2001 85L18.4801 84.09C18.5001 84.03 18.5401 83.99 18.5901 83.96L19.6901 83.38C19.7401 83.35 19.7801 83.31 19.8001 83.25L19.9501 82.76C19.9701 82.7 20.0101 82.66 20.0601 82.63L24.7101 80.17C24.7601 80.14 24.8001 80.1 24.8201 80.04L25.0501 79.29C25.0701 79.23 25.1101 79.19 25.1601 79.16L27.0401 78.17C27.0901 78.14 27.1301 78.1 27.1501 78.04V78Z" fill="#00C954" stroke="#001E2B" stroke-miterlimit="10"/>
<path d="M23.8302 51.4999L25.7502 52.0899C25.8702 52.1299 25.9902 52.0599 26.0302 51.9399V51.8999C26.0802 51.7799 26.0102 51.6599 25.9002 51.6199L24.4102 51.1599C24.1702 51.2199 23.9302 51.2899 23.6902 51.3599V51.3799C23.7302 51.4299 23.7802 51.4699 23.8302 51.4899V51.4999Z" fill="#00C954" stroke="#001E2B" stroke-miterlimit="10"/>
<path d="M21.7201 52.0599C21.7201 52.0599 21.6401 52.0899 21.6001 52.1099C21.6201 52.1099 21.6401 52.1099 21.6601 52.0899L21.7201 52.0599Z" fill="#00C954" stroke="#001E2B" stroke-miterlimit="10"/>
<path d="M27.39 50.6599C26.68 50.7299 25.98 50.8299 25.28 50.9699L26.15 51.2399C26.21 51.2599 26.27 51.2499 26.32 51.2199L27.39 50.6499V50.6599Z" fill="#00C954" stroke="#001E2B" stroke-miterlimit="10"/>
<path d="M23.7001 55.47C23.6401 55.45 23.5801 55.46 23.5301 55.49L23.4101 55.55C23.3001 55.61 23.2601 55.74 23.3201 55.85L23.4401 56.08C23.4701 56.13 23.5101 56.17 23.5701 56.19L24.1301 56.36C24.2501 56.4 24.3701 56.33 24.4101 56.21L24.4901 55.94C24.5301 55.82 24.4601 55.7 24.3401 55.66L23.7001 55.46V55.47Z" fill="#00C954" stroke="#001E2B" stroke-miterlimit="10"/>
<path d="M28.2202 50.69L27.8802 51.79C27.8402 51.91 27.9102 52.03 28.0302 52.07L30.1202 52.71C30.1802 52.73 30.2202 52.77 30.2502 52.82L30.9102 54.07C30.9402 54.12 30.9402 54.18 30.9302 54.24L30.0702 57.02C30.0502 57.08 30.0602 57.14 30.0902 57.19L31.2502 59.39C31.3102 59.5 31.4402 59.54 31.5502 59.48L34.8602 57.73C34.9102 57.7 34.9702 57.7 35.0302 57.71L36.0402 58.02C36.1002 58.04 36.1602 58.03 36.2102 58L37.0402 57.56C37.0902 57.53 37.1302 57.49 37.1502 57.43L37.4202 56.56C37.4402 56.5 37.4802 56.46 37.5302 56.43L38.0502 56.15C38.1002 56.12 38.1402 56.08 38.1602 56.02L38.6102 54.56C38.6302 54.5 38.6702 54.46 38.7202 54.43L40.0002 53.76C40.0002 53.76 40.0302 53.74 40.0402 53.73C38.5502 52.77 36.9102 52 35.1302 51.45C33.6202 50.98 32.0902 50.71 30.5802 50.61L30.0002 50.92C29.9502 50.95 29.8902 50.95 29.8302 50.94L28.6502 50.58C28.5302 50.58 28.4202 50.58 28.3002 50.59C28.2702 50.62 28.2502 50.65 28.2402 50.68L28.2202 50.69Z" fill="#00C954" stroke="#001E2B" stroke-miterlimit="10"/>
<path d="M39.0202 64.16C38.9702 64.19 38.9302 64.23 38.9102 64.29L38.8602 64.45C38.8202 64.57 38.8902 64.69 39.0102 64.73L39.8002 64.97C39.8602 64.99 39.9202 64.98 39.9702 64.95L40.1602 64.85C40.2102 64.82 40.2502 64.78 40.2702 64.72L40.3602 64.43C40.3802 64.37 40.3702 64.31 40.3402 64.26L39.9902 63.61C39.9602 63.56 39.9602 63.5 39.9702 63.44L40.2002 62.68C40.2402 62.56 40.1702 62.44 40.0502 62.4L39.8402 62.33C39.7802 62.31 39.7202 62.32 39.6702 62.35L39.2902 62.55C39.2402 62.58 39.2002 62.62 39.1802 62.68L39.0502 63.1C39.0302 63.16 39.0402 63.22 39.0702 63.27L39.3202 63.74C39.3802 63.85 39.3402 63.98 39.2302 64.04L39.0202 64.15V64.16Z" fill="#00C954" stroke="#001E2B" stroke-miterlimit="10"/>
<path d="M38.0801 63.6L37.9901 63.65C37.9401 63.68 37.9001 63.72 37.8801 63.78L37.7901 64.06C37.7501 64.18 37.8201 64.3 37.9401 64.34L38.0101 64.36C38.1301 64.4 38.2501 64.33 38.2901 64.21L38.4001 63.86C38.4601 63.67 38.2601 63.51 38.0901 63.6H38.0801Z" fill="#00C954" stroke="#001E2B" stroke-miterlimit="10"/>
<path d="M37.9001 59.03L36.8101 58.71C36.7501 58.69 36.6901 58.7 36.6401 58.73L36.1601 58.99C36.0501 59.05 36.0101 59.18 36.0701 59.29L36.3801 59.87C36.4101 59.92 36.4501 59.96 36.5101 59.98L37.2401 60.2C37.3001 60.22 37.3601 60.21 37.4101 60.18L38.1301 59.8C38.2401 59.74 38.2801 59.61 38.2201 59.5L38.0301 59.15C38.0001 59.1 37.9501 59.06 37.9001 59.04V59.03Z" fill="#00C954" stroke="#001E2B" stroke-miterlimit="10"/>
<path d="M15.3 66.17C17.9 57.75 25.14 52.04 33.35 51.01C23.4 48.9 13.3 54.7 10.25 64.62C7.18998 74.53 12.27 85.01 21.68 88.87C15.48 83.39 12.7 74.6 15.3 66.18V66.17Z" fill="#001F2C"/>
<path d="M36.9201 45.59C35.7101 45.22 34.4901 44.94 33.2801 44.75L32.3301 47.83C33.5501 48 34.7701 48.26 35.9801 48.64C48.0401 52.36 54.8001 65.14 51.0801 77.2C47.3601 89.26 34.5801 96.02 22.5201 92.3C21.3101 91.93 20.1501 91.46 19.0501 90.91L18.1001 93.99C19.2101 94.52 20.3701 94.97 21.5801 95.34C35.3201 99.58 49.8901 91.87 54.1201 78.13C58.3601 64.39 50.6501 49.82 36.9101 45.59H36.9201Z" fill="#00885A" stroke="#001E2B" stroke-miterlimit="10"/>
<path d="M112.62 99.4099L132.77 90.8099V88.5599L112.62 99.4099Z" fill="#001F2C"/>
<path d="M74.5203 106.53C78.3587 106.53 81.4703 103.418 81.4703 99.58C81.4703 95.7416 78.3587 92.63 74.5203 92.63C70.6819 92.63 67.5703 95.7416 67.5703 99.58C67.5703 103.418 70.6819 106.53 74.5203 106.53Z" fill="#00ED64" stroke="#001E2B" stroke-miterlimit="10"/>
<path d="M74.8702 94.37C74.8702 94.37 74.4202 96.37 72.2302 95.47" stroke="#001E2B" stroke-linecap="round" stroke-linejoin="round"/>
<path d="M71.4802 105.84C70.8502 105.24 70.3102 104.51 69.9102 103.68C68.0602 99.8899 69.6302 95.3099 73.4202 93.4599C74.1902 93.0799 74.9902 92.8499 75.7902 92.7499C74.3702 92.4899 72.8602 92.6599 71.4702 93.3399C68.0202 95.0299 66.5902 99.1899 68.2702 102.64C68.9802 104.09 70.1302 105.18 71.4802 105.84Z" fill="#001E2B" stroke="#001E2B" stroke-linejoin="round"/>
<path d="M73.8101 95.48C73.8101 95.48 70.0501 93.37 71.8801 89.33L73.7701 90.01C73.7701 90.01 72.2101 92.09 73.8101 95.48Z" fill="white" stroke="#001E2B" stroke-linejoin="round"/>
<path d="M85.6399 86.75L85.3499 82.48L82.9299 83.44L85.6399 86.75Z" fill="#00ED64" stroke="#001E2B" stroke-linejoin="round"/>
<path d="M85.6099 86.25L85.6399 86.75L82.9299 83.44L83.2099 83.33L85.6099 86.25Z" fill="#001F2C"/>
<path d="M85.19 85.6099C85.32 85.5599 85.44 85.4999 85.55 85.4399L85.64 86.7599L84.8 85.7399C84.92 85.7099 85.05 85.6699 85.18 85.6199L85.19 85.6099Z" fill="#001F2C"/>
<path d="M80.44 70.14L85.35 82.48C85.46 82.76 85.01 83.21 84.34 83.47C83.67 83.73 83.04 83.72 82.93 83.44L78.02 71.1L80.44 70.14Z" fill="#00ED64" stroke="#001E2B" stroke-linejoin="round"/>
<path d="M83.93 83.61C83.43 83.73 83.02 83.67 82.93 83.45L78.02 71.11L78.83 70.79L83.93 83.62V83.61Z" fill="#001F2C"/>
<path d="M79.62 68.0601L80.45 70.1401C80.56 70.4201 80.11 70.8701 79.44 71.1301C78.77 71.3901 78.14 71.3801 78.03 71.1001L77.2 69.0201L79.62 68.0601Z" fill="#00ED64" stroke="#001E2B" stroke-linejoin="round"/>
<path d="M78.6107 69.0534C79.2779 68.7883 79.7278 68.3446 79.6157 68.0623C79.5035 67.78 78.8717 67.7661 78.2045 68.0312C77.5372 68.2963 77.0873 68.7401 77.1994 69.0224C77.3116 69.3047 77.9434 69.3186 78.6107 69.0534Z" fill="#00885A" stroke="#001E2B" stroke-linejoin="round"/>
<path d="M84.7301 83.2901L79.8301 70.9401" stroke="#231F20" stroke-linejoin="round"/>
<path d="M79.02 71.26L83.93 83.61" stroke="#231F20" stroke-linejoin="round"/>
<path d="M58.6101 54.61L77.9101 62.34L98.1901 40.21L78.8901 32.48L58.6101 54.61Z" fill="#006CFA" stroke="#001F2C" stroke-linejoin="round"/>
<path d="M58.6101 54.61L77.9101 62.34L98.1901 40.21L78.8901 32.48L58.6101 54.61Z" fill="#00C954" stroke="#001E2B" stroke-miterlimit="10"/>
<path d="M81.7002 33.61L79.2102 36.33L92.5702 41.68L95.0702 38.96L81.7002 33.61Z" fill="#001E2B" stroke="#001F2C" stroke-linejoin="round"/>
<path d="M62.5601 53.71L79.5101 35.21L94.2401 41.11L77.2901 59.61L62.5601 53.71Z" fill="white" stroke="#001F2C" stroke-miterlimit="10"/>
<path d="M81.3502 32.23L79.2102 36.33L92.5702 41.68L94.7102 37.58L81.3502 32.23Z" fill="#00885A" stroke="#001E2B" stroke-miterlimit="10"/>
<path d="M78.3101 39.9299L77.0801 41.2699L78.6201 41.8899L79.8501 40.5499L78.3101 39.9299Z" fill="#A6FFEC" stroke="#001F2C" stroke-miterlimit="10"/>
<path d="M74.9102 43.46L73.6802 44.81L75.2202 45.42L76.4502 44.08L74.9102 43.46Z" fill="#A6FFEC" stroke="#001F2C" stroke-miterlimit="10"/>
<path d="M71.5501 47.12L70.3101 48.47L71.8601 49.08L73.0901 47.74L71.5501 47.12Z" fill="#A6FFEC" stroke="#001F2C" stroke-miterlimit="10"/>
<path d="M74.1702 49.0499L81.2902 51.8799" stroke="#001E2B" stroke-miterlimit="10"/>
<path d="M68.1902 50.78L66.9602 52.12L68.5002 52.74L69.7402 51.4L68.1902 50.78Z" fill="#A6FFEC" stroke="#001F2C" stroke-miterlimit="10"/>
<path d="M70.8201 52.71L77.9401 55.54" stroke="#001E2B" stroke-miterlimit="10"/>
<path d="M77.54 45.39L84.65 48.22" stroke="#001E2B" stroke-miterlimit="10"/>
<path d="M80.9402 41.89L88.0602 44.72" stroke="#001E2B" stroke-miterlimit="10"/>
<path d="M82.0801 68.96L87.0501 66.29" stroke="#001E2B" stroke-miterlimit="10"/>
<path d="M59.8601 80.93L76.2601 72.1" stroke="#001E2B" stroke-miterlimit="10"/>
<path d="M6.95009 77.39C5.60009 73.05 5.50009 68.27 6.94009 63.59C9.40009 55.6 15.7601 49.89 23.2901 47.89" stroke="#001E2B" stroke-miterlimit="10"/>
<path d="M56.8601 132.99L82.9301 119.09" stroke="#001E2B" stroke-miterlimit="10"/>
<path d="M112.62 99.41L92.3 120.89L82.48 115.64L112.62 99.41Z" fill="#001F2C"/>
</svg>
