<svg id="dh_-_speakers" data-name="dh - speakers" xmlns="http://www.w3.org/2000/svg" xmlns:xlink="http://www.w3.org/1999/xlink" viewBox="0 0 140 200"><defs><linearGradient id="linear-gradient" x1="10.91328" y1="98.4349" x2="25.48631" y2="98.4349" gradientUnits="userSpaceOnUse"><stop offset="0" stop-color="#0ad05b"/><stop offset="1" stop-color="#7accda"/></linearGradient><linearGradient id="linear-gradient-2" x1="10.91328" y1="119.41462" x2="25.48631" y2="119.41462" xlink:href="#linear-gradient"/><linearGradient id="linear-gradient-3" x1="1.69263" y1="85.44437" x2="138" y2="85.44437" xlink:href="#linear-gradient"/><linearGradient id="linear-gradient-4" x1="1.68455" y1="99.76013" x2="137.99999" y2="99.76013" gradientUnits="userSpaceOnUse"><stop offset="0" stop-color="#7dc5db"/><stop offset="0.49537" stop-color="#0ad05b"/><stop offset="0.72845" stop-color="#7accda"/><stop offset="1" stop-color="#0ad05b"/></linearGradient><linearGradient id="linear-gradient-5" x1="33.02488" y1="64.78234" x2="64.55077" y2="64.78234" gradientUnits="userSpaceOnUse"><stop offset="0" stop-color="#f87216"/><stop offset="1" stop-color="#d24f93"/></linearGradient><linearGradient id="linear-gradient-6" x1="33.02491" y1="62.50087" x2="64.55075" y2="62.50087" xlink:href="#linear-gradient-5"/><linearGradient id="linear-gradient-7" x1="46.43896" y1="55.27359" x2="51.27764" y2="55.27359" xlink:href="#linear-gradient-5"/><linearGradient id="linear-gradient-8" x1="32.28757" y1="42.18868" x2="67.99685" y2="42.18868" xlink:href="#linear-gradient-5"/><linearGradient id="linear-gradient-9" x1="32.89845" y1="39.3842" x2="64.67721" y2="39.3842" xlink:href="#linear-gradient"/><linearGradient id="linear-gradient-10" x1="32.89844" y1="39.3842" x2="64.67721" y2="39.3842" gradientUnits="userSpaceOnUse"><stop offset="0" stop-color="#7accda"/><stop offset="0.99796" stop-color="#6e60f9"/></linearGradient><clipPath id="clip-path"><circle cx="48.78782" cy="39.3842" r="15.88938" fill="none" stroke="#0c1c27" stroke-linecap="round" stroke-linejoin="round"/></clipPath><linearGradient id="linear-gradient-11" x1="31.18941" y1="39.45017" x2="66.7875" y2="39.45017" gradientUnits="userSpaceOnUse"><stop offset="0" stop-color="#7accda"/><stop offset="1" stop-color="#0ad05b"/></linearGradient><linearGradient id="linear-gradient-12" x1="49.97131" y1="93.54758" x2="109.57784" y2="93.54758" xlink:href="#linear-gradient"/><linearGradient id="linear-gradient-13" x1="66.80627" y1="90.26286" x2="104.06091" y2="90.26286" xlink:href="#linear-gradient"/><linearGradient id="linear-gradient-14" x1="102.50723" y1="92.50458" x2="105.55414" y2="92.50458" gradientUnits="userSpaceOnUse"><stop offset="0" stop-color="#6e60f8"/><stop offset="1" stop-color="#7acedc"/></linearGradient><linearGradient id="linear-gradient-15" x1="101.53602" y1="93.16411" x2="104.28959" y2="93.16411" gradientUnits="userSpaceOnUse"><stop offset="0" stop-color="#cd4f9b"/><stop offset="0.17494" stop-color="#df6590"/><stop offset="0.35699" stop-color="#ec7589"/><stop offset="0.49791" stop-color="#f17b86"/><stop offset="0.69602" stop-color="#f28480"/><stop offset="1" stop-color="#f59a72"/></linearGradient><linearGradient id="linear-gradient-16" x1="102.68131" y1="92.09115" x2="102.71964" y2="92.09115" xlink:href="#linear-gradient-15"/><linearGradient id="linear-gradient-17" x1="102.71964" y1="92.07243" x2="102.74668" y2="92.07243" xlink:href="#linear-gradient-15"/><linearGradient id="linear-gradient-18" x1="89.38011" y1="97.20899" x2="103.84946" y2="97.20899" xlink:href="#linear-gradient-14"/><linearGradient id="linear-gradient-19" x1="89.29544" y1="96.34507" x2="103.65437" y2="96.34507" xlink:href="#linear-gradient-14"/><linearGradient id="linear-gradient-20" x1="87.18646" y1="101.43206" x2="90.42959" y2="101.43206" gradientUnits="userSpaceOnUse"><stop offset="0" stop-color="#0ad05b"/><stop offset="1" stop-color="#7acedc"/></linearGradient></defs><polygon points="33.463 141.354 3.328 123.838 3.259 72.572 33.368 90.073 33.463 141.354" fill="#21313c" stroke="#0c1c27" stroke-linecap="round" stroke-linejoin="round"/><polygon points="31.049 136.264 5.582 121.32 5.513 102.565 30.954 117.494 31.049 136.264" fill="#21313c" stroke="#0c1c27" stroke-linecap="round" stroke-linejoin="round"/><polygon points="31.049 114.482 5.582 99.538 5.513 80.784 30.954 95.712 31.049 114.482" fill="#21313c" stroke="#0c1c27" stroke-linecap="round" stroke-linejoin="round"/><polyline points="24.986 100.56 22.22 102.174 11.413 95.814 13.376 94.696" fill="none" stroke-linecap="round" stroke-linejoin="round" stroke="url(#linear-gradient)"/><polyline points="24.986 121.54 22.22 123.153 11.413 116.793 13.376 115.676" fill="none" stroke-linecap="round" stroke-linejoin="round" stroke="url(#linear-gradient-2)"/><polygon points="76.937 65.238 77.033 116.519 33.558 141.354 33.463 90.073 76.937 65.238" fill="#21313c" stroke="#0c1c27" stroke-linecap="round" stroke-linejoin="round"/><polygon points="95.601 140.656 65.466 123.14 65.397 71.874 95.506 89.376 95.601 140.656" fill="#21313c" stroke="#0c1c27" stroke-linecap="round" stroke-linejoin="round"/><polygon points="137.017 100.389 137.112 151.67 93.638 176.505 93.543 125.224 137.017 100.389" fill="#21313c" stroke="#0c1c27" stroke-linecap="round" stroke-linejoin="round"/><polygon points="93.638 176.505 90.698 174.797 90.629 123.531 93.543 125.224 93.638 176.505" fill="#21313c" stroke="#0c1c27" stroke-linecap="round" stroke-linejoin="round"/><path d="M137.61512,98.82783a.5673.5673,0,0,1,.006,1.07225L94.776,124.93321a2.04714,2.04714,0,0,1-1.85115,0L2.07751,72.06091a.5673.5673,0,0,1-.006-1.07226L44.91664,45.95553a2.04715,2.04715,0,0,1,1.85114,0Z" stroke="#0c1c27" stroke-linecap="round" stroke-linejoin="round" fill="url(#linear-gradient-3)"/><path d="M137.62116,99.90009,94.776,124.93321a2.04709,2.04709,0,0,1-1.85114,0L2.07751,72.0609a.65391.65391,0,0,1-.38488-.53988l-.00808,2.84483a.654.654,0,0,0,.38491.53989l90.84732,52.87232a2.04716,2.04716,0,0,0,1.85116,0l42.84514-25.03312a.64887.64887,0,0,0,.37886-.53237L138,99.36772A.64886.64886,0,0,1,137.62116,99.90009Z" stroke="#0c1c27" stroke-linecap="round" stroke-linejoin="round" fill="url(#linear-gradient-4)"/><path d="M64.55077,62.50083H60.79462L49.14787,55.82367a1.04053,1.04053,0,0,0-.9409,0L36.64131,62.50083H33.02488v2.28149h.00555a.3484.3484,0,0,0,.19011.24017L48.42778,73.741a1.04037,1.04037,0,0,0,.9409-.00005l14.98949-8.65382a.30919.30919,0,0,0,.187-.30482h.00555Z" stroke="#0c1c27" stroke-linecap="round" stroke-linejoin="round" fill="url(#linear-gradient-5)"/><path d="M64.35513,62.26069a.28834.28834,0,0,1,.00306.545L49.36868,71.45954a1.04048,1.04048,0,0,1-.94088,0L33.22054,62.74106a.28835.28835,0,0,1-.00307-.545L48.207,53.5422a1.04051,1.04051,0,0,1,.94088,0Z" stroke="#0c1c27" stroke-linecap="round" stroke-linejoin="round" fill="url(#linear-gradient-6)"/><path d="M46.439,46.7868V62.27065c0,.82275,1.0832,1.48972,2.41934,1.48972s2.41934-.667,2.41934-1.48972V46.7868Z" stroke="#0c1c27" stroke-linecap="round" stroke-linejoin="round" fill="url(#linear-gradient-7)"/><path d="M65.377,29.71493l-.03233.01893A19.18494,19.18494,0,0,0,62.337,25.835L60.02332,28.1487A15.88883,15.88883,0,1,1,35.07958,47.41605l-2.792,1.6312a19.191,19.191,0,0,0,2.97237,3.86483l-.02133.02133a19.08364,19.08364,0,0,0,12.33787,5.56938l.03314.00234c.23587.01444.47179.02353.7079.02931.10586.00292.21162.00636.31763.0076.14349.00115.28684-.001.43029-.003.19451-.00215.38892-.00578.58362-.01391.0571-.00254.11409-.00641.17118-.00947A19.159,19.159,0,0,0,65.377,29.71493Z" stroke="#0c1c27" stroke-linecap="round" stroke-linejoin="round" fill="url(#linear-gradient-8)"/><circle cx="48.78783" cy="39.3842" r="15.88938" stroke="#0c1c27" stroke-linecap="round" stroke-linejoin="round" fill="url(#linear-gradient-9)"/><circle cx="48.78783" cy="39.3842" r="15.88938" fill="url(#linear-gradient-10)"/><g clip-path="url(#clip-path)"><g id="Oac0GI"><path d="M48.818,21.67392A17.77754,17.77754,0,1,1,31.19035,39.62114,17.7368,17.7368,0,0,1,48.818,21.67392ZM33.18823,33.15465a4.142,4.142,0,0,0-.19612.42829,16.97751,16.97751,0,0,0,14.0542,22.7677,16.58907,16.58907,0,0,0,10.5685-2.2589,16.776,16.776,0,0,0,4.22225-3.48867,1.264,1.264,0,0,0,.14091-1.719,1.59254,1.59254,0,0,1-.4091-1.21743,1.57482,1.57482,0,0,0-.23107-.90385.93937.93937,0,0,1-.10118-1.2785,1.35283,1.35283,0,0,0-.12218-1.82528,1.62262,1.62262,0,0,1-.31908-.5165c-.15875-.67331-.277-1.35616-.40446-2.00462-.40647-.17265-.86173-.37891-1.32776-.557a1.04693,1.04693,0,0,0-.52749-.07075c-.60821.10792-1.21579.22891-1.81342.38419a.95048.95048,0,0,1-1.24481-.41879,5.27586,5.27586,0,0,0-.72865-.82041,1.71873,1.71873,0,0,1-.24731-2.22343.56886.56886,0,0,0-.12393-.5119c-.28649-.27979-.37462-.511-.00614-.771.41613-.29361.8514-.56347,1.24388-.88564a1.00893,1.00893,0,0,0,.34808-.576,1.24741,1.24741,0,0,1,1.34234-1.19781c.434-.01721.86167-.15874,1.29587-.2165.65473-.08708,1.31268-.14992,2.07948-.23535-.29353.97788.25809,1.15583.9137,1.27639a8.253,8.253,0,0,1,.92892.294.8192.8192,0,0,0,.20548.00234l.16215-.67967c.46252.17106.87334.32985,1.28907.47459.33515.11669.67621.21642,1.01465.32367l.17712-.23077L63.86729,31.8769l-.65133,1.297a7.38271,7.38271,0,0,1-.52069-1.166,1.39887,1.39887,0,0,0-1.59042-.98755c.07505.51634.08195.50594.77035.96269.13228.08777.283.31391.25568.43918a.98338.98338,0,0,1-.36576.58565c-.125.0795-.38237-.049-.5806-.0846l.0338-.14376.69764-.19727-1.61447-1.25229c-.14506.0913-.33687.31351-.48234.28647-.733-.13627-.99535.43852-1.20733.87552a1.15823,1.15823,0,0,1-1.32978.65522c-.75976-.04645-1.01259-.30442-.95184-1.021.04956-.58456.361-.797,1.07818-.72463.18159.01832.38784.12837.53242.0705a.52156.52156,0,0,0,.20935-.43539,4.43354,4.43354,0,0,0-.21221-.8017A1.73161,1.73161,0,0,0,59.32667,29.47a1.79323,1.79323,0,0,1,.84693-.3833,3.67346,3.67346,0,0,1,.82922-.01247l-.10386-.72636a1.32885,1.32885,0,0,1-1.3568-.57394c-.24946-.68136.548-.6084.79654-.99281a17.10437,17.10437,0,0,0-11.39832-4.34752,16.66223,16.66223,0,0,0-9.39474,2.91251c.97592-.01036,1.68026.99956,2.69411.72871l.05911-.21148-.93312-.24049c.12856-.62572-.475-.37513-.84206-.51487.13624-.11155.212-.17464.28892-.23641a1.21527,1.21527,0,0,1,1.91309.04971.78968.78968,0,0,0,1.05919.04054,4.10153,4.10153,0,0,1,.55549-.25454c-.2251.80168-.831.71929-1.38046.91741.11617.19942.28754.43881.424.42034a9.22405,9.22405,0,0,0,1.4654-.35962.53593.53593,0,0,0-.01891-.41438c-.34524-.27417-.13978-.429.11526-.46843a6.18466,6.18466,0,0,1,1-.01382,4.31008,4.31008,0,0,0-.25157.91412c-.00374.06094.37093.14508.7142.2709-.29681-.91444.20679-1.05006.752-1.22969.9242-.30449,1.60408.26851,2.36174.57163.06046.02419.09777.12072.13331.19.12446.24273.24343.48828.42109.84709L48.74,27.07933l-1.35188-.31815,1.16405-.67073a1.25634,1.25634,0,0,0-1.68758-.181c-.22965.17575-.481.32319-.72248.48347l.06081.04839-.75371.72608-.28207-.664c-.60831.32452-1.1844.61062-1.73573.93837-.17491.104-.4316.37674-.39436.472a1.488,1.488,0,0,0,.53235.66181,2.413,2.413,0,0,0,.76349.1985l.12483.90342.15025.07341c.1353-.167.25932-.345.40882-.49814.17576-.18.35121-.43651.56661-.48576.4385-.10027.519-.32129.5206-.72984.00336-.85769.27068-.99515,1.09735-.89012.62439.07933.6903.41236.568,1.01692l1.19143-.41079c.07772.60505.10231.5868.62672,1.29368.102.13746-.04232.48889-.13021.71986-.03324.08734-.22824.11314-.34113.16327.05023.46789.943.2411.65478.96514l-1.13865-.34525.21714-.67964c-.45943.02725-.82372.07491-1.18552.06041a4.8882,4.8882,0,0,1-.6336-.16645c-.03127-.00573-.15085.208-.13129.22913a6.79954,6.79954,0,0,0,.55611.48808c-.07865.03524-.20435.13652-.255.10737-.57915-.33309-.77961.191-1.08717.46539-.14725.13137-.273.28809-.42648.411a17.2,17.2,0,0,0-1.37192,1.091c-.3174.31281-.45893.8232-.80085,1.088-.69978.54188-1.62841.87817-1.22206,2.14085l-.2598.00293-.67033-.82936.10334-.14975c-.40379,0-.80772.007-1.21134-.00131a2.11974,2.11974,0,0,0-2.292,1.41884.98764.98764,0,0,0,.118,1.24174.95478.95478,0,0,0,1.23736-.10173c.27728-.20719.5858-.37257.88036-.55664l.14585.12559-.30747,1.01293.88261.22168.16535,1.50485c.70792.17638,1.38464.46137,1.91385-.35024a.97682.97682,0,0,1,1.51028-.02609c.37782.52044.8008.30668,1.2444.22977.16366-.02838.392-.08847.48977-.00931.215.174.34136.45474.54966.64064a1.32811,1.32811,0,0,0,.66118.38119c.79986.07291,1.00577.22409,1.0611,1.07385a.70018.70018,0,0,0,.595.73484c.57263.11265,1.155.17514,1.72982.27777a1.30493,1.30493,0,0,1,.5849.20371c.31583.25837.58676.57163.95713.94372-.03807.10923-.05409.4242-.21979.58287a2.93183,2.93183,0,0,0-.73019,2.13314c-.06095.946-.31544,1.17637-1.28693,1.20734-.54706.01744-.88259.35533-.71872.86656a1.371,1.371,0,0,1-.39934,1.5314c-.22727.22856-.37333.53625-.59181.77559a3.82987,3.82987,0,0,1-.81522.74464,8.65168,8.65168,0,0,1-1.244.50241l.5382.42041-.48625.68476.77121.32412c-.18993.59355-.26251,1.22613.46855,1.5945-.0938.12747-.1668.33881-.28493.36809a1.24479,1.24479,0,0,1-1.33816-.52,6.82575,6.82575,0,0,1-1.168-1.98973c-.16732-.58369.126-1.29314-.44691-1.80824a.34538.34538,0,0,1-.07708-.28467,2.86232,2.86232,0,0,0-.12561-1.71749,4.3192,4.3192,0,0,1-.03381-1.45625c.01462-1.23587-.15029-1.4781-1.30625-1.9462a.80333.80333,0,0,1-.35168-.27708c-.2766-.41616-.48387-.88523-.79789-1.26828a1.85292,1.85292,0,0,1,.19077-2.71479,1.50567,1.50567,0,0,0,.24574-.91608c.02959-.41656-.32942-.36894-.60387-.411-.4498-.0689-.91508-.05911-1.206-.54633a1.90186,1.90186,0,0,0-1.49037-.94739c-.10185-.011-.27216-.10625-.27789-.17381-.03939-.46475-.30027-.37292-.6047-.293A1.48276,1.48276,0,0,1,36.04208,36.687a.54248.54248,0,0,0-.09545-.27013c-.37752-.64-.9433-1.189-.93777-2.01495.00047-.07014-.20094-.14163-.30856-.21249l-.19115.14.85369,2.19606-.20034.13884a2.76918,2.76918,0,0,1-.58044-.42209,2.50249,2.50249,0,0,1-.53573-1.77037,1.13438,1.13438,0,0,0-.2565-.6097A8.56022,8.56022,0,0,0,33.18823,33.15465Z" stroke="#0c1c27" stroke-linecap="round" stroke-linejoin="round" fill="url(#linear-gradient-11)"/></g></g><circle cx="48.78782" cy="39.3842" r="15.88938" fill="none" stroke="#0c1c27" stroke-linecap="round" stroke-linejoin="round"/><path d="M109.193,97.28035a.5673.5673,0,0,1,.006,1.07225L88.02,110.64577a2.04717,2.04717,0,0,1-1.85115,0l-35.81262-20.831a.5673.5673,0,0,1-.006-1.07226l21.179-12.29316a2.04714,2.04714,0,0,1,1.85115,0Z" stroke="#0c1c27" stroke-linecap="round" stroke-linejoin="round" fill="url(#linear-gradient-12)"/><line x1="66.80627" y1="79.19076" x2="104.06091" y2="101.33495" stroke="#0c1c27" stroke-linecap="round" stroke-linejoin="round" fill="url(#linear-gradient-13)"/><path d="M105.55414,92.42307a1.62687,1.62687,0,0,0-.67934-1.298.43791.43791,0,0,0-.424-.04154l-.00194-.00406-1.9416,1.128L103.61,93.96291l1.72759-.99743-.00286-.00607A.613.613,0,0,0,105.55414,92.42307Z" stroke="#0c1c27" stroke-linecap="round" stroke-linejoin="round" fill="url(#linear-gradient-14)"/><polygon points="104.29 93.572 102.434 94.643 101.536 92.763 103.406 91.685 104.29 93.572" stroke="#0c1c27" stroke-linecap="round" stroke-linejoin="round" fill="url(#linear-gradient-15)"/><path d="M103.17007,92.23336a1.627,1.627,0,0,0,.67936,1.29806c.37522.21658.67941-.0133.67941-.51361a1.62692,1.62692,0,0,0-.67941-1.298C103.47426,91.50317,103.17007,91.73312,103.17007,92.23336Z" fill="#1b272d" stroke="#0c1c27" stroke-linecap="round" stroke-linejoin="round"/><path d="M102.68131,92.10221l.03833-.02213A.347.347,0,0,0,102.68131,92.10221Z" stroke="#0c1c27" stroke-linecap="round" stroke-linejoin="round" fill="url(#linear-gradient-16)"/><path d="M102.74614,92.06478l-.0265.0153.027-.01417Z" stroke="#0c1c27" stroke-linecap="round" stroke-linejoin="round" fill="url(#linear-gradient-17)"/><path d="M89.38011,100.21036l.8106,1.703,13.4507-7.96774-.0003-.00064a.6295.6295,0,0,0,.20835-.5321,2.57793,2.57793,0,0,0-.29432-.90833" stroke="#0c1c27" stroke-linecap="round" stroke-linejoin="round" fill="url(#linear-gradient-18)"/><path d="M103.65437,92.66489a1.35633,1.35633,0,0,0-.48686-.55481.44183.44183,0,0,0-.42083-.04417l-.027.01417-.03833.02213-13.38587,7.93031.08467.17784.7775.4489" stroke="#0c1c27" stroke-linecap="round" stroke-linejoin="round" fill="url(#linear-gradient-19)"/><path d="M90.42959,101.36165a1.62694,1.62694,0,0,0-.67938-1.298.43174.43174,0,0,0-.45477-.03113s-.05043.0448-.0676.0627L87.18646,101.988l.38609.89463,2.61816-.96923A.59836.59836,0,0,0,90.42959,101.36165Z" stroke="#0c1c27" stroke-linecap="round" stroke-linejoin="round" fill="url(#linear-gradient-20)"/><path d="M87.09508,102.23481a.764.764,0,0,0,.319.60951c.17621.10171.319-.00623.319-.24115a.76387.76387,0,0,0-.319-.60951C87.23793,101.89192,87.09508,101.99989,87.09508,102.23481Z" fill="#1b272d" stroke="#0c1c27" stroke-linecap="round" stroke-linejoin="round"/><path d="M87.54486,102.44321l-.05058-.10764a.34909.34909,0,0,0-.5533-.10752l-1.51234,1.40228,1.92146-.71127A.3491.3491,0,0,0,87.54486,102.44321Z" fill="#43cf9d" stroke="#0c1c27" stroke-linecap="round" stroke-linejoin="round"/></svg>