<svg width="700" height="543" viewBox="0 0 700 543" fill="none" xmlns="http://www.w3.org/2000/svg">
<path d="M652.12 106.95H651.12V104.95H652.12V106.95ZM652.12 102.95H651.12V100.95H652.12V102.95ZM652.12 98.95H651.12V96.95H652.12V98.95ZM652.12 94.95H651.12V92.95H652.12V94.95ZM652.12 90.95H651.12V88.95H652.12V90.95ZM652.12 86.95H651.12V84.95H652.12V86.95ZM652.12 82.95H651.12V80.95H652.12V82.95ZM652.12 78.95H651.12V76.95H652.12V78.95ZM555.55 76.18H554.55V74.8H555.55V76.18ZM652.12 74.95H651.12V72.95H652.12V74.95ZM555.55 72.8H554.55V70.8H555.55V72.8ZM652.12 70.95H651.12V68.95H652.12V70.95ZM555.55 68.8H554.55V66.8H555.55V68.8ZM652.12 66.95H651.12V64.95H652.12V66.95ZM555.55 64.8H554.55V62.8H555.55V64.8ZM652.12 62.95H651.12V60.95H652.12V62.95ZM555.55 60.8H554.55V58.79L555.55 58.81V60.8ZM651.12 58.95C651.12 58.3 651.07 57.65 651 57.01L651.99 56.89C652.07 57.57 652.12 58.26 652.12 58.94H651.12V58.95ZM555.7 56.87L554.71 56.74C554.8 56.06 554.93 55.38 555.09 54.72L556.06 54.96C555.9 55.58 555.78 56.23 555.7 56.87ZM650.66 55.11C650.51 54.48 650.32 53.86 650.1 53.25L651.04 52.9C651.28 53.54 651.48 54.2 651.64 54.87L650.67 55.1L650.66 55.11ZM556.65 53.12L555.71 52.77C555.95 52.13 556.23 51.5 556.55 50.89L557.44 51.35C557.14 51.92 556.88 52.52 556.65 53.12ZM649.32 51.48C649.03 50.9 648.7 50.34 648.34 49.8L649.17 49.25C649.55 49.82 649.89 50.42 650.2 51.03L649.31 51.48H649.32ZM558.43 49.68L557.6 49.12C557.98 48.55 558.4 48 558.84 47.48L559.6 48.13C559.18 48.62 558.79 49.14 558.43 49.67V49.68ZM647.19 48.24C646.77 47.75 646.33 47.27 645.86 46.83L646.55 46.1C647.05 46.57 647.52 47.07 647.96 47.6L647.19 48.24ZM560.95 46.73L560.27 46C560.77 45.54 561.3 45.09 561.85 44.69L562.44 45.49C561.92 45.87 561.42 46.29 560.94 46.73H560.95ZM644.37 45.58C643.85 45.19 643.31 44.83 642.75 44.51L643.25 43.64C643.84 43.98 644.41 44.36 644.96 44.77L644.36 45.57L644.37 45.58ZM564.07 44.44L563.57 43.57C564.16 43.23 564.78 42.92 565.41 42.65L565.8 43.57C565.21 43.82 564.62 44.11 564.06 44.43L564.07 44.44ZM641.02 43.63C640.43 43.37 639.82 43.15 639.2 42.96L639.49 42C640.15 42.2 640.8 42.44 641.42 42.71L641.02 43.63ZM567.63 42.92L567.35 41.96C568.01 41.77 568.68 41.61 569.35 41.49L569.52 42.48C568.89 42.59 568.25 42.74 567.63 42.92ZM637.31 42.5C636.68 42.38 636.03 42.3 635.38 42.26L635.45 41.26C636.13 41.3 636.82 41.39 637.49 41.51L637.31 42.49V42.5ZM571.45 42.25L571.39 41.25C571.73 41.23 572.07 41.22 572.41 41.22H573.41V42.22H572.41C572.08 42.22 571.76 42.22 571.44 42.25H571.45ZM633.42 42.22H631.42V41.22H633.42V42.22ZM629.42 42.22H627.42V41.22H629.42V42.22ZM625.42 42.22H623.42V41.22H625.42V42.22ZM621.42 42.22H619.42V41.22H621.42V42.22ZM617.42 42.22H615.42V41.22H617.42V42.22ZM613.42 42.22H611.42V41.22H613.42V42.22ZM609.42 42.22H607.42V41.22H609.42V42.22ZM605.42 42.22H603.42V41.22H605.42V42.22ZM601.42 42.22H599.42V41.22H601.42V42.22ZM597.42 42.22H595.42V41.22H597.42V42.22ZM593.42 42.22H591.42V41.22H593.42V42.22ZM589.42 42.22H587.42V41.22H589.42V42.22ZM585.42 42.22H583.42V41.22H585.42V42.22ZM581.42 42.22H579.42V41.22H581.42V42.22ZM577.42 42.22H575.42V41.22H577.42V42.22Z" fill="#001E2B"/>
<path d="M83.3398 329.44H82.3398V327.44H83.3398V329.44ZM83.3398 325.44H82.3398V323.44H83.3398V325.44ZM83.3398 321.44H82.3398V319.44H83.3398V321.44ZM83.3398 317.44H82.3398V315.44H83.3398V317.44ZM83.3398 313.44H82.3398V311.44H83.3398V313.44ZM83.3398 309.44H82.3398V307.44H83.3398V309.44ZM83.3398 305.44H82.3398V303.44H83.3398V305.44ZM83.3398 301.44H82.3398V299.44H83.3398V301.44ZM83.3398 297.44H82.3398V295.44H83.3398V297.44ZM83.3398 293.44H82.3398V291.44H83.3398V293.44ZM83.3398 289.44H82.3398V287.44H83.3398V289.44ZM83.3398 285.44H82.3398V283.44H83.3398V285.44ZM83.3398 281.44H82.3398V279.44H83.3398V281.44ZM83.3398 277.44H82.3398V275.44H83.3398V277.44ZM83.3398 273.44H82.3398V271.44H83.3398V273.44ZM83.3398 269.44H82.3398V267.44H83.3398V269.44ZM83.3398 265.44H82.3398V263.44H83.3398V265.44ZM83.3398 261.44H82.3398V259.44H83.3398V261.44ZM83.3398 257.44H82.3398V255.44H83.3398V257.44ZM83.3398 253.44H82.3398V251.44H83.3398V253.44ZM83.3398 249.44H82.3398V247.44H83.3398V249.44ZM83.3398 245.44H82.3398V243.44H83.3398V245.44ZM83.3398 241.44H82.3398V239.44H83.3398V241.44ZM83.3398 237.44H82.3398V235.44H83.3398V237.44ZM83.3498 233.46L82.3498 233.42C82.3698 232.74 82.4298 232.05 82.5298 231.38L83.5198 231.52C83.4298 232.16 83.3698 232.81 83.3498 233.46ZM83.8898 229.61L82.9198 229.37C83.0898 228.71 83.2898 228.05 83.5198 227.41L84.4598 227.75C84.2398 228.36 84.0498 228.98 83.8898 229.61ZM85.2299 225.96L84.3298 225.52C84.6298 224.91 84.9598 224.31 85.3298 223.73L86.1798 224.26C85.8298 224.81 85.5099 225.38 85.2299 225.96ZM87.2999 222.67L86.5098 222.05C86.9298 221.52 87.3798 221 87.8598 220.51L88.5798 221.21C88.1298 221.68 87.6999 222.17 87.2999 222.68V222.67ZM90.0098 219.88L89.3699 219.11C89.8899 218.67 90.4398 218.26 91.0098 217.88L91.5698 218.71C91.0298 219.07 90.5098 219.46 90.0098 219.88ZM93.2398 217.71L92.7698 216.83C93.3698 216.51 93.9998 216.22 94.6298 215.97L94.9998 216.9C94.3998 217.14 93.7999 217.42 93.2299 217.72L93.2398 217.71ZM96.8498 216.27L96.5798 215.31C97.2398 215.13 97.9098 214.97 98.5798 214.86L98.7498 215.85C98.1098 215.96 97.4698 216.1 96.8498 216.28V216.27ZM100.68 215.61L100.62 214.61C101.04 214.58 101.47 214.57 101.9 214.57H102.65V215.57H101.9C101.49 215.57 101.09 215.58 100.68 215.61ZM146.12 215.57H144.65V214.57H146.12V215.57ZM142.65 215.57H140.65V214.57H142.65V215.57ZM138.65 215.57H136.65V214.57H138.65V215.57ZM134.65 215.57H132.65V214.57H134.65V215.57ZM130.65 215.57H128.65V214.57H130.65V215.57ZM126.65 215.57H124.65V214.57H126.65V215.57ZM122.65 215.57H120.65V214.57H122.65V215.57ZM118.65 215.57H116.65V214.57H118.65V215.57ZM114.65 215.57H112.65V214.57H114.65V215.57ZM110.65 215.57H108.65V214.57H110.65V215.57ZM106.65 215.57H104.65V214.57H106.65V215.57Z" fill="#001E2B"/>
<path d="M569.53 74.34H149.72C145.804 74.34 142.63 77.5143 142.63 81.43V360.45C142.63 364.366 145.804 367.54 149.72 367.54H569.53C573.446 367.54 576.62 364.366 576.62 360.45V81.43C576.62 77.5143 573.446 74.34 569.53 74.34Z" fill="#00ED64" stroke="#001E2B" stroke-miterlimit="10"/>
<path d="M576.87 106.96H142.5" stroke="#001E2B" stroke-miterlimit="10"/>
<path d="M159.95 98.47C163.844 98.47 167 95.3136 167 91.42C167 87.5264 163.844 84.37 159.95 84.37C156.056 84.37 152.9 87.5264 152.9 91.42C152.9 95.3136 156.056 98.47 159.95 98.47Z" fill="white"/>
<path d="M181.21 98.47C185.104 98.47 188.26 95.3136 188.26 91.42C188.26 87.5264 185.104 84.37 181.21 84.37C177.317 84.37 174.16 87.5264 174.16 91.42C174.16 95.3136 177.317 98.47 181.21 98.47Z" fill="white"/>
<path d="M202.47 98.47C206.364 98.47 209.52 95.3136 209.52 91.42C209.52 87.5264 206.364 84.37 202.47 84.37C198.576 84.37 195.42 87.5264 195.42 91.42C195.42 95.3136 198.576 98.47 202.47 98.47Z" fill="white"/>
<path d="M335.66 358.38V396.58" stroke="#001E2B" stroke-miterlimit="10"/>
<path d="M58.6899 148.19V209.25" stroke="#001E2B" stroke-miterlimit="10"/>
<path d="M58.6899 222.58V237.68" stroke="#001E2B" stroke-miterlimit="10"/>
<path d="M56.0201 144.05L41.8101 129.56L48.6401 107.68L63.0501 121.55L56.0201 144.05Z" fill="#001E2B" stroke="#001E2B" stroke-linejoin="round"/>
<path d="M56.0698 144.07L76.0098 140.24L82.8398 118.36L63.0998 121.56L56.0698 144.07Z" fill="white" stroke="#001E2B" stroke-linejoin="round"/>
<path d="M68.3101 104.72L48.6401 107.68L63.1001 121.56L82.8401 118.36L68.3101 104.72Z" fill="white" stroke="#001E2B" stroke-linejoin="round"/>
<path d="M546.7 201.32H350.69C345.476 201.32 341.25 205.546 341.25 210.76V337.06C341.25 342.274 345.476 346.5 350.69 346.5H546.7C551.914 346.5 556.14 342.274 556.14 337.06V210.76C556.14 205.546 551.914 201.32 546.7 201.32Z" fill="#001E2B"/>
<path d="M647.35 132.62H405.98C401.601 132.62 398.05 136.17 398.05 140.55V298.47C398.05 302.85 401.601 306.4 405.98 306.4H647.35C651.73 306.4 655.28 302.85 655.28 298.47V140.55C655.28 136.17 651.73 132.62 647.35 132.62Z" fill="#7C25FF" stroke="#001E2B" stroke-miterlimit="10"/>
<path d="M655.43 151.96H397.97" stroke="#001E2B" stroke-miterlimit="10"/>
<path d="M408.32 146.93C410.629 146.93 412.5 145.059 412.5 142.75C412.5 140.441 410.629 138.57 408.32 138.57C406.012 138.57 404.14 140.441 404.14 142.75C404.14 145.059 406.012 146.93 408.32 146.93Z" fill="white"/>
<path d="M420.92 146.93C423.229 146.93 425.1 145.059 425.1 142.75C425.1 140.441 423.229 138.57 420.92 138.57C418.612 138.57 416.74 140.441 416.74 142.75C416.74 145.059 418.612 146.93 420.92 146.93Z" fill="white"/>
<path d="M433.52 146.93C435.829 146.93 437.7 145.059 437.7 142.75C437.7 140.441 435.829 138.57 433.52 138.57C431.212 138.57 429.34 140.441 429.34 142.75C429.34 145.059 431.212 146.93 433.52 146.93Z" fill="white"/>
<path d="M246.28 289.83C287.392 289.83 320.72 256.502 320.72 215.39C320.72 174.278 287.392 140.95 246.28 140.95C205.168 140.95 171.84 174.278 171.84 215.39C171.84 256.502 205.168 289.83 246.28 289.83Z" fill="#001E2B" stroke="#001E2B" stroke-miterlimit="10"/>
<path d="M246.28 283.26C287.392 283.26 320.72 249.932 320.72 208.82C320.72 167.708 287.392 134.38 246.28 134.38C205.168 134.38 171.84 167.708 171.84 208.82C171.84 249.932 205.168 283.26 246.28 283.26Z" fill="white" stroke="#001E2B" stroke-miterlimit="10"/>
<path d="M246.28 219.99C261.109 219.99 273.13 207.969 273.13 193.14C273.13 178.311 261.109 166.29 246.28 166.29C231.451 166.29 219.43 178.311 219.43 193.14C219.43 207.969 231.451 219.99 246.28 219.99Z" fill="#001E2B"/>
<path d="M293.8 266.1C280.91 276.85 264.34 283.28 246.29 283.28C228.24 283.28 211.67 276.85 198.78 266.1C203.39 244.08 222.91 227.55 246.29 227.55C269.67 227.55 289.19 244.08 293.8 266.1Z" fill="#001E2B"/>
<path d="M687.28 302.24H603.11V314.57H687.28V302.24Z" fill="#001E2B" stroke="#001E2B" stroke-miterlimit="10"/>
<path d="M645.2 356.65C668.44 356.65 687.28 337.81 687.28 314.57C687.28 291.33 668.44 272.49 645.2 272.49C621.96 272.49 603.12 291.33 603.12 314.57C603.12 337.81 621.96 356.65 645.2 356.65Z" fill="#001E2B" stroke="#001E2B" stroke-miterlimit="10"/>
<path d="M645.2 344.32C668.44 344.32 687.28 325.48 687.28 302.24C687.28 279 668.44 260.16 645.2 260.16C621.96 260.16 603.12 279 603.12 302.24C603.12 325.48 621.96 344.32 645.2 344.32Z" fill="white" stroke="#001E2B" stroke-miterlimit="10"/>
<path d="M645.2 308.55C653.584 308.55 660.38 301.754 660.38 293.37C660.38 284.986 653.584 278.19 645.2 278.19C636.816 278.19 630.02 284.986 630.02 293.37C630.02 301.754 636.816 308.55 645.2 308.55Z" fill="#001E2B"/>
<path d="M672.06 334.62C664.77 340.7 655.41 344.33 645.2 344.33C634.99 344.33 625.63 340.69 618.34 334.62C620.95 322.17 631.98 312.82 645.2 312.82C658.42 312.82 669.46 322.17 672.06 334.62Z" fill="#001E2B"/>
<path d="M626.15 428.93H625.48V427.93H626.15C626.58 427.93 627.02 427.91 627.44 427.89L627.51 428.89C627.06 428.92 626.61 428.94 626.15 428.94V428.93ZM623.48 428.93H621.48V427.93H623.48V428.93ZM619.48 428.93H617.48V427.93H619.48V428.93ZM615.48 428.93H613.48V427.93H615.48V428.93ZM611.48 428.93H609.48V427.93H611.48V428.93ZM607.48 428.93H605.48V427.93H607.48V428.93ZM603.48 428.93H601.48V427.93H603.48V428.93ZM599.48 428.93H597.48V427.93H599.48V428.93ZM595.48 428.93H593.48V427.93H595.48V428.93ZM591.48 428.93H589.48V427.93H591.48V428.93ZM587.48 428.93H585.48V427.93H587.48V428.93ZM583.48 428.93H581.48V427.93H583.48V428.93ZM579.48 428.93H577.48V427.93H579.48V428.93ZM575.48 428.93H573.48V427.93H575.48V428.93ZM571.48 428.93H569.48V427.93H571.48V428.93ZM567.48 428.93H565.48V427.93H567.48V428.93ZM563.48 428.93H561.48V427.93H563.48V428.93ZM559.48 428.93H557.48V427.93H559.48V428.93ZM555.48 428.93H553.48V427.93H555.48V428.93ZM551.48 428.93H549.48V427.93H551.48V428.93ZM547.48 428.93H545.48V427.93H547.48V428.93ZM543.48 428.93H541.48V427.93H543.48V428.93ZM539.48 428.93H537.48V427.93H539.48V428.93ZM535.48 428.93H533.48V427.93H535.48V428.93ZM531.48 428.93H529.48V427.93H531.48V428.93ZM527.48 428.93H525.48V427.93H527.48V428.93ZM523.48 428.93H521.48V427.93H523.48V428.93ZM519.48 428.93H517.48V427.93H519.48V428.93ZM515.48 428.93H513.48V427.93H515.48V428.93ZM511.48 428.93H509.48V427.93H511.48V428.93ZM507.48 428.93H505.48V427.93H507.48V428.93ZM503.48 428.93H501.48V427.93H503.48V428.93ZM499.48 428.93H497.48V427.93H499.48V428.93ZM495.48 428.93H493.48V427.93H495.48V428.93ZM491.48 428.93H489.48V427.93H491.48V428.93ZM487.48 428.93H485.48V427.93H487.48V428.93ZM483.48 428.93H481.48V427.93H483.48V428.93ZM479.48 428.93H477.48V427.93H479.48V428.93ZM475.48 428.93H473.48V427.93H475.48V428.93ZM471.48 428.93H469.48V427.93H471.48V428.93ZM467.48 428.93H465.48V427.93H467.48V428.93ZM463.48 428.93H461.48V427.93H463.48V428.93ZM459.48 428.93H457.48V427.93H459.48V428.93ZM455.48 428.93H453.48V427.93H455.48V428.93ZM451.48 428.93H449.48V427.93H451.48V428.93ZM447.48 428.93H445.48V427.93H447.48V428.93ZM443.48 428.93H441.48V427.93H443.48V428.93ZM439.48 428.93H437.48V427.93H439.48V428.93ZM435.48 428.93H433.48V427.93H435.48V428.93ZM431.48 428.93H429.48V427.93H431.48V428.93ZM427.48 428.93H425.48V427.93H427.48V428.93ZM423.48 428.93H421.48V427.93H423.48V428.93ZM419.48 428.93H417.48V427.93H419.48V428.93ZM415.48 428.93H413.48V427.93H415.48V428.93ZM411.48 428.93H409.48V427.93H411.48V428.93ZM407.48 428.93H405.48V427.93H407.48V428.93ZM403.48 428.93H401.48V427.93H403.48V428.93ZM399.48 428.93H397.48V427.93H399.48V428.93ZM395.48 428.93H393.48V427.93H395.48V428.93ZM391.48 428.93H389.48V427.93H391.48V428.93ZM387.48 428.93H385.48V427.93H387.48V428.93ZM383.48 428.93H381.48V427.93H383.48V428.93ZM379.48 428.93H377.48V427.93H379.48V428.93ZM375.48 428.93H373.48V427.93H375.48V428.93ZM371.48 428.93H369.48V427.93H371.48V428.93ZM367.48 428.93H365.48V427.93H367.48V428.93ZM363.48 428.93H361.48V427.93H363.48V428.93ZM359.48 428.93H357.48V427.93H359.48V428.93ZM629.55 428.64L629.38 427.66C630.01 427.55 630.65 427.4 631.28 427.22L631.55 428.18C630.89 428.37 630.22 428.52 629.55 428.64ZM633.49 427.51L633.11 426.58C633.71 426.34 634.3 426.06 634.87 425.76L635.34 426.64C634.74 426.96 634.11 427.26 633.48 427.51H633.49ZM637.11 425.58L636.55 424.75C637.09 424.39 637.61 423.99 638.1 423.58L638.74 424.34C638.22 424.78 637.67 425.19 637.1 425.58H637.11ZM640.24 422.94L639.52 422.25C639.97 421.79 640.4 421.29 640.8 420.78L641.59 421.4C641.17 421.94 640.72 422.46 640.25 422.95L640.24 422.94ZM642.76 419.71L641.91 419.18C642.25 418.63 642.57 418.06 642.85 417.48L643.75 417.92C643.45 418.54 643.12 419.14 642.76 419.71ZM644.55 416.03L643.61 415.69C643.83 415.08 644.02 414.46 644.17 413.83L645.14 414.07C644.98 414.73 644.78 415.39 644.55 416.03ZM645.53 412.05L644.54 411.92C644.63 411.28 644.68 410.63 644.7 409.98L645.7 410.01C645.68 410.69 645.62 411.38 645.53 412.05ZM645.71 407.99H644.71V405.99H645.71V407.99ZM645.71 403.99H644.71V401.99H645.71V403.99ZM645.71 399.99H644.71V397.99H645.71V399.99ZM645.71 395.99H644.71V393.99H645.71V395.99ZM645.71 391.99H644.71V389.99H645.71V391.99ZM645.71 387.99H644.71V385.99H645.71V387.99ZM645.71 383.99H644.71V381.99H645.71V383.99ZM645.71 379.99H644.71V377.99H645.71V379.99ZM645.71 375.99H644.71V373.99H645.71V375.99ZM645.71 371.99H644.71V369.99H645.71V371.99ZM645.71 367.99H644.71V365.99H645.71V367.99ZM645.71 363.99H644.71V361.99H645.71V363.99ZM645.71 359.99H644.71V357.99H645.71V359.99ZM645.71 355.99H644.71V353.99H645.71V355.99ZM645.71 351.99H644.71V349.99H645.71V351.99ZM645.71 347.99H644.71V345.99H645.71V347.99ZM645.71 343.99H644.71V341.99H645.71V343.99ZM645.71 339.99H644.71V337.99H645.71V339.99ZM645.71 335.99H644.71V333.99H645.71V335.99ZM645.71 331.99H644.71V330.34H645.71V331.99Z" fill="#001E2B"/>
<path d="M559.22 449.49C570.569 449.49 579.77 440.061 579.77 428.43C579.77 416.799 570.569 407.37 559.22 407.37C547.87 407.37 538.67 416.799 538.67 428.43C538.67 440.061 547.87 449.49 559.22 449.49Z" fill="white" stroke="#081E2A" stroke-miterlimit="10"/>
<path d="M548.84 434.17C553.52 443.05 563.53 447.09 572.62 444.4C571.52 445.36 570.31 446.22 568.99 446.95C559 452.48 546.53 448.66 541.14 438.43C535.75 428.2 539.47 415.42 549.46 409.9C550.78 409.17 552.15 408.6 553.54 408.19C546.36 414.5 544.17 425.29 548.85 434.17H548.84Z" fill="#081E2A" stroke="#081E2A" stroke-miterlimit="10"/>
<path d="M405.299 61.1859L396.09 80.1926L415.097 89.4013L424.305 70.3946L405.299 61.1859Z" fill="#001E2B" stroke="#001E2B" stroke-linecap="round" stroke-linejoin="round"/>
<path d="M396.753 64.1554L387.544 83.1621L406.551 92.3708L415.76 73.3641L396.753 64.1554Z" fill="#FFB610" stroke="#001E2B" stroke-linecap="round" stroke-linejoin="round"/>
<path d="M405.299 61.1859L396.09 80.1926L415.097 89.4013L424.305 70.3946L405.299 61.1859Z" fill="#001E2B" stroke="#001E2B" stroke-linecap="round" stroke-linejoin="round"/>
<path d="M396.753 64.1554L387.544 83.1621L406.551 92.3708L415.76 73.3641L396.753 64.1554Z" fill="#00ED64" stroke="#001E2B" stroke-linecap="round" stroke-linejoin="round"/>
<path d="M349.597 28.1225L340.388 47.1292L359.395 56.3378L368.604 37.3311L349.597 28.1225Z" fill="white" stroke="#001E2B" stroke-linecap="round" stroke-linejoin="round"/>
<path d="M529.27 272.25C552.99 272.25 572.22 253.021 572.22 229.3C572.22 205.579 552.99 186.35 529.27 186.35C505.549 186.35 486.32 205.579 486.32 229.3C486.32 253.021 505.549 272.25 529.27 272.25Z" fill="#001E2B"/>
<path d="M534.85 266.54C558.571 266.54 577.8 247.311 577.8 223.59C577.8 199.869 558.571 180.64 534.85 180.64C511.129 180.64 491.9 199.869 491.9 223.59C491.9 247.311 511.129 266.54 534.85 266.54Z" fill="#00ED64" stroke="#001E2B" stroke-linejoin="round"/>
<path d="M524.05 203.44V244.05L559.22 223.59L524.05 203.44Z" fill="white" stroke="#001E2B" stroke-linejoin="round"/>
<path d="M447.97 448.44H154.65V511.68H447.97V448.44Z" fill="#B45AF2" stroke="#001E2B" stroke-linejoin="round"/>
<path d="M154.68 511.68V517.83H14.86C13.77 515.91 12.75 513.86 11.86 511.68C8.34004 503.22 6.29004 492.96 6.29004 481.77C6.29004 470.58 8.34004 460.32 11.86 451.86C12.75 449.68 13.77 447.63 14.86 445.71H156.13V451.86L147.02 483.05L154.68 511.68Z" fill="#001E2B" stroke="#001E2B" stroke-miterlimit="10"/>
<path d="M157.81 451.86C153.89 460.03 151.49 470.51 151.49 481.77C151.49 493.03 153.89 503.5 157.81 511.68H450.4V517.83H153.9C152.81 515.91 151.79 513.86 150.9 511.68C147.38 503.22 145.33 492.96 145.33 481.77C145.33 470.58 147.38 460.32 150.9 451.86C151.79 449.68 152.81 447.63 153.9 445.71H450.4V451.86H157.81Z" fill="#7C25FF" stroke="#001E2B" stroke-miterlimit="10"/>
<path d="M447.97 451.86V511.68" stroke="#001E2B" stroke-miterlimit="10"/>
<path d="M157.81 451.86C157.81 451.86 154.65 459.08 154.65 481.77C154.65 504.46 157.81 511.68 157.81 511.68C157.81 511.68 151.59 498.89 151.49 481.77C151.39 464.65 157.81 451.86 157.81 451.86Z" fill="#001E2B" stroke="#001E2B" stroke-linejoin="round"/>
<path d="M156.28 458.01H447.97" stroke="#001E2B" stroke-linejoin="round"/>
<path d="M155.14 467.48H447.97" stroke="#001E2B" stroke-linejoin="round"/>
<path d="M155.41 476.95H447.97" stroke="#001E2B" stroke-linejoin="round"/>
<path d="M155.41 486.42H447.97" stroke="#001E2B" stroke-linejoin="round"/>
<path d="M155.41 495.9H447.97" stroke="#001E2B" stroke-linejoin="round"/>
<path d="M156.25 505.37H447.97" stroke="#001E2B" stroke-linejoin="round"/>
<path d="M228.23 508.33L213.71 499.34L199.19 508.33L204.61 464.67H228.23V508.33Z" fill="#001E2B" stroke="#001E2B" stroke-linejoin="round"/>
<path d="M233.65 508.33L219.13 499.34L204.61 508.33V464.67H233.65V508.33Z" fill="#F2C5EE" stroke="#001E2B" stroke-linejoin="round"/>
<path d="M419.79 388.48H177.87V440.64H419.79V388.48Z" fill="#B45AF2" stroke="#001E2B" stroke-linejoin="round"/>
<path d="M177.9 440.64V445.71H62.58C61.68 444.12 60.84 442.44 60.11 440.64C57.21 433.66 55.52 425.2 55.52 415.97C55.52 406.74 57.21 398.28 60.11 391.3C60.85 389.5 61.68 387.81 62.58 386.23H179.09V391.3L171.58 417.03L177.9 440.64Z" fill="#001E2B" stroke="#001E2B" stroke-miterlimit="10"/>
<path d="M180.47 391.3C177.24 398.03 175.26 406.68 175.26 415.97C175.26 425.26 177.24 433.89 180.47 440.64H421.78V445.71H177.25C176.35 444.12 175.51 442.44 174.78 440.64C171.88 433.66 170.19 425.2 170.19 415.97C170.19 406.74 171.88 398.28 174.78 391.3C175.52 389.5 176.35 387.81 177.25 386.23H421.79V391.3H180.47Z" fill="#7C25FF" stroke="#001E2B" stroke-miterlimit="10"/>
<path d="M180.47 391.3C180.47 391.3 177.86 397.25 177.86 415.97C177.86 434.69 180.47 440.64 180.47 440.64C180.47 440.64 175.34 430.09 175.26 415.97C175.18 401.85 180.47 391.3 180.47 391.3Z" fill="#001E2B" stroke="#001E2B" stroke-linejoin="round"/>
<path d="M179.21 396.37H419.78" stroke="#001E2B" stroke-linejoin="round"/>
<path d="M178.28 404.18H419.78" stroke="#001E2B" stroke-linejoin="round"/>
<path d="M178.5 412H419.78" stroke="#001E2B" stroke-linejoin="round"/>
<path d="M178.5 419.81H419.78" stroke="#001E2B" stroke-linejoin="round"/>
<path d="M178.5 427.62H419.78" stroke="#001E2B" stroke-linejoin="round"/>
<path d="M179.19 435.43H419.78" stroke="#001E2B" stroke-linejoin="round"/>
<path d="M331.89 437.87L319.91 430.47L307.94 437.87L312.41 401.86H331.89V437.87Z" fill="#001E2B" stroke="#001E2B" stroke-linejoin="round"/>
<path d="M336.36 437.87L324.38 430.47L312.41 437.87V401.86H336.36V437.87Z" fill="#F2C5EE" stroke="#001E2B" stroke-linejoin="round"/>
<path d="M395.75 329H153.83V381.16H395.75V329Z" fill="#B45AF2" stroke="#001E2B" stroke-linejoin="round"/>
<path d="M153.85 381.16V386.23H38.54C37.64 384.64 36.8 382.96 36.07 381.16C33.17 374.18 31.48 365.72 31.48 356.49C31.48 347.26 33.17 338.8 36.07 331.82C36.81 330.02 37.64 328.33 38.54 326.75H155.05V331.82L147.54 357.55L153.86 381.16H153.85Z" fill="#001E2B" stroke="#001E2B" stroke-miterlimit="10"/>
<path d="M156.43 331.82C153.2 338.55 151.22 347.2 151.22 356.49C151.22 365.78 153.2 374.41 156.43 381.16H397.74V386.23H153.21C152.31 384.64 151.47 382.96 150.74 381.16C147.84 374.18 146.15 365.72 146.15 356.49C146.15 347.26 147.84 338.8 150.74 331.82C151.48 330.02 152.31 328.33 153.21 326.75H397.75V331.82H156.43Z" fill="#7C25FF" stroke="#001E2B" stroke-miterlimit="10"/>
<path d="M395.74 331.82V381.16" stroke="#001E2B" stroke-miterlimit="10"/>
<path d="M156.43 331.82C156.43 331.82 153.82 337.77 153.82 356.49C153.82 375.21 156.43 381.16 156.43 381.16C156.43 381.16 151.3 370.61 151.22 356.49C151.14 342.37 156.43 331.82 156.43 331.82Z" fill="#001E2B" stroke="#001E2B" stroke-linejoin="round"/>
<path d="M155.17 336.89H395.74" stroke="#001E2B" stroke-linejoin="round"/>
<path d="M154.24 344.71H395.74" stroke="#001E2B" stroke-linejoin="round"/>
<path d="M154.45 352.52H395.74" stroke="#001E2B" stroke-linejoin="round"/>
<path d="M154.45 360.33H395.74" stroke="#001E2B" stroke-linejoin="round"/>
<path d="M154.45 368.14H395.74" stroke="#001E2B" stroke-linejoin="round"/>
<path d="M155.15 375.95H395.74" stroke="#001E2B" stroke-linejoin="round"/>
<path d="M373.77 378.39L361.79 370.99L349.82 378.39L354.29 342.38H373.77V378.39Z" fill="#001E2B" stroke="#001E2B" stroke-linejoin="round"/>
<path d="M378.24 378.39L366.26 370.99L354.29 378.39V342.38H378.24V378.39Z" fill="#F2C5EE" stroke="#001E2B" stroke-linejoin="round"/>
<path d="M689.96 133.62H613.27V144.85H689.96V133.62Z" fill="#001E2B" stroke="#001E2B" stroke-miterlimit="10"/>
<path d="M651.62 183.2C672.795 183.2 689.96 166.035 689.96 144.86C689.96 123.685 672.795 106.52 651.62 106.52C630.446 106.52 613.28 123.685 613.28 144.86C613.28 166.035 630.446 183.2 651.62 183.2Z" fill="#001E2B" stroke="#001E2B" stroke-miterlimit="10"/>
<path d="M651.62 171.96C672.795 171.96 689.96 154.795 689.96 133.62C689.96 112.445 672.795 95.28 651.62 95.28C630.446 95.28 613.28 112.445 613.28 133.62C613.28 154.795 630.446 171.96 651.62 171.96Z" fill="white" stroke="#001E2B" stroke-miterlimit="10"/>
<path d="M651.62 139.37C659.258 139.37 665.45 133.178 665.45 125.54C665.45 117.902 659.258 111.71 651.62 111.71C643.982 111.71 637.79 117.902 637.79 125.54C637.79 133.178 643.982 139.37 651.62 139.37Z" fill="#001E2B"/>
<path d="M676.1 163.13C669.46 168.67 660.93 171.98 651.63 171.98C642.33 171.98 633.8 168.67 627.16 163.13C629.54 151.79 639.59 143.27 651.63 143.27C663.67 143.27 673.73 151.78 676.1 163.13Z" fill="#001E2B"/>
</svg>
