<svg id="dh_-_speakers" data-name="dh - speakers" xmlns="http://www.w3.org/2000/svg" xmlns:xlink="http://www.w3.org/1999/xlink" viewBox="0 0 380 380"><defs><clipPath id="clip-path"><rect width="380" height="380" fill="none"/></clipPath><linearGradient id="linear-gradient" x1="60.62022" y1="186.54778" x2="91.55894" y2="186.54778" gradientUnits="userSpaceOnUse"><stop offset="0" stop-color="#0ad05b"/><stop offset="1" stop-color="#7accda"/></linearGradient><linearGradient id="linear-gradient-2" x1="60.62022" y1="232.8238" x2="91.55894" y2="232.8238" xlink:href="#linear-gradient"/><linearGradient id="linear-gradient-3" x1="39.67889" y1="157.89391" x2="340.33892" y2="157.89391" xlink:href="#linear-gradient"/><linearGradient id="linear-gradient-4" x1="39.66108" y1="189.47091" x2="340.3389" y2="189.47091" gradientUnits="userSpaceOnUse"><stop offset="0" stop-color="#7dc5db"/><stop offset="0.49537" stop-color="#0ad05b"/><stop offset="0.72845" stop-color="#7accda"/><stop offset="1" stop-color="#0ad05b"/></linearGradient><linearGradient id="linear-gradient-5" x1="108.79001" y1="112.31863" x2="178.32825" y2="112.31863" gradientUnits="userSpaceOnUse"><stop offset="0" stop-color="#f87216"/><stop offset="1" stop-color="#d24f93"/></linearGradient><linearGradient id="linear-gradient-6" x1="108.79009" y1="107.28628" x2="178.32822" y2="107.28628" xlink:href="#linear-gradient-5"/><linearGradient id="linear-gradient-7" x1="138.37814" y1="91.3447" x2="149.05105" y2="91.3447" xlink:href="#linear-gradient-5"/><linearGradient id="linear-gradient-8" x1="107.1637" y1="62.48266" x2="185.92945" y2="62.48266" xlink:href="#linear-gradient-5"/><linearGradient id="linear-gradient-9" x1="108.51114" y1="56.29669" x2="178.60716" y2="56.29669" xlink:href="#linear-gradient"/><linearGradient id="linear-gradient-10" x1="108.51113" y1="56.29669" x2="178.60715" y2="56.29669" gradientUnits="userSpaceOnUse"><stop offset="0" stop-color="#7accda"/><stop offset="0.99796" stop-color="#6e60f9"/></linearGradient><clipPath id="clip-path-2"><circle cx="143.55912" cy="56.29669" r="35.04801" fill="none" stroke="#0c1c27" stroke-linecap="round" stroke-linejoin="round"/></clipPath><linearGradient id="linear-gradient-11" x1="104.74143" y1="56.44219" x2="183.26193" y2="56.44219" gradientUnits="userSpaceOnUse"><stop offset="0" stop-color="#7accda"/><stop offset="1" stop-color="#0ad05b"/></linearGradient><linearGradient id="linear-gradient-12" x1="146.1696" y1="175.76757" x2="277.64674" y2="175.76757" xlink:href="#linear-gradient"/><linearGradient id="linear-gradient-13" x1="183.30333" y1="168.52229" x2="265.47777" y2="168.52229" xlink:href="#linear-gradient"/><linearGradient id="linear-gradient-14" x1="262.05073" y1="173.46698" x2="268.77147" y2="173.46698" gradientUnits="userSpaceOnUse"><stop offset="0" stop-color="#6e60f8"/><stop offset="1" stop-color="#7acedc"/></linearGradient><linearGradient id="linear-gradient-15" x1="259.90849" y1="174.92173" x2="265.98217" y2="174.92173" gradientUnits="userSpaceOnUse"><stop offset="0" stop-color="#cd4f9b"/><stop offset="0.17494" stop-color="#df6590"/><stop offset="0.35699" stop-color="#ec7589"/><stop offset="0.49791" stop-color="#f17b86"/><stop offset="0.69602" stop-color="#f28480"/><stop offset="1" stop-color="#f59a72"/></linearGradient><linearGradient id="linear-gradient-16" x1="262.4347" y1="172.55504" x2="262.51926" y2="172.55504" xlink:href="#linear-gradient-15"/><linearGradient id="linear-gradient-17" x1="262.51926" y1="172.51376" x2="262.5789" y2="172.51376" xlink:href="#linear-gradient-15"/><linearGradient id="linear-gradient-18" x1="233.0956" y1="184.02051" x2="265.01135" y2="184.02051" xlink:href="#linear-gradient-14"/><linearGradient id="linear-gradient-19" x1="232.90883" y1="181.93814" x2="264.58105" y2="181.93814" xlink:href="#linear-gradient-14"/><linearGradient id="linear-gradient-20" x1="228.25693" y1="193.15876" x2="235.41048" y2="193.15876" gradientUnits="userSpaceOnUse"><stop offset="0" stop-color="#0ad05b"/><stop offset="1" stop-color="#7acedc"/></linearGradient></defs><g clip-path="url(#clip-path)"><polygon points="180.313 201.261 213.422 182.145 213.605 182.251 180.496 201.366 180.313 201.261" fill="none" stroke="#21313c" stroke-linecap="round" stroke-linejoin="round"/><polygon points="48.06 277.828 47.877 277.723 80.986 258.607 81.169 258.713 48.06 277.828" fill="none" stroke="#21313c" stroke-linecap="round" stroke-linejoin="round"/><polygon points="114.278 239.597 114.095 239.492 147.204 220.376 147.387 220.482 114.278 239.597" fill="none" stroke="#21313c" stroke-linecap="round" stroke-linejoin="round"/><polygon points="81.169 258.713 80.986 258.607 114.095 239.492 114.278 239.597 81.169 258.713" fill="none" stroke="#21313c" stroke-linecap="round" stroke-linejoin="round"/><polygon points="180.496 201.366 147.387 220.482 147.204 220.376 180.313 201.261 180.496 201.366" fill="none" stroke="#21313c" stroke-linecap="round" stroke-linejoin="round"/><polygon points="279.64 296.838 312.749 277.723 345.858 296.838 312.749 315.954 279.64 296.838" fill="none" stroke="#21313c" stroke-linecap="round" stroke-linejoin="round"/><polygon points="312.749 354.185 345.858 373.3 312.749 392.416 279.64 373.3 312.749 354.185" fill="none" stroke="#21313c" stroke-linecap="round" stroke-linejoin="round"/><polygon points="279.64 373.3 312.749 392.416 279.64 411.531 246.531 392.416 279.64 373.3" fill="none" stroke="#21313c" stroke-linecap="round" stroke-linejoin="round"/><polygon points="180.313 277.723 147.204 258.607 180.313 239.492 213.422 258.607 180.313 277.723" fill="none" stroke="#21313c" stroke-linecap="round" stroke-linejoin="round"/><polygon points="114.095 315.954 80.986 296.838 114.095 277.723 147.204 296.838 114.095 315.954" fill="none" stroke="#21313c" stroke-linecap="round" stroke-linejoin="round"/><polygon points="213.422 258.607 180.313 239.492 213.422 220.376 246.531 239.492 213.422 258.607" fill="none" stroke="#21313c" stroke-linecap="round" stroke-linejoin="round"/><polygon points="213.422 220.376 246.531 201.261 279.64 220.376 246.531 239.492 213.422 220.376" fill="none" stroke="#21313c" stroke-linecap="round" stroke-linejoin="round"/><polygon points="246.531 277.723 279.64 258.607 312.749 277.723 279.64 296.838 246.531 277.723" fill="none" stroke="#21313c" stroke-linecap="round" stroke-linejoin="round"/><polygon points="147.204 296.838 114.095 277.723 147.204 258.607 180.313 277.723 147.204 296.838" fill="none" stroke="#21313c" stroke-linecap="round" stroke-linejoin="round"/><polygon points="47.877 354.185 14.768 335.069 47.877 315.954 80.986 335.069 47.877 354.185" fill="none" stroke="#21313c" stroke-linecap="round" stroke-linejoin="round"/><polygon points="180.313 315.954 147.204 296.838 180.313 277.723 213.422 296.838 180.313 315.954" fill="none" stroke="#21313c" stroke-linecap="round" stroke-linejoin="round"/><polygon points="213.422 296.838 246.531 277.723 279.64 296.838 246.531 315.954 213.422 296.838" fill="none" stroke="#21313c" stroke-linecap="round" stroke-linejoin="round"/><polygon points="180.313 354.185 147.204 335.069 180.313 315.954 213.422 335.069 180.313 354.185" fill="none" stroke="#21313c" stroke-linecap="round" stroke-linejoin="round"/><polygon points="213.422 335.069 180.313 315.954 213.422 296.838 246.531 315.954 213.422 335.069" fill="none" stroke="#21313c" stroke-linecap="round" stroke-linejoin="round"/><polygon points="246.531 315.954 279.64 296.838 312.749 315.954 279.64 335.069 246.531 315.954" fill="none" stroke="#21313c" stroke-linecap="round" stroke-linejoin="round"/><polygon points="279.64 335.069 312.749 354.185 279.64 373.3 246.531 354.185 279.64 335.069" fill="none" stroke="#21313c" stroke-linecap="round" stroke-linejoin="round"/><polygon points="246.531 354.185 279.64 373.3 246.531 392.416 213.422 373.3 246.531 354.185" fill="none" stroke="#21313c" stroke-linecap="round" stroke-linejoin="round"/><polygon points="246.531 315.954 279.64 335.069 246.531 354.185 213.422 335.069 246.531 315.954" fill="none" stroke="#21313c" stroke-linecap="round" stroke-linejoin="round"/><polygon points="213.422 335.069 246.531 354.185 213.422 373.3 180.313 354.185 213.422 335.069" fill="none" stroke="#21313c" stroke-linecap="round" stroke-linejoin="round"/><polygon points="80.986 373.3 47.877 354.185 80.986 335.069 114.095 354.185 80.986 373.3" fill="none" stroke="#21313c" stroke-linecap="round" stroke-linejoin="round"/><polygon points="114.095 354.185 80.986 335.069 114.095 315.954 147.204 335.069 114.095 354.185" fill="none" stroke="#21313c" stroke-linecap="round" stroke-linejoin="round"/><polygon points="147.204 335.069 114.095 315.954 147.204 296.838 180.313 315.954 147.204 335.069" fill="none" stroke="#21313c" stroke-linecap="round" stroke-linejoin="round"/><polygon points="246.531 239.492 279.64 220.376 312.749 239.492 279.64 258.607 246.531 239.492" fill="none" stroke="#21313c" stroke-linecap="round" stroke-linejoin="round"/><polygon points="213.422 296.838 180.313 277.723 213.422 258.607 246.531 277.723 213.422 296.838" fill="none" stroke="#21313c" stroke-linecap="round" stroke-linejoin="round"/><polygon points="213.422 373.3 246.531 392.416 213.422 411.531 180.313 392.416 213.422 373.3" fill="none" stroke="#21313c" stroke-linecap="round" stroke-linejoin="round"/><polygon points="213.422 258.607 246.531 239.492 279.64 258.607 246.531 277.723 213.422 258.607" fill="none" stroke="#21313c" stroke-linecap="round" stroke-linejoin="round"/><polygon points="47.877 392.416 14.768 373.3 47.877 354.185 80.986 373.3 47.877 392.416" fill="none" stroke="#21313c" stroke-linecap="round" stroke-linejoin="round"/><polygon points="80.986 296.838 48.06 277.828 81.169 258.713 114.095 277.723 80.986 296.838" fill="none" stroke="#21313c" stroke-linecap="round" stroke-linejoin="round"/><polygon points="345.858 258.607 346.041 258.501 379.12 277.635 378.967 277.723 345.858 258.607" fill="none" stroke="#21313c" stroke-linecap="round" stroke-linejoin="round"/><polygon points="312.749 239.492 312.963 239.368 346.041 258.501 345.858 258.607 312.749 239.492" fill="none" stroke="#21313c" stroke-linecap="round" stroke-linejoin="round"/><polygon points="378.967 277.723 379.12 277.635 412.199 296.768 412.076 296.838 378.967 277.723" fill="none" stroke="#21313c" stroke-linecap="round" stroke-linejoin="round"/><polygon points="114.095 277.723 81.169 258.713 114.278 239.597 147.204 258.607 114.095 277.723" fill="none" stroke="#21313c" stroke-linecap="round" stroke-linejoin="round"/><polygon points="279.64 220.376 279.884 220.235 312.963 239.368 312.749 239.492 279.64 220.376" fill="none" stroke="#21313c" stroke-linecap="round" stroke-linejoin="round"/><polygon points="180.313 239.492 147.387 220.482 180.496 201.366 213.422 220.376 180.313 239.492" fill="none" stroke="#21313c" stroke-linecap="round" stroke-linejoin="round"/><polygon points="147.204 258.607 114.278 239.597 147.387 220.482 180.313 239.492 147.204 258.607" fill="none" stroke="#21313c" stroke-linecap="round" stroke-linejoin="round"/><polygon points="246.531 201.261 246.806 201.102 279.884 220.235 279.64 220.376 246.531 201.261" fill="none" stroke="#21313c" stroke-linecap="round" stroke-linejoin="round"/><polygon points="213.605 182.251 213.91 182.075 246.806 201.102 246.531 201.261 213.605 182.251" fill="none" stroke="#21313c" stroke-linecap="round" stroke-linejoin="round"/><polygon points="213.422 220.376 180.496 201.366 213.605 182.251 246.531 201.261 213.422 220.376" fill="none" stroke="#21313c" stroke-linecap="round" stroke-linejoin="round"/><polygon points="345.858 373.3 378.967 392.416 345.858 411.531 312.749 392.416 345.858 373.3" fill="none" stroke="#21313c" stroke-linecap="round" stroke-linejoin="round"/><polygon points="312.841 315.954 345.95 335.069 312.841 354.185 279.732 335.069 312.841 315.954" fill="none" stroke="#21313c" stroke-linecap="round" stroke-linejoin="round"/><polygon points="345.858 296.838 378.967 277.723 412.076 296.838 378.967 315.954 345.858 296.838" fill="none" stroke="#21313c" stroke-linecap="round" stroke-linejoin="round"/><polygon points="312.749 277.723 345.858 258.607 378.967 277.723 345.858 296.838 312.749 277.723" fill="none" stroke="#21313c" stroke-linecap="round" stroke-linejoin="round"/><polygon points="345.95 296.838 379.059 315.954 345.95 335.069 312.841 315.954 345.95 296.838" fill="none" stroke="#21313c" stroke-linecap="round" stroke-linejoin="round"/><polygon points="279.64 258.607 312.749 239.492 345.858 258.607 312.749 277.723 279.64 258.607" fill="none" stroke="#21313c" stroke-linecap="round" stroke-linejoin="round"/><polygon points="109.756 281.217 43.286 242.58 43.135 129.501 109.546 168.104 109.756 281.217" fill="#21313c" stroke="#0c1c27" stroke-linecap="round" stroke-linejoin="round"/><polygon points="104.432 269.989 48.258 237.026 48.106 195.659 104.223 228.587 104.432 269.989" fill="#21313c" stroke="#0c1c27" stroke-linecap="round" stroke-linejoin="round"/><polygon points="104.432 221.944 48.258 188.981 48.106 147.613 104.223 180.542 104.432 221.944" fill="#21313c" stroke="#0c1c27" stroke-linecap="round" stroke-linejoin="round"/><polyline points="91.059 191.235 84.956 194.795 61.12 180.766 65.45 178.301" fill="none" stroke-linecap="round" stroke-linejoin="round" stroke="url(#linear-gradient)"/><polyline points="91.059 237.511 84.956 241.071 61.12 227.042 65.45 224.577" fill="none" stroke-linecap="round" stroke-linejoin="round" stroke="url(#linear-gradient-2)"/><polygon points="205.65 113.324 205.86 226.437 109.965 281.217 109.756 168.104 205.65 113.324" fill="#21313c" stroke="#0c1c27" stroke-linecap="round" stroke-linejoin="round"/><polygon points="246.817 279.678 180.347 241.041 180.196 127.962 246.607 166.565 246.817 279.678" fill="#21313c" stroke="#0c1c27" stroke-linecap="round" stroke-linejoin="round"/><polygon points="338.171 190.858 338.381 303.971 242.487 358.751 242.277 245.639 338.171 190.858" fill="#21313c" stroke="#0c1c27" stroke-linecap="round" stroke-linejoin="round"/><polygon points="242.487 358.751 236.002 354.983 235.851 241.904 242.277 245.639 242.487 358.751" fill="#21313c" stroke="#0c1c27" stroke-linecap="round" stroke-linejoin="round"/><path d="M339.49,187.41449a1.25132,1.25132,0,0,1,.01332,2.36512l-94.50571,55.21682a4.51548,4.51548,0,0,1-4.08318,0L40.52785,128.37334a1.25132,1.25132,0,0,1-.01329-2.36513l94.5057-55.21682a4.51549,4.51549,0,0,1,4.08317,0Z" stroke="#0c1c27" stroke-linecap="round" stroke-linejoin="round" fill="url(#linear-gradient-3)"/><path d="M339.50329,189.77962l-94.50574,55.21682a4.51536,4.51536,0,0,1-4.08315,0L40.52784,128.37333a1.44241,1.44241,0,0,1-.84895-1.19086l-.01781,6.275a1.4425,1.4425,0,0,0,.849,1.19086L240.8966,251.27148a4.51554,4.51554,0,0,0,4.08319,0l94.50569-55.21682a1.4312,1.4312,0,0,0,.83566-1.17427l.01776-6.275A1.43119,1.43119,0,0,1,339.50329,189.77962Z" stroke="#0c1c27" stroke-linecap="round" stroke-linejoin="round" fill="url(#linear-gradient-4)"/><path d="M178.32825,107.28619h-8.28512L144.3533,92.55805a2.29515,2.29515,0,0,0-2.07539,0L116.767,107.28619H108.79v5.0324h.01224a.76853.76853,0,0,0,.41934.52976L142.765,132.07923a2.29481,2.29481,0,0,0,2.07539-.00011l33.06308-19.08818a.682.682,0,0,0,.41259-.67235h.01223Z" stroke="#0c1c27" stroke-linecap="round" stroke-linejoin="round" fill="url(#linear-gradient-5)"/><path d="M177.89672,106.7565a.636.636,0,0,1,.00676,1.20212l-33.06312,19.08824a2.29507,2.29507,0,0,1-2.07535,0l-33.54342-19.23081a.636.636,0,0,1-.00676-1.20212L142.278,87.5257a2.29508,2.29508,0,0,1,2.07534,0Z" stroke="#0c1c27" stroke-linecap="round" stroke-linejoin="round" fill="url(#linear-gradient-6)"/><path d="M138.37814,72.625v34.1535c0,1.81479,2.38926,3.286,5.33645,3.286s5.33646-1.47116,5.33646-3.28595V72.625Z" stroke="#0c1c27" stroke-linecap="round" stroke-linejoin="round" fill="url(#linear-gradient-7)"/><path d="M180.15073,34.96867l-.07129.04177a42.31813,42.31813,0,0,0-6.63413-8.6L168.34183,31.514a35.04679,35.04679,0,1,1-55.01966,42.49895l-6.15847,3.598A42.33051,42.33051,0,0,0,113.72,86.1358l-.047.047a42.09363,42.09363,0,0,0,27.21425,12.28467l.07309.00517c.52027.03185,1.04065.05189,1.56145.06465.23351.00643.4668.014.70062.01677.31651.00253.6327-.00211.94911-.00664.429-.00475.85787-.01277,1.28734-.0307.12593-.00559.25164-.01413.37757-.02088a42.25991,42.25991,0,0,0,34.31434-63.52721Z" stroke="#0c1c27" stroke-linecap="round" stroke-linejoin="round" fill="url(#linear-gradient-8)"/><circle cx="143.55915" cy="56.29669" r="35.04801" stroke="#0c1c27" stroke-linecap="round" stroke-linejoin="round" fill="url(#linear-gradient-9)"/><circle cx="143.55914" cy="56.29669" r="35.04801" fill="url(#linear-gradient-10)"/><g clip-path="url(#clip-path-2)"><g id="Oac0GI"><path d="M143.62566,17.23222a39.21283,39.21283,0,1,1-38.88215,39.58709A39.12293,39.12293,0,0,1,143.62566,17.23222ZM109.15032,42.55585a9.13455,9.13455,0,0,0-.43258.9447,37.44816,37.44816,0,0,0,31.00005,50.21986,36.59129,36.59129,0,0,0,23.31147-4.98258,37.00253,37.00253,0,0,0,9.31322-7.69514c1.06866-1.23166,1.25774-2.84321.31083-3.79159a3.51266,3.51266,0,0,1-.90237-2.68533,3.47383,3.47383,0,0,0-.50968-1.99367,2.072,2.072,0,0,1-.22319-2.82007c1.14658-1.48907.66936-2.73837-.2695-4.0261a3.57874,3.57874,0,0,1-.7038-1.13927c-.35017-1.48514-.611-2.99136-.89214-4.42169-.89657-.38082-1.90076-.83578-2.92872-1.2285a2.30915,2.30915,0,0,0-1.16349-.15605c-1.34158.238-2.68173.50493-4,.84742-1.15144.29917-2.0599.25457-2.74575-.92374a11.63635,11.63635,0,0,0-1.60723-1.80963,3.79106,3.79106,0,0,1-.54548-4.90431,1.2548,1.2548,0,0,0-.27337-1.12914c-.63193-.61715-.82632-1.12722-.01354-1.70068.91789-.64762,1.878-1.24287,2.74368-1.9535a2.22551,2.22551,0,0,0,.76779-1.27052,2.75145,2.75145,0,0,1,2.96085-2.64207c.95736-.038,1.90063-.35016,2.85839-.47754,1.44417-.1921,2.89544-.33071,4.5868-.51914-.64746,2.157.56928,2.54947,2.0154,2.81539a18.20484,18.20484,0,0,1,2.049.64851,1.80713,1.80713,0,0,0,.45324.00516l.35766-1.49918c1.02019.37731,1.92638.72755,2.84336,1.04682.73927.25739,1.49156.47736,2.23806.71393l.3907-.509c-1.04638-1.82263-2.09275-3.64527-3.31931-5.78174L175.384,42.59832a16.28341,16.28341,0,0,1-1.14851-2.572,3.08557,3.08557,0,0,0-3.50807-2.17828c.16554,1.1389.18076,1.116,1.69919,2.12345.29177.19359.62432.69241.564.96873a2.16909,2.16909,0,0,1-.80677,1.29178c-.27582.17537-.84342-.1081-1.28066-.1866l.07454-.3171,1.53883-.43513-3.56112-2.76223c-.32.20138-.74306.69152-1.06393.63187-1.61688-.30057-2.19549.96728-2.66306,1.93119-.672,1.38538-1.66273,1.52291-2.93317,1.44524-1.67583-.10245-2.23352-.67147-2.09952-2.252.10932-1.2894.79618-1.75794,2.3782-1.59835.40055.0404.85549.28314,1.1744.15551a1.15046,1.15046,0,0,0,.46175-.96036,9.77794,9.77794,0,0,0-.46807-1.76836c1.91652-.36779,1.85825-.42333,3.06318-1.68721a3.95551,3.95551,0,0,1,1.86813-.84545,8.10185,8.10185,0,0,1,1.82905-.0275l-.22908-1.60219a2.931,2.931,0,0,1-2.99277-1.266c-.55025-1.50289,1.20865-1.342,1.757-2.18988-7.28113-6.15155-15.54274-9.63344-25.14186-9.58955a36.753,36.753,0,0,0-20.72245,6.42427c2.15264-.02285,3.70625,2.2048,5.94253,1.60736l.13039-.46646-2.05823-.53048c.28358-1.38018-1.04765-.82744-1.85737-1.13566.30051-.24606.46773-.38522.63729-.52147,1.66543-1.33819,2.65922-1.29179,4.21979.10966a1.74186,1.74186,0,0,0,2.3363.08942,9.04584,9.04584,0,0,1,1.22528-.56145c-.4965,1.76829-1.83292,1.58655-3.04494,2.02357.25624.43987.63424.96791.93525.92717a20.34533,20.34533,0,0,0,3.2323-.79325,1.18207,1.18207,0,0,0-.04171-.914c-.7615-.60474-.30831-.94621.25424-1.03322a13.6416,13.6416,0,0,1,2.20579-.03049,9.50711,9.50711,0,0,0-.55489,2.01632c-.00824.13442.81819.32,1.57534.59753-.65469-2.017.45614-2.31617,1.65877-2.71239,2.03856-.67162,3.5382.59227,5.20942,1.26088.13336.05335.21564.26627.294.4192.27452.53541.53694,1.077.92881,1.86846l-2.948,1.60236-2.98191-.70176,2.5676-1.47948a2.77118,2.77118,0,0,0-3.72238-.39919c-.50656.38766-1.06092.71288-1.59361,1.06642l.13413.10673L136.195,29.3495l-.62218-1.46463c-1.34177.7158-2.61248,1.34688-3.82858,2.06982-.38581.22934-.952.831-.86988,1.04113a3.28227,3.28227,0,0,0,1.17424,1.45979,5.32272,5.32272,0,0,0,1.68407.43783l.27534,1.99273.33142.16192c.29843-.36837.572-.761.90175-1.09878.38768-.39712.77469-.96282,1.2498-1.07146.96723-.22116,1.14478-.70869,1.14832-1.60984.00741-1.89185.59706-2.19505,2.42048-1.96338,1.37725.175,1.52263.90956,1.25278,2.24306l2.628-.9061c.17143,1.33458.22568,1.29435,1.3824,2.85354.22494.3032-.09335,1.07836-.28723,1.58782-.07332.19267-.50344.24957-.75244.36015.11079,1.032,2.08.5318,1.44429,2.12884l-2.51159-.76151.479-1.49913c-1.0134.06011-1.81693.16523-2.615.13325a10.785,10.785,0,0,1-1.39754-.36714c-.069-.01265-.33276.45881-.28959.50539a14.99479,14.99479,0,0,0,1.22663,1.0766c-.17349.07772-.45075.30111-.56252.23683-1.27745-.73471-1.71962.4213-2.398,1.02653-.3248.28977-.6023.63546-.94072.90652a37.94018,37.94018,0,0,0-3.02611,2.40644c-.70011.69-1.01229,1.81578-1.76649,2.39981-1.54352,1.19526-3.59185,1.937-2.69556,4.72218l-.573.00648-1.47859-1.82938.228-.3303c-.89066,0-1.78163.01539-2.67191-.0029-2.63389-.05411-3.98543.80591-5.05568,3.12961a2.17849,2.17849,0,0,0,.26032,2.739,2.106,2.106,0,0,0,2.72929-.2244c.61162-.457,1.29214-.8218,1.94186-1.22781l.32171.277-.6782,2.23427,1.94681.489.36472,3.31931c1.5615.38906,3.05418,1.01767,4.22148-.77253a2.15465,2.15465,0,0,1,3.33131-.05755c.83336,1.148,1.76636.67646,2.74482.50681.361-.06259.8646-.19514,1.08033-.02053.47421.38386.75294,1.00305,1.21241,1.41309a2.92933,2.92933,0,0,0,1.45838.8408c1.7643.16083,2.21849.49429,2.34053,2.36865a1.54442,1.54442,0,0,0,1.31234,1.62088c1.26308.24847,2.54757.38633,3.81555.6127a2.87823,2.87823,0,0,1,1.29013.44932c.69665.56991,1.29426,1.26087,2.11119,2.08162-.084.24093-.11929.93567-.48479,1.28566-1.37447,1.31618-1.49993,2.98728-1.61062,4.70517-.13445,2.0867-.69579,2.59478-2.83864,2.6631-1.20668.03847-1.94678.78377-1.58532,1.9114a3.024,3.024,0,0,1-.88084,3.37789c-.50131.50415-.82348,1.18285-1.30539,1.71076A8.44823,8.44823,0,0,1,140.98,83.2773a19.08445,19.08445,0,0,1-2.744,1.10821l1.18714.92731-1.07254,1.51041,1.7011.71492c-.41895,1.30922-.579,2.70454,1.03349,3.51707-.20688.28117-.36791.74734-.62848.81192a2.74572,2.74572,0,0,1-2.95165-1.14692,15.05657,15.05657,0,0,1-2.57638-4.38886c-.36906-1.28746.278-2.85233-.98576-3.98852a.7618.7618,0,0,1-.17-.62791,6.3137,6.3137,0,0,0-.27705-3.78835,9.527,9.527,0,0,1-.07459-3.21213c.03226-2.726-.3315-3.26032-2.88126-4.29284a1.77179,1.77179,0,0,1-.77572-.61116c-.6101-.91794-1.06729-1.9526-1.76-2.79752a4.0871,4.0871,0,0,1,.42079-5.98814,3.321,3.321,0,0,0,.542-2.02065c.06527-.91883-.72661-.81379-1.332-.90652-.99213-.152-2.01843-.13037-2.66021-1.20506a4.195,4.195,0,0,0-3.28737-2.0897c-.22467-.02419-.60034-.23437-.613-.38338-.08688-1.02512-.66232-.82257-1.33381-.64633a3.2706,3.2706,0,0,1-4.29557-3.42586,1.19664,1.19664,0,0,0-.21055-.59584c-.8327-1.41166-2.08067-2.62272-2.06848-4.44449.001-.1547-.44322-.31239-.68061-.4687l-.42162.30887,1.883,4.844-.44191.30626a6.10819,6.10819,0,0,1-1.2803-.931,5.51989,5.51989,0,0,1-1.18169-3.905,2.50217,2.50217,0,0,0-.56577-1.34486A18.88278,18.88278,0,0,0,109.15032,42.55585Z" stroke="#0c1c27" stroke-linecap="round" stroke-linejoin="round" fill="url(#linear-gradient-11)"/></g></g><circle cx="143.55912" cy="56.29669" r="35.04801" fill="none" stroke="#0c1c27" stroke-linecap="round" stroke-linejoin="round"/><path d="M276.79778,184.00113a1.25132,1.25132,0,0,1,.01331,2.36512L230.09544,213.4819a4.51548,4.51548,0,0,1-4.08318,0L147.01856,167.534a1.25132,1.25132,0,0,1-.01329-2.36513l46.71564-27.11565a4.51549,4.51549,0,0,1,4.08317,0Z" stroke="#0c1c27" stroke-linecap="round" stroke-linejoin="round" fill="url(#linear-gradient-12)"/><line x1="183.30333" y1="144.10002" x2="265.47777" y2="192.94456" stroke="#0c1c27" stroke-linecap="round" stroke-linejoin="round" fill="url(#linear-gradient-13)"/><path d="M268.77147,173.28718a3.58845,3.58845,0,0,0-1.49848-2.863.96586.96586,0,0,0-.9353-.09162l-.00427-.009-4.28269,2.48819,2.43238,3.87189,3.81063-2.2001-.00632-.01339A1.352,1.352,0,0,0,268.77147,173.28718Z" stroke="#0c1c27" stroke-linecap="round" stroke-linejoin="round" fill="url(#linear-gradient-14)"/><polygon points="265.982 175.821 261.889 178.184 259.908 174.038 264.033 171.659 265.982 175.821" stroke="#0c1c27" stroke-linecap="round" stroke-linejoin="round" fill="url(#linear-gradient-15)"/><path d="M263.5128,172.86872a3.58887,3.58887,0,0,0,1.49848,2.8632c.82765.47773,1.49862-.02934,1.49862-1.13288a3.58854,3.58854,0,0,0-1.49862-2.86305C264.18377,171.25812,263.5128,171.76533,263.5128,172.86872Z" fill="#1b272d" stroke="#0c1c27" stroke-linecap="round" stroke-linejoin="round"/><path d="M262.4347,172.57946l.08456-.04883A.76272.76272,0,0,0,262.4347,172.57946Z" stroke="#0c1c27" stroke-linecap="round" stroke-linejoin="round" fill="url(#linear-gradient-16)"/><path d="M262.57772,172.49688l-.05846.03375c.01941-.01154.03941-.02162.05964-.03125Z" stroke="#0c1c27" stroke-linecap="round" stroke-linejoin="round" fill="url(#linear-gradient-17)"/><path d="M234.81055,191.45417l-1.715-.99016,1.788,3.75644,29.66889-17.57484-.00066-.0014a1.3885,1.3885,0,0,0,.45956-1.17369,3.70836,3.70836,0,0,0-.4303-1.64995Z" stroke="#0c1c27" stroke-linecap="round" stroke-linejoin="round" fill="url(#linear-gradient-18)"/><path d="M264.58105,173.82057a2.9918,2.9918,0,0,0-1.07391-1.22376.97457.97457,0,0,0-.92824-.09743c-.02023.00963-.04023.01971-.05964.03125l-.08456.04883-29.52587,17.49227.18677.39228,1.715.99016Z" stroke="#0c1c27" stroke-linecap="round" stroke-linejoin="round" fill="url(#linear-gradient-19)"/><path d="M235.41048,193.00345a3.58859,3.58859,0,0,0-1.49855-2.863.95229.95229,0,0,0-1.0031-.06867s-.11125.09882-.14912.13831l-4.50278,4.175.85163,1.97334,5.775-2.1379A1.31982,1.31982,0,0,0,235.41048,193.00345Z" stroke="#0c1c27" stroke-linecap="round" stroke-linejoin="round" fill="url(#linear-gradient-20)"/><path d="M228.05539,194.92943a1.68524,1.68524,0,0,0,.70361,1.34443c.38868.22434.70369-.01375.70369-.53192a1.68491,1.68491,0,0,0-.70369-1.34443C228.37047,194.1731,228.05539,194.41126,228.05539,194.92943Z" fill="#1b272d" stroke="#0c1c27" stroke-linecap="round" stroke-linejoin="round"/><path d="M229.04748,195.38912l-.11157-.23743a.77.77,0,0,0-1.22045-.23716l-3.33583,3.09308,4.23826-1.5689A.77.77,0,0,0,229.04748,195.38912Z" fill="#43cf9d" stroke="#0c1c27" stroke-linecap="round" stroke-linejoin="round"/></g></svg>