<svg width="380" height="380" viewBox="0 0 380 380" fill="none" xmlns="http://www.w3.org/2000/svg">
<path d="M304.75 272.78V279.29C301 279.22 298.45 280.25 296.5 282.39C294.55 284.53 293.46 289.42 293.25 297.06C293.09 302.88 292.76 307.19 292.25 309.99C291.74 312.79 290.64 315.11 288.93 316.96C287.22 318.81 285.05 320.12 282.41 320.89C279.77 321.66 276.05 321.98 271.27 321.85L268.53 321.77L268.87 309.42C273.87 309.56 276.87 309.12 277.88 308.12C278.89 307.12 279.47 305.11 279.62 302.12C280.05 293.86 280.47 288.49 280.87 286.02C281.27 283.55 282.09 281.2 283.34 278.98C284.59 276.76 286.86 274.66 290.16 272.68L304.76 272.78H304.75Z" fill="#001E2B"/>
<path d="M289.66 272.62C286.61 270.74 284.39 268.5 283.02 265.9C281.64 263.3 280.86 259.58 280.65 254.72L279.99 239.67C279.69 238.22 278.96 237.12 277.79 236.37C276.62 235.62 273.94 235.23 269.74 235.2L269.84 222.79L272.53 222.81C278.04 222.85 282.29 223.51 285.28 224.8C288.27 226.08 290.42 228.16 291.74 231.03C293.06 233.9 293.7 238.52 293.65 244.9C293.6 251.93 293.8 256.43 294.27 258.4C294.74 260.37 295.65 262.18 297.02 263.82C298.39 265.47 300.98 266.38 304.8 266.54L304.75 272.79L289.66 272.63V272.62Z" fill="#001E2B"/>
<path d="M286.28 263.73V270.24C282.53 270.17 279.98 271.2 278.03 273.34C276.08 275.48 274.99 280.37 274.78 288.01C274.62 293.83 274.29 298.14 273.78 300.94C273.27 303.74 272.17 306.06 270.46 307.91C268.75 309.76 266.58 311.07 263.94 311.84C261.3 312.61 257.58 312.93 252.8 312.8L250.06 312.72L250.4 300.37C255.4 300.51 258.4 300.07 259.41 299.07C260.42 298.07 261 296.06 261.15 293.07C261.58 284.81 262 279.44 262.4 276.97C262.8 274.5 263.62 272.15 264.87 269.93C266.12 267.71 268.39 265.61 271.69 263.63L286.29 263.73H286.28Z" fill="#00D2FF" stroke="#001E2B" stroke-linecap="round" stroke-linejoin="round"/>
<path d="M271.19 263.57C268.14 261.69 265.92 259.45 264.55 256.85C263.17 254.25 262.39 250.53 262.18 245.67L261.52 230.62C261.22 229.17 260.49 228.07 259.32 227.32C258.15 226.57 255.47 226.18 251.27 226.15L251.37 213.74L254.06 213.76C259.57 213.8 263.82 214.46 266.81 215.75C269.8 217.03 271.95 219.11 273.27 221.98C274.59 224.85 275.23 229.47 275.18 235.85C275.13 242.88 275.33 247.38 275.8 249.35C276.27 251.32 277.18 253.13 278.55 254.77C279.92 256.42 282.51 257.33 286.33 257.49L286.28 263.74L271.19 263.58V263.57Z" fill="white" stroke="#001E2B" stroke-linecap="round" stroke-linejoin="round"/>
<path d="M261.09 146.53H192.62V161.29H261.09V146.53Z" fill="#00D2FF" stroke="#001E2B" stroke-linejoin="round"/>
<path d="M192.63 161.29V162.73H159.99C159.74 162.28 159.5 161.8 159.29 161.29C158.47 159.32 157.99 156.92 157.99 154.31C157.99 151.7 158.47 149.3 159.29 147.33C159.5 146.82 159.74 146.34 159.99 145.89H192.97V147.33L190.84 154.61L192.63 161.29Z" fill="#001E2B" stroke="#001E2B" stroke-miterlimit="10"/>
<path d="M193.35 147.33C192.43 149.24 191.87 151.68 191.87 154.31C191.87 156.94 192.43 159.38 193.35 161.29H260.93C261.33 161.29 261.65 161.61 261.65 162.01C261.65 162.41 261.33 162.73 260.93 162.73H192.44C192.19 162.28 191.95 161.8 191.74 161.29C190.92 159.32 190.44 156.92 190.44 154.31C190.44 151.7 190.92 149.3 191.74 147.33C191.95 146.82 192.19 146.34 192.44 145.89H260.93C261.33 145.89 261.65 146.21 261.65 146.61C261.65 147.01 261.33 147.33 260.93 147.33H193.35Z" fill="#006CFA" stroke="#001E2B" stroke-miterlimit="10"/>
<path d="M261.09 147.33V161.29" stroke="#001E2B" stroke-miterlimit="10"/>
<path d="M193.35 147.33C193.35 147.33 192.61 149.01 192.61 154.31C192.61 159.61 193.35 161.29 193.35 161.29C193.35 161.29 191.9 158.3 191.87 154.31C191.85 150.31 193.35 147.33 193.35 147.33Z" fill="#001E2B" stroke="#001E2B" stroke-linejoin="round"/>
<path d="M193 149.79H261.09" stroke="#001E2B" stroke-linejoin="round"/>
<path d="M192.79 152.76H261.09" stroke="#001E2B" stroke-linejoin="round"/>
<path d="M192.79 155.73H261.09" stroke="#001E2B" stroke-linejoin="round"/>
<path d="M192.99 158.7H261.09" stroke="#001E2B" stroke-linejoin="round"/>
<path d="M209.79 160.51L206.4 158.41L203.02 160.51L204.28 150.31H209.79V160.51Z" fill="#001E2B" stroke="#001E2B" stroke-linejoin="round"/>
<path d="M211.06 160.51L207.67 158.41L204.28 160.51V150.31H211.06V160.51Z" fill="white" stroke="#001E2B" stroke-linejoin="round"/>
<path d="M252.72 129.69H184.25V144.45H252.72V129.69Z" fill="#00D2FF" stroke="#001E2B" stroke-linejoin="round"/>
<path d="M184.26 144.45V145.89H151.62C151.37 145.44 151.13 144.96 150.92 144.45C150.1 142.48 149.62 140.08 149.62 137.47C149.62 134.86 150.1 132.46 150.92 130.49C151.13 129.98 151.37 129.5 151.62 129.05H184.6V130.49L182.47 137.77L184.26 144.45Z" fill="#001E2B" stroke="#001E2B" stroke-miterlimit="10"/>
<path d="M184.99 130.49C184.07 132.4 183.51 134.84 183.51 137.47C183.51 140.1 184.07 142.54 184.99 144.45H252.57C252.97 144.45 253.29 144.77 253.29 145.17C253.29 145.57 252.97 145.89 252.57 145.89H184.08C183.83 145.44 183.59 144.96 183.38 144.45C182.56 142.48 182.08 140.08 182.08 137.47C182.08 134.86 182.56 132.46 183.38 130.49C183.59 129.98 183.83 129.5 184.08 129.05H252.57C252.97 129.05 253.29 129.37 253.29 129.77C253.29 130.17 252.97 130.49 252.57 130.49H184.99Z" fill="#006CFA" stroke="#001E2B" stroke-miterlimit="10"/>
<path d="M252.72 130.49V144.45" stroke="#001E2B" stroke-miterlimit="10"/>
<path d="M184.99 130.49C184.99 130.49 184.25 132.17 184.25 137.47C184.25 142.77 184.99 144.45 184.99 144.45C184.99 144.45 183.54 141.46 183.51 137.47C183.49 133.47 184.99 130.49 184.99 130.49Z" fill="#001E2B" stroke="#001E2B" stroke-linejoin="round"/>
<path d="M184.63 132.96H252.72" stroke="#001E2B" stroke-linejoin="round"/>
<path d="M184.43 135.93H252.72" stroke="#001E2B" stroke-linejoin="round"/>
<path d="M184.43 138.9H252.72" stroke="#001E2B" stroke-linejoin="round"/>
<path d="M184.62 141.87H252.72" stroke="#001E2B" stroke-linejoin="round"/>
<path d="M201.43 143.67L198.04 141.57L194.65 143.67L195.91 133.48H201.43V143.67Z" fill="#001E2B" stroke="#001E2B" stroke-linejoin="round"/>
<path d="M202.69 143.67L199.3 141.57L195.91 143.67V133.48H202.69V143.67Z" fill="white" stroke="#001E2B" stroke-linejoin="round"/>
<path d="M152.91 94.68C152.91 113.62 139.64 129.46 121.89 133.4C119.11 134.02 116.21 134.35 113.24 134.35C91.3301 134.35 73.5801 116.59 73.5801 94.69C73.5801 72.79 91.3401 55.03 113.24 55.03C116.21 55.03 119.1 55.36 121.89 55.98C139.63 59.92 152.91 75.75 152.91 94.69V94.68Z" fill="#001E2B" stroke="#001E2B" stroke-miterlimit="10"/>
<path d="M152.91 94.68C152.91 113.62 139.64 129.46 121.89 133.4C104.15 129.46 90.8799 113.62 90.8799 94.68C90.8799 75.74 104.15 59.91 121.89 55.97C139.63 59.91 152.91 75.74 152.91 94.68Z" fill="#001E2B" stroke="#001E2B" stroke-miterlimit="10"/>
<path fill-rule="evenodd" clip-rule="evenodd" d="M113.08 54.78C91.2099 54.78 73.3999 72.58 73.3999 94.46C73.3999 116.34 91.1999 134.14 113.08 134.14C115.8 134.14 118.41 133.85 120.9 133.34C119.95 132.9 119.77 129.2 120.79 127.17C121.88 124.84 125.4 118.95 121.92 116.96C118.46 114.99 119.44 114.13 117.33 111.8C115.23 109.47 116.09 109.14 115.91 108.52C115.47 106.6 117.94 103.47 118.13 103.19C118.24 102.86 118.24 101.66 118.13 101.33C118.13 100.87 116.6 100.07 116.2 100.02C115.84 100.02 115.58 100.64 115.07 100.75C114.56 100.86 112.24 99.33 111.73 98.89C111.22 98.43 110.93 97.59 110.18 96.96C109.45 96.21 109.41 96.78 108.32 96.32C107.24 95.88 103.78 94.57 101.06 93.62C98.3299 92.53 98.1099 90.94 98.1099 89.87C97.9999 88.72 96.4099 87.2 95.7399 86.07C94.9499 84.94 94.8299 83.41 94.5899 83.74C94.3699 84.1 96.0099 88.17 95.7399 88.35C95.4599 88.46 94.8299 87.2 94.0399 86.18C93.2399 85.12 94.8299 85.67 92.3299 80.8C89.8299 75.93 93.1199 73.43 93.3099 70.88C93.4599 68.34 95.4599 71.86 94.3699 70.15C93.3099 68.45 94.3699 65.1 93.5799 63.86C92.8499 62.6 88.5999 65.28 88.5999 65.28C88.7099 64.02 92.5199 61.98 95.1699 60.05C97.8299 58.12 99.5999 59.72 101.75 60.33C103.97 61.06 104.07 60.84 103.34 60.05C102.59 59.32 103.67 59.1 105.38 59.32C106.97 59.61 107.53 61.64 110.07 61.35C112.74 61.17 110.36 61.86 110.69 62.59C111.05 63.35 110.36 63.21 108.54 64.3C106.84 65.43 108.66 65.54 111.66 67.75C114.67 69.97 113.81 66.33 113.41 64.63C113.01 62.95 115.62 64.3 115.62 64.3C117.5 65.54 117.15 64.41 118.45 64.76C119.76 65.09 123.61 68.36 123.61 68.36C118.92 70.86 121.87 71.09 122.66 71.7C123.44 72.35 121.07 73.41 121.07 73.41C120.09 72.46 119.99 73.52 119.36 73.87C118.74 74.2 119.25 75.11 119.25 75.11C116.08 75.62 116.75 79.03 116.88 79.83C116.88 80.61 114.71 81.86 114.2 83.11C113.69 84.24 115.62 86.74 114.56 86.85C113.47 87.02 112.63 83.11 107.12 84.53C105.42 84.97 101.81 86.85 103.78 90.64C105.82 94.56 109.01 89.58 110.07 90.13C111.15 90.71 109.74 93.15 109.95 93.25C110.17 93.36 112.96 93.36 113.14 96.7C113.29 100.04 117.5 99.72 118.34 99.82C119.31 99.82 122.3 97.34 122.7 97.28C123.06 97.11 124.85 95.69 128.55 97.79C132.3 99.82 134.11 99.54 135.35 100.45C136.59 101.36 135.81 103.12 136.94 103.75C138.07 104.37 142.94 103.57 144.18 105.49C145.44 107.42 139.2 117.34 137.28 118.42C135.35 119.51 134.56 122.05 132.52 123.62C130.48 125.22 127.93 127.25 125.32 128.78C123 130.08 122.66 132.52 121.58 133.31C139.38 129.35 152.64 113.47 152.64 94.55C152.64 72.67 134.84 54.87 112.96 54.87L113.07 54.76L113.08 54.78ZM122.38 91.96C121.87 92.13 120.78 93.22 117.95 91.51C115.23 89.81 113.37 90.21 113.08 89.92C113.08 89.92 112.79 89.3 114.05 89.13C116.53 88.86 119.58 91.45 120.34 91.45C121.1 91.45 121.41 90.72 122.66 91.18C123.9 91.62 122.93 91.91 122.38 91.96ZM109.34 58.75C109.05 58.6 109.52 58.31 109.85 57.96C110.02 57.8 109.96 57.34 110.13 57.18C110.75 56.54 113.59 55.76 113.08 57.33C112.46 58.86 109.8 59.04 109.34 58.75ZM116.31 63.8C115.23 63.69 113.01 63.51 113.37 63C115.07 61.43 112.86 60.85 111.44 60.85C110.02 60.74 109.51 59.94 110.18 59.77C110.87 59.62 113.66 59.88 114.17 60.23C114.62 60.56 117.12 61.65 117.27 62.38C117.41 63.11 117.27 63.8 116.32 63.8H116.31ZM124.64 63.51C123.84 64.02 119.95 61.18 119.26 60.57C116.09 57.84 114.21 58.82 113.59 58.24C112.97 57.69 113.15 57.18 114.21 56.32C115.3 55.48 118.13 56.65 119.88 56.82C121.59 57 123.62 58.35 123.62 59.94C123.73 61.36 125.5 62.77 124.71 63.5H124.64V63.51Z" fill="#00D2FF"/>
<path d="M121.9 133.39C119.12 134.01 116.22 134.34 113.25 134.34C91.3398 134.34 73.5898 116.58 73.5898 94.68C73.5898 72.78 91.3498 55.02 113.25 55.02C116.22 55.02 119.11 55.35 121.9 55.97C104.16 59.91 90.8898 75.74 90.8898 94.68C90.8898 113.62 104.16 129.46 121.9 133.4V133.39Z" fill="#001E2B" stroke="#001E2B" stroke-miterlimit="10"/>
<path d="M118.14 146.89C118.14 149.08 116.7 150.93 114.71 151.56C114.25 151.71 113.75 151.78 113.25 151.78C110.55 151.78 108.36 149.59 108.36 146.89C108.36 144.19 110.55 142 113.25 142C113.76 142 114.25 142.08 114.71 142.22C116.7 142.84 118.14 144.7 118.14 146.89Z" fill="#001E2B" stroke="#001E2B" stroke-miterlimit="10"/>
<path d="M118.14 146.89C118.14 149.08 116.7 150.93 114.71 151.56C112.73 150.94 111.28 149.08 111.28 146.89C111.28 144.7 112.73 142.85 114.71 142.22C116.7 142.84 118.14 144.7 118.14 146.89Z" fill="#00ED64" stroke="#001E2B" stroke-miterlimit="10"/>
<path d="M137.5 162.73H88.9902C92.8202 153.09 102.23 146.27 113.24 146.27C114.52 146.27 115.77 146.36 117.01 146.54C126.36 147.89 134.11 154.2 137.5 162.73Z" fill="#001E2B" stroke="#001E2B" stroke-miterlimit="10"/>
<path d="M137.5 162.73H96.5303C99.9203 154.21 107.67 147.89 117.02 146.54C126.37 147.89 134.12 154.2 137.51 162.73H137.5Z" fill="#00ED64" stroke="#001E2B" stroke-miterlimit="10"/>
<path d="M330.228 96.759L328.659 96.6941L328.459 101.53L330.028 101.595L330.228 96.759Z" fill="#00D2FF" stroke="#001E2B" stroke-miterlimit="10"/>
<path d="M329.758 94.0834L329.358 94.0669L329.249 96.7146L329.648 96.7312L329.758 94.0834Z" fill="#00ED64" stroke="#001E2B" stroke-miterlimit="10"/>
<path d="M329.4 101.569L329.1 101.557C327.997 101.511 327.065 102.369 327.019 103.473L325.488 140.481C325.442 141.585 326.3 142.516 327.403 142.562L327.703 142.574C328.807 142.62 329.738 141.762 329.784 140.659L331.316 103.65C331.361 102.547 330.504 101.615 329.4 101.569Z" fill="#00D2FF" stroke="#001E2B" stroke-miterlimit="10"/>
<path d="M330.441 106.863L327.693 106.75C326.871 106.716 326.177 107.355 326.143 108.177L325.773 117.119C325.739 117.941 326.378 118.635 327.2 118.669L329.948 118.783C330.77 118.817 331.464 118.178 331.498 117.356L331.868 108.414C331.902 107.591 331.263 106.897 330.441 106.863Z" fill="#00D2FF" stroke="#001E2B" stroke-miterlimit="10"/>
<path d="M329.04 101.55L327.34 142.56C327.34 142.56 325.39 142.65 325.51 139.74C325.63 136.83 326.74 118.65 326.74 118.65C326.74 118.65 326.98 104.33 327.02 103.27C327.06 102.21 328.06 101.5 329.04 101.54V101.55Z" fill="#001E2B" stroke="#001E2B" stroke-miterlimit="10"/>
<path d="M328.25 106.77L327.76 118.69C327.76 118.69 325.7 119.05 325.76 117.58L326.1 109.37C326.15 108.27 325.59 106.66 328.25 106.77Z" fill="#001E2B" stroke="#001E2B" stroke-miterlimit="10"/>
<path d="M336.92 152.61L325.95 151.02L338.08 67.6201L349.05 69.2101L336.92 152.61ZM343.21 70.8701C342.36 70.7501 341.57 71.3301 341.45 72.1801C341.33 73.0301 341.91 73.8201 342.76 73.9401C343.61 74.0601 344.4 73.4801 344.52 72.6301C344.64 71.7801 344.06 70.9901 343.21 70.8701Z" fill="#00ED64" stroke="#001E2B" stroke-miterlimit="10"/>
<path d="M337.5 152.7L326.53 151.11L338.66 67.71L349.63 69.3L337.5 152.7ZM343.79 70.96C342.94 70.84 342.15 71.42 342.03 72.27C341.91 73.12 342.49 73.91 343.34 74.03C344.19 74.15 344.98 73.57 345.1 72.72C345.22 71.87 344.64 71.08 343.79 70.96Z" fill="#00D2FF" stroke="#001E2B" stroke-miterlimit="10"/>
<path d="M337.14 78.1799L342.04 78.8899" stroke="#001E2B" stroke-miterlimit="10" stroke-linecap="round"/>
<path d="M336.92 79.6699L340.06 80.1299" stroke="#001E2B" stroke-miterlimit="10" stroke-linecap="round"/>
<path d="M336.7 81.1599L339.85 81.6199" stroke="#001E2B" stroke-miterlimit="10" stroke-linecap="round"/>
<path d="M336.49 82.6499L339.63 83.1099" stroke="#001E2B" stroke-miterlimit="10" stroke-linecap="round"/>
<path d="M336.27 84.1499L339.41 84.5999" stroke="#001E2B" stroke-miterlimit="10" stroke-linecap="round"/>
<path d="M336.05 85.6399L340.96 86.3499" stroke="#001E2B" stroke-miterlimit="10" stroke-linecap="round"/>
<path d="M335.84 87.1299L338.98 87.5899" stroke="#001E2B" stroke-miterlimit="10" stroke-linecap="round"/>
<path d="M335.62 88.6201L338.76 89.0801" stroke="#001E2B" stroke-miterlimit="10" stroke-linecap="round"/>
<path d="M335.4 90.1101L338.55 90.5701" stroke="#001E2B" stroke-miterlimit="10" stroke-linecap="round"/>
<path d="M335.19 91.6001L338.33 92.0601" stroke="#001E2B" stroke-miterlimit="10" stroke-linecap="round"/>
<path d="M334.97 93.0901L339.87 93.8101" stroke="#001E2B" stroke-miterlimit="10" stroke-linecap="round"/>
<path d="M334.75 94.5801L337.9 95.0401" stroke="#001E2B" stroke-miterlimit="10" stroke-linecap="round"/>
<path d="M334.54 96.0801L337.68 96.5301" stroke="#001E2B" stroke-miterlimit="10" stroke-linecap="round"/>
<path d="M334.32 97.5701L337.46 98.0201" stroke="#001E2B" stroke-miterlimit="10" stroke-linecap="round"/>
<path d="M334.1 99.0601L337.25 99.5201" stroke="#001E2B" stroke-miterlimit="10" stroke-linecap="round"/>
<path d="M333.89 100.55L338.79 101.26" stroke="#001E2B" stroke-miterlimit="10" stroke-linecap="round"/>
<path d="M333.67 102.04L336.81 102.5" stroke="#001E2B" stroke-miterlimit="10" stroke-linecap="round"/>
<path d="M333.45 103.53L336.59 103.99" stroke="#001E2B" stroke-miterlimit="10" stroke-linecap="round"/>
<path d="M333.23 105.02L336.38 105.48" stroke="#001E2B" stroke-miterlimit="10" stroke-linecap="round"/>
<path d="M333.02 106.51L336.16 106.97" stroke="#001E2B" stroke-miterlimit="10" stroke-linecap="round"/>
<path d="M332.8 108.01L337.7 108.72" stroke="#001E2B" stroke-miterlimit="10" stroke-linecap="round"/>
<path d="M332.58 109.5L335.73 109.95" stroke="#001E2B" stroke-miterlimit="10" stroke-linecap="round"/>
<path d="M332.37 110.99L335.51 111.45" stroke="#001E2B" stroke-miterlimit="10" stroke-linecap="round"/>
<path d="M332.15 112.48L335.29 112.94" stroke="#001E2B" stroke-miterlimit="10" stroke-linecap="round"/>
<path d="M331.93 113.97L335.08 114.43" stroke="#001E2B" stroke-miterlimit="10" stroke-linecap="round"/>
<path d="M331.72 115.46L336.62 116.17" stroke="#001E2B" stroke-miterlimit="10" stroke-linecap="round"/>
<path d="M331.5 116.95L334.64 117.41" stroke="#001E2B" stroke-miterlimit="10" stroke-linecap="round"/>
<path d="M331.28 118.44L334.43 118.9" stroke="#001E2B" stroke-miterlimit="10" stroke-linecap="round"/>
<path d="M331.07 119.94L334.21 120.39" stroke="#001E2B" stroke-miterlimit="10" stroke-linecap="round"/>
<path d="M330.85 121.43L333.99 121.88" stroke="#001E2B" stroke-miterlimit="10" stroke-linecap="round"/>
<path d="M330.63 122.92L335.54 123.63" stroke="#001E2B" stroke-miterlimit="10" stroke-linecap="round"/>
<path d="M321.06 119.18C321.552 119.18 321.95 118.781 321.95 118.29C321.95 117.798 321.552 117.4 321.06 117.4C320.569 117.4 320.17 117.798 320.17 118.29C320.17 118.781 320.569 119.18 321.06 119.18Z" fill="#001E2B"/>
<path d="M318.45 99.38C318.45 99.38 320.21 99.09 320.51 101.62C320.81 104.13 322.16 115.45 322.16 115.45C322.16 115.45 320.61 117.55 320.71 118.33" stroke="#001E2B" stroke-width="2" stroke-linecap="round" stroke-linejoin="round"/>
<path d="M316.698 93.9701C316.59 93.0652 315.769 92.4191 314.864 92.527C313.959 92.6349 313.313 93.4559 313.421 94.3608L313.71 96.7836C313.818 97.6885 314.639 98.3346 315.544 98.2267C316.448 98.1188 317.095 97.2978 316.987 96.3929L316.698 93.9701Z" fill="#00D2FF" stroke="#001E2B" stroke-miterlimit="10"/>
<path d="M317.087 96.3237L313.721 96.7251C313.178 96.7898 312.79 97.2824 312.855 97.8253L318.235 142.946C318.3 143.489 318.793 143.876 319.336 143.811L322.702 143.41C323.245 143.345 323.632 142.853 323.568 142.31L318.187 97.1895C318.122 96.6466 317.63 96.2589 317.087 96.3237Z" fill="#00D2FF" stroke="#001E2B" stroke-miterlimit="10"/>
<path d="M314.415 96.6498L313.71 96.7339C313.167 96.7986 312.779 97.2912 312.844 97.8341L318.224 142.954C318.289 143.497 318.781 143.885 319.324 143.82L320.029 143.736C320.572 143.671 320.96 143.179 320.895 142.636L315.515 97.5156C315.45 96.9727 314.958 96.585 314.415 96.6498Z" fill="#001E2B" stroke="#001E2B" stroke-miterlimit="10"/>
<path d="M314.84 96.4298L314.59 94.3398C314.49 93.4698 314.31 92.5798 314.87 92.5098C314.87 92.5098 313.22 92.5998 313.43 94.3398L313.72 96.7698L314.84 96.4298Z" fill="#001E2B" stroke="#001E2B" stroke-miterlimit="10"/>
<path d="M197.42 334.84V162.72H58.2399V334.84H197.42Z" fill="#00ED64" stroke="#001E2B" stroke-miterlimit="10"/>
<path d="M58.2401 162.72H21.3301V334.84H58.2401V162.72Z" fill="#001E2B" stroke="#001E2B" stroke-miterlimit="10"/>
<path d="M354.02 162.72H58.2402V171.3H354.02V334.84H362.6V171.3V162.72H354.02Z" fill="#00ED64" stroke="#001E2B" stroke-miterlimit="10"/>
<path d="M186.79 178.31H66.7598C66.2075 178.31 65.7598 178.758 65.7598 179.31V239.95C65.7598 240.502 66.2075 240.95 66.7598 240.95H186.79C187.342 240.95 187.79 240.502 187.79 239.95V179.31C187.79 178.758 187.342 178.31 186.79 178.31Z" fill="#001E2B" stroke="#001E2B" stroke-miterlimit="10"/>
<path d="M186.79 248.77H66.7598C66.2075 248.77 65.7598 249.218 65.7598 249.77V310.41C65.7598 310.962 66.2075 311.41 66.7598 311.41H186.79C187.342 311.41 187.79 310.962 187.79 310.41V249.77C187.79 249.218 187.342 248.77 186.79 248.77Z" fill="#001E2B" stroke="#001E2B" stroke-miterlimit="10"/>
<path d="M187.84 248.77H67.8101C67.2578 248.77 66.8101 249.218 66.8101 249.77V310.41C66.8101 310.962 67.2578 311.41 67.8101 311.41H187.84C188.392 311.41 188.84 310.962 188.84 310.41V249.77C188.84 249.218 188.392 248.77 187.84 248.77Z" fill="#00ED64" stroke="#001E2B" stroke-miterlimit="10"/>
<path d="M278.79 162.72H278.76L276.39 161.24L275.16 160.47L276.39 159.68L278.76 158.18H278.79V162.72Z" fill="white" stroke="#001E2B" stroke-linejoin="round"/>
<path d="M304.49 158.18H278.79V162.73H304.49V158.18Z" fill="#00D2FF" stroke="#001E2B" stroke-linejoin="round"/>
<path d="M309.22 158.18H304.5V162.73H309.22V158.18Z" fill="white" stroke="#001E2B" stroke-linejoin="round"/>
<path d="M302.91 160.45H280.67" stroke="#001E2B" stroke-linejoin="round"/>
<path d="M276.39 161.24L275.16 160.47L276.4 159.68C276.53 159.92 276.6 160.18 276.6 160.45C276.6 160.72 276.53 160.99 276.4 161.24H276.39Z" fill="#001E2B" stroke="#001E2B" stroke-linejoin="round"/>
<path d="M272.419 105.549L267.064 116.6L278.116 121.954L283.47 110.903L272.419 105.549Z" fill="#001E2B" stroke="#001E2B" stroke-linecap="round" stroke-linejoin="round"/>
<path d="M267.454 107.285L262.1 118.336L273.151 123.69L278.506 112.639L267.454 107.285Z" fill="#00D2FF" stroke="#001E2B" stroke-linecap="round" stroke-linejoin="round"/>
<path d="M272.419 105.549L267.064 116.6L278.116 121.954L283.47 110.903L272.419 105.549Z" fill="#001E2B" stroke="#001E2B" stroke-linecap="round" stroke-linejoin="round"/>
<path d="M267.454 107.285L262.1 118.336L273.151 123.69L278.506 112.639L267.454 107.285Z" fill="#00ED64" stroke="#001E2B" stroke-linecap="round" stroke-linejoin="round"/>
<path d="M240.035 86.3364L234.681 97.3877L245.732 102.742L251.086 91.6907L240.035 86.3364Z" fill="white" stroke="#001E2B" stroke-linecap="round" stroke-linejoin="round"/>
<path d="M355.12 171.3H318.21V334.84H355.12V171.3Z" fill="#001E2B" stroke="#001E2B" stroke-miterlimit="10"/>
<path d="M158.62 276.74H110.9V283.44H158.62V276.74Z" fill="white" stroke="#001E2B" stroke-miterlimit="10"/>
<path d="M113 276.74H92.1299V283.44H113V276.74Z" fill="#001E2B" stroke="#001E2B" stroke-miterlimit="10"/>
<path d="M324.8 121.64H314.48V162.73H324.8V121.64Z" fill="#001E2B" stroke="#001E2B" stroke-miterlimit="10"/>
<path d="M345.65 121.64H321.63V162.73H345.65V121.64Z" fill="#00ED64" stroke="#001E2B" stroke-miterlimit="10"/>
<path d="M187.84 178.31H67.8101C67.2578 178.31 66.8101 178.758 66.8101 179.31V239.95C66.8101 240.502 67.2578 240.95 67.8101 240.95H187.84C188.392 240.95 188.84 240.502 188.84 239.95V179.31C188.84 178.758 188.392 178.31 187.84 178.31Z" fill="#00ED64" stroke="#001E2B" stroke-miterlimit="10"/>
<path d="M158.62 206.28H110.9V212.98H158.62V206.28Z" fill="white" stroke="#001E2B" stroke-miterlimit="10"/>
<path d="M113 206.28H92.1299V212.98H113V206.28Z" fill="#001E2B" stroke="#001E2B" stroke-miterlimit="10"/>
<path d="M92.1299 212.99V219.13C92.1299 219.13 155.64 212.99 154.97 212.99H92.1299Z" fill="#001E2B" stroke="#001E2B" stroke-miterlimit="10"/>
<path d="M92.1299 283.44V289.58C92.1299 289.58 155.64 283.44 154.97 283.44H92.1299Z" fill="#001E2B" stroke="#001E2B" stroke-miterlimit="10"/>
<path d="M114.66 133.3H111.83V142.23H114.66V133.3Z" fill="#001E2B" stroke="#001E2B" stroke-miterlimit="10"/>
<path d="M113.41 52.16C113.64 52.16 113.87 52.17 114.1 52.18V47.55C113.87 47.55 113.64 47.53 113.41 47.53C112.27 47.53 111.14 47.58 110.02 47.66V52.3C111.14 52.21 112.27 52.15 113.41 52.15V52.16Z" fill="#001E2B" stroke="#001E2B" stroke-miterlimit="10"/>
<path d="M114.1 47.55V52.18C137.26 52.55 155.93 71.43 155.93 94.68C155.93 117.93 136.89 137.2 113.41 137.2C103.54 137.2 94.4502 133.82 87.2402 128.18L83.9502 131.47C92.0202 137.94 102.26 141.82 113.42 141.82C139.46 141.82 160.57 120.71 160.57 94.67C160.57 68.63 139.83 47.91 114.12 47.54L114.1 47.55Z" fill="#00ED64" stroke="#001E2B" stroke-miterlimit="10"/>
<path d="M84.1401 125.51L80.8701 128.78C81.8601 129.72 82.8801 130.62 83.9401 131.47L87.2301 128.18C86.1501 127.34 85.1201 126.45 84.1301 125.51H84.1401Z" fill="#001E2B" stroke="#001E2B" stroke-miterlimit="10"/>
<path d="M177.11 263.73H259.41" stroke="#001E2B" stroke-miterlimit="10"/>
<path d="M308.39 70.11C314.63 70.11 319.7 65.04 319.7 58.8C319.7 52.56 314.63 47.49 308.39 47.49V52.97C311.61 52.97 314.23 55.59 314.23 58.81C314.23 62.03 311.61 64.65 308.39 64.65V70.13V70.11Z" fill="#001E2B" stroke="#001E2B" stroke-linecap="round" stroke-linejoin="round"/>
<path d="M310.72 67.7799C316.96 67.7799 322.03 62.7099 322.03 56.4699C322.03 50.2299 316.96 45.1599 310.72 45.1599V50.6399C313.94 50.6399 316.56 53.2599 316.56 56.4799C316.56 59.6999 313.94 62.3199 310.72 62.3199V67.7999V67.7799Z" fill="#00D2FF" stroke="#001E2B" stroke-linecap="round" stroke-linejoin="round"/>
<path d="M308.39 70.11C314.63 70.11 319.7 65.04 319.7 58.8C319.7 52.56 314.63 47.49 308.39 47.49V52.97C311.61 52.97 314.23 55.59 314.23 58.81C314.23 62.03 311.61 64.65 308.39 64.65V70.13V70.11Z" fill="#001E2B" stroke="#001E2B" stroke-linecap="round" stroke-linejoin="round"/>
<path d="M310.72 67.7799C316.96 67.7799 322.03 62.7099 322.03 56.4699C322.03 50.2299 316.96 45.1599 310.72 45.1599V50.6399C313.94 50.6399 316.56 53.2599 316.56 56.4799C316.56 59.6999 313.94 62.3199 310.72 62.3199V67.7999V67.7799Z" fill="white" stroke="#001E2B" stroke-linecap="round" stroke-linejoin="round"/>
<path d="M26.0996 116.6V108.2C28.6396 108.18 30.5596 107.42 31.8396 105.94C33.1196 104.46 33.7696 101.13 33.7696 95.95C33.7696 92.01 33.9196 89.08 34.2096 87.18C34.4996 85.28 35.2096 83.69 36.3296 82.4C37.4496 81.12 38.8996 80.19 40.6696 79.62C42.4396 79.05 44.9496 78.76 48.1996 78.76H50.0596V87.13C46.6796 87.13 44.6496 87.48 43.9896 88.18C43.3296 88.88 42.9696 90.25 42.9196 92.28C42.7796 97.88 42.5996 101.52 42.3796 103.2C42.1596 104.88 41.6396 106.49 40.8396 108.01C40.0296 109.54 38.5396 111 36.3396 112.4C38.4196 113.66 39.9296 115.17 40.8696 116.92C41.8096 118.67 42.3696 121.19 42.5296 124.48L43.0596 134.67C43.2696 135.65 43.7696 136.39 44.5696 136.89C45.3596 137.39 47.1796 137.64 50.0296 137.64V146.04H48.2096C44.4796 146.04 41.5896 145.61 39.5596 144.76C37.5296 143.91 36.0596 142.51 35.1496 140.58C34.2396 138.64 33.7796 135.52 33.7796 131.2C33.7796 126.44 33.6196 123.39 33.2896 122.06C32.9596 120.73 32.3296 119.51 31.3996 118.4C30.4696 117.29 28.6996 116.69 26.1096 116.6H26.0996Z" fill="#001E2B" stroke="#001E2B" stroke-linecap="round" stroke-linejoin="round"/>
<path d="M23.2798 113.78V105.38C25.8198 105.36 27.7398 104.6 29.0198 103.12C30.2998 101.64 30.9498 98.3099 30.9498 93.1299C30.9498 89.1899 31.0998 86.2599 31.3898 84.3599C31.6798 82.4599 32.3898 80.8699 33.5098 79.5799C34.6298 78.2999 36.0798 77.3699 37.8498 76.7999C39.6198 76.2299 42.1298 75.9399 45.3798 75.9399H47.2398V84.3099C43.8598 84.3099 41.8298 84.6599 41.1698 85.3599C40.5098 86.0599 40.1498 87.4299 40.0998 89.4599C39.9598 95.0599 39.7798 98.6999 39.5598 100.38C39.3398 102.06 38.8198 103.67 38.0198 105.19C37.2098 106.72 35.7198 108.18 33.5198 109.58C35.5998 110.84 37.1098 112.35 38.0498 114.1C38.9898 115.85 39.5498 118.37 39.7098 121.66L40.2398 131.85C40.4498 132.83 40.9498 133.57 41.7498 134.07C42.5398 134.57 44.3598 134.82 47.2098 134.82V143.22H45.3898C41.6598 143.22 38.7698 142.79 36.7398 141.94C34.7098 141.09 33.2398 139.69 32.3298 137.76C31.4198 135.82 30.9598 132.7 30.9598 128.38C30.9598 123.62 30.7998 120.57 30.4698 119.24C30.1398 117.91 29.5098 116.69 28.5798 115.58C27.6498 114.47 25.8798 113.87 23.2898 113.78H23.2798Z" fill="black"/>
<path d="M23.2798 113.78V105.38C25.8198 105.36 27.7398 104.6 29.0198 103.12C30.2998 101.64 30.9498 98.3099 30.9498 93.1299C30.9498 89.1899 31.0998 86.2599 31.3898 84.3599C31.6798 82.4599 32.3898 80.8699 33.5098 79.5799C34.6298 78.2999 36.0798 77.3699 37.8498 76.7999C39.6198 76.2299 42.1298 75.9399 45.3798 75.9399H47.2398V84.3099C43.8598 84.3099 41.8298 84.6599 41.1698 85.3599C40.5098 86.0599 40.1498 87.4299 40.0998 89.4599C39.9598 95.0599 39.7798 98.6999 39.5598 100.38C39.3398 102.06 38.8198 103.67 38.0198 105.19C37.2098 106.72 35.7198 108.18 33.5198 109.58C35.5998 110.84 37.1098 112.35 38.0498 114.1C38.9898 115.85 39.5498 118.37 39.7098 121.66L40.2398 131.85C40.4498 132.83 40.9498 133.57 41.7498 134.07C42.5398 134.57 44.3598 134.82 47.2098 134.82V143.22H45.3898C41.6598 143.22 38.7698 142.79 36.7398 141.94C34.7098 141.09 33.2398 139.69 32.3298 137.76C31.4198 135.82 30.9598 132.7 30.9598 128.38C30.9598 123.62 30.7998 120.57 30.4698 119.24C30.1398 117.91 29.5098 116.69 28.5798 115.58C27.6498 114.47 25.8798 113.87 23.2898 113.78H23.2798Z" fill="black"/>
<path d="M23.2798 113.78V105.38C25.8198 105.36 27.7398 104.6 29.0198 103.12C30.2998 101.64 30.9498 98.3099 30.9498 93.1299C30.9498 89.1899 31.0998 86.2599 31.3898 84.3599C31.6798 82.4599 32.3898 80.8699 33.5098 79.5799C34.6298 78.2999 36.0798 77.3699 37.8498 76.7999C39.6198 76.2299 42.1298 75.9399 45.3798 75.9399H47.2398V84.3099C43.8598 84.3099 41.8298 84.6599 41.1698 85.3599C40.5098 86.0599 40.1498 87.4299 40.0998 89.4599C39.9598 95.0599 39.7798 98.6999 39.5598 100.38C39.3398 102.06 38.8198 103.67 38.0198 105.19C37.2098 106.72 35.7198 108.18 33.5198 109.58C35.5998 110.84 37.1098 112.35 38.0498 114.1C38.9898 115.85 39.5498 118.37 39.7098 121.66L40.2398 131.85C40.4498 132.83 40.9498 133.57 41.7498 134.07C42.5398 134.57 44.3598 134.82 47.2098 134.82V143.22H45.3898C41.6598 143.22 38.7698 142.79 36.7398 141.94C34.7098 141.09 33.2398 139.69 32.3298 137.76C31.4198 135.82 30.9598 132.7 30.9598 128.38C30.9598 123.62 30.7998 120.57 30.4698 119.24C30.1398 117.91 29.5098 116.69 28.5798 115.58C27.6498 114.47 25.8798 113.87 23.2898 113.78H23.2798Z" fill="white"/>
<path d="M23.2798 113.78V105.38C25.8198 105.36 27.7398 104.6 29.0198 103.12C30.2998 101.64 30.9498 98.3099 30.9498 93.1299C30.9498 89.1899 31.0998 86.2599 31.3898 84.3599C31.6798 82.4599 32.3898 80.8699 33.5098 79.5799C34.6298 78.2999 36.0798 77.3699 37.8498 76.7999C39.6198 76.2299 42.1298 75.9399 45.3798 75.9399H47.2398V84.3099C43.8598 84.3099 41.8298 84.6599 41.1698 85.3599C40.5098 86.0599 40.1498 87.4299 40.0998 89.4599C39.9598 95.0599 39.7798 98.6999 39.5598 100.38C39.3398 102.06 38.8198 103.67 38.0198 105.19C37.2098 106.72 35.7198 108.18 33.5198 109.58C35.5998 110.84 37.1098 112.35 38.0498 114.1C38.9898 115.85 39.5498 118.37 39.7098 121.66L40.2398 131.85C40.4498 132.83 40.9498 133.57 41.7498 134.07C42.5398 134.57 44.3598 134.82 47.2098 134.82V143.22H45.3898C41.6598 143.22 38.7698 142.79 36.7398 141.94C34.7098 141.09 33.2398 139.69 32.3298 137.76C31.4198 135.82 30.9598 132.7 30.9598 128.38C30.9598 123.62 30.7998 120.57 30.4698 119.24C30.1398 117.91 29.5098 116.69 28.5798 115.58C27.6498 114.47 25.8798 113.87 23.2898 113.78H23.2798Z" stroke="#001E2B" stroke-linecap="round" stroke-linejoin="round"/>
<path d="M23.2798 113.78V105.38C25.8198 105.36 27.7398 104.6 29.0198 103.12C30.2998 101.64 30.9498 98.3099 30.9498 93.1299C30.9498 89.1899 31.0998 86.2599 31.3898 84.3599C31.6798 82.4599 32.3898 80.8699 33.5098 79.5799C34.6298 78.2999 36.0798 77.3699 37.8498 76.7999C39.6198 76.2299 42.1298 75.9399 45.3798 75.9399H47.2398V84.3099C43.8598 84.3099 41.8298 84.6599 41.1698 85.3599C40.5098 86.0599 40.1498 87.4299 40.0998 89.4599C39.9598 95.0599 39.7798 98.6999 39.5598 100.38C39.3398 102.06 38.8198 103.67 38.0198 105.19C37.2098 106.72 35.7198 108.18 33.5198 109.58C35.5998 110.84 37.1098 112.35 38.0498 114.1C38.9898 115.85 39.5498 118.37 39.7098 121.66L40.2398 131.85C40.4498 132.83 40.9498 133.57 41.7498 134.07C42.5398 134.57 44.3598 134.82 47.2098 134.82V143.22H45.3898C41.6598 143.22 38.7698 142.79 36.7398 141.94C34.7098 141.09 33.2398 139.69 32.3298 137.76C31.4198 135.82 30.9598 132.7 30.9598 128.38C30.9598 123.62 30.7998 120.57 30.4698 119.24C30.1398 117.91 29.5098 116.69 28.5798 115.58C27.6498 114.47 25.8798 113.87 23.2898 113.78H23.2798Z" fill="#00D2FF" stroke="#001E2B" stroke-linecap="round" stroke-linejoin="round"/>
<path d="M26.0996 116.6V108.2C28.6396 108.18 30.5596 107.42 31.8396 105.94C33.1196 104.46 33.7696 101.13 33.7696 95.95C33.7696 92.01 33.9196 89.08 34.2096 87.18C34.4996 85.28 35.2096 83.69 36.3296 82.4C37.4496 81.12 38.8996 80.19 40.6696 79.62C42.4396 79.05 44.9496 78.76 48.1996 78.76H50.0596V87.13C46.6796 87.13 44.6496 87.48 43.9896 88.18C43.3296 88.88 42.9696 90.25 42.9196 92.28C42.7796 97.88 42.5996 101.52 42.3796 103.2C42.1596 104.88 41.6396 106.49 40.8396 108.01C40.0296 109.54 38.5396 111 36.3396 112.4C38.4196 113.66 39.9296 115.17 40.8696 116.92C41.8096 118.67 42.3696 121.19 42.5296 124.48L43.0596 134.67C43.2696 135.65 43.7696 136.39 44.5696 136.89C45.3596 137.39 47.1796 137.64 50.0296 137.64V146.04H48.2096C44.4796 146.04 41.5896 145.61 39.5596 144.76C37.5296 143.91 36.0596 142.51 35.1496 140.58C34.2396 138.64 33.7796 135.52 33.7796 131.2C33.7796 126.44 33.6196 123.39 33.2896 122.06C32.9596 120.73 32.3296 119.51 31.3996 118.4C30.4696 117.29 28.6996 116.69 26.1096 116.6H26.0996Z" fill="#001E2B" stroke="#001E2B" stroke-linecap="round" stroke-linejoin="round"/>
<path d="M23.2798 113.78V105.38C25.8198 105.36 27.7398 104.6 29.0198 103.12C30.2998 101.64 30.9498 98.3099 30.9498 93.1299C30.9498 89.1899 31.0998 86.2599 31.3898 84.3599C31.6798 82.4599 32.3898 80.8699 33.5098 79.5799C34.6298 78.2999 36.0798 77.3699 37.8498 76.7999C39.6198 76.2299 42.1298 75.9399 45.3798 75.9399H47.2398V84.3099C43.8598 84.3099 41.8298 84.6599 41.1698 85.3599C40.5098 86.0599 40.1498 87.4299 40.0998 89.4599C39.9598 95.0599 39.7798 98.6999 39.5598 100.38C39.3398 102.06 38.8198 103.67 38.0198 105.19C37.2098 106.72 35.7198 108.18 33.5198 109.58C35.5998 110.84 37.1098 112.35 38.0498 114.1C38.9898 115.85 39.5498 118.37 39.7098 121.66L40.2398 131.85C40.4498 132.83 40.9498 133.57 41.7498 134.07C42.5398 134.57 44.3598 134.82 47.2098 134.82V143.22H45.3898C41.6598 143.22 38.7698 142.79 36.7398 141.94C34.7098 141.09 33.2398 139.69 32.3298 137.76C31.4198 135.82 30.9598 132.7 30.9598 128.38C30.9598 123.62 30.7998 120.57 30.4698 119.24C30.1398 117.91 29.5098 116.69 28.5798 115.58C27.6498 114.47 25.8798 113.87 23.2898 113.78H23.2798Z" fill="black"/>
<path d="M23.2798 113.78V105.38C25.8198 105.36 27.7398 104.6 29.0198 103.12C30.2998 101.64 30.9498 98.3099 30.9498 93.1299C30.9498 89.1899 31.0998 86.2599 31.3898 84.3599C31.6798 82.4599 32.3898 80.8699 33.5098 79.5799C34.6298 78.2999 36.0798 77.3699 37.8498 76.7999C39.6198 76.2299 42.1298 75.9399 45.3798 75.9399H47.2398V84.3099C43.8598 84.3099 41.8298 84.6599 41.1698 85.3599C40.5098 86.0599 40.1498 87.4299 40.0998 89.4599C39.9598 95.0599 39.7798 98.6999 39.5598 100.38C39.3398 102.06 38.8198 103.67 38.0198 105.19C37.2098 106.72 35.7198 108.18 33.5198 109.58C35.5998 110.84 37.1098 112.35 38.0498 114.1C38.9898 115.85 39.5498 118.37 39.7098 121.66L40.2398 131.85C40.4498 132.83 40.9498 133.57 41.7498 134.07C42.5398 134.57 44.3598 134.82 47.2098 134.82V143.22H45.3898C41.6598 143.22 38.7698 142.79 36.7398 141.94C34.7098 141.09 33.2398 139.69 32.3298 137.76C31.4198 135.82 30.9598 132.7 30.9598 128.38C30.9598 123.62 30.7998 120.57 30.4698 119.24C30.1398 117.91 29.5098 116.69 28.5798 115.58C27.6498 114.47 25.8798 113.87 23.2898 113.78H23.2798Z" fill="black"/>
<path d="M23.2798 113.78V105.38C25.8198 105.36 27.7398 104.6 29.0198 103.12C30.2998 101.64 30.9498 98.3099 30.9498 93.1299C30.9498 89.1899 31.0998 86.2599 31.3898 84.3599C31.6798 82.4599 32.3898 80.8699 33.5098 79.5799C34.6298 78.2999 36.0798 77.3699 37.8498 76.7999C39.6198 76.2299 42.1298 75.9399 45.3798 75.9399H47.2398V84.3099C43.8598 84.3099 41.8298 84.6599 41.1698 85.3599C40.5098 86.0599 40.1498 87.4299 40.0998 89.4599C39.9598 95.0599 39.7798 98.6999 39.5598 100.38C39.3398 102.06 38.8198 103.67 38.0198 105.19C37.2098 106.72 35.7198 108.18 33.5198 109.58C35.5998 110.84 37.1098 112.35 38.0498 114.1C38.9898 115.85 39.5498 118.37 39.7098 121.66L40.2398 131.85C40.4498 132.83 40.9498 133.57 41.7498 134.07C42.5398 134.57 44.3598 134.82 47.2098 134.82V143.22H45.3898C41.6598 143.22 38.7698 142.79 36.7398 141.94C34.7098 141.09 33.2398 139.69 32.3298 137.76C31.4198 135.82 30.9598 132.7 30.9598 128.38C30.9598 123.62 30.7998 120.57 30.4698 119.24C30.1398 117.91 29.5098 116.69 28.5798 115.58C27.6498 114.47 25.8798 113.87 23.2898 113.78H23.2798Z" fill="white"/>
<path d="M23.2798 113.78V105.38C25.8198 105.36 27.7398 104.6 29.0198 103.12C30.2998 101.64 30.9498 98.3099 30.9498 93.1299C30.9498 89.1899 31.0998 86.2599 31.3898 84.3599C31.6798 82.4599 32.3898 80.8699 33.5098 79.5799C34.6298 78.2999 36.0798 77.3699 37.8498 76.7999C39.6198 76.2299 42.1298 75.9399 45.3798 75.9399H47.2398V84.3099C43.8598 84.3099 41.8298 84.6599 41.1698 85.3599C40.5098 86.0599 40.1498 87.4299 40.0998 89.4599C39.9598 95.0599 39.7798 98.6999 39.5598 100.38C39.3398 102.06 38.8198 103.67 38.0198 105.19C37.2098 106.72 35.7198 108.18 33.5198 109.58C35.5998 110.84 37.1098 112.35 38.0498 114.1C38.9898 115.85 39.5498 118.37 39.7098 121.66L40.2398 131.85C40.4498 132.83 40.9498 133.57 41.7498 134.07C42.5398 134.57 44.3598 134.82 47.2098 134.82V143.22H45.3898C41.6598 143.22 38.7698 142.79 36.7398 141.94C34.7098 141.09 33.2398 139.69 32.3298 137.76C31.4198 135.82 30.9598 132.7 30.9598 128.38C30.9598 123.62 30.7998 120.57 30.4698 119.24C30.1398 117.91 29.5098 116.69 28.5798 115.58C27.6498 114.47 25.8798 113.87 23.2898 113.78H23.2798Z" stroke="#001E2B" stroke-linecap="round" stroke-linejoin="round"/>
<path d="M23.2798 113.78V105.38C25.8198 105.36 27.7398 104.6 29.0198 103.12C30.2998 101.64 30.9498 98.3099 30.9498 93.1299C30.9498 89.1899 31.0998 86.2599 31.3898 84.3599C31.6798 82.4599 32.3898 80.8699 33.5098 79.5799C34.6298 78.2999 36.0798 77.3699 37.8498 76.7999C39.6198 76.2299 42.1298 75.9399 45.3798 75.9399H47.2398V84.3099C43.8598 84.3099 41.8298 84.6599 41.1698 85.3599C40.5098 86.0599 40.1498 87.4299 40.0998 89.4599C39.9598 95.0599 39.7798 98.6999 39.5598 100.38C39.3398 102.06 38.8198 103.67 38.0198 105.19C37.2098 106.72 35.7198 108.18 33.5198 109.58C35.5998 110.84 37.1098 112.35 38.0498 114.1C38.9898 115.85 39.5498 118.37 39.7098 121.66L40.2398 131.85C40.4498 132.83 40.9498 133.57 41.7498 134.07C42.5398 134.57 44.3598 134.82 47.2098 134.82V143.22H45.3898C41.6598 143.22 38.7698 142.79 36.7398 141.94C34.7098 141.09 33.2398 139.69 32.3298 137.76C31.4198 135.82 30.9598 132.7 30.9598 128.38C30.9598 123.62 30.7998 120.57 30.4698 119.24C30.1398 117.91 29.5098 116.69 28.5798 115.58C27.6498 114.47 25.8798 113.87 23.2898 113.78H23.2798Z" fill="#00ED64" stroke="#001E2B" stroke-linecap="round" stroke-linejoin="round"/>
</svg>
