<svg id="dh_-_speakers" data-name="dh - speakers" xmlns="http://www.w3.org/2000/svg" xmlns:xlink="http://www.w3.org/1999/xlink" viewBox="0 0 500 281"><defs><clipPath id="clip-path"><rect width="500" height="281" fill="none"/></clipPath><linearGradient id="linear-gradient" x1="138.5858" y1="150.43468" x2="216.90641" y2="150.43468" gradientUnits="userSpaceOnUse"><stop offset="0" stop-color="#7accda"/><stop offset="1" stop-color="#0ad05b"/></linearGradient><linearGradient id="linear-gradient-2" x1="138.5858" y1="127.74881" x2="216.90641" y2="127.74881" gradientUnits="userSpaceOnUse"><stop offset="0" stop-color="#0ad05b"/><stop offset="1" stop-color="#7accda"/></linearGradient><linearGradient id="linear-gradient-3" x1="163.0717" y1="164.48965" x2="163.0717" y2="164.48965" xlink:href="#linear-gradient-2"/><linearGradient id="linear-gradient-4" x1="165.67058" y1="112.5649" x2="216.90641" y2="112.5649" xlink:href="#linear-gradient"/><linearGradient id="linear-gradient-5" x1="165.67058" y1="89.87903" x2="216.90641" y2="89.87903" xlink:href="#linear-gradient-2"/><linearGradient id="linear-gradient-6" x1="190.15648" y1="134.95196" x2="190.15648" y2="134.95196" xlink:href="#linear-gradient-2"/><linearGradient id="linear-gradient-7" x1="249.39906" y1="229.75521" x2="327.71967" y2="229.75521" xlink:href="#linear-gradient"/><linearGradient id="linear-gradient-8" x1="249.39906" y1="207.06934" x2="327.71967" y2="207.06934" xlink:href="#linear-gradient-2"/><linearGradient id="linear-gradient-9" x1="273.88496" y1="243.81018" x2="273.88496" y2="243.81018" xlink:href="#linear-gradient-2"/><linearGradient id="linear-gradient-10" x1="276.48384" y1="191.88543" x2="327.71967" y2="191.88543" xlink:href="#linear-gradient"/><linearGradient id="linear-gradient-11" x1="276.48384" y1="169.19956" x2="327.71967" y2="169.19956" xlink:href="#linear-gradient-2"/><linearGradient id="linear-gradient-12" x1="300.96974" y1="213.29035" x2="300.96974" y2="213.29035" xlink:href="#linear-gradient-2"/><linearGradient id="linear-gradient-13" x1="-961.74322" y1="188.08609" x2="-933.33833" y2="188.08609" gradientTransform="translate(1179.09443)" gradientUnits="userSpaceOnUse"><stop offset="0" stop-color="#7accda"/><stop offset="0.99796" stop-color="#6e60f9"/></linearGradient><linearGradient id="linear-gradient-14" x1="-962.21385" y1="189.05967" x2="-936.50885" y2="189.05967" xlink:href="#linear-gradient-13"/><linearGradient id="linear-gradient-15" x1="-2027.71979" y1="72.54661" x2="-1993.48003" y2="72.54661" gradientTransform="matrix(-1, 0, 0, 1, -1803.39467, 0)" gradientUnits="userSpaceOnUse"><stop offset="0" stop-color="#d24f93"/><stop offset="1" stop-color="#f87216"/></linearGradient><linearGradient id="linear-gradient-16" x1="273.64551" y1="71.70612" x2="309.16548" y2="71.70612" gradientTransform="matrix(1, 0, 0, 1, 0, 0)" xlink:href="#linear-gradient-15"/><linearGradient id="linear-gradient-17" x1="278.2849" y1="73.21865" x2="313.80486" y2="73.21865" gradientUnits="userSpaceOnUse"><stop offset="0" stop-color="#f87216"/><stop offset="1" stop-color="#d24f93"/></linearGradient><linearGradient id="linear-gradient-18" x1="-2023.93847" y1="73.21865" x2="-1988.41851" y2="73.21865" xlink:href="#linear-gradient-15"/><linearGradient id="linear-gradient-19" x1="216.83319" y1="149.61351" x2="282.8457" y2="149.61351" xlink:href="#linear-gradient-17"/><linearGradient id="linear-gradient-20" x1="216.83326" y1="142.94566" x2="282.84566" y2="142.94566" xlink:href="#linear-gradient-17"/><linearGradient id="linear-gradient-21" x1="244.92113" y1="125.92168" x2="255.0529" y2="125.92168" xlink:href="#linear-gradient-17"/><linearGradient id="linear-gradient-22" x1="234.57703" y1="116.52936" x2="264.50585" y2="116.52936" xlink:href="#linear-gradient-17"/><linearGradient id="linear-gradient-23" x1="209.19106" y1="78.78044" x2="289.82484" y2="78.78044" xlink:href="#linear-gradient-17"/><linearGradient id="linear-gradient-24" x1="209.25802" y1="38.81793" x2="289.82484" y2="38.81793" xlink:href="#linear-gradient-17"/><linearGradient id="linear-gradient-25" x1="206.29373" y1="37.54013" x2="292.7891" y2="37.54013" xlink:href="#linear-gradient-17"/><linearGradient id="linear-gradient-26" x1="249.54143" y1="46.98325" x2="249.54143" y2="24.02898" gradientTransform="matrix(1, 0, 0, 1, 0, 0)" xlink:href="#linear-gradient-15"/><linearGradient id="linear-gradient-27" x1="249.54142" y1="58.46034" x2="249.54142" y2="35.5062" gradientTransform="matrix(1, 0, 0, 1, 0, 0)" xlink:href="#linear-gradient-15"/><linearGradient id="linear-gradient-28" x1="249.54142" y1="46.98327" x2="249.54142" y2="24.02912" gradientTransform="matrix(1, 0, 0, 1, 0, 0)" xlink:href="#linear-gradient-15"/><linearGradient id="linear-gradient-29" x1="-3143.26314" y1="139.68358" x2="-3113.80567" y2="139.68358" gradientTransform="matrix(-1, 0, 0, 1, -2839.81362, 0)" gradientUnits="userSpaceOnUse"><stop offset="0.00204" stop-color="#6e60f9"/><stop offset="1" stop-color="#7accda"/></linearGradient><linearGradient id="linear-gradient-30" x1="-3143.7512" y1="140.69324" x2="-3117.09367" y2="140.69324" xlink:href="#linear-gradient-29"/><linearGradient id="linear-gradient-31" x1="229.62665" y1="82.26548" x2="272.22709" y2="82.26548" gradientTransform="matrix(1, 0, 0, 1, 0, 0)" xlink:href="#linear-gradient-15"/></defs><g clip-path="url(#clip-path)"><polygon points="206.108 103.442 239.874 83.948 240.06 84.056 206.295 103.55 206.108 103.442" fill="none" stroke="#21313c" stroke-linecap="round" stroke-linejoin="round"/><polygon points="71.235 181.527 71.048 181.419 104.813 161.925 105 162.033 71.235 181.527" fill="none" stroke="#21313c" stroke-linecap="round" stroke-linejoin="round"/><polygon points="138.765 142.539 138.578 142.431 172.343 122.936 172.53 123.044 138.765 142.539" fill="none" stroke="#21313c" stroke-linecap="round" stroke-linejoin="round"/><polygon points="105 162.033 104.813 161.925 138.578 142.431 138.765 142.539 105 162.033" fill="none" stroke="#21313c" stroke-linecap="round" stroke-linejoin="round"/><polygon points="206.295 103.55 172.53 123.044 172.343 122.936 206.108 103.442 206.295 103.55" fill="none" stroke="#21313c" stroke-linecap="round" stroke-linejoin="round"/><polygon points="307.404 200.914 341.169 181.419 374.935 200.914 341.169 220.408 307.404 200.914" fill="none" stroke="#21313c" stroke-linecap="round" stroke-linejoin="round"/><polygon points="341.169 259.397 374.934 278.891 341.169 298.386 307.404 278.891 341.169 259.397" fill="none" stroke="#21313c" stroke-linecap="round" stroke-linejoin="round"/><polygon points="307.404 278.891 341.169 298.386 307.404 317.88 273.639 298.385 307.404 278.891" fill="none" stroke="#21313c" stroke-linecap="round" stroke-linejoin="round"/><polygon points="206.108 181.419 172.343 161.925 206.108 142.431 239.874 161.925 206.108 181.419" fill="none" stroke="#21313c" stroke-linecap="round" stroke-linejoin="round"/><polygon points="138.578 220.408 104.813 200.914 138.578 181.419 172.343 200.914 138.578 220.408" fill="none" stroke="#21313c" stroke-linecap="round" stroke-linejoin="round"/><polygon points="239.874 161.925 206.108 142.431 239.874 122.936 273.639 142.431 239.874 161.925" fill="none" stroke="#21313c" stroke-linecap="round" stroke-linejoin="round"/><polygon points="239.874 122.936 273.639 103.442 307.404 122.936 273.639 142.431 239.874 122.936" fill="none" stroke="#21313c" stroke-linecap="round" stroke-linejoin="round"/><polygon points="273.639 181.419 307.404 161.925 341.169 181.419 307.404 200.914 273.639 181.419" fill="none" stroke="#21313c" stroke-linecap="round" stroke-linejoin="round"/><polygon points="172.343 200.914 138.578 181.419 172.343 161.925 206.108 181.419 172.343 200.914" fill="none" stroke="#21313c" stroke-linecap="round" stroke-linejoin="round"/><polygon points="206.108 220.408 172.343 200.914 206.108 181.419 239.874 200.914 206.108 220.408" fill="none" stroke="#21313c" stroke-linecap="round" stroke-linejoin="round"/><polygon points="239.874 200.914 273.639 181.419 307.404 200.914 273.639 220.408 239.874 200.914" fill="none" stroke="#21313c" stroke-linecap="round" stroke-linejoin="round"/><polygon points="206.108 259.397 172.343 239.902 206.108 220.408 239.874 239.903 206.108 259.397" fill="none" stroke="#21313c" stroke-linecap="round" stroke-linejoin="round"/><polygon points="239.874 239.903 206.108 220.408 239.874 200.914 273.639 220.408 239.874 239.903" fill="none" stroke="#21313c" stroke-linecap="round" stroke-linejoin="round"/><polygon points="273.639 220.408 307.404 200.914 341.169 220.408 307.404 239.903 273.639 220.408" fill="none" stroke="#21313c" stroke-linecap="round" stroke-linejoin="round"/><polygon points="307.404 239.903 341.169 259.397 307.404 278.891 273.639 259.397 307.404 239.903" fill="none" stroke="#21313c" stroke-linecap="round" stroke-linejoin="round"/><polygon points="273.639 259.397 307.404 278.891 273.639 298.385 239.874 278.891 273.639 259.397" fill="none" stroke="#21313c" stroke-linecap="round" stroke-linejoin="round"/><polygon points="273.639 220.408 307.404 239.903 273.639 259.397 239.874 239.903 273.639 220.408" fill="none" stroke="#21313c" stroke-linecap="round" stroke-linejoin="round"/><polygon points="239.874 239.903 273.639 259.397 239.874 278.891 206.108 259.397 239.874 239.903" fill="none" stroke="#21313c" stroke-linecap="round" stroke-linejoin="round"/><polygon points="104.813 278.891 71.048 259.397 104.813 239.902 138.578 259.397 104.813 278.891" fill="none" stroke="#21313c" stroke-linecap="round" stroke-linejoin="round"/><polygon points="138.578 259.397 104.813 239.902 138.578 220.408 172.343 239.902 138.578 259.397" fill="none" stroke="#21313c" stroke-linecap="round" stroke-linejoin="round"/><polygon points="172.343 239.902 138.578 220.408 172.343 200.914 206.108 220.408 172.343 239.902" fill="none" stroke="#21313c" stroke-linecap="round" stroke-linejoin="round"/><polygon points="273.639 142.431 307.404 122.936 341.169 142.431 307.404 161.925 273.639 142.431" fill="none" stroke="#21313c" stroke-linecap="round" stroke-linejoin="round"/><polygon points="239.874 200.914 206.108 181.419 239.874 161.925 273.639 181.419 239.874 200.914" fill="none" stroke="#21313c" stroke-linecap="round" stroke-linejoin="round"/><polygon points="239.874 278.891 273.639 298.385 239.874 317.88 206.109 298.386 239.874 278.891" fill="none" stroke="#21313c" stroke-linecap="round" stroke-linejoin="round"/><polygon points="239.874 161.925 273.639 142.431 307.404 161.925 273.639 181.419 239.874 161.925" fill="none" stroke="#21313c" stroke-linecap="round" stroke-linejoin="round"/><polygon points="104.813 200.914 71.235 181.527 105 162.033 138.578 181.419 104.813 200.914" fill="none" stroke="#21313c" stroke-linecap="round" stroke-linejoin="round"/><polygon points="374.934 161.925 375.121 161.817 408.855 181.33 408.7 181.419 374.934 161.925" fill="none" stroke="#21313c" stroke-linecap="round" stroke-linejoin="round"/><polygon points="341.169 142.431 341.387 142.305 375.121 161.817 374.934 161.925 341.169 142.431" fill="none" stroke="#21313c" stroke-linecap="round" stroke-linejoin="round"/><polygon points="408.7 181.419 408.855 181.33 442.589 200.842 442.465 200.914 408.7 181.419" fill="none" stroke="#21313c" stroke-linecap="round" stroke-linejoin="round"/><polygon points="138.578 181.419 105 162.033 138.765 142.539 172.343 161.925 138.578 181.419" fill="none" stroke="#21313c" stroke-linecap="round" stroke-linejoin="round"/><polygon points="476.23 220.408 476.324 220.354 510.057 239.867 509.995 239.902 476.23 220.408" fill="none" stroke="#21313c" stroke-linecap="round" stroke-linejoin="round"/><polygon points="307.404 122.936 307.653 122.793 341.387 142.305 341.169 142.431 307.404 122.936" fill="none" stroke="#21313c" stroke-linecap="round" stroke-linejoin="round"/><polygon points="206.108 142.431 172.53 123.044 206.295 103.55 239.874 122.936 206.108 142.431" fill="none" stroke="#21313c" stroke-linecap="round" stroke-linejoin="round"/><polygon points="172.343 161.925 138.765 142.539 172.53 123.044 206.108 142.431 172.343 161.925" fill="none" stroke="#21313c" stroke-linecap="round" stroke-linejoin="round"/><polygon points="273.639 103.442 273.919 103.28 307.653 122.793 307.404 122.936 273.639 103.442" fill="none" stroke="#21313c" stroke-linecap="round" stroke-linejoin="round"/><polygon points="240.06 84.056 240.372 83.876 273.919 103.28 273.639 103.442 240.06 84.056" fill="none" stroke="#21313c" stroke-linecap="round" stroke-linejoin="round"/><polygon points="239.874 122.936 206.295 103.55 240.06 84.056 273.639 103.442 239.874 122.936" fill="none" stroke="#21313c" stroke-linecap="round" stroke-linejoin="round"/><polygon points="442.465 200.914 442.589 200.842 476.324 220.354 476.23 220.408 442.465 200.914" fill="none" stroke="#21313c" stroke-linecap="round" stroke-linejoin="round"/><polygon points="509.995 239.902 510.182 240.01 476.417 259.505 476.23 259.397 509.995 239.902" fill="none" stroke="#21313c" stroke-linecap="round" stroke-linejoin="round"/><polygon points="476.23 259.397 476.417 259.505 442.652 278.999 442.465 278.891 476.23 259.397" fill="none" stroke="#21313c" stroke-linecap="round" stroke-linejoin="round"/><polygon points="442.465 278.891 442.652 278.999 408.886 298.493 408.7 298.385 442.465 278.891" fill="none" stroke="#21313c" stroke-linecap="round" stroke-linejoin="round"/><polygon points="374.934 278.891 408.7 298.385 374.934 317.88 341.169 298.386 374.934 278.891" fill="none" stroke="#21313c" stroke-linecap="round" stroke-linejoin="round"/><polygon points="408.7 259.397 442.465 278.891 408.7 298.385 374.934 278.891 408.7 259.397" fill="none" stroke="#21313c" stroke-linecap="round" stroke-linejoin="round"/><polygon points="374.935 200.914 408.7 181.419 442.465 200.914 408.7 220.408 374.935 200.914" fill="none" stroke="#21313c" stroke-linecap="round" stroke-linejoin="round"/><polygon points="341.169 181.419 374.934 161.925 408.7 181.419 374.935 200.914 341.169 181.419" fill="none" stroke="#21313c" stroke-linecap="round" stroke-linejoin="round"/><polygon points="408.7 220.408 442.465 200.914 476.23 220.408 442.465 239.903 408.7 220.408" fill="none" stroke="#21313c" stroke-linecap="round" stroke-linejoin="round"/><polygon points="442.465 239.903 476.23 259.397 442.465 278.891 408.7 259.397 442.465 239.903" fill="none" stroke="#21313c" stroke-linecap="round" stroke-linejoin="round"/><polygon points="476.23 220.408 509.995 239.902 476.23 259.397 442.465 239.903 476.23 220.408" fill="none" stroke="#21313c" stroke-linecap="round" stroke-linejoin="round"/><polygon points="307.404 161.925 341.169 142.431 374.934 161.925 341.169 181.419 307.404 161.925" fill="none" stroke="#21313c" stroke-linecap="round" stroke-linejoin="round"/><polygon points="361.414 166.258 361.414 180.713 249.059 244.947 138.333 181.02 138.586 165.733 361.414 166.258" fill="#21313c" stroke="#0c1c27" stroke-linecap="round" stroke-linejoin="round"/><polygon points="249.312 101.805 361.414 166.258 249.312 229.661 138.586 165.733 249.312 101.805" fill="#21313c" stroke="#0c1c27" stroke-linecap="round" stroke-linejoin="round"/><line x1="249.31218" y1="229.66057" x2="249.31218" y2="244.1159" fill="#21313c" stroke="#0c1c27" stroke-linecap="round" stroke-linejoin="round"/><polygon points="216.906 120.959 216.906 151.801 163.072 179.911 138.586 165.856 138.586 135.014 216.906 120.959" stroke="#0c1c27" stroke-linecap="round" stroke-linejoin="round" fill="url(#linear-gradient)"/><polygon points="191.177 106.429 216.906 120.959 163.072 149.069 138.586 135.014 191.177 106.429" stroke="#0c1c27" stroke-linecap="round" stroke-linejoin="round" fill="url(#linear-gradient-2)"/><line x1="163.0717" y1="149.0685" x2="163.0717" y2="179.9108" stroke="#0c1c27" stroke-linecap="round" stroke-linejoin="round" fill="url(#linear-gradient-3)"/><polygon points="216.906 90.116 216.906 120.959 190.156 135.014 165.671 120.959 165.671 90.116 216.906 90.116" stroke="#0c1c27" stroke-linecap="round" stroke-linejoin="round" fill="url(#linear-gradient-4)"/><polygon points="191.177 75.587 216.906 90.116 190.156 104.171 165.671 90.116 191.177 75.587" stroke="#0c1c27" stroke-linecap="round" stroke-linejoin="round" fill="url(#linear-gradient-5)"/><polyline points="190.156 104.171 190.156 135.014 190.156 165.733" stroke="#0c1c27" stroke-linecap="round" stroke-linejoin="round" fill="url(#linear-gradient-6)"/><polygon points="327.72 200.279 327.72 228.121 273.885 259.231 249.399 245.176 249.399 214.334 327.72 200.279" stroke="#0c1c27" stroke-linecap="round" stroke-linejoin="round" fill="url(#linear-gradient-7)"/><polygon points="301.99 185.75 327.72 200.279 273.885 228.389 249.399 214.334 301.99 185.75" stroke="#0c1c27" stroke-linecap="round" stroke-linejoin="round" fill="url(#linear-gradient-8)"/><line x1="273.88496" y1="228.38903" x2="273.88496" y2="259.23133" stroke="#0c1c27" stroke-linecap="round" stroke-linejoin="round" fill="url(#linear-gradient-9)"/><polygon points="327.72 169.437 327.72 200.279 300.97 214.334 276.484 200.279 276.484 169.437 327.72 169.437" stroke="#0c1c27" stroke-linecap="round" stroke-linejoin="round" fill="url(#linear-gradient-10)"/><polygon points="301.99 154.907 327.72 169.437 300.97 183.492 276.484 169.437 301.99 154.907" stroke="#0c1c27" stroke-linecap="round" stroke-linejoin="round" fill="url(#linear-gradient-11)"/><polyline points="300.97 183.492 300.97 214.334 300.97 243.089" stroke="#0c1c27" stroke-linecap="round" stroke-linejoin="round" fill="url(#linear-gradient-12)"/><path d="M237.76767,182.22185l-3.29526-9.21419c-.58725-1.71323-2.19306-2.74676-2.94372-2.02612l-3.19636,1.89741.40982,2.9243-.41938.73912-6.77149-2.77335a1.10666,1.10666,0,0,0-.9337-.02452h0l-.00966.00572a.80934.80934,0,0,0-.12175.07209l-3.135,1.85607,7.822,11.23418-.84342,5.19123c-.24381,1.50089,1.24846,3.61439,2.52528,3.57647l4.33326-.12871,1.71926,2.46929,4.81465,7.40216,3.25329-1.91061c.39714-.20268.62506-.71648.518-1.49913l-1.15663-8.45532,1.59138-.87241.12985.06835,2.10716-1.29468,1.07144-.58746a.86112.86112,0,0,0,.22834-.21119l.03864-.02369-.00519-.00727c.63295-.81143.05225-2.78987-1.22634-3.74258Z" stroke="#0c1c27" stroke-linecap="round" stroke-linejoin="round" fill="url(#linear-gradient-13)"/><path d="M231.29381,174.88971l3.02828,8.83366,6.77149,5.04568c1.42745,1.06376,1.99746,3.41857.96455,3.98483l-4.89994,2.6861,1.15675,8.45532c.2438,1.78252-1.24847,2.17291-2.5253.66059l-6.05656-7.17351-6.05657.18c-1.27682.03792-2.76909-2.07557-2.52528-3.57657l1.15673-7.1196-4.89993-8.34406c-1.03291-1.759-.4629-3.45566.96455-2.871l6.77148,2.77335,3.02829-5.337C228.81081,171.9625,230.65535,173.02751,231.29381,174.88971Z" stroke="#0c1c27" stroke-linecap="round" stroke-linejoin="round" fill="url(#linear-gradient-14)"/><polygon points="218.507 44.971 218.508 53.966 200.867 58.503 209.805 85.713 223.015 90.748 224.325 100.122 202.79 91.914 190.085 52.533 218.507 44.971" stroke="#0c1c27" stroke-linecap="round" stroke-linejoin="round" fill="url(#linear-gradient-15)"/><polygon points="280.744 42.534 279.463 55.478 297.103 59.259 288.165 86.469 274.956 91.504 273.646 100.879 295.181 92.671 309.165 50.096 280.744 42.534" stroke="#0c1c27" stroke-linecap="round" stroke-linejoin="round" fill="url(#linear-gradient-16)"/><polygon points="285.383 44.046 284.102 56.991 301.743 60.772 292.805 87.982 279.595 93.017 278.285 102.391 299.82 94.183 313.805 51.609 285.383 44.046" stroke="#0c1c27" stroke-linecap="round" stroke-linejoin="round" fill="url(#linear-gradient-17)"/><polygon points="213.446 44.046 214.727 56.234 197.086 60.772 206.024 87.982 219.233 93.017 220.544 102.391 199.009 94.183 185.024 51.609 213.446 44.046" stroke="#0c1c27" stroke-linecap="round" stroke-linejoin="round" fill="url(#linear-gradient-18)"/><path d="M282.8457,142.94557h-7.865l-24.3873-13.98139a2.17877,2.17877,0,0,0-1.97017,0l-24.2175,13.98139h-7.57249v8.55856h.01161a.72953.72953,0,0,0,.39808.5029l31.84266,18.25584a2.1785,2.1785,0,0,0,1.97016-.0001l31.38671-18.12037a.64742.64742,0,0,0,.39167-.63827h.01162Z" stroke="#0c1c27" stroke-linecap="round" stroke-linejoin="round" fill="url(#linear-gradient-19)"/><path d="M282.436,142.44274a.60375.60375,0,0,1,.00642,1.14116l-31.38675,18.12044a2.17872,2.17872,0,0,1-1.97013,0l-31.8427-18.25577a.60376.60376,0,0,1-.00642-1.14117L248.62322,124.187a2.1787,2.1787,0,0,1,1.97012,0Z" stroke="#0c1c27" stroke-linecap="round" stroke-linejoin="round" fill="url(#linear-gradient-20)"/><path d="M244.92113,107.01669v34.69064c0,1.72277,2.26813,3.11935,5.06589,3.11935s5.06588-1.39658,5.06588-3.11935V107.01669Z" stroke="#0c1c27" stroke-linecap="round" stroke-linejoin="round" fill="url(#linear-gradient-21)"/><path d="M249.54144,109.81623c-8.26462,0-14.96441,1.778-14.96441,3.97112v3.9713c0,2.19328,6.69979,5.48384,14.96441,5.48384s14.96441-3.29056,14.96441-5.48384v-3.9713C264.50585,111.59426,257.80606,109.81623,249.54144,109.81623Z" stroke="#0c1c27" stroke-linecap="round" stroke-linejoin="round" fill="url(#linear-gradient-22)"/><path d="M289.82484,38.81793H209.19106l7.56264,68.19868c0,4.80567,14.67956,11.72633,32.78774,11.72633s32.78769-6.92066,32.78769-11.72633a2.37011,2.37011,0,0,0-.03092-.32459Z" stroke="#0c1c27" stroke-linecap="round" stroke-linejoin="round" fill="url(#linear-gradient-23)"/><ellipse cx="249.54143" cy="38.81793" rx="40.28341" ry="10.69047" stroke="#0c1c27" stroke-linecap="round" stroke-linejoin="round" fill="url(#linear-gradient-24)"/><path d="M249.54144,24.02894c-23.885,0-43.24771,5.13856-43.24771,11.47726V39.813h.02276c.48065,6.22791,19.64161,11.23834,43.225,11.23834S292.2857,46.04089,292.76635,39.813h.02275V35.5062C292.7891,29.1675,273.42647,24.02894,249.54144,24.02894Z" stroke="#0c1c27" stroke-linecap="round" stroke-linejoin="round" fill="url(#linear-gradient-25)"/><ellipse cx="249.54143" cy="35.50612" rx="43.24768" ry="11.47713" stroke="#0c1c27" stroke-linecap="round" stroke-linejoin="round" fill="url(#linear-gradient-26)"/><path d="M286.989,41.24464c-7.47867-3.42959-21.44259-5.73844-37.44755-5.73844s-29.96888,2.30885-37.4476,5.73844c7.47872,3.42959,21.44264,5.73863,37.4476,5.73863S279.51032,44.67423,286.989,41.24464Z" stroke="#0c1c27" stroke-linecap="round" stroke-linejoin="round" fill="url(#linear-gradient-27)"/><path d="M286.989,41.24464c-7.47867-3.42959-21.44259-5.73844-37.44755-5.73844s-29.96888,2.30885-37.4476,5.73844c7.47872,3.42959,21.44264,5.73863,37.4476,5.73863S279.51032,44.67423,286.989,41.24464Z" stroke="#0c1c27" stroke-miterlimit="10" fill="url(#linear-gradient-28)"/><path d="M282.27649,133.602l3.41738-9.55563c.609-1.77672,2.27432-2.84854,3.0528-2.1012l3.31481,1.96772-.425,3.03266.43492.76652,7.02242-2.87613a1.14762,1.14762,0,0,1,.96829-.02542h0l.01.00592a.83929.83929,0,0,1,.12626.07477l3.25114,1.92485-8.1119,11.65048.87467,5.38359c.25285,1.55651-1.29472,3.74832-2.61886,3.709l-4.49383-.13348-1.783,2.56079-4.99307,7.67646-3.37384-1.98141c-.41186-.21019-.64823-.743-.53716-1.55468l1.19949-8.76865-1.65035-.90473-.13466.07089-2.18524-1.34267-1.11115-.60923a.89278.89278,0,0,1-.23679-.219l-.04008-.02457.00539-.00754c-.65642-.84149-.05419-2.89325,1.27177-3.88126Z" stroke="#0c1c27" stroke-linecap="round" stroke-linejoin="round" fill="url(#linear-gradient-29)"/><path d="M288.99025,125.99819l-3.1405,9.161-7.02241,5.23266c-1.48035,1.10318-2.07147,3.54525-1.00029,4.1325l5.08151,2.78563-1.19961,8.76864c-.25284,1.84858,1.29474,2.25343,2.61887.68507l6.281-7.43934,6.281.1867c1.32414.03932,2.87171-2.15249,2.61886-3.70911l-1.19959-7.38342,5.08151-8.65326c1.07118-1.82423.48005-3.58371-1.0003-2.9774l-7.02241,2.87613-3.1405-5.53474C291.56527,122.96251,289.65238,124.067,288.99025,125.99819Z" stroke="#0c1c27" stroke-linecap="round" stroke-linejoin="round" fill="url(#linear-gradient-30)"/><path d="M252.82879,63.08609l4.939,10.00761a2.12093,2.12093,0,0,0,1.59693,1.16024l11.04406,1.60479a2.12093,2.12093,0,0,1,1.17545,3.61766l-7.99156,7.78984a2.121,2.121,0,0,0-.61,1.87731L264.8693,100.143a2.12094,2.12094,0,0,1-3.07737,2.23584l-9.8781-5.19323a2.12091,2.12091,0,0,0-1.97391,0l-9.87811,5.19323a2.12093,2.12093,0,0,1-3.07736-2.23584L238.871,89.14354a2.121,2.121,0,0,0-.61-1.87731l-7.99155-7.78984a2.12093,2.12093,0,0,1,1.17545-3.61766l11.044-1.60479a2.12093,2.12093,0,0,0,1.59693-1.16024L249.025,63.08609A2.12093,2.12093,0,0,1,252.82879,63.08609Z" stroke="#0c1c27" stroke-linecap="round" stroke-linejoin="round" fill="url(#linear-gradient-31)"/><path d="M187.91486,28.1874l-1.58225-4.42427c-.282-.82263-1.053-1.31889-1.41345-.97287l-1.53477.91106.19678,1.40413-.20137.3549-3.25138-1.33165a.53135.53135,0,0,0-.44833-.01177h0l-.00464.00274a.388.388,0,0,0-.05846.03462l-1.50528.8912,3.75583,5.3942-.405,2.49261c-.11707.72067.59946,1.73548,1.21254,1.71727l2.08065-.0618.82552,1.18565,2.31179,3.55422,1.5621-.9174c.19069-.09732.30013-.344.2487-.71982l-.55536-4.0599.76411-.41889.06235.03282,1.01177-.62166.51447-.28207a.41338.41338,0,0,0,.10963-.10141l.01856-.01137-.0025-.00349c.30392-.38961.02509-1.33958-.58883-1.797Z" fill="#21313c" stroke="#0c1c27" stroke-linecap="round" stroke-linejoin="round"/><path d="M184.80638,24.6668l1.45405,4.24157,3.25139,2.42273c.68541.51077.9591,1.64145.46314,1.91335l-2.35275,1.28975.55542,4.0599c.11707.85589-.59946,1.04334-1.21254.31719L184.057,35.46686l-2.90812.08644c-.61307.01821-1.3296-.9966-1.21253-1.71732l.55541-3.41854L178.139,26.411c-.49595-.84462-.22226-1.65926.46315-1.37853l3.25138,1.33165,1.45406-2.5626C183.61414,23.26128,184.49981,23.77265,184.80638,24.6668Z" fill="#21313c" stroke="#0c1c27" stroke-linecap="round" stroke-linejoin="round"/><path d="M319.06855,22.87133l-1.58224-4.42427c-.282-.82262-1.053-1.31888-1.41346-.97286l-1.53476.91106.19678,1.40413-.20137.35489-3.25139-1.33165a.53136.53136,0,0,0-.44832-.01177h0l-.00464.00274a.38838.38838,0,0,0-.05846.03462l-1.50529.89121,3.75583,5.39419-.405,2.49262c-.11706.72066.59946,1.73548,1.21254,1.71727l2.08065-.0618.82552,1.18565,2.3118,3.55421,1.56209-.91739c.1907-.09732.30013-.344.24871-.71982l-.55537-4.0599.76412-.4189.06235.03283,1.01177-.62166.51446-.28207a.41358.41358,0,0,0,.10964-.10141l.01855-.01137-.00249-.00349c.30392-.38962.02509-1.33959-.58884-1.797Z" fill="#21313c" stroke="#0c1c27" stroke-linecap="round" stroke-linejoin="round"/><path d="M315.96007,19.35074l1.45406,4.24156,3.25139,2.42273c.6854.51077.95909,1.64146.46314,1.91336l-2.35275,1.28975.55542,4.05989c.11706.8559-.59947,1.04335-1.21254.31719l-2.90812-3.44442-2.90811.08644c-.61308.01821-1.32961-.99661-1.21254-1.71733l.55542-3.41853-2.35275-4.00648c-.496-.84462-.22227-1.65926.46314-1.37854l3.25139,1.33165,1.454-2.56259C314.76784,17.94522,315.65351,18.45659,315.96007,19.35074Z" fill="#21313c" stroke="#0c1c27" stroke-linecap="round" stroke-linejoin="round"/><path d="M326.75724,97.29,325.175,92.86572c-.282-.82262-1.053-1.31888-1.41346-.97286l-1.53476.91106.19678,1.40413-.20137.35489-3.25139-1.33165a.53136.53136,0,0,0-.44832-.01177h0l-.00464.00275a.38883.38883,0,0,0-.05846.03461l-1.50528.89121,3.75582,5.39419-.405,2.49262c-.11707.72066.59946,1.73548,1.21253,1.71727l2.08065-.0618.82552,1.18565,2.3118,3.55421,1.5621-.91739c.19069-.09732.30012-.344.2487-.71982l-.55537-4.0599.76412-.4189.06235.03283,1.01177-.62166.51446-.28207a.41342.41342,0,0,0,.10964-.10141l.01855-.01137-.00249-.00349c.30392-.38962.02509-1.33959-.58884-1.797Z" fill="#21313c" stroke="#0c1c27" stroke-linecap="round" stroke-linejoin="round"/><path d="M323.64875,93.7694l1.45406,4.24156,3.25139,2.42273c.6854.51077.9591,1.64146.46314,1.91336l-2.35275,1.28975.55542,4.05989c.11706.8559-.59947,1.04335-1.21254.31719l-2.90812-3.44442-2.90811.08644c-.61308.01821-1.32961-.99661-1.21254-1.71733l.55542-3.41853-2.35275-4.00648c-.496-.84462-.22227-1.65926.46314-1.37854l3.25139,1.33165,1.454-2.56259C322.45652,92.36388,323.34219,92.87525,323.64875,93.7694Z" fill="#21313c" stroke="#0c1c27" stroke-linecap="round" stroke-linejoin="round"/></g></svg>