<svg width="258" height="258" viewBox="0 0 258 258" fill="none" xmlns="http://www.w3.org/2000/svg">
<path d="M231.8 120.91H230.87V120.31H231.8C231.89 120.31 231.97 120.31 232.06 120.31L232.08 120.91C231.99 120.91 231.9 120.91 231.8 120.91ZM229.67 120.91H228.47V120.31H229.67V120.91ZM227.27 120.91H226.07V120.31H227.27V120.91ZM224.87 120.91H223.67V120.31H224.87V120.91ZM222.47 120.91H221.27V120.31H222.47V120.91ZM220.07 120.91H218.87V120.31H220.07V120.91ZM233.3 120.8L233.21 120.21C233.59 120.15 233.97 120.07 234.34 119.96L234.5 120.54C234.1 120.65 233.7 120.74 233.29 120.8H233.3ZM235.67 120.12L235.43 119.57C235.79 119.42 236.13 119.24 236.47 119.05L236.77 119.57C236.42 119.78 236.05 119.96 235.67 120.13V120.12ZM237.8 118.88L237.43 118.4C237.74 118.16 238.03 117.91 238.31 117.64L238.73 118.07C238.44 118.36 238.13 118.63 237.8 118.88ZM239.56 117.15L239.09 116.78C239.33 116.48 239.55 116.16 239.75 115.83L240.26 116.14C240.05 116.49 239.81 116.83 239.55 117.16L239.56 117.15ZM240.84 115.04L240.29 114.8C240.45 114.45 240.58 114.08 240.69 113.71L241.26 113.88C241.14 114.27 241 114.66 240.83 115.04H240.84ZM241.55 112.68L240.96 112.58C241.02 112.2 241.06 111.81 241.08 111.43L241.68 111.45C241.66 111.86 241.62 112.27 241.55 112.68ZM241.69 110.24H241.09V109.04H241.69V110.24ZM241.69 107.84H241.09V106.64H241.69V107.84ZM241.69 105.44H241.09V104.24H241.69V105.44ZM241.69 103.04H241.09V101.84H241.69V103.04ZM241.69 100.64H241.09V99.44H241.69V100.64ZM241.69 98.24H241.09V97.04H241.69V98.24ZM241.69 95.84H241.09V94.64H241.69V95.84ZM241.69 93.44H241.09V92.24H241.69V93.44ZM241.69 91.04H241.09V89.84H241.69V91.04ZM241.69 88.64H241.09V87.44H241.69V88.64ZM241.69 86.24H241.09V85.04H241.69V86.24ZM241.69 83.84H241.09V82.64H241.69V83.84ZM241.69 81.44H241.09V80.24H241.69V81.44ZM241.69 79.04H241.09V77.84H241.69V79.04ZM241.69 76.64H241.09V75.44H241.69V76.64ZM241.69 74.24H241.09V73.04H241.69V74.24ZM241.69 71.84H241.09V70.64H241.69V71.84ZM241.69 69.44H241.09V68.24H241.69V69.44ZM241.69 67.04H241.09V65.84H241.69V67.04ZM241.08 64.66C241.06 64.27 241.02 63.88 240.95 63.51L241.54 63.41C241.61 63.81 241.66 64.23 241.68 64.64L241.08 64.67V64.66ZM240.67 62.38C240.56 62.01 240.42 61.65 240.26 61.3L240.81 61.05C240.98 61.42 241.13 61.81 241.25 62.21L240.68 62.39L240.67 62.38ZM239.71 60.27C239.51 59.94 239.28 59.62 239.04 59.32L239.51 58.94C239.77 59.26 240.01 59.6 240.22 59.95L239.71 60.27ZM238.26 58.46C237.98 58.19 237.69 57.94 237.38 57.71L237.74 57.23C238.07 57.48 238.38 57.75 238.68 58.03L238.26 58.46ZM236.41 57.07C236.07 56.88 235.72 56.71 235.37 56.56L235.6 56.01C235.98 56.17 236.35 56.35 236.71 56.56L236.41 57.08V57.07ZM234.27 56.18C233.9 56.08 233.52 56 233.13 55.94L233.22 55.35C233.63 55.41 234.03 55.49 234.43 55.6L234.27 56.18ZM231.98 55.85H230.79V55.25H232V55.85H231.98ZM229.58 55.85H228.38V55.25H229.58V55.85ZM227.18 55.85H225.98V55.25H227.18V55.85ZM224.78 55.85H223.58V55.25H224.78V55.85ZM222.38 55.85H221.18V55.25H222.38V55.85ZM219.98 55.85H218.78V55.25H219.98V55.85ZM217.58 55.85H216.38V55.25H217.58V55.85ZM215.18 55.85H213.98V55.25H215.18V55.85ZM212.78 55.85H211.58V55.25H212.78V55.85ZM210.38 55.85H209.18V55.25H210.38V55.85ZM207.98 55.85H206.78V55.25H207.98V55.85ZM205.58 55.85H204.38V55.25H205.58V55.85ZM203.18 55.85H201.98V55.25H203.18V55.85ZM200.78 55.85H199.58V55.25H200.78V55.85ZM198.38 55.85H197.18V55.25H198.38V55.85ZM195.98 55.85H194.78V55.25H195.98V55.85ZM193.58 55.85H192.38V55.25H193.58V55.85ZM191.18 55.85H189.98V55.25H191.18V55.85ZM188.78 55.85H187.58V55.25H188.78V55.85ZM186.38 55.85H185.18V55.25H186.38V55.85ZM183.98 55.85H182.78V55.25H183.98V55.85ZM181.58 55.85H180.38V55.25H181.58V55.85ZM179.18 55.85H177.98V55.25H179.18V55.85ZM176.78 55.85H175.58V55.25H176.78V55.85Z" fill="#001E2B"/>
<path d="M26.6299 228.06L94.2799 227.25L148.29 185.79L80.6399 186.6L26.6299 228.06Z" fill="#006CFA"/>
<path d="M21.72 211.44L26.89 227.01L92.78 226.49C92.78 226.49 91.72 215.07 87.75 210.14C87.75 210.35 21.5 210.76 21.5 210.76L21.73 211.45L21.72 211.44Z" fill="white" stroke="#001E2B" stroke-miterlimit="10"/>
<path d="M20.6201 209.95L88.2701 209.14L142.29 167.67L74.6301 168.48L20.6201 209.95Z" fill="#00ED64" stroke="#001E2B" stroke-linejoin="round"/>
<path d="M94.28 227.25C94.28 227.25 92.8 215.04 88.27 209.14L142.28 167.67C146.81 173.58 148.29 185.78 148.29 185.78L94.28 227.25Z" fill="#00684A" stroke="#001E2B" stroke-linejoin="round"/>
<path d="M94.2801 227.25C94.2801 227.25 93.0401 217.02 89.3601 210.76V210.74C89.0101 210.17 88.6501 209.63 88.2801 209.13L20.6201 209.94L21.1201 211.44L87.5101 210.78C90.3301 215.57 91.7201 222.7 92.2201 225.77L26.1401 226.56L26.6401 228.06L92.4501 227.27L94.1201 227.25H94.3001H94.2801Z" fill="#00684A" stroke="#001E2B" stroke-linejoin="round"/>
<path d="M87.5102 210.78L21.7202 211.44" stroke="#001E2B" stroke-miterlimit="10"/>
<path d="M89.0903 214.02L22.8003 214.69" stroke="#001E2B" stroke-miterlimit="10" stroke-linecap="round"/>
<path d="M90.57 218.35L24.23 219.02" stroke="#001E2B" stroke-miterlimit="10" stroke-linecap="round"/>
<path d="M91.6399 222.68L25.6699 223.34" stroke="#001E2B" stroke-miterlimit="10" stroke-linecap="round"/>
<path d="M75.9901 218.24L74.5101 231.25L70.5601 227.39L67.1001 232.04L68.6601 218.38L75.9901 218.24Z" fill="#B45AF2" stroke="#001E2B" stroke-linejoin="round"/>
<path d="M75.9902 218.24L76.6702 227.47L74.9302 227.49L75.9902 218.24Z" fill="#001E2B" stroke="#001E2B" stroke-linejoin="round"/>
<path d="M88.1001 168.32L114.51 188.99L117.88 209.14L148.29 185.79L146.33 176.51L142.29 167.67L88.1001 168.32Z" fill="#001E2B" stroke="#001E2B" stroke-linejoin="round"/>
<path d="M76.4097 48.53L89.0396 53.69L89.0196 50.22L81.2096 47.16L88.9697 43.96L88.9496 40.5L76.3896 45.85L76.4097 48.53Z" fill="#001E2B" stroke="#001E2B" stroke-miterlimit="10"/>
<path d="M107.66 41.89L107.69 45.35L115.49 48.44L107.73 51.61L107.76 55.08L120.32 49.74L120.3 47.07L107.66 41.89Z" fill="#001E2B" stroke="#001E2B" stroke-miterlimit="10"/>
<path d="M101.38 36.01L92.3196 50.19L91.8096 50.99L95.8196 50.96L97.4096 48.46L99.9796 44.42L105.34 35.99L101.38 36.01Z" fill="#001E2B" stroke="#001E2B" stroke-miterlimit="10"/>
<path d="M75.1499 45.7L87.7799 50.86L87.7599 47.39L79.9499 44.33L87.7199 41.13L87.6899 37.67L75.1299 43.02L75.1499 45.7Z" fill="white" stroke="#001E2B" stroke-miterlimit="10"/>
<path d="M106.4 39.0601L106.43 42.5201L114.23 45.6101L106.47 48.7801L106.5 52.2501L119.06 46.9101L119.04 44.2401L106.4 39.0601Z" fill="white" stroke="#001E2B" stroke-miterlimit="10"/>
<path d="M100.12 33.19L91.0598 47.36L90.5498 48.16L94.5598 48.13L96.1498 45.63L98.7198 41.59L104.08 33.16L100.12 33.19Z" fill="white" stroke="#001E2B" stroke-miterlimit="10"/>
<path d="M222.69 127.78L216.13 120.48L222.69 113.44" stroke="#001E2B" stroke-miterlimit="10"/>
<path d="M220.52 169.82L122.93 158.64L51.0601 90.77L148.65 101.94L220.52 169.82Z" fill="#006CFA"/>
<path d="M230.06 146.54L220.3 168.27L125.22 157.77C125.22 157.77 128.45 141.44 134.9 134.89C134.87 135.19 230.49 145.58 230.49 145.58L230.06 146.54Z" fill="white" stroke="#001E2B" stroke-miterlimit="10"/>
<path d="M231.88 144.55L134.29 133.37L62.4199 65.5L160.01 76.67L231.88 144.55Z" fill="#00ED64" stroke="#001E2B" stroke-linejoin="round"/>
<path d="M122.93 158.64C122.93 158.64 126.87 141.23 134.29 133.37L62.4201 65.5C55.0101 73.36 51.0601 90.77 51.0601 90.77L122.93 158.64Z" fill="#001E2B" stroke="#001E2B" stroke-linejoin="round"/>
<path d="M230.94 146.64L231.88 144.55L134.29 133.37C133.67 134.03 133.08 134.76 132.5 135.53L132.48 135.55C126.24 144.05 122.93 158.63 122.93 158.63L123.18 158.66L125.59 158.95L220.51 169.81L221.45 167.72L126.13 156.8C127.3 152.43 130.36 142.35 135.15 135.84L230.93 146.62L230.94 146.64Z" fill="#00684A" stroke="#001E2B" stroke-linejoin="round"/>
<path d="M135.16 135.86L230.06 146.54" stroke="#001E2B" stroke-miterlimit="10"/>
<path d="M132.39 140.31L228.03 151.07" stroke="#001E2B" stroke-miterlimit="10" stroke-linecap="round"/>
<path d="M129.61 146.34L225.31 157.1" stroke="#001E2B" stroke-miterlimit="10" stroke-linecap="round"/>
<path d="M127.43 152.43L222.6 163.14" stroke="#001E2B" stroke-miterlimit="10" stroke-linecap="round"/>
<path d="M150.69 148.34L150.91 167.34L157.18 162.35L161.48 169.58L161.25 149.61L150.69 148.34Z" fill="#B45AF2" stroke="#001E2B" stroke-linejoin="round"/>
<path d="M227.813 212.976L223.174 222.552L232.749 227.191L237.388 217.616L227.813 212.976Z" fill="#001E2B" stroke="#001E2B" stroke-linecap="round" stroke-linejoin="round"/>
<path d="M223.495 214.475L218.856 224.05L228.431 228.689L233.071 219.114L223.495 214.475Z" fill="#00D2FF" stroke="#001E2B" stroke-linecap="round" stroke-linejoin="round"/>
<path d="M227.813 212.976L223.174 222.552L232.749 227.191L237.388 217.616L227.813 212.976Z" fill="#001E2B" stroke="#001E2B" stroke-linecap="round" stroke-linejoin="round"/>
<path d="M223.495 214.475L218.856 224.05L228.431 228.689L233.071 219.114L223.495 214.475Z" fill="#00ED64" stroke="#001E2B" stroke-linecap="round" stroke-linejoin="round"/>
<path d="M199.746 196.325L195.106 205.9L204.682 210.539L209.321 200.964L199.746 196.325Z" fill="white" stroke="#001E2B" stroke-linecap="round" stroke-linejoin="round"/>
<path d="M33.1397 141.46C35.2697 142.74 36.7497 144.1 37.5597 145.54C38.3697 146.98 38.8997 148.5 39.1597 150.1C39.4197 151.7 39.6897 155.18 39.9697 160.53C40.0697 162.47 40.4397 163.77 41.0997 164.42C41.7597 165.07 43.6997 165.35 46.9397 165.26L47.1597 173.26L45.3897 173.31C42.2897 173.4 39.8797 173.19 38.1697 172.69C36.4597 172.19 35.0497 171.34 33.9497 170.14C32.8497 168.94 32.1297 167.44 31.7997 165.63C31.4697 163.82 31.2497 161.03 31.1497 157.26C31.0097 152.31 30.3097 149.14 29.0497 147.75C27.7797 146.37 26.1297 145.7 23.6997 145.74V141.52L33.1597 141.45L33.1397 141.46Z" fill="#001E2B"/>
<path d="M33.4599 141.42C35.4399 140.2 36.8699 138.75 37.7599 137.07C38.6499 135.39 39.1599 132.97 39.2899 129.83L39.7199 120.08C39.9099 119.14 40.3899 118.43 41.1399 117.94C41.8899 117.45 43.6299 117.2 46.3599 117.18L46.2999 109.14H44.5599C40.9899 109.18 38.2299 109.61 36.2999 110.44C34.3599 111.27 32.9699 112.61 32.1099 114.47C31.2499 116.33 30.8399 119.32 30.8699 123.45C30.9099 128 30.7699 130.92 30.4699 132.19C30.1699 133.46 29.5699 134.64 28.6899 135.7C27.8099 136.77 26.1199 137.36 23.6499 137.46L23.6799 141.51L33.4599 141.4V141.42Z" fill="#001E2B"/>
<path d="M22.3301 135.6C24.4601 136.88 25.9401 138.24 26.7501 139.68C27.5601 141.12 28.0901 142.64 28.3501 144.24C28.6101 145.84 28.8801 149.32 29.1601 154.67C29.2601 156.61 29.6301 157.91 30.2901 158.56C30.9501 159.21 32.8901 159.49 36.1301 159.4L36.3501 167.4L34.5801 167.45C31.4801 167.54 29.0701 167.33 27.3601 166.83C25.6501 166.33 24.2401 165.48 23.1401 164.28C22.0401 163.08 21.3201 161.58 20.9901 159.77C20.6601 157.96 20.4401 155.17 20.3401 151.4C20.2001 146.45 19.5001 143.28 18.2401 141.89C16.9701 140.51 15.3201 139.84 12.8901 139.88V135.66L22.3501 135.59L22.3301 135.6Z" fill="#B45AF2" stroke="#001E2B" stroke-linecap="round" stroke-linejoin="round"/>
<path d="M22.6401 135.56C24.6201 134.34 26.0501 132.89 26.9401 131.21C27.8301 129.53 28.3401 127.11 28.4701 123.97L28.9001 114.22C29.0901 113.28 29.5701 112.57 30.3201 112.08C31.0701 111.59 32.8101 111.34 35.5401 111.32L35.4801 103.28H33.7401C30.1701 103.32 27.4101 103.75 25.4801 104.58C23.5401 105.41 22.1501 106.75 21.2901 108.61C20.4301 110.47 20.0201 113.46 20.0501 117.59C20.0901 122.14 19.9501 125.06 19.6501 126.33C19.3501 127.6 18.7501 128.78 17.8701 129.84C16.9901 130.91 15.3001 131.5 12.8301 131.6L12.8601 135.65L22.6401 135.54V135.56Z" fill="white" stroke="#001E2B" stroke-linecap="round" stroke-linejoin="round"/>
<path d="M83.5898 135.89H82.6898V135.44H83.5898V135.89ZM81.7998 135.89H80.8998V135.44H81.7998V135.89ZM80.0098 135.89H79.1098V135.44H80.0098V135.89ZM78.2198 135.89H77.3198V135.44H78.2198V135.89ZM76.4298 135.89H75.5298V135.44H76.4298V135.89ZM74.6398 135.89H73.7398V135.44H74.6398V135.89ZM72.8498 135.89H71.9498V135.44H72.8498V135.89ZM71.0598 135.89H70.1598V135.44H71.0598V135.89ZM69.2698 135.89H68.3698V135.44H69.2698V135.89ZM67.4798 135.89H66.5798V135.44H67.4798V135.89ZM65.6898 135.89H64.7898V135.44H65.6898V135.89ZM63.8998 135.89H62.9998V135.44H63.8998V135.89ZM62.1098 135.89H61.2098V135.44H62.1098V135.89ZM60.3198 135.89H59.4198V135.44H60.3198V135.89ZM58.5298 135.89H57.6298V135.44H58.5298V135.89ZM56.7398 135.89H55.8398V135.44H56.7398V135.89ZM54.9498 135.89H54.0498V135.44H54.9498V135.89ZM53.1598 135.89H52.2598V135.44H53.1598V135.89ZM51.3698 135.89H50.4698V135.44H51.3698V135.89ZM49.5798 135.89H48.6798V135.44H49.5798V135.89ZM47.7898 135.89H46.8898V135.44H47.7898V135.89ZM45.9998 135.89H45.0998V135.44H45.9998V135.89ZM44.2098 135.89H43.3098V135.44H44.2098V135.89ZM42.4198 135.89H41.5198V135.44H42.4198V135.89ZM40.6298 135.89H39.7298V135.44H40.6298V135.89ZM38.8398 135.89H37.9398V135.44H38.8398V135.89ZM37.0498 135.89H36.1498V135.44H37.0498V135.89ZM35.2598 135.89H34.3598V135.44H35.2598V135.89ZM33.4698 135.89H32.5698V135.44H33.4698V135.89ZM31.6798 135.89H30.7798V135.44H31.6798V135.89Z" fill="#001E2B"/>
<path d="M169.44 92.13C189.085 92.13 205.01 76.2048 205.01 56.56C205.01 36.9152 189.085 20.99 169.44 20.99C149.795 20.99 133.87 36.9152 133.87 56.56C133.87 76.2048 149.795 92.13 169.44 92.13Z" fill="#001E2B" stroke="#001E2B" stroke-linejoin="round"/>
<path d="M159.64 39.5V77.35L192.52 58.42L159.64 39.5Z" fill="#001E2B" stroke="#001E2B" stroke-linejoin="round"/>
<path d="M177.377 116.012C180.177 109.793 170.202 99.2399 155.098 92.4424C139.994 85.6449 125.48 85.1767 122.681 91.3965C119.882 97.6164 129.857 108.169 144.961 114.966C160.065 121.764 174.578 122.232 177.377 116.012Z" fill="#001E2B" stroke="#001E2B" stroke-linejoin="round"/>
<path d="M135.88 95.72L153.72 113.47L165.32 104.59L135.88 95.72Z" fill="#001E2B" stroke="#001E2B" stroke-linejoin="round"/>
<path d="M150.69 148.34L148.33 161.55L150.84 161.84L150.69 148.34Z" fill="#001E2B" stroke="#001E2B" stroke-linejoin="round"/>
<path d="M171.84 88.23C191.485 88.23 207.41 72.3047 207.41 52.66C207.41 33.0152 191.485 17.09 171.84 17.09C152.195 17.09 136.27 33.0152 136.27 52.66C136.27 72.3047 152.195 88.23 171.84 88.23Z" fill="#B45AF2" stroke="#001E2B" stroke-linejoin="round"/>
<path d="M159.64 36.64V74.49L192.52 55.56L159.64 36.64Z" fill="#00D2FF" stroke="#001E2B" stroke-linejoin="round"/>
<path d="M162.04 31.11V68.96L194.92 50.03L162.04 31.11Z" fill="white" stroke="#001E2B" stroke-linejoin="round"/>
<path d="M159.64 36.64L162.04 31.11V68.96L159.64 74.49V36.64Z" fill="#001E2B" stroke="#001E2B" stroke-linejoin="round"/>
<path d="M194.92 50.03L192.52 55.56L159.64 74.49L162.04 68.96L194.92 50.03Z" fill="#00ED64" stroke="#001E2B" stroke-linejoin="round"/>
<path d="M149.91 239.02C165.131 239.02 177.47 226.681 177.47 211.46C177.47 196.239 165.131 183.9 149.91 183.9C134.689 183.9 122.35 196.239 122.35 211.46C122.35 226.681 134.689 239.02 149.91 239.02Z" fill="#001E2B" stroke="#001E2B" stroke-linejoin="round"/>
<path d="M142.32 198.24V227.57L167.79 212.91L142.32 198.24Z" fill="#001E2B" stroke="#001E2B" stroke-linejoin="round"/>
<path d="M151.76 236C166.981 236 179.32 223.661 179.32 208.44C179.32 193.219 166.981 180.88 151.76 180.88C136.539 180.88 124.2 193.219 124.2 208.44C124.2 223.661 136.539 236 151.76 236Z" fill="#B45AF2" stroke="#001E2B" stroke-linejoin="round"/>
<path d="M142.32 196.02V225.36L167.79 210.69L142.32 196.02Z" fill="#00D2FF" stroke="#001E2B" stroke-linejoin="round"/>
<path d="M144.17 191.74V221.07L169.65 206.4L144.17 191.74Z" fill="white" stroke="#001E2B" stroke-linejoin="round"/>
<path d="M142.32 196.02L144.17 191.74V221.07L142.32 225.36V196.02Z" fill="#001E2B" stroke="#001E2B" stroke-linejoin="round"/>
<path d="M169.65 206.4L167.79 210.69L142.32 225.36L144.17 221.07L169.65 206.4Z" fill="#00ED64" stroke="#001E2B" stroke-linejoin="round"/>
</svg>
