<svg id="dh_-_speakers" data-name="dh - speakers" xmlns="http://www.w3.org/2000/svg" xmlns:xlink="http://www.w3.org/1999/xlink" viewBox="0 0 258 258"><defs><linearGradient id="linear-gradient" x1="-2865.24944" y1="116.28711" x2="-2840.8687" y2="116.28711" gradientTransform="matrix(-1, 0, 0, 1, -2688.26811, 0)" gradientUnits="userSpaceOnUse"><stop offset="0" stop-color="#7dc5db"/><stop offset="1" stop-color="#6e60f9"/></linearGradient><linearGradient id="linear-gradient-2" x1="-2922.35795" y1="71.52783" x2="-2853.18492" y2="71.52783" xlink:href="#linear-gradient"/><linearGradient id="linear-gradient-3" x1="-2930.62509" y1="82.83691" x2="-2850.50332" y2="82.83691" xlink:href="#linear-gradient"/><linearGradient id="linear-gradient-4" x1="104.77345" y1="116.6737" x2="147.68548" y2="116.6737" gradientUnits="userSpaceOnUse"><stop offset="0" stop-color="#d24f93"/><stop offset="1" stop-color="#f87216"/></linearGradient><linearGradient id="linear-gradient-5" x1="87.71533" y1="157.38679" x2="164.74359" y2="157.38679" xlink:href="#linear-gradient-4"/><linearGradient id="linear-gradient-6" x1="98.12087" y1="116.6737" x2="141.0329" y2="116.6737" gradientUnits="userSpaceOnUse"><stop offset="0" stop-color="#f87216"/><stop offset="1" stop-color="#d24f93"/></linearGradient><linearGradient id="linear-gradient-7" x1="81.06275" y1="157.38679" x2="158.09101" y2="157.38679" xlink:href="#linear-gradient-6"/><linearGradient id="linear-gradient-8" x1="-855.50935" y1="97.00424" x2="-773.4418" y2="97.00424" gradientTransform="matrix(0.87796, -0.49465, 0.45101, 0.74455, 738.2121, -365.42385)" gradientUnits="userSpaceOnUse"><stop offset="0" stop-color="#0ad05b"/><stop offset="1" stop-color="#7accda"/></linearGradient><linearGradient id="linear-gradient-9" x1="-854.67099" y1="138.29727" x2="-854.67099" y2="87.62742" xlink:href="#linear-gradient-8"/><linearGradient id="linear-gradient-10" x1="-851.53569" y1="107.96185" x2="-773.4418" y2="107.96185" xlink:href="#linear-gradient-8"/><linearGradient id="linear-gradient-11" x1="-857.80629" y1="90.30364" x2="-835.93768" y2="90.30364" xlink:href="#linear-gradient-8"/><linearGradient id="linear-gradient-12" x1="-760.21162" y1="235.88645" x2="-696.68149" y2="235.88645" xlink:href="#linear-gradient-8"/><linearGradient id="linear-gradient-13" x1="-761.86971" y1="275.04855" x2="-761.86971" y2="231.90233" xlink:href="#linear-gradient-8"/><linearGradient id="linear-gradient-14" x1="-759.19996" y1="249.87105" x2="-696.6815" y2="249.87105" xlink:href="#linear-gradient-8"/><linearGradient id="linear-gradient-15" x1="-764.53948" y1="234.18118" x2="-745.91799" y2="234.18118" xlink:href="#linear-gradient-8"/><linearGradient id="linear-gradient-16" x1="-1601.56286" y1="80.97444" x2="-1558.01109" y2="80.97444" gradientTransform="matrix(-1, 0, 0, 1, -1370.56645, 0)" xlink:href="#linear-gradient-8"/><linearGradient id="linear-gradient-17" x1="-1602.28444" y1="82.46719" x2="-1562.87229" y2="82.46719" gradientTransform="matrix(-1, 0, 0, 1, -1370.56645, 0)" xlink:href="#linear-gradient-8"/><linearGradient id="linear-gradient-18" x1="82.42714" y1="217.48642" x2="108.42039" y2="217.48642" xlink:href="#linear-gradient-6"/><linearGradient id="linear-gradient-19" x1="81.99648" y1="218.37735" x2="105.51905" y2="218.37735" xlink:href="#linear-gradient-6"/></defs><polygon points="242.684 161.867 242.684 176.654 128.011 241.511 14.745 176.117 14.745 161.33 242.684 161.867" fill="#21313c" stroke="#0c1c27" stroke-linecap="round" stroke-linejoin="round"/><polygon points="128.011 95.936 242.684 161.867 128.011 226.724 14.745 161.33 128.011 95.936" fill="#21313c" stroke="#0c1c27" stroke-linecap="round" stroke-linejoin="round"/><line x1="128.01093" y1="226.72382" x2="128.01093" y2="241.51067" fill="#21313c" stroke="#0c1c27" stroke-linecap="round" stroke-linejoin="round"/><path d="M162.73535,126.14648a.49879.49879,0,0,1-.251-.06738l-9.63477-5.59863a.49981.49981,0,0,1,.001-.86524l.2832-.16308c5.68652-3.28418,10.12012-6.71,13.27051-12.75586a.50014.50014,0,0,1,.30468-.249.51129.51129,0,0,1,.13868-.01954.49619.49619,0,0,1,.251.06739l9.63379,5.59863a.50094.50094,0,0,1,.19238.66406c-3.26074,6.25781-7.81738,9.78711-13.65722,13.15918l-.2832.16309A.50346.50346,0,0,1,162.73535,126.14648Z" fill="url(#linear-gradient)"/><path d="M166.84753,106.92773l9.6344,5.59864c-3.27368,6.28271-7.85547,9.71924-13.46472,12.958q-.14062.08056-.28222.1621l-9.63428-5.59863c.09411-.0542.18847-.1084.2821-.1626,5.60926-3.23828,10.19116-6.6748,13.46472-12.95752m0-1a1.00017,1.00017,0,0,0-.88684.53809c-3.0946,5.939-7.46606,9.31348-13.07788,12.55322l-.20886.12061-.07227.0415a1.00022,1.00022,0,0,0-.00341,1.73145l9.63427,5.59863a.9999.9999,0,0,0,1.001.002l.28076-.16113c5.91748-3.4165,10.5365-6.99609,13.85449-13.36377a1,1,0,0,0-.38439-1.32666L167.35,106.063a1.00156,1.00156,0,0,0-.50245-.13526Z" fill="#0c1c27"/><path d="M176.48145,113.02637a.50137.50137,0,0,1-.251-.06739l-9.63379-5.59863a.501.501,0,0,1-.22168-.26855c-.14941-.43262-.291-.874-.416-1.33106C162.69922,93.93848,167.25293,75.3125,177.29,59.41406c6.72754-10.65625,15.59277-19.65918,24.32226-24.69824a37.6469,37.6469,0,0,1,6.77247-3.11133,27.31542,27.31542,0,0,1,8.59179-1.57519,14.68614,14.68614,0,0,1,7.47949,1.86914l9.63379,5.59863-.502.86523a13.68945,13.68945,0,0,0-6.97656-1.73437,26.34551,26.34551,0,0,0-8.27344,1.52246,36.77209,36.77209,0,0,0-6.59082,3.0293c-8.5957,4.96386-17.335,13.84472-23.97754,24.36621-9.89551,15.67676-14.40039,33.98144-11.21094,45.54883.11914.43652.25391.85644.39551,1.26855a.50071.50071,0,0,1-.47265.66309Z" fill="url(#linear-gradient-2)"/><path d="M216.97742,30.5293a14.14037,14.14037,0,0,1,7.22729,1.80127l9.63428,5.59912a14.13517,14.13517,0,0,0-7.22717-1.80176,26.69116,26.69116,0,0,0-8.4336,1.54932,37.03465,37.03465,0,0,0-6.68152,3.06982c-8.76562,5.061-17.5299,14.04541-24.14965,24.53223-9.53492,15.104-14.62391,33.78906-11.271,45.94873.12195.4458.25952.87646.40588,1.29834l-9.6344-5.59864c-.14624-.42187-.28393-.853-.40576-1.29882-3.3529-12.15967,1.73609-30.84424,11.271-45.94825,6.61987-10.48681,15.384-19.47119,24.14953-24.53222a37.04378,37.04378,0,0,1,6.68165-3.07032,26.68872,26.68872,0,0,1,8.43347-1.54882m0-1a27.80684,27.80684,0,0,0-8.75183,1.60107,38.09724,38.09724,0,0,0-6.86341,3.15234c-8.79907,5.08008-17.72717,14.14307-24.495,24.86426-10.10755,16.01074-14.68457,34.79737-11.38941,46.74756.11682.42774.256.87354.42493,1.36084a1.00129,1.00129,0,0,0,.44238.53711l9.6344,5.59863a.99995.99995,0,0,0,1.44715-1.19238c-.15393-.44385-.28028-.84766-.386-1.23437-3.15527-11.44288,1.32654-29.58692,11.152-45.15137,6.60022-10.45557,15.27649-19.27637,23.80407-24.19971a36.11594,36.11594,0,0,1,6.49988-2.98828,25.84357,25.84357,0,0,1,8.11524-1.49707,13.20259,13.20259,0,0,1,6.72473,1.6665,1.00011,1.00011,0,0,0,1.00488-1.72949l-9.63428-5.59912a15.17437,15.17437,0,0,0-7.72973-1.93652Z" fill="#0c1c27"/><path d="M170.77148,130.0459c-2.73046,0-5.3916-1.28125-8.375-4.03223a.49934.49934,0,0,1,.08985-.80078l.28222-.16211c5.627-3.249,10.02637-6.63769,13.16993-12.5664-.12305-.36622-.23926-.74024-.34473-1.125C172.335,99.53809,176.8877,80.91211,186.92383,65.0127c6.72656-10.6543,15.59179-19.65723,24.32324-24.69825a37.6472,37.6472,0,0,1,6.77246-3.11133,27.2935,27.2935,0,0,1,8.59277-1.57519,13.57692,13.57692,0,0,1,12.28223,6.64551c6.01563,9.70215,4.03418,29.53711-4.71191,47.16211-6.5127,13.124-16.99024,24.99023-27.34473,30.96777a37.94594,37.94594,0,0,1-4.88769,2.39258,25.3863,25.3863,0,0,1-9.37891,1.92773,17.39549,17.39549,0,0,1-9.11817-2.41211,34.09,34.09,0,0,1-7.22753,6.09375,10.81967,10.81967,0,0,1-5.45313,1.64063Z" fill="url(#linear-gradient-3)"/><path d="M226.61182,36.12793c19.257,0,18.75,29.65478,7.12268,53.08545-6.49329,13.08545-16.78626,24.77637-27.14624,30.75732a37.23031,37.23031,0,0,1-4.82325,2.35987,24.92219,24.92219,0,0,1-9.19409,1.89306,16.925,16.925,0,0,1-9.20068-2.55127,34.44067,34.44067,0,0,1-7.39429,6.3003,10.36242,10.36242,0,0,1-5.20422,1.57373c-2.64612,0-5.21985-1.30323-8.03674-3.89991.09423-.05371.18847-.10839.28222-.1621,5.60925-3.23877,10.191-6.6753,13.46472-12.958-.14636-.42188-.28393-.85254-.40588-1.29834-3.35291-12.15967,1.73608-30.84473,11.271-45.94873,6.61975-10.48682,15.384-19.47119,24.14965-24.53223a37.03465,37.03465,0,0,1,6.68152-3.06982,26.67853,26.67853,0,0,1,8.4336-1.54932m0-1a27.80868,27.80868,0,0,0-8.752,1.60156,38.11521,38.11521,0,0,0-6.86316,3.15137c-8.79943,5.08057-17.72753,14.14355-24.49524,24.86475-10.10754,16.01123-14.68469,34.79785-11.3894,46.748.083.30371.177.61573.28479.94434-3.082,5.708-7.38672,9.00879-12.87964,12.18017l-.11658.06739-.16076.09228a1,1,0,0,0-.18274,1.604c3.082,2.8413,5.85107,4.16455,8.7146,4.16455a11.31088,11.31088,0,0,0,5.70422-1.70752,33.28487,33.28487,0,0,0,7.06543-5.89551,17.97039,17.97039,0,0,0,9.02954,2.28027,25.86771,25.86771,0,0,0,9.56433-1.96435,38.274,38.274,0,0,0,4.95313-2.42285c10.43445-6.02344,20.98791-17.97071,27.54187-31.17872,8.81824-17.76953,10.79-37.80859,4.6886-47.64746a14.2211,14.2211,0,0,0-12.707-6.88232Z" fill="#0c1c27"/><circle cx="126.22946" cy="116.6737" r="21.45602" stroke="#0c1c27" stroke-linecap="round" stroke-linejoin="round" fill="url(#linear-gradient-4)"/><path d="M87.71533,176.64385a38.51413,38.51413,0,0,1,77.02826,0Z" stroke="#0c1c27" stroke-linecap="round" stroke-linejoin="round" fill-rule="evenodd" fill="url(#linear-gradient-5)"/><circle cx="119.57688" cy="116.6737" r="21.45602" stroke="#0c1c27" stroke-linecap="round" stroke-linejoin="round" fill="url(#linear-gradient-6)"/><path d="M81.06275,176.64385a38.51413,38.51413,0,1,1,77.02826,0Z" stroke="#0c1c27" stroke-linecap="round" stroke-linejoin="round" fill-rule="evenodd" fill="url(#linear-gradient-7)"/><polygon points="94.17 74.954 84.905 72.884 38.791 143.073 46.378 147.873 94.17 74.954" stroke="#0c1c27" stroke-linecap="round" stroke-linejoin="round" fill="url(#linear-gradient-8)"/><polygon points="36.298 131.232 24.612 124.131 41.389 151.648 52.97 158.755 36.298 131.232" stroke="#0c1c27" stroke-linecap="round" stroke-linejoin="round" fill="url(#linear-gradient-9)"/><polygon points="52.97 158.755 98.121 90.864 94.17 74.954 56.099 133.597 46.226 117.299 36.298 131.232 52.97 158.755" stroke="#0c1c27" stroke-linecap="round" stroke-linejoin="round" fill="url(#linear-gradient-10)"/><polygon points="46.226 117.299 34.54 110.198 24.612 124.131 36.298 131.232 46.226 117.299" stroke="#0c1c27" stroke-linecap="round" stroke-linejoin="round" fill="url(#linear-gradient-11)"/><polygon points="227.892 146.483 218.372 143.837 183.64 196.934 198.377 193.476 227.892 146.483" stroke="#0c1c27" stroke-linecap="round" stroke-linejoin="round" fill="url(#linear-gradient-12)"/><polygon points="181.517 191.462 171.566 185.416 185.852 208.847 195.713 214.899 181.517 191.462" stroke="#0c1c27" stroke-linecap="round" stroke-linejoin="round" fill="url(#linear-gradient-13)"/><polygon points="195.713 214.899 231.058 161.448 227.892 146.483 198.377 193.476 189.971 179.598 181.517 191.462 195.713 214.899" stroke="#0c1c27" stroke-linecap="round" stroke-linejoin="round" fill="url(#linear-gradient-14)"/><polygon points="189.971 179.598 180.02 173.552 171.566 185.416 181.517 191.462 189.971 179.598" stroke="#0c1c27" stroke-linecap="round" stroke-linejoin="round" fill="url(#linear-gradient-15)"/><path d="M199.69288,71.9831l5.05246-14.12763c.9004-2.62681,3.3625-4.21147,4.51346-3.10656l4.90082,2.90921-.62836,4.48368.643,1.13326,10.38237-4.25224a1.69672,1.69672,0,0,1,1.43159-.03759h0l.01482.00876a1.24047,1.24047,0,0,1,.18667.11054l4.80669,2.84582L219.00326,79.17514l1.29318,7.95943c.37382,2.30125-1.9142,5.54176-3.87189,5.48362l-6.644-.19734-2.636,3.786-7.382,11.34934-4.98811-2.92944c-.60892-.31075-.95837-1.09854-.79416-2.29854l1.7734-12.9641-2.44-1.33762-.19909.10481-3.2308-1.98509-1.64279-.90071a1.32,1.32,0,0,1-.35009-.32381l-.05925-.03632.008-.01115c-.97048-1.24412-.08012-4.27757,1.88028-5.7383Z" stroke="#0c1c27" stroke-linecap="round" stroke-linejoin="round" fill="url(#linear-gradient-16)"/><path d="M209.61892,60.74111l-4.64311,13.5442-10.38237,7.73628c-2.18864,1.631-3.06259,5.24152-1.47889,6.10975l7.51282,4.11844-1.77357,12.96411c-.37382,2.733,1.91421,3.33162,3.87189,1.01285L212.01192,95.228l9.28622.276c1.95768.05814,4.24571-3.18237,3.87188-5.48378L223.39646,79.1041l7.51282-12.79352c1.58371-2.69705.70975-5.29838-1.4789-4.402L219.048,66.16086,214.40491,57.978C213.426,56.253,210.59785,57.88589,209.61892,60.74111Z" stroke="#0c1c27" stroke-linecap="round" stroke-linejoin="round" fill="url(#linear-gradient-17)"/><path d="M50.32072,85.254l-2.0922-5.85017c-.37285-1.08775-1.39239-1.74395-1.869-1.28641l-2.02941,1.20469.2602,1.85666-.26626.46928-4.29929-1.76083a.70261.70261,0,0,0-.59281-.01557h0l-.00613.00363a.51341.51341,0,0,0-.0773.04578L37.3581,81.09946l4.9663,7.13269-.5355,3.296c-.1548.95293.79266,2.29481,1.60333,2.27074l2.75122-.08172L47.235,95.2849l3.05686,4.6997,2.06555-1.21306c.25215-.12868.39686-.4549.32886-.95181l-.73436-5.36837,1.01038-.5539.08245.0434,1.33785-.822.68027-.373a.54653.54653,0,0,0,.145-.13409l.02454-.015-.0033-.00461c.40187-.51519.03318-1.77132-.77861-2.3762Z" fill="#21313c" stroke="#0c1c27" stroke-linecap="round" stroke-linejoin="round"/><path d="M46.2104,80.59872l1.92268,5.60858,4.29929,3.20355c.9063.67539,1.2682,2.17049.6124,2.53l-3.111,1.70543.73443,5.36836c.15479,1.13174-.79267,1.37961-1.60333.41942l-3.84538-4.55453-3.84537.1143c-.81066.02407-1.75812-1.3178-1.60332-2.2708l.73442-4.5203-3.111-5.29773c-.6558-1.11683-.2939-2.194.61241-1.82283L42.30586,82.843l1.92269-3.38849C44.63392,78.74021,45.805,79.4164,46.2104,80.59872Z" fill="#21313c" stroke="#0c1c27" stroke-linecap="round" stroke-linejoin="round"/><path d="M239.19892,128.49018l-1.50294-4.20249c-.26783-.78139-1.00023-1.25277-1.3426-.9241l-1.45783.8654.18692,1.33374-.19128.3371-3.0884-1.26489a.50473.50473,0,0,0-.42585-.01119h0l-.00441.00261a.36972.36972,0,0,0-.05553.03288l-1.42983.84654,3.56756,5.12379-.38467,2.36767c-.1112.68454.56941,1.64848,1.15175,1.63119l1.97636-.0587.78413,1.12621,2.19591,3.376,1.4838-.87141c.18113-.09243.28508-.32678.23623-.68373l-.52752-3.85639.72581-.3979.05922.03118.96106-.59049.48867-.26794a.39258.39258,0,0,0,.10414-.09632l.01763-.0108-.00237-.00332c.28868-.37008.02383-1.27243-.55932-1.707Z" fill="#21313c" stroke="#0c1c27" stroke-linecap="round" stroke-linejoin="round"/><path d="M236.24626,125.14607l1.38117,4.02894,3.0884,2.30129c.651.48517.911,1.55917.43992,1.81744l-2.23481,1.2251.52758,3.85639c.1112.813-.56941.991-1.15176.30128l-2.76234-3.27176-2.76234.08211c-.58234.01729-1.26295-.94665-1.15175-1.63124l.52757-3.24718-2.23481-3.80564c-.4711-.80228-.21112-1.57609.43993-1.30944l3.0884,1.2649,1.38117-2.43414C235.11378,123.811,235.95506,124.29674,236.24626,125.14607Z" fill="#21313c" stroke="#0c1c27" stroke-linecap="round" stroke-linejoin="round"/><path d="M101.1102,212.12007l-3.01548-8.43187c-.53739-1.56778-2.00687-2.51356-2.6938-1.85411l-2.925,1.73632.375,2.676-.38378.67637-6.19657-2.53789a1.01266,1.01266,0,0,0-.85442-.02243h0l-.00884.00523a.74019.74019,0,0,0-.11142.066l-2.8688,1.69848,7.15794,10.28037-.77181,4.75048c-.22312,1.37347,1.14246,3.30752,2.31088,3.27282l3.96535-.11778,1.57329,2.25964,4.40587,6.77369,2.97708-1.74839c.36342-.18547.572-.65565.474-1.37185l-1.05843-7.73744,1.45627-.79834.11883.06255,1.92825-1.18476.98048-.53758a.78814.78814,0,0,0,.209-.19327l.03536-.02167-.00475-.00666c.57921-.74253.04781-2.553-1.12222-3.42482Z" stroke="#0c1c27" stroke-linecap="round" stroke-linejoin="round" fill="url(#linear-gradient-18)"/><path d="M95.186,205.41045l2.77117,8.08366,6.19657,4.61729c1.30626.97344,1.82787,3.12833.88266,3.64651l-4.48392,2.458,1.05853,7.73744c.2231,1.63118-1.14247,1.98843-2.31089.60451l-5.54235-6.56447-5.54234.16475c-1.16842.03469-2.534-1.89936-2.31088-3.27292l1.05852-6.51512-4.48392-7.63563c-.94521-1.6097-.4236-3.16226.88266-2.62725l6.19657,2.53789,2.77117-4.88385C92.9138,202.73177,94.60173,203.70635,95.186,205.41045Z" stroke="#0c1c27" stroke-linecap="round" stroke-linejoin="round" fill="url(#linear-gradient-19)"/></svg>