<svg width="258" height="258" viewBox="0 0 258 258" fill="none" xmlns="http://www.w3.org/2000/svg">
<path d="M225.54 234.71C235.82 234.71 244.19 226.34 244.19 216.06C244.19 205.78 235.82 197.41 225.54 197.41V206.44C230.85 206.44 235.16 210.76 235.16 216.06C235.16 221.36 230.84 225.68 225.54 225.68V234.71Z" fill="#001E2B" stroke="#001E2B" stroke-linecap="round" stroke-linejoin="round"/>
<path d="M241.32 156.01L240.83 155.72C241.01 155.41 241.19 155.1 241.37 154.79L241.87 155.08C241.69 155.39 241.51 155.7 241.33 156.01H241.32ZM242.43 154.08L241.93 153.8C242.12 153.47 242.3 153.13 242.48 152.8L242.99 153.07C242.81 153.41 242.62 153.74 242.43 154.08ZM243.53 152.05L243.02 151.78C243.2 151.44 243.37 151.1 243.55 150.76L244.06 151.02C243.89 151.36 243.71 151.7 243.53 152.04V152.05ZM244.58 150L244.06 149.75C244.23 149.41 244.4 149.06 244.56 148.72L245.08 148.97C244.91 149.32 244.75 149.66 244.58 150.01V150ZM245.57 147.92L245.05 147.68C245.21 147.33 245.37 146.99 245.52 146.64L246.04 146.87C245.88 147.22 245.72 147.57 245.56 147.92H245.57ZM246.51 145.82L245.98 145.59C246.13 145.24 246.28 144.89 246.43 144.54L246.96 144.76C246.81 145.11 246.66 145.47 246.51 145.82ZM247.4 143.69L246.87 143.48C247.01 143.12 247.15 142.77 247.29 142.41L247.83 142.62C247.69 142.98 247.55 143.34 247.41 143.69H247.4ZM248.23 141.54L247.69 141.34C247.82 140.98 247.95 140.62 248.08 140.26L248.62 140.45C248.49 140.81 248.36 141.17 248.22 141.53L248.23 141.54ZM249.01 139.37L248.47 139.18C248.59 138.82 248.72 138.46 248.84 138.09L249.39 138.27C249.27 138.63 249.15 139 249.02 139.36L249.01 139.37ZM249.73 137.18L249.18 137.01C249.29 136.65 249.41 136.28 249.52 135.92L250.07 136.09C249.96 136.46 249.84 136.82 249.73 137.19V137.18ZM250.4 134.97L249.85 134.81C249.96 134.44 250.06 134.08 250.16 133.71L250.71 133.86C250.61 134.23 250.5 134.6 250.4 134.97ZM251.01 132.75L250.45 132.6C250.55 132.23 250.64 131.86 250.73 131.49L251.29 131.63C251.2 132 251.1 132.38 251 132.75H251.01ZM251.57 130.51L251.01 130.38C251.1 130.01 251.18 129.64 251.26 129.26L251.82 129.38C251.74 129.76 251.65 130.13 251.56 130.5L251.57 130.51ZM252.07 128.26L251.51 128.14C251.59 127.77 251.66 127.39 251.74 127.02L252.3 127.13C252.23 127.51 252.15 127.88 252.07 128.26ZM252.51 126L251.94 125.9C252.01 125.52 252.07 125.15 252.14 124.77L252.71 124.87C252.65 125.25 252.58 125.63 252.51 126.01V126ZM252.89 123.73L252.32 123.64C252.38 123.26 252.44 122.88 252.49 122.51L253.06 122.59C253.01 122.97 252.95 123.35 252.89 123.73ZM253.22 121.45L252.65 121.38C252.7 121 252.75 120.62 252.79 120.24L253.36 120.31C253.32 120.69 253.27 121.07 253.22 121.45ZM253.49 119.16L252.92 119.1C252.96 118.72 253 118.34 253.03 117.96L253.6 118.01C253.57 118.39 253.53 118.78 253.49 119.16ZM253.7 116.86L253.13 116.82C253.16 116.44 253.19 116.06 253.21 115.68L253.78 115.72C253.75 116.1 253.73 116.49 253.7 116.87V116.86ZM253.85 114.56L253.28 114.53C253.3 114.15 253.32 113.77 253.33 113.39L253.9 113.41C253.88 113.79 253.87 114.18 253.85 114.56ZM253.94 112.25L253.37 112.23C253.38 111.85 253.39 111.47 253.39 111.08H253.96C253.96 111.47 253.95 111.86 253.94 112.24V112.25ZM253.97 109.94H253.4V109.78C253.4 109.45 253.4 109.12 253.4 108.79H253.97C253.97 109.11 253.97 109.44 253.97 109.78V109.94ZM253.37 107.65C253.37 107.27 253.35 106.89 253.34 106.5L253.91 106.48C253.92 106.86 253.94 107.25 253.94 107.63H253.37V107.65ZM253.29 105.37C253.27 104.99 253.25 104.61 253.23 104.23L253.8 104.2C253.82 104.58 253.84 104.97 253.86 105.35L253.29 105.38V105.37ZM253.15 103.08C253.12 102.7 253.09 102.32 253.06 101.94L253.63 101.89C253.66 102.27 253.7 102.66 253.72 103.04L253.15 103.08ZM252.95 100.8C252.91 100.42 252.87 100.04 252.83 99.66L253.4 99.59C253.44 99.97 253.48 100.35 253.52 100.74L252.95 100.8ZM252.69 98.52C252.64 98.14 252.59 97.76 252.54 97.38L253.11 97.3C253.16 97.68 253.21 98.06 253.26 98.44L252.69 98.51V98.52ZM252.37 96.25C252.31 95.87 252.25 95.5 252.19 95.12L252.76 95.03C252.82 95.41 252.88 95.79 252.94 96.17L252.37 96.26V96.25ZM251.99 93.99C251.92 93.61 251.85 93.24 251.78 92.86L252.34 92.75C252.41 93.13 252.48 93.51 252.55 93.88L251.98 93.98L251.99 93.99ZM251.56 91.74C251.48 91.37 251.4 90.99 251.32 90.62L251.88 90.5C251.96 90.88 252.04 91.25 252.12 91.63L251.56 91.75V91.74ZM251.07 89.5C250.98 89.13 250.89 88.76 250.8 88.39L251.36 88.25C251.45 88.62 251.54 89 251.63 89.37L251.07 89.5ZM250.52 87.27C250.42 86.9 250.33 86.53 250.22 86.16L250.77 86.01C250.87 86.38 250.97 86.75 251.07 87.13L250.51 87.27H250.52ZM249.91 85.06C249.8 84.69 249.7 84.33 249.59 83.96L250.14 83.79C250.25 84.16 250.36 84.53 250.47 84.9L249.92 85.06H249.91ZM249.25 82.87C249.13 82.51 249.02 82.14 248.9 81.78L249.45 81.6C249.57 81.97 249.69 82.33 249.8 82.7L249.25 82.87Z" fill="#001E2B"/>
<path d="M230.2 144.12C230.2 187.71 199.65 224.18 158.79 233.25C152.38 234.68 145.72 235.43 138.88 235.43C88.4498 235.43 47.5698 194.55 47.5698 144.12C47.5698 93.6901 88.4598 52.8301 138.89 52.8301C145.73 52.8301 152.39 53.5801 158.8 55.0101C199.65 64.0801 230.21 100.53 230.21 144.12H230.2Z" fill="#001E2B" stroke="#001E2B" stroke-miterlimit="10"/>
<path d="M230.2 144.12C230.2 187.71 199.65 224.18 158.79 233.25C117.95 224.18 87.3999 187.71 87.3999 144.12C87.3999 100.53 117.95 64.08 158.79 55.01C199.64 64.08 230.2 100.53 230.2 144.12Z" fill="#001E2B" stroke="#001E2B" stroke-miterlimit="10"/>
<path fill-rule="evenodd" clip-rule="evenodd" d="M138.51 52.28C88.1599 52.28 47.1699 93.27 47.1699 143.62C47.1699 193.97 88.1499 234.96 138.51 234.96C144.77 234.96 150.79 234.29 156.5 233.12C154.31 232.1 153.91 223.59 156.24 218.91C158.75 213.55 166.85 199.99 158.85 195.41C150.89 190.87 153.14 188.89 148.29 183.53C143.45 178.17 145.43 177.41 145.03 175.98C144.01 171.56 149.71 164.36 150.13 163.7C150.38 162.93 150.38 160.19 150.13 159.42C150.13 158.35 146.61 156.51 145.7 156.41C144.87 156.41 144.26 157.84 143.1 158.09C141.93 158.35 136.58 154.83 135.4 153.81C134.22 152.74 133.56 150.81 131.82 149.38C130.14 147.66 130.05 148.98 127.54 147.91C125.05 146.89 117.09 143.89 110.82 141.7C104.55 139.2 104.04 135.53 104.04 133.08C103.79 130.43 100.13 126.92 98.5899 124.32C96.7699 121.71 96.4999 118.2 95.9399 118.96C95.4299 119.78 99.1999 129.16 98.5899 129.57C97.9399 129.82 96.4999 126.92 94.6799 124.58C92.8399 122.14 96.4999 123.4 90.7499 112.19C84.9899 100.97 92.5799 95.22 92.9999 89.36C93.3499 83.5 97.9399 91.61 95.4399 87.68C92.9999 83.76 95.4399 76.05 93.6199 73.21C91.9399 70.3 82.1499 76.47 82.1499 76.47C82.3899 73.56 91.1699 68.87 97.2799 64.44C103.4 60 107.47 63.67 112.42 65.09C117.52 66.77 117.77 66.26 116.08 64.44C114.35 62.76 116.85 62.25 120.78 62.76C124.44 63.42 125.72 68.11 131.59 67.44C137.75 67.03 132.25 68.61 133.01 70.29C133.83 72.03 132.25 71.71 128.06 74.22C124.14 76.81 128.32 77.06 135.25 82.17C142.18 87.27 140.19 78.91 139.28 74.98C138.35 71.11 144.37 74.23 144.37 74.23C148.7 77.07 147.9 74.47 150.89 75.3C153.91 76.05 162.77 83.6 162.77 83.6C151.96 89.36 158.75 89.87 160.58 91.3C162.37 92.79 156.92 95.23 156.92 95.23C154.67 93.04 154.43 95.49 152.99 96.3C151.57 97.07 152.74 99.15 152.74 99.15C145.45 100.33 146.98 108.17 147.29 110.01C147.29 111.8 142.29 114.69 141.12 117.55C139.95 120.14 144.38 125.91 141.95 126.16C139.44 126.56 137.51 117.55 124.81 120.81C120.89 121.83 112.59 126.16 117.11 134.88C121.81 143.91 129.14 132.44 131.6 133.7C134.09 135.03 130.83 140.64 131.34 140.89C131.85 141.15 138.27 141.15 138.69 148.84C139.04 156.54 148.72 155.78 150.67 156.03C152.91 156.03 159.79 150.33 160.7 150.17C161.53 149.77 165.65 146.5 174.16 151.34C182.78 156.02 186.96 155.36 189.82 157.46C192.66 159.55 190.89 163.62 193.48 165.05C196.08 166.47 207.3 164.63 210.14 169.07C213.05 173.51 198.67 196.34 194.25 198.84C189.82 201.34 187.98 207.2 183.29 210.82C178.59 214.5 172.73 219.18 166.72 222.71C161.37 225.71 160.6 231.32 158.11 233.15C199.1 224.03 229.62 187.48 229.62 143.91C229.62 93.55 188.64 52.57 138.28 52.57L138.54 52.31L138.51 52.28ZM159.92 137.86C158.75 138.26 156.24 140.75 149.72 136.83C143.46 132.92 139.18 133.83 138.51 133.16C138.51 133.16 137.84 131.74 140.75 131.34C146.45 130.73 153.49 136.69 155.22 136.69C156.95 136.69 157.68 135 160.57 136.07C163.43 137.09 161.18 137.76 159.92 137.86ZM129.89 61.39C129.23 61.04 130.3 60.38 131.07 59.57C131.47 59.2 131.31 58.13 131.72 57.78C133.15 56.31 139.68 54.52 138.5 58.13C137.08 61.66 130.96 62.06 129.89 61.39ZM145.94 73.02C143.45 72.76 138.35 72.36 139.17 71.18C143.1 67.57 137.99 66.24 134.73 66.24C131.47 66 130.3 64.16 131.82 63.75C133.4 63.4 139.83 64 140.99 64.82C142.02 65.59 147.77 68.08 148.13 69.76C148.45 71.45 148.13 73.02 145.94 73.02ZM165.11 72.36C163.27 73.53 154.3 67.01 152.72 65.59C145.43 59.32 141.09 61.56 139.67 60.23C138.24 58.97 138.66 57.79 141.09 55.81C143.6 53.87 150.12 56.57 154.14 56.97C158.07 57.39 162.75 60.49 162.75 64.16C163.01 67.42 167.08 70.68 165.26 72.37H165.1L165.11 72.36Z" fill="#00D2FF"/>
<path d="M158.8 233.25C152.39 234.68 145.73 235.43 138.89 235.43C88.4601 235.43 47.5801 194.55 47.5801 144.12C47.5801 93.6901 88.4601 52.8301 138.89 52.8301C145.73 52.8301 152.39 53.5801 158.8 55.0101C117.96 64.0801 87.4101 100.53 87.4101 144.12C87.4101 187.71 117.96 224.18 158.8 233.25Z" fill="#001E2B" stroke="#001E2B" stroke-miterlimit="10"/>
<path d="M160.41 28.13L161.59 38.15L151.9 40.17" stroke="#001E2B" stroke-miterlimit="10"/>
<path d="M40.6299 153.01C40.4899 152.65 40.3499 152.3 40.2099 151.94L40.7499 151.73C40.8899 152.09 41.0299 152.44 41.1699 152.8L40.6399 153.01H40.6299ZM39.7999 150.86C39.6699 150.5 39.5399 150.14 39.4099 149.78L39.9499 149.59C40.0799 149.95 40.2099 150.31 40.3399 150.67L39.7999 150.87V150.86ZM39.0299 148.69C38.9099 148.33 38.7799 147.96 38.6599 147.6L39.2099 147.42C39.3299 147.78 39.4499 148.15 39.5699 148.51L39.0299 148.7V148.69ZM38.3099 146.5C38.1999 146.13 38.0799 145.77 37.9699 145.4L38.5199 145.24C38.6299 145.61 38.7399 145.97 38.8599 146.33L38.3099 146.5ZM37.6499 144.29C37.5399 143.92 37.4399 143.55 37.3399 143.18L37.8899 143.03C37.9899 143.4 38.0899 143.77 38.1999 144.13L37.6499 144.29ZM37.0499 142.06C36.9499 141.69 36.8599 141.32 36.7699 140.94L37.3299 140.8C37.4199 141.17 37.5099 141.54 37.6099 141.91L37.0499 142.05V142.06ZM36.4999 139.82C36.4099 139.45 36.3299 139.07 36.2499 138.69L36.8099 138.57C36.8899 138.94 36.9699 139.32 37.0599 139.69L36.4999 139.82ZM36.0099 137.57C35.9299 137.19 35.8599 136.82 35.7899 136.44L36.3499 136.33C36.4199 136.7 36.4999 137.08 36.5699 137.45L36.0099 137.57ZM35.5799 135.31L35.3799 134.17L35.9499 134.08L36.1399 135.21L35.5699 135.31H35.5799ZM35.1999 133.03C35.1399 132.65 35.0899 132.27 35.0299 131.89L35.5999 131.81C35.6499 132.19 35.7099 132.57 35.7699 132.94L35.1999 133.03ZM34.8799 130.75C34.8299 130.37 34.7899 129.99 34.7399 129.61L35.3099 129.54C35.3499 129.92 35.3999 130.3 35.4499 130.68L34.8799 130.75ZM34.6199 128.46C34.5799 128.08 34.5399 127.69 34.5099 127.31L35.0799 127.26C35.1099 127.64 35.1499 128.02 35.1899 128.4L34.6199 128.46ZM34.4099 126.16C34.3799 125.78 34.3499 125.39 34.3299 125.01L34.8999 124.97C34.9199 125.35 34.9499 125.73 34.9799 126.11L34.4099 126.15V126.16ZM34.2599 123.86C34.2399 123.48 34.2199 123.09 34.2099 122.71L34.7799 122.69C34.7899 123.07 34.8099 123.45 34.8299 123.83L34.2599 123.86ZM34.1699 121.56C34.1699 121.18 34.1499 120.79 34.1499 120.41H34.7199C34.7199 120.78 34.7299 121.17 34.7399 121.55H34.1699V121.56ZM34.7199 119.27H34.1499C34.1499 118.89 34.1499 118.5 34.1499 118.12H34.7199C34.7199 118.51 34.7199 118.89 34.7199 119.27ZM34.7499 116.98L34.1799 116.96C34.1899 116.58 34.1999 116.19 34.2199 115.81L34.7899 115.83C34.7799 116.21 34.7599 116.59 34.7499 116.98ZM34.8399 114.69L34.2699 114.66C34.2899 114.28 34.3099 113.89 34.3399 113.51L34.9099 113.55C34.8899 113.93 34.8599 114.31 34.8399 114.69ZM34.9899 112.4L34.4199 112.36C34.4499 111.98 34.4799 111.59 34.5199 111.21L35.0899 111.26C35.0599 111.64 35.0199 112.02 34.9899 112.4ZM35.1999 110.11L34.6299 110.05C34.6699 109.67 34.7099 109.28 34.7599 108.9L35.3299 108.97C35.2899 109.35 35.2399 109.73 35.1999 110.11ZM35.4699 107.83L34.8999 107.76C34.9499 107.38 34.9999 107 35.0599 106.61L35.6299 106.69C35.5799 107.07 35.5199 107.45 35.4799 107.83H35.4699ZM35.7899 105.55L35.2199 105.46C35.2799 105.08 35.3399 104.7 35.4099 104.32L35.9799 104.42C35.9199 104.8 35.8499 105.18 35.7999 105.56L35.7899 105.55ZM36.1699 103.28L35.5999 103.18C35.6699 102.8 35.7399 102.42 35.8199 102.04L36.3799 102.15C36.3099 102.53 36.2399 102.9 36.1699 103.28ZM36.6099 101.02L36.0499 100.9C36.1299 100.52 36.2099 100.15 36.2899 99.77L36.8499 99.89C36.7699 100.26 36.6899 100.64 36.6099 101.01V101.02ZM37.1099 98.78L36.5499 98.65C36.6399 98.2701 36.7299 97.9 36.8199 97.53L37.3799 97.67C37.2899 98.04 37.1999 98.41 37.1099 98.79V98.78ZM37.6699 96.55L37.1099 96.4C37.2099 96.03 37.3099 95.65 37.4099 95.28L37.9599 95.43C37.8599 95.8 37.7599 96.17 37.6599 96.54L37.6699 96.55ZM38.2799 94.34L37.7299 94.18C37.8399 93.81 37.9499 93.44 38.0599 93.07L38.6099 93.24C38.4999 93.61 38.3899 93.97 38.2799 94.34ZM38.9499 92.14L38.3999 91.96C38.5199 91.59 38.6399 91.23 38.7599 90.86L39.3099 91.04C39.1899 91.4 39.0699 91.77 38.9499 92.13V92.14ZM39.6799 89.96L39.1399 89.77C39.2699 89.41 39.3999 89.04 39.5299 88.68L40.0699 88.88C39.9399 89.24 39.8099 89.6 39.6899 89.96H39.6799ZM40.4599 87.8L39.9199 87.6C40.0599 87.24 40.1899 86.88 40.3299 86.52L40.8699 86.73C40.7299 87.09 40.5899 87.44 40.4599 87.8ZM41.2999 85.66L40.7699 85.44C40.9099 85.08 41.0599 84.73 41.2099 84.37L41.7399 84.59C41.5899 84.94 41.4499 85.3 41.2999 85.65V85.66ZM42.1899 83.55L41.6599 83.32C41.8099 82.97 41.9699 82.61 42.1299 82.26L42.6499 82.5C42.4899 82.85 42.3399 83.2001 42.1799 83.55H42.1899ZM43.1299 81.46L42.6099 81.22C42.7699 80.87 42.9399 80.52 43.0999 80.18L43.6199 80.43C43.4499 80.77 43.2899 81.12 43.1299 81.47V81.46ZM44.1299 79.39L43.6199 79.13C43.7899 78.79 43.9699 78.44 44.1399 78.1L44.6499 78.36C44.4799 78.7 44.2999 79.04 44.1299 79.38V79.39ZM45.1799 77.35L44.6699 77.08C44.8499 76.74 45.0299 76.4 45.2199 76.06L45.7299 76.33C45.5499 76.67 45.3699 77 45.1899 77.34L45.1799 77.35ZM46.2799 75.34L45.7799 75.06C45.9699 74.72 46.1599 74.39 46.3499 74.06L46.8499 74.35C46.6599 74.68 46.4699 75.01 46.2799 75.34ZM47.4299 73.36L46.9399 73.06C47.1399 72.73 47.3399 72.4 47.5399 72.07L48.0299 72.37C47.8299 72.7001 47.6299 73.02 47.4399 73.35L47.4299 73.36ZM48.6299 71.41L48.1399 71.1C48.3499 70.78 48.5499 70.45 48.7599 70.13L49.2399 70.44C49.0299 70.76 48.8299 71.08 48.6199 71.4L48.6299 71.41ZM49.8799 69.49L49.3999 69.17C49.6099 68.85 49.8299 68.53 50.0499 68.21L50.5199 68.54C50.2999 68.85 50.0899 69.17 49.8799 69.49ZM51.1799 67.6L50.7099 67.27C50.9299 66.96 51.1599 66.64 51.3799 66.33L51.8499 66.67C51.6299 66.98 51.3999 67.29 51.1799 67.6ZM52.5199 65.74L52.0599 65.4C52.2899 65.09 52.5199 64.7901 52.7499 64.48L53.2099 64.83C52.9799 65.13 52.7499 65.44 52.5199 65.74ZM53.9099 63.92L53.4599 63.57C53.6999 63.27 53.9399 62.97 54.1799 62.67L54.6299 63.03C54.3899 63.33 54.1499 63.63 53.9199 63.93L53.9099 63.92ZM55.3499 62.14L54.9099 61.77C55.1499 61.47 55.3999 61.18 55.6499 60.89L56.0899 61.26C55.8399 61.55 55.5999 61.84 55.3599 62.14H55.3499ZM56.8299 60.39L56.3999 60.01C56.6499 59.72 56.9099 59.43 57.1599 59.15L57.5899 59.53C57.3399 59.81 57.0799 60.1 56.8299 60.39ZM58.3499 58.68L57.9299 58.29C58.1899 58.01 58.4499 57.73 58.7099 57.45L59.1299 57.84C58.8699 58.12 58.6099 58.4 58.3499 58.68ZM59.9199 57.01L59.5099 56.61C59.7799 56.33 60.0399 56.06 60.3099 55.79L60.7199 56.19C60.4499 56.46 60.1899 56.73 59.9199 57.01ZM61.5299 55.38L61.1299 54.97C61.3999 54.7 61.6799 54.43 61.9499 54.17L62.3499 54.58C62.0799 54.84 61.7999 55.11 61.5299 55.38ZM63.1799 53.79L62.7899 53.37C63.0699 53.11 63.3499 52.85 63.6299 52.59L64.0199 53.01C63.7399 53.27 63.4599 53.53 63.1799 53.79ZM64.8699 52.25L64.4899 51.82C64.7799 51.56 65.0599 51.31 65.3499 51.06L65.7299 51.49C65.4399 51.74 65.1599 51.99 64.8699 52.25ZM66.5999 50.75L66.2299 50.31C66.5199 50.06 66.8199 49.82 67.1099 49.57L67.4799 50.01C67.1899 50.25 66.8899 50.5 66.5999 50.74V50.75ZM68.3599 49.29L67.9999 48.84C68.2999 48.6 68.5999 48.36 68.8999 48.13L69.2499 48.58C68.9499 48.82 68.6499 49.05 68.3599 49.29ZM70.1599 47.88L69.8099 47.42C70.1099 47.19 70.4199 46.96 70.7299 46.73L71.0699 47.19C70.7599 47.42 70.4599 47.65 70.1599 47.88ZM71.9899 46.52L71.6499 46.05C71.9599 45.83 72.2699 45.6 72.5799 45.38L72.9099 45.85C72.5999 46.07 72.2899 46.29 71.9799 46.51L71.9899 46.52ZM73.8599 45.21L73.5399 44.74C73.8599 44.52 74.1699 44.31 74.4899 44.1L74.8099 44.58C74.4899 44.79 74.1799 45 73.8599 45.22V45.21ZM75.7599 43.94L75.4499 43.46C75.7699 43.25 76.0899 43.05 76.4199 42.84L76.7299 43.33C76.4099 43.53 76.0899 43.74 75.7699 43.95L75.7599 43.94ZM77.6899 42.72L77.3899 42.23C77.7199 42.03 78.0399 41.83 78.3699 41.64L78.6599 42.13C78.3299 42.32 78.0099 42.52 77.6799 42.72H77.6899ZM79.6499 41.55L79.3599 41.05C79.6899 40.86 80.0199 40.67 80.3599 40.48L80.6399 40.98C80.3099 41.17 79.9799 41.35 79.6499 41.54V41.55ZM81.6399 40.43L81.3699 39.92C81.7099 39.74 82.0499 39.55 82.3899 39.38L82.6599 39.89C82.3199 40.07 81.9899 40.25 81.6499 40.43H81.6399ZM83.6699 39.36L83.4099 38.85C83.7499 38.67 84.0999 38.5 84.4399 38.33L84.6899 38.85C84.3499 39.02 84.0099 39.19 83.6699 39.37V39.36ZM85.7199 38.34L85.4699 37.82C85.8199 37.65 86.1599 37.49 86.5099 37.33L86.7499 37.85C86.3999 38.01 86.0599 38.17 85.7099 38.34H85.7199ZM87.7999 37.38L87.5599 36.86C87.9099 36.7 88.2599 36.55 88.6199 36.39L88.8499 36.92C88.4999 37.07 88.1499 37.23 87.7999 37.38ZM89.8999 36.47L89.6799 35.94C90.0299 35.79 90.3899 35.65 90.7499 35.5L90.9699 36.03C90.6199 36.17 90.2599 36.32 89.9099 36.46L89.8999 36.47ZM92.0199 35.61L91.8099 35.07C92.1699 34.93 92.5299 34.79 92.8899 34.66L93.0899 35.2C92.7299 35.33 92.3799 35.47 92.0199 35.61ZM94.1699 34.81L93.9799 34.27C94.3399 34.14 94.6999 34.01 95.0699 33.89L95.2599 34.43C94.8999 34.55 94.5399 34.68 94.1799 34.81H94.1699ZM153.42 34.23L152.66 33.98L152.84 33.43L153.6 33.69L153.42 34.23ZM96.3299 34.06L96.1499 33.51C96.5099 33.39 96.8799 33.27 97.2499 33.16L97.4199 33.71C97.0599 33.83 96.6899 33.94 96.3299 34.06ZM151.57 33.62C151.21 33.51 150.84 33.39 150.48 33.28L150.65 32.73C151.02 32.84 151.39 32.95 151.75 33.07L151.58 33.62H151.57ZM98.5199 33.37L98.3499 32.82C98.7199 32.71 99.0899 32.6 99.4599 32.49L99.6199 33.04C99.2499 33.15 98.8899 33.25 98.5199 33.36V33.37ZM149.38 32.96C149.01 32.85 148.65 32.75 148.28 32.65L148.43 32.1C148.8 32.2 149.17 32.3 149.54 32.41L149.38 32.96ZM100.73 32.73L100.58 32.18C100.95 32.08 101.32 31.98 101.69 31.88L101.83 32.44C101.46 32.54 101.09 32.63 100.72 32.74L100.73 32.73ZM147.17 32.35C146.8 32.25 146.43 32.16 146.06 32.07L146.2 31.51C146.57 31.6 146.95 31.7 147.32 31.79L147.17 32.35ZM102.94 32.15L102.8 31.59C103.17 31.5 103.55 31.41 103.92 31.32L104.05 31.88C103.68 31.97 103.31 32.06 102.94 32.15ZM144.94 31.81C144.57 31.72 144.2 31.64 143.82 31.56L143.94 31C144.32 31.08 144.69 31.17 145.07 31.25L144.94 31.81ZM105.17 31.63L105.05 31.07C105.42 30.99 105.8 30.91 106.18 30.83L106.3 31.39C105.93 31.47 105.55 31.55 105.18 31.63H105.17ZM142.7 31.32C142.33 31.24 141.95 31.17 141.58 31.1L141.69 30.54C142.07 30.61 142.44 30.69 142.82 30.77L142.7 31.33V31.32ZM107.41 31.17L107.3 30.61C107.68 30.54 108.05 30.47 108.43 30.4L108.53 30.97C108.15 31.04 107.78 31.11 107.41 31.18V31.17ZM140.45 30.89C140.07 30.82 139.7 30.76 139.32 30.7L139.41 30.13C139.79 30.19 140.17 30.26 140.55 30.33L140.45 30.9V30.89ZM109.66 30.76L109.56 30.19C109.94 30.13 110.32 30.06 110.7 30L110.79 30.57C110.41 30.63 110.04 30.69 109.66 30.75V30.76ZM138.19 30.51C137.81 30.45 137.43 30.4 137.06 30.34L137.14 29.77C137.52 29.82 137.9 29.88 138.28 29.94L138.19 30.51ZM111.93 30.4L111.85 29.83C112.23 29.78 112.61 29.72 112.99 29.67L113.06 30.24C112.68 30.29 112.3 30.34 111.93 30.4ZM135.92 30.19C135.54 30.14 135.16 30.1 134.78 30.05L134.85 29.48C135.23 29.52 135.61 29.57 136 29.62L135.93 30.19H135.92ZM114.2 30.1L114.13 29.53C114.51 29.48 114.89 29.44 115.28 29.4L115.34 29.97C114.96 30.01 114.58 30.05 114.2 30.1ZM133.64 29.93C133.26 29.89 132.88 29.86 132.5 29.82L132.55 29.25C132.93 29.28 133.32 29.32 133.7 29.36L133.64 29.93ZM116.48 29.86L116.43 29.29C116.81 29.25 117.2 29.22 117.58 29.19L117.63 29.76C117.25 29.79 116.87 29.82 116.49 29.86H116.48ZM131.36 29.73C130.98 29.7 130.6 29.68 130.22 29.65L130.25 29.08C130.63 29.1 131.02 29.13 131.4 29.16L131.36 29.73ZM118.76 29.68L118.72 29.11C119.1 29.08 119.49 29.06 119.87 29.04L119.9 29.61C119.52 29.63 119.14 29.65 118.76 29.68ZM129.07 29.59C128.69 29.57 128.31 29.56 127.92 29.54L127.94 28.97C128.32 28.98 128.71 29 129.09 29.02L129.06 29.59H129.07ZM121.05 29.56L121.03 28.99C121.41 28.97 121.8 28.96 122.18 28.95L122.2 29.52C121.82 29.53 121.44 29.54 121.06 29.56H121.05ZM126.78 29.51C126.4 29.51 126.02 29.49 125.63 29.49V28.92C126.02 28.92 126.41 28.93 126.79 28.94V29.51H126.78ZM123.33 29.5V28.93C123.71 28.93 124.09 28.93 124.47 28.92V29.49C124.09 29.49 123.71 29.49 123.33 29.5Z" fill="#001E2B"/>
<path d="M89.2399 200.26C88.8699 200.16 88.4999 200.05 88.1299 199.94L88.2899 199.39C88.6599 199.5 89.0199 199.61 89.3899 199.71L89.2299 200.26H89.2399ZM87.0299 199.6C86.6599 199.49 86.2999 199.37 85.9299 199.25L86.1099 198.7C86.4699 198.82 86.8399 198.93 87.1999 199.05L87.0299 199.6ZM84.8399 198.89C84.4799 198.77 84.1099 198.64 83.7499 198.51L83.9399 197.97C84.2999 198.1 84.6599 198.22 85.0199 198.35L84.8399 198.89ZM82.6699 198.12C82.3099 197.99 81.9499 197.85 81.5899 197.71L81.7999 197.17C82.1599 197.31 82.5099 197.44 82.8699 197.57L82.6699 198.11V198.12ZM80.5199 197.3C80.1599 197.16 79.8099 197.01 79.4499 196.87L79.6699 196.34C80.0199 196.49 80.3799 196.63 80.7299 196.77L80.5199 197.3ZM78.3899 196.42C78.0399 196.27 77.6799 196.12 77.3299 195.96L77.5599 195.43C77.9099 195.58 78.2599 195.74 78.6099 195.89L78.3799 196.42H78.3899ZM76.2799 195.49C75.9299 195.33 75.5799 195.17 75.2299 195L75.4799 194.48C75.8299 194.64 76.1699 194.8 76.5199 194.96L76.2799 195.48V195.49ZM74.1999 194.51C73.8499 194.34 73.5099 194.17 73.1699 194L73.4299 193.49C73.7699 193.66 74.1099 193.83 74.4599 194L74.2099 194.52L74.1999 194.51ZM72.1399 193.47L71.1199 192.93L71.3899 192.42L72.3999 192.95L72.1399 193.46V193.47ZM70.1099 192.38C69.7699 192.19 69.4399 192.01 69.0999 191.82L69.3899 191.32C69.7199 191.51 70.0499 191.7 70.3899 191.88L70.1099 192.38ZM68.0999 191.24C67.7699 191.05 67.4399 190.85 67.1099 190.65L67.4099 190.16C67.7399 190.36 68.0599 190.55 68.3899 190.74L68.0999 191.24ZM66.1199 190.05C65.7899 189.85 65.4699 189.64 65.1399 189.44L65.4499 188.96C65.7699 189.17 66.0999 189.37 66.4199 189.57L66.1199 190.06V190.05ZM64.1799 188.81C63.8599 188.6 63.5399 188.39 63.2199 188.17L63.5399 187.69C63.8599 187.9 64.1699 188.11 64.4899 188.32L64.1799 188.8V188.81ZM62.2699 187.52C61.9499 187.3 61.6399 187.08 61.3299 186.86L61.6599 186.39C61.9699 186.61 62.2799 186.83 62.5999 187.05L62.2699 187.52ZM60.3899 186.18C60.0799 185.95 59.7699 185.72 59.4599 185.49L59.7999 185.03C60.1099 185.26 60.4099 185.49 60.7199 185.71L60.3799 186.17L60.3899 186.18ZM58.5399 184.8C58.2399 184.56 57.9299 184.33 57.6299 184.09L57.9899 183.64C58.2899 183.88 58.5899 184.11 58.8899 184.34L58.5399 184.8ZM56.7299 183.37C56.4299 183.13 56.1299 182.88 55.8399 182.63L56.2099 182.19C56.4999 182.44 56.7999 182.68 57.0999 182.92L56.7399 183.37H56.7299ZM54.9499 181.89C54.6599 181.64 54.3699 181.39 54.0799 181.13L54.4599 180.7C54.7499 180.95 55.0399 181.2 55.3299 181.45L54.9599 181.89H54.9499ZM53.2099 180.36C52.9199 180.1 52.6399 179.84 52.3599 179.58L52.7499 179.16C53.0299 179.42 53.3099 179.68 53.5999 179.94L53.2199 180.37L53.2099 180.36ZM51.5099 178.79C51.2299 178.52 50.9499 178.26 50.6799 177.99L51.0799 177.58C51.3499 177.85 51.6299 178.11 51.9099 178.38L51.5099 178.8V178.79ZM49.8499 177.18C49.5799 176.91 49.3099 176.63 49.0399 176.36L49.4499 175.96C49.7199 176.23 49.9899 176.51 50.2599 176.78L49.8499 177.19V177.18ZM48.2399 175.53C47.9699 175.25 47.7099 174.97 47.4499 174.69L47.8699 174.3C48.1299 174.58 48.3899 174.86 48.6599 175.14L48.2399 175.54V175.53ZM46.6699 173.83C46.4099 173.54 46.1599 173.26 45.8999 172.97L46.3299 172.59C46.5799 172.88 46.8399 173.16 47.0899 173.45L46.6599 173.83H46.6699ZM45.1399 172.09C44.8899 171.8 44.6399 171.5 44.3899 171.21L44.8299 170.84C45.0799 171.13 45.3199 171.43 45.5699 171.72L45.1299 172.09H45.1399ZM43.6599 170.32C43.4199 170.02 43.1799 169.72 42.9399 169.42L43.3899 169.06C43.6299 169.36 43.8699 169.66 44.1099 169.96L43.6599 170.32ZM42.2299 168.51C41.9899 168.2 41.7599 167.9 41.5299 167.59L41.9899 167.24C42.2199 167.55 42.4499 167.85 42.6899 168.15L42.2399 168.5L42.2299 168.51ZM40.8399 166.66C40.6099 166.35 40.3899 166.04 40.1599 165.72L40.6299 165.39C40.8499 165.7 41.0799 166.01 41.2999 166.32L40.8399 166.66ZM39.4999 164.78C39.2799 164.46 39.0599 164.15 38.8499 163.83L39.3299 163.51C39.5399 163.83 39.7599 164.14 39.9799 164.46L39.5099 164.79L39.4999 164.78ZM38.2099 162.87C37.9999 162.55 37.7899 162.22 37.5799 161.9L38.0599 161.59C38.2699 161.91 38.4699 162.23 38.6799 162.55L38.1999 162.87H38.2099ZM36.9699 160.92C36.7699 160.59 36.5699 160.26 36.3699 159.93L36.8599 159.63C37.0599 159.96 37.2599 160.28 37.4599 160.61L36.9699 160.91V160.92ZM35.7799 158.94C35.5899 158.61 35.3899 158.27 35.1999 157.94L35.6999 157.66C35.8899 157.99 36.0799 158.32 36.2699 158.65L35.7699 158.94H35.7799ZM34.6399 156.93C34.4499 156.59 34.2699 156.25 34.0899 155.92L34.5999 155.65C34.7799 155.99 34.9599 156.32 35.1499 156.66L34.6499 156.94L34.6399 156.93ZM33.5499 154.9C33.3699 154.56 33.1999 154.22 33.0299 153.87L33.5399 153.61C33.7099 153.95 33.8899 154.29 34.0599 154.63L33.5499 154.89V154.9ZM32.5199 152.84C32.3499 152.49 32.1899 152.15 32.0199 151.8L32.5399 151.56C32.6999 151.91 32.8699 152.25 33.0299 152.59L32.5099 152.84H32.5199ZM31.5399 150.75C31.3799 150.4 31.2199 150.05 31.0699 149.7L31.5999 149.47C31.7499 149.82 31.9099 150.17 32.0699 150.52L31.5499 150.76L31.5399 150.75ZM30.6099 148.64C30.4599 148.29 30.3099 147.93 30.1699 147.58L30.6999 147.36C30.8399 147.71 30.9899 148.07 31.1399 148.42L30.6099 148.64ZM29.7399 146.51C29.5999 146.15 29.4599 145.79 29.3199 145.43L29.8599 145.23C29.9999 145.59 30.1299 145.94 30.2699 146.3L29.7399 146.51ZM28.9199 144.35C28.7899 143.99 28.6599 143.63 28.5299 143.27L29.0699 143.08C29.1999 143.44 29.3299 143.8 29.4599 144.16L28.9199 144.36V144.35ZM28.1499 142.17C28.0299 141.81 27.9099 141.44 27.7899 141.08L28.3399 140.9C28.4599 141.26 28.5799 141.63 28.6999 141.99L28.1599 142.17H28.1499ZM27.4399 139.98C27.3299 139.61 27.2099 139.24 27.1099 138.88L27.6599 138.72C27.7699 139.09 27.8799 139.45 27.9899 139.82L27.4399 139.99V139.98ZM26.7899 137.77C26.6899 137.4 26.5799 137.03 26.4799 136.66L27.0299 136.51C27.1299 136.88 27.2299 137.25 27.3299 137.61L26.7799 137.77H26.7899ZM26.1899 135.54C26.0899 135.17 25.9999 134.79 25.9099 134.42L26.4699 134.29C26.5599 134.66 26.6499 135.03 26.7499 135.4L26.1899 135.54ZM25.6499 133.3C25.5599 132.93 25.4799 132.55 25.3999 132.17L25.9599 132.05C26.0399 132.42 26.1199 132.8 26.2099 133.17L25.6499 133.3ZM25.1699 131.05C25.0899 130.67 25.0199 130.3 24.9499 129.92L25.5099 129.81C25.5799 130.18 25.6499 130.56 25.7299 130.93L25.1699 131.04V131.05ZM24.7399 128.79C24.6699 128.41 24.6099 128.03 24.5499 127.65L25.1199 127.56C25.1799 127.94 25.2499 128.31 25.3099 128.69L24.7399 128.79ZM24.3699 126.52C24.3099 126.14 24.2599 125.76 24.2099 125.38L24.7799 125.3C24.8299 125.68 24.8899 126.06 24.9399 126.43L24.3699 126.52ZM24.0599 124.24C24.0099 123.86 23.9699 123.48 23.9299 123.1L24.4999 123.04C24.5399 123.42 24.5899 123.8 24.6299 124.18L24.0599 124.25V124.24ZM23.8099 121.95C23.7699 121.57 23.7399 121.19 23.7099 120.8L24.2799 120.75C24.3099 121.13 24.3499 121.51 24.3799 121.89L23.8099 121.95ZM23.6199 119.66C23.5899 119.28 23.5699 118.89 23.5399 118.51L24.1099 118.48C24.1299 118.86 24.1599 119.24 24.1899 119.62L23.6199 119.66ZM23.4799 117.36C23.4599 116.98 23.4499 116.59 23.4299 116.21L23.9999 116.19C24.0099 116.57 24.0299 116.95 24.0499 117.33L23.4799 117.36ZM23.3999 115.06C23.3999 114.68 23.3899 114.29 23.3799 113.91H23.9499C23.9499 114.29 23.9499 114.67 23.9699 115.05H23.3999V115.06ZM23.9599 112.77H23.3899C23.3899 112.38 23.3899 112 23.3999 111.62H23.9699C23.9699 112.01 23.9599 112.39 23.9599 112.77ZM23.9999 110.48L23.4299 110.46C23.4399 110.08 23.4599 109.69 23.4699 109.31L24.0399 109.33C24.0199 109.71 24.0099 110.09 23.9999 110.47V110.48ZM24.0999 108.19L23.5299 108.16C23.5499 107.78 23.5699 107.39 23.5999 107.01L24.1699 107.05C24.1399 107.43 24.1199 107.81 24.0999 108.19ZM24.2599 105.91L23.6899 105.86C23.7199 105.48 23.7499 105.09 23.7899 104.71L24.3599 104.76C24.3199 105.14 24.2899 105.52 24.2599 105.9V105.91ZM24.4799 103.63L23.9099 103.57C23.9499 103.19 23.9899 102.81 24.0399 102.43L24.6099 102.5C24.5699 102.88 24.5199 103.26 24.4799 103.64V103.63ZM24.7499 101.36L24.1799 101.28C24.2299 100.9 24.2799 100.52 24.3399 100.14L24.9099 100.22C24.8499 100.6 24.7999 100.98 24.7499 101.35V101.36ZM25.0799 99.09L24.5099 99C24.5699 98.62 24.6299 98.24 24.6999 97.86L25.2699 97.96C25.1999 98.34 25.1399 98.71 25.0799 99.09ZM25.4699 96.84L24.9099 96.73C24.9799 96.35 25.0499 95.98 25.1299 95.6L25.6899 95.71C25.6199 96.08 25.5399 96.46 25.4699 96.83V96.84ZM25.9199 94.6L25.3599 94.48C25.4399 94.11 25.5199 93.73 25.6099 93.36L26.1699 93.49C26.0899 93.86 25.9999 94.24 25.9299 94.61L25.9199 94.6ZM26.4299 92.37L25.8699 92.24C25.9599 91.87 26.0499 91.5 26.1499 91.12L26.7099 91.26C26.6199 91.63 26.5299 92 26.4399 92.37H26.4299ZM26.9899 90.15L26.4299 90C26.5299 89.63 26.6299 89.26 26.7299 88.89L27.2799 89.04C27.1799 89.41 27.0799 89.78 26.9799 90.14L26.9899 90.15ZM27.6099 87.95L27.0599 87.79C27.1699 87.42 27.2799 87.05 27.3899 86.69L27.9399 86.86C27.8299 87.22 27.7199 87.59 27.6099 87.95ZM28.2799 85.76L27.7299 85.58C27.8499 85.22 27.9699 84.85 28.0899 84.49L28.6299 84.67C28.5099 85.03 28.3899 85.39 28.2699 85.76H28.2799ZM29.0099 83.59L28.4699 83.4C28.5999 83.04 28.7299 82.68 28.8599 82.32L29.3999 82.52C29.2699 82.88 29.1399 83.24 29.0099 83.6V83.59ZM29.7999 81.44L29.2599 81.24C29.3999 80.88 29.5299 80.52 29.6799 80.17L30.2099 80.38C30.0699 80.74 29.9299 81.09 29.7999 81.45V81.44ZM30.6399 79.31L30.1099 79.09C30.2599 78.74 30.3999 78.38 30.5499 78.03L31.0799 78.25C30.9299 78.6 30.7799 78.95 30.6399 79.31ZM31.5299 77.2L30.9999 76.97C31.1499 76.62 31.3099 76.27 31.4699 75.92L31.9899 76.16C31.8299 76.51 31.6799 76.86 31.5199 77.2H31.5299ZM32.4799 75.12L31.9599 74.88C32.1199 74.53 32.2899 74.19 32.4599 73.84L32.9799 74.09C32.8099 74.43 32.6499 74.78 32.4899 75.12H32.4799ZM33.4799 73.06L32.9699 72.8C33.1399 72.46 33.3199 72.11 33.4899 71.77L33.9999 72.03C33.8199 72.37 33.6499 72.71 33.4799 73.05V73.06ZM34.5299 71.02L34.0199 70.75C34.1999 70.41 34.3799 70.07 34.5699 69.73L35.0699 70.01C34.8899 70.34 34.6999 70.68 34.5199 71.02H34.5299ZM35.6299 69.01L35.1299 68.73C35.3199 68.39 35.5099 68.06 35.7099 67.73L36.2099 68.02C36.0199 68.35 35.8299 68.68 35.6399 69.02L35.6299 69.01ZM36.7799 67.03L36.2899 66.73C36.4899 66.4 36.6899 66.07 36.8899 65.74L37.3799 66.04C37.1799 66.36 36.9799 66.69 36.7799 67.02V67.03ZM37.9799 65.08L37.4899 64.77C37.6999 64.44 37.8999 64.12 38.1099 63.8L38.5899 64.11C38.3799 64.43 38.1699 64.75 37.9699 65.08H37.9799ZM39.2299 63.16L38.7499 62.84C38.9599 62.52 39.1799 62.2 39.3999 61.88L39.8699 62.21C39.6499 62.52 39.4399 62.84 39.2299 63.16ZM40.5299 61.27L40.0599 60.94C40.2799 60.63 40.5099 60.31 40.7299 60L41.1899 60.34C40.9599 60.65 40.7399 60.96 40.5199 61.27H40.5299ZM41.8799 59.41L41.4199 59.07C41.6499 58.76 41.8799 58.45 42.1199 58.15L42.5799 58.5C42.3499 58.8 42.1199 59.11 41.8899 59.41H41.8799ZM43.2799 57.59L42.8299 57.24C43.0699 56.94 43.3099 56.64 43.5499 56.34L43.9999 56.7C43.7599 57 43.5199 57.3 43.2799 57.6V57.59ZM44.7199 55.81L44.2799 55.44C44.5299 55.14 44.7699 54.85 45.0199 54.56L45.4599 54.93C45.2099 55.22 44.9699 55.51 44.7199 55.81ZM46.2099 54.06L45.7799 53.68C46.0299 53.39 46.2899 53.1 46.5499 52.82L46.9799 53.2C46.7299 53.48 46.4699 53.77 46.2199 54.06H46.2099ZM47.7399 52.35L47.3199 51.96C47.5799 51.68 47.8399 51.4 48.1099 51.12L48.5299 51.51C48.2699 51.79 48.0099 52.07 47.7499 52.35H47.7399ZM49.3099 50.68L48.8999 50.28C49.1699 50 49.4399 49.73 49.7099 49.46L50.1199 49.87C49.8499 50.14 49.5799 50.41 49.3199 50.69L49.3099 50.68ZM50.9299 49.05L50.5299 48.64C50.7999 48.37 51.0799 48.1 51.3599 47.84L51.7599 48.26C51.4799 48.52 51.2099 48.79 50.9399 49.06L50.9299 49.05ZM52.5899 47.47L52.1999 47.05C52.4799 46.79 52.7599 46.53 53.0499 46.27L53.4399 46.7C53.1599 46.96 52.8799 47.22 52.5999 47.48L52.5899 47.47ZM54.2899 45.93L53.9099 45.5C54.1999 45.24 54.4899 44.99 54.7799 44.74L55.1499 45.18C54.8599 45.43 54.5699 45.68 54.2899 45.93ZM56.0299 44.43L55.6599 43.99C55.9599 43.74 56.2499 43.5 56.5499 43.25L56.9099 43.7C56.6099 43.94 56.3199 44.19 56.0299 44.43ZM57.8099 42.98L57.4499 42.53C57.7499 42.29 58.0499 42.05 58.3599 41.82L58.7099 42.27C58.4099 42.5 58.1099 42.74 57.8099 42.98ZM59.6199 41.57L59.2699 41.11C59.5799 40.88 59.8899 40.65 60.1899 40.42L60.5299 40.88C60.2199 41.11 59.9199 41.34 59.6099 41.57H59.6199ZM61.4699 40.21L61.1399 39.74C61.4499 39.52 61.7699 39.29 62.0799 39.07L62.4099 39.54C62.0999 39.76 61.7799 39.98 61.4699 40.2V40.21ZM63.3499 38.9L63.0299 38.42L63.6499 38L63.9699 38.48L63.3499 38.89V38.9Z" fill="#001E2B"/>
<path d="M112.42 197.79L111.75 187.71L121.53 186.2" stroke="#001E2B" stroke-miterlimit="10"/>
<path d="M152.46 198.96C152.07 198.96 151.69 198.96 151.31 198.95V198.38C151.7 198.38 152.08 198.39 152.47 198.39V198.96H152.46ZM153.61 198.96V198.39C153.99 198.39 154.37 198.39 154.75 198.37V198.94C154.38 198.94 153.99 198.95 153.61 198.96ZM150.15 198.92C149.77 198.91 149.38 198.9 149 198.88L149.02 198.31C149.4 198.33 149.78 198.34 150.17 198.35L150.15 198.92ZM155.92 198.91L155.9 198.34C156.28 198.33 156.66 198.31 157.05 198.29L157.08 198.86C156.7 198.88 156.31 198.89 155.93 198.91H155.92ZM147.85 198.83C147.47 198.81 147.08 198.79 146.7 198.76L146.74 198.19C147.12 198.22 147.5 198.24 147.88 198.26L147.85 198.83ZM158.23 198.8L158.2 198.23C158.58 198.21 158.96 198.18 159.34 198.15L159.38 198.72C159 198.75 158.61 198.77 158.23 198.8ZM145.55 198.67C145.17 198.64 144.78 198.61 144.4 198.57L144.45 198C144.83 198.04 145.21 198.07 145.59 198.1L145.54 198.67H145.55ZM160.53 198.63L160.48 198.06C160.86 198.03 161.24 197.99 161.62 197.96L161.68 198.53C161.3 198.57 160.91 198.6 160.53 198.63ZM143.25 198.45C142.87 198.41 142.49 198.37 142.1 198.32L142.17 197.75C142.55 197.79 142.93 197.84 143.31 197.88L143.25 198.45ZM162.82 198.4L162.76 197.83C163.02 197.8 163.29 197.77 163.56 197.74L163.9 197.7L163.97 198.27L163.62 198.31C163.35 198.34 163.09 198.37 162.82 198.4ZM140.96 198.17C140.58 198.12 140.2 198.07 139.82 198.01L139.9 197.44C140.28 197.5 140.66 197.55 141.04 197.6L140.96 198.17ZM165.11 198.11L165.03 197.54C165.41 197.49 165.79 197.43 166.16 197.38L166.24 197.95C165.86 198.01 165.48 198.06 165.1 198.11H165.11ZM138.68 197.83C138.3 197.77 137.92 197.71 137.54 197.64L137.64 197.07C138.02 197.14 138.39 197.2 138.77 197.26L138.68 197.83ZM167.39 197.77L167.3 197.2C167.68 197.14 168.05 197.08 168.43 197.01L168.53 197.58C168.15 197.65 167.77 197.71 167.39 197.77ZM136.41 197.44C136.03 197.37 135.65 197.3 135.28 197.22L135.39 196.66C135.76 196.73 136.14 196.81 136.52 196.88L136.41 197.44ZM169.66 197.37L169.55 196.81C169.93 196.74 170.3 196.67 170.67 196.59L170.78 197.15C170.4 197.23 170.03 197.3 169.65 197.37H169.66ZM134.14 196.99C133.76 196.91 133.39 196.83 133.01 196.74L133.14 196.18C133.51 196.26 133.89 196.35 134.26 196.42L134.14 196.98V196.99ZM171.92 196.92L171.8 196.36C172.17 196.28 172.55 196.2 172.92 196.11L173.05 196.67C172.68 196.76 172.3 196.84 171.92 196.92ZM131.89 196.48C131.52 196.39 131.14 196.3 130.77 196.2L130.91 195.64C131.28 195.73 131.65 195.83 132.02 195.91L131.89 196.47V196.48ZM174.17 196.41L174.04 195.85C174.41 195.76 174.78 195.67 175.15 195.58L175.29 196.14C174.92 196.23 174.54 196.33 174.17 196.42V196.41ZM129.66 195.92C129.29 195.82 128.92 195.72 128.55 195.62L128.7 195.07C129.07 195.17 129.44 195.27 129.81 195.37L129.66 195.93V195.92ZM176.41 195.84L176.26 195.28C176.63 195.18 177 195.08 177.36 194.98L177.52 195.53C177.15 195.63 176.78 195.74 176.41 195.84ZM127.44 195.29C127.07 195.18 126.7 195.07 126.34 194.96L126.51 194.41C126.87 194.52 127.24 194.63 127.61 194.74L127.45 195.29H127.44ZM178.63 195.21L178.47 194.66C178.84 194.55 179.2 194.44 179.57 194.33L179.74 194.88C179.37 194.99 179.01 195.1 178.64 195.21H178.63ZM125.24 194.61C124.87 194.49 124.51 194.37 124.14 194.25L124.32 193.71C124.68 193.83 125.05 193.95 125.41 194.07L125.23 194.62L125.24 194.61ZM180.84 194.53L180.66 193.98C181.02 193.86 181.39 193.74 181.75 193.62L181.93 194.16C181.57 194.28 181.2 194.4 180.84 194.52V194.53ZM123.06 193.87C122.7 193.74 122.33 193.61 121.97 193.48L122.17 192.94C122.53 193.07 122.89 193.2 123.25 193.33L123.06 193.87ZM183.03 193.79L182.84 193.25C183.2 193.12 183.56 192.99 183.92 192.86L184.12 193.4C183.76 193.53 183.4 193.66 183.03 193.79ZM120.9 193.08C120.54 192.94 120.18 192.81 119.82 192.66L120.03 192.13C120.39 192.27 120.74 192.41 121.1 192.54L120.9 193.08ZM185.2 193L185 192.46C185.36 192.32 185.71 192.19 186.07 192.05L186.28 192.58C185.92 192.72 185.57 192.86 185.21 193H185.2ZM187.34 192.15L187.12 191.62C187.47 191.47 187.83 191.33 188.18 191.18L188.4 191.71C188.05 191.86 187.69 192.01 187.34 192.16V192.15ZM189.46 191.25L189.23 190.72C189.58 190.57 189.93 190.41 190.28 190.25L190.52 190.77C190.17 190.93 189.82 191.09 189.47 191.24L189.46 191.25ZM191.56 190.29L191.31 189.77C191.66 189.61 192 189.44 192.34 189.27L192.59 189.79C192.25 189.96 191.9 190.12 191.55 190.29H191.56ZM193.63 189.28L193.37 188.77C193.71 188.6 194.05 188.42 194.39 188.25L194.65 188.76C194.31 188.94 193.97 189.11 193.62 189.29L193.63 189.28ZM195.67 188.22L195.4 187.71C195.74 187.53 196.07 187.35 196.4 187.16L196.68 187.66C196.34 187.85 196.01 188.03 195.67 188.21V188.22ZM197.68 187.11L197.39 186.61C197.72 186.42 198.05 186.23 198.38 186.04L198.67 186.54C198.34 186.73 198.01 186.92 197.68 187.11ZM199.66 185.95L199.36 185.46C199.69 185.26 200.01 185.06 200.33 184.86L200.63 185.35C200.31 185.55 199.98 185.75 199.65 185.95H199.66ZM201.61 184.74L201.3 184.26C201.62 184.05 201.94 183.85 202.26 183.64L202.58 184.12C202.26 184.33 201.94 184.54 201.62 184.75L201.61 184.74ZM203.53 183.48L203.21 183C203.53 182.79 203.84 182.57 204.15 182.35L204.48 182.82C204.17 183.04 203.85 183.25 203.53 183.47V183.48ZM205.42 182.17L205.09 181.7C205.4 181.48 205.71 181.26 206.02 181.03L206.36 181.49C206.05 181.72 205.74 181.94 205.43 182.16L205.42 182.17ZM207.27 180.81L206.92 180.35C207.22 180.12 207.53 179.89 207.83 179.66L208.18 180.11C207.88 180.34 207.57 180.58 207.27 180.81ZM209.09 179.4L208.73 178.95C209.03 178.71 209.33 178.47 209.62 178.23L209.98 178.68C209.68 178.92 209.38 179.16 209.08 179.4H209.09ZM210.87 177.95L210.5 177.51C210.79 177.27 211.08 177.02 211.37 176.77L211.74 177.21C211.45 177.46 211.16 177.71 210.86 177.95H210.87ZM212.62 176.45L212.24 176.02C212.53 175.77 212.81 175.51 213.09 175.26L213.47 175.69C213.19 175.95 212.9 176.2 212.61 176.46L212.62 176.45ZM214.33 174.91L213.94 174.49C214.22 174.23 214.5 173.97 214.77 173.71L215.17 174.13C214.89 174.39 214.61 174.66 214.33 174.92V174.91ZM216 173.32L215.6 172.91C215.87 172.64 216.14 172.38 216.41 172.11L216.82 172.52C216.55 172.79 216.28 173.06 216 173.33V173.32ZM217.63 171.69L217.22 171.29C217.49 171.02 217.75 170.74 218.01 170.47L218.43 170.87C218.17 171.15 217.9 171.42 217.63 171.7V171.69ZM219.22 170.02L218.8 169.63C219.06 169.35 219.32 169.07 219.57 168.79L220 169.17C219.74 169.46 219.48 169.74 219.22 170.02ZM220.77 168.31L220.34 167.93C220.59 167.64 220.84 167.36 221.09 167.07L221.53 167.44C221.28 167.73 221.03 168.02 220.77 168.31ZM222.27 166.56L221.83 166.19C222.08 165.9 222.32 165.6 222.56 165.31L223.01 165.67C222.77 165.97 222.52 166.26 222.28 166.56H222.27ZM223.73 164.77L223.28 164.41C223.52 164.11 223.75 163.81 223.99 163.51L224.44 163.86C224.2 164.16 223.97 164.47 223.73 164.77ZM225.14 162.95L224.68 162.6C224.91 162.3 225.14 161.99 225.36 161.68L225.82 162.02C225.59 162.33 225.36 162.64 225.13 162.94L225.14 162.95ZM226.5 161.09L226.03 160.76C226.25 160.45 226.47 160.14 226.69 159.82L227.16 160.15C226.94 160.46 226.72 160.78 226.49 161.09H226.5ZM227.82 159.2L227.35 158.88C227.56 158.56 227.78 158.25 227.99 157.93L228.47 158.25C228.26 158.57 228.05 158.89 227.83 159.21L227.82 159.2ZM229.09 157.27L228.61 156.96C228.82 156.64 229.02 156.32 229.22 155.99L229.71 156.29C229.51 156.62 229.3 156.94 229.09 157.27ZM230.31 155.31L229.82 155.01C230.02 154.68 230.21 154.36 230.41 154.03L230.9 154.32C230.7 154.65 230.51 154.98 230.31 155.31ZM231.48 153.32L230.98 153.03C231.17 152.7 231.36 152.37 231.54 152.03L232.04 152.31C231.85 152.65 231.66 152.98 231.47 153.32H231.48ZM232.6 151.3L232.09 151.03C232.27 150.69 232.45 150.36 232.63 150.02L233.14 150.29C232.96 150.63 232.78 150.97 232.6 151.31V151.3ZM233.67 149.25L233.16 148.99C233.33 148.65 233.5 148.31 233.67 147.96L234.19 148.21C234.02 148.56 233.85 148.9 233.67 149.24V149.25ZM234.69 147.18L234.17 146.93C234.33 146.58 234.5 146.24 234.66 145.89L235.18 146.13C235.02 146.48 234.86 146.83 234.69 147.18ZM235.65 145.08L235.12 144.85C235.28 144.5 235.43 144.15 235.58 143.8L236.11 144.03C235.96 144.38 235.8 144.74 235.65 145.09V145.08ZM236.56 142.96L236.03 142.74C236.18 142.39 236.32 142.03 236.46 141.68L236.99 141.89C236.85 142.25 236.7 142.61 236.56 142.96ZM237.42 140.81L236.88 140.6C237.02 140.24 237.15 139.88 237.28 139.53L237.82 139.73C237.69 140.09 237.55 140.45 237.41 140.81H237.42ZM238.22 138.64L237.68 138.45C237.81 138.09 237.93 137.73 238.06 137.37L238.6 137.56C238.48 137.92 238.35 138.29 238.22 138.65V138.64ZM238.96 136.45L238.41 136.27C238.53 135.91 238.64 135.54 238.76 135.18L239.31 135.35C239.19 135.72 239.08 136.09 238.96 136.45ZM239.65 134.24L239.1 134.08C239.21 133.71 239.32 133.35 239.42 132.98L239.97 133.14C239.86 133.51 239.76 133.88 239.65 134.25V134.24ZM240.28 132.02L239.73 131.87C239.83 131.5 239.93 131.13 240.02 130.76L240.58 130.9C240.48 131.27 240.39 131.65 240.29 132.02H240.28ZM240.85 129.78L240.29 129.65C240.38 129.28 240.47 128.9 240.55 128.53L241.11 128.66C241.02 129.04 240.94 129.41 240.85 129.79V129.78ZM241.37 127.52L240.81 127.4C240.89 127.03 240.97 126.65 241.05 126.27L241.61 126.38C241.53 126.76 241.45 127.14 241.37 127.51V127.52ZM241.83 125.25L241.27 125.14C241.34 124.76 241.41 124.39 241.48 124.01L242.05 124.11C241.98 124.49 241.91 124.87 241.84 125.25H241.83ZM242.23 122.97L241.66 122.88C241.72 122.5 241.78 122.13 241.84 121.75L242.41 121.83C242.35 122.21 242.29 122.59 242.23 122.97ZM242.57 120.69L242 120.61C242.05 120.23 242.1 119.85 242.15 119.47L242.72 119.54C242.67 119.92 242.62 120.3 242.57 120.68V120.69ZM242.85 118.4L242.28 118.34C242.32 117.96 242.36 117.58 242.4 117.2L242.97 117.25C242.93 117.63 242.89 118.02 242.85 118.4ZM243.07 116.11L242.5 116.06C242.53 115.68 242.56 115.3 242.59 114.92L243.16 114.96C243.13 115.34 243.1 115.73 243.07 116.11ZM243.23 113.81L242.66 113.78C242.68 113.4 242.7 113.02 242.72 112.64L243.29 112.67C243.27 113.05 243.25 113.44 243.23 113.82V113.81ZM243.33 111.51L242.76 111.49C242.77 111.11 242.78 110.73 242.79 110.34H243.36C243.36 110.74 243.34 111.12 243.33 111.5V111.51ZM243.37 109.2H242.8V108.05H243.37V109.2ZM242.78 106.91C242.78 106.53 242.76 106.15 242.75 105.76L243.32 105.74C243.33 106.12 243.34 106.51 243.35 106.89H242.78V106.91ZM242.71 104.63C242.69 104.25 242.67 103.87 242.65 103.49L243.22 103.46C243.24 103.84 243.26 104.23 243.28 104.61L242.71 104.64V104.63ZM242.58 102.34C242.55 101.96 242.53 101.58 242.49 101.2L243.06 101.15C243.09 101.53 243.12 101.92 243.15 102.3L242.58 102.34ZM242.39 100.06C242.35 99.68 242.32 99.3 242.27 98.92L242.84 98.86C242.88 99.24 242.92 99.63 242.96 100.01L242.39 100.06ZM242.15 97.78C242.1 97.4 242.06 97.02 242.01 96.64L242.58 96.56C242.63 96.94 242.68 97.32 242.72 97.7L242.15 97.77V97.78ZM241.85 95.51C241.8 95.13 241.74 94.75 241.68 94.38L242.25 94.29C242.31 94.67 242.37 95.05 242.42 95.43L241.85 95.51Z" fill="#001E2B"/>
<path d="M90.4398 155.38H3.75977V168.08H90.4398V155.38Z" fill="#001E2B" stroke="#001E2B" stroke-miterlimit="10"/>
<path d="M47.0998 211.42C71.0358 211.42 90.4398 192.016 90.4398 168.08C90.4398 144.144 71.0358 124.74 47.0998 124.74C23.1637 124.74 3.75977 144.144 3.75977 168.08C3.75977 192.016 23.1637 211.42 47.0998 211.42Z" fill="#001E2B" stroke="#001E2B" stroke-miterlimit="10"/>
<path d="M47.0998 198.72C71.0358 198.72 90.4398 179.316 90.4398 155.38C90.4398 131.444 71.0358 112.04 47.0998 112.04C23.1637 112.04 3.75977 131.444 3.75977 155.38C3.75977 179.316 23.1637 198.72 47.0998 198.72Z" fill="white" stroke="#001E2B" stroke-miterlimit="10"/>
<path d="M45.89 161.88C54.5277 161.88 61.53 154.878 61.53 146.24C61.53 137.602 54.5277 130.6 45.89 130.6C37.2523 130.6 30.25 137.602 30.25 146.24C30.25 154.878 37.2523 161.88 45.89 161.88Z" fill="#00ED64" stroke="#001E2B" stroke-miterlimit="10"/>
<path d="M73.5597 188.73C66.0497 194.99 56.4097 198.73 45.8997 198.73C35.3897 198.73 25.7397 194.99 18.2397 188.73C20.9297 175.91 32.2897 166.28 45.8997 166.28C59.5097 166.28 70.8797 175.9 73.5597 188.73Z" fill="#00ED64" stroke="#001E2B" stroke-miterlimit="10"/>
<path d="M20.8399 86.8199H56.3299C60.0499 86.8199 63.0699 89.8399 63.0699 93.5599V115.03C63.0699 118.75 60.0499 121.77 56.3299 121.77H40.7599V127.45L33.6899 121.77H20.8499C17.1299 121.77 14.1099 118.75 14.1099 115.03V93.5599C14.1099 89.8399 17.1299 86.8199 20.8499 86.8199H20.8399Z" fill="#001E2B" stroke="#001E2B" stroke-miterlimit="10"/>
<path d="M18.5698 85.27H54.0598C57.7798 85.27 60.7998 88.29 60.7998 92.01V113.48C60.7998 117.2 57.7798 120.22 54.0598 120.22H38.4898V125.9L31.4198 120.22H18.5798C14.8598 120.22 11.8398 117.2 11.8398 113.48V92.01C11.8398 88.29 14.8598 85.27 18.5798 85.27H18.5698Z" fill="#00ED64" stroke="#001E2B" stroke-miterlimit="10"/>
<path d="M48.3798 105.57C49.5506 105.57 50.4998 104.621 50.4998 103.45C50.4998 102.279 49.5506 101.33 48.3798 101.33C47.2089 101.33 46.2598 102.279 46.2598 103.45C46.2598 104.621 47.2089 105.57 48.3798 105.57Z" fill="#00D2FF" stroke="#001E2B" stroke-miterlimit="10"/>
<path d="M36.3197 105.57C37.4905 105.57 38.4397 104.621 38.4397 103.45C38.4397 102.279 37.4905 101.33 36.3197 101.33C35.1489 101.33 34.1997 102.279 34.1997 103.45C34.1997 104.621 35.1489 105.57 36.3197 105.57Z" fill="#00D2FF" stroke="#001E2B" stroke-miterlimit="10"/>
<path d="M24.2596 105.57C25.4305 105.57 26.3796 104.621 26.3796 103.45C26.3796 102.279 25.4305 101.33 24.2596 101.33C23.0888 101.33 22.1396 102.279 22.1396 103.45C22.1396 104.621 23.0888 105.57 24.2596 105.57Z" fill="#00D2FF" stroke="#001E2B" stroke-miterlimit="10"/>
<path d="M225.54 234.71C235.82 234.71 244.19 226.34 244.19 216.06C244.19 205.78 235.82 197.41 225.54 197.41V206.44C230.85 206.44 235.16 210.76 235.16 216.06C235.16 221.36 230.84 225.68 225.54 225.68V234.71Z" fill="#001E2B" stroke="#001E2B" stroke-linecap="round" stroke-linejoin="round"/>
<path d="M229.38 230.86C239.66 230.86 248.03 222.49 248.03 212.21C248.03 201.93 239.66 193.56 229.38 193.56V202.59C234.69 202.59 239 206.91 239 212.21C239 217.51 234.68 221.83 229.38 221.83V230.86Z" fill="white" stroke="#001E2B" stroke-linecap="round" stroke-linejoin="round"/>
<path d="M41.8497 55.99H30.4697V67.37H41.8497V55.99Z" fill="#001E2B" stroke="#001E2B" stroke-linecap="round" stroke-linejoin="round"/>
<path d="M38.3995 52.5399H27.0195V63.9199H38.3995V52.5399Z" fill="white" stroke="#001E2B" stroke-linecap="round" stroke-linejoin="round"/>
<path d="M245.98 77.17H190.18V85.34H245.98V77.17Z" fill="#001E2B" stroke="#001E2B" stroke-miterlimit="10"/>
<path d="M218.08 113.25C233.488 113.25 245.98 100.759 245.98 85.3501C245.98 69.9413 233.488 57.4501 218.08 57.4501C202.671 57.4501 190.18 69.9413 190.18 85.3501C190.18 100.759 202.671 113.25 218.08 113.25Z" fill="#001E2B" stroke="#001E2B" stroke-miterlimit="10"/>
<path d="M218.08 105.07C233.488 105.07 245.98 92.5788 245.98 77.17C245.98 61.7613 233.488 49.27 218.08 49.27C202.671 49.27 190.18 61.7613 190.18 77.17C190.18 92.5788 202.671 105.07 218.08 105.07Z" fill="white" stroke="#001E2B" stroke-miterlimit="10"/>
<path d="M218.08 81.36C223.641 81.36 228.15 76.8515 228.15 71.29C228.15 65.7285 223.641 61.22 218.08 61.22C212.518 61.22 208.01 65.7285 208.01 71.29C208.01 76.8515 212.518 81.36 218.08 81.36Z" fill="#00ED64" stroke="#001E2B" stroke-miterlimit="10"/>
<path d="M235.89 98.64C231.06 102.67 224.85 105.08 218.08 105.08C211.31 105.08 205.1 102.67 200.27 98.64C202 90.39 209.31 84.19 218.08 84.19C226.85 84.19 234.16 90.39 235.89 98.64Z" fill="#00ED64" stroke="#001E2B" stroke-miterlimit="10"/>
<path d="M175.88 19.6599H214.57C218.63 19.6599 221.91 22.9499 221.91 26.9999V50.4099C221.91 54.4699 218.62 57.7499 214.57 57.7499H197.59V63.9399L189.88 57.7499H175.88C171.82 57.7499 168.54 54.4599 168.54 50.4099V27.0099C168.54 22.9499 171.83 19.6699 175.88 19.6699V19.6599Z" fill="#001E2B" stroke="#001E2B" stroke-miterlimit="10"/>
<path d="M173.41 17.97H212.1C216.16 17.97 219.44 21.26 219.44 25.31V48.72C219.44 52.78 216.15 56.06 212.1 56.06H195.12V62.25L187.41 56.06H173.41C169.35 56.06 166.07 52.77 166.07 48.72V25.32C166.07 21.26 169.36 17.98 173.41 17.98V17.97Z" fill="#00ED64" stroke="#001E2B" stroke-miterlimit="10"/>
<path d="M211.73 27.0799H173.77C173.21 27.0799 172.75 26.6299 172.75 26.0599V25.9299C172.75 25.3699 173.2 24.9099 173.77 24.9099H211.73C212.29 24.9099 212.75 25.3599 212.75 25.9299V26.0599C212.75 26.6199 212.3 27.0799 211.73 27.0799Z" fill="#00D2FF" stroke="#001E2B" stroke-miterlimit="10"/>
<path d="M211.73 48.2099H173.77C173.21 48.2099 172.75 47.7599 172.75 47.1899V47.0599C172.75 46.4999 173.2 46.0399 173.77 46.0399H211.73C212.29 46.0399 212.75 46.4899 212.75 47.0599V47.1899C212.75 47.7499 212.3 48.2099 211.73 48.2099Z" fill="#00D2FF" stroke="#001E2B" stroke-miterlimit="10"/>
<path d="M193.84 34.13H173.77C173.21 34.13 172.75 33.68 172.75 33.11V32.98C172.75 32.42 173.2 31.96 173.77 31.96H193.84C194.4 31.96 194.86 32.41 194.86 32.98V33.11C194.86 33.67 194.41 34.13 193.84 34.13Z" fill="#00D2FF" stroke="#001E2B" stroke-miterlimit="10"/>
<path d="M211.73 34.13H200.99C200.43 34.13 199.97 33.68 199.97 33.11V32.98C199.97 32.42 200.42 31.96 200.99 31.96H211.73C212.29 31.96 212.75 32.41 212.75 32.98V33.11C212.75 33.67 212.3 34.13 211.73 34.13Z" fill="#00D2FF" stroke="#001E2B" stroke-miterlimit="10"/>
<path d="M211.73 41.17H191.66C191.1 41.17 190.64 40.72 190.64 40.15V40.02C190.64 39.46 191.09 39 191.66 39H211.73C212.29 39 212.75 39.45 212.75 40.02V40.15C212.75 40.71 212.3 41.17 211.73 41.17Z" fill="#00D2FF" stroke="#001E2B" stroke-miterlimit="10"/>
<path d="M186.95 41.17H176.21C175.65 41.17 175.19 40.72 175.19 40.15V40.02C175.19 39.46 175.64 39 176.21 39H186.95C187.51 39 187.97 39.45 187.97 40.02V40.15C187.97 40.71 187.52 41.17 186.95 41.17Z" fill="#00D2FF" stroke="#001E2B" stroke-miterlimit="10"/>
</svg>
