<svg id="dh_-_speakers" data-name="dh - speakers" xmlns="http://www.w3.org/2000/svg" xmlns:xlink="http://www.w3.org/1999/xlink" viewBox="0 0 258 258"><defs><linearGradient id="linear-gradient" x1="2282.22799" y1="56.31201" x2="2348.11569" y2="56.31201" gradientTransform="matrix(-1, 0, 0, 1, 2507.36764, 0)" gradientUnits="userSpaceOnUse"><stop offset="0" stop-color="#7dc5db"/><stop offset="1" stop-color="#6e60f9"/></linearGradient><linearGradient id="linear-gradient-2" x1="2279.13376" y1="79.35454" x2="2279.13376" y2="66.55591" xlink:href="#linear-gradient"/><linearGradient id="linear-gradient-3" x1="2275.53982" y1="55.23962" x2="2314.74061" y2="55.23962" xlink:href="#linear-gradient"/><linearGradient id="linear-gradient-4" x1="2275.03952" y1="49.91309" x2="2348.11569" y2="49.91309" xlink:href="#linear-gradient"/><linearGradient id="linear-gradient-5" x1="181.26835" y1="82.76681" x2="206.70162" y2="82.76681" gradientUnits="userSpaceOnUse"><stop offset="0" stop-color="#d24f93"/><stop offset="1" stop-color="#f87216"/></linearGradient><linearGradient id="linear-gradient-6" x1="181.26835" y1="85.1329" x2="202.82841" y2="85.1329" xlink:href="#linear-gradient-5"/><linearGradient id="linear-gradient-7" x1="30.87802" y1="63.64758" x2="89.89426" y2="63.64758" gradientUnits="userSpaceOnUse"><stop offset="0" stop-color="#f87216"/><stop offset="1" stop-color="#d24f93"/></linearGradient><linearGradient id="linear-gradient-8" x1="27.60932" y1="84.60475" x2="27.60932" y2="72.96433" xlink:href="#linear-gradient-5"/><linearGradient id="linear-gradient-9" x1="24.34062" y1="62.67211" x2="59.99394" y2="62.67211" xlink:href="#linear-gradient-5"/><linearGradient id="linear-gradient-10" x1="24.34062" y1="57.82737" x2="89.89425" y2="57.82737" xlink:href="#linear-gradient-5"/><linearGradient id="linear-gradient-11" x1="51.82253" y1="96.87266" x2="57.35964" y2="96.87266" gradientUnits="userSpaceOnUse"><stop offset="0" stop-color="#6e60f9"/><stop offset="1" stop-color="#7dc5db"/></linearGradient><linearGradient id="linear-gradient-12" x1="56.35964" y1="97.48691" x2="77.9056" y2="97.48691" gradientTransform="matrix(1, 0, 0, 1, 0, 0)" xlink:href="#linear-gradient"/><linearGradient id="linear-gradient-13" x1="98.15525" y1="99.13842" x2="165.53677" y2="99.13842" gradientUnits="userSpaceOnUse"><stop offset="0" stop-color="#7accda"/><stop offset="1" stop-color="#0ad05b"/></linearGradient><linearGradient id="linear-gradient-14" x1="88.33424" y1="404.18396" x2="155.71575" y2="404.18396" gradientTransform="matrix(1, 0.62629, 0, 1, -0.00183, -389.68247)" gradientUnits="userSpaceOnUse"><stop offset="0" stop-color="#0ad05b"/><stop offset="1" stop-color="#7accda"/></linearGradient><linearGradient id="linear-gradient-15" x1="119.42373" y1="469.10632" x2="127.78612" y2="469.10632" xlink:href="#linear-gradient-14"/><linearGradient id="linear-gradient-16" x1="121.67488" y1="403.59118" x2="155.71575" y2="403.59118" xlink:href="#linear-gradient-14"/><linearGradient id="linear-gradient-17" x1="55.13996" y1="829.27348" x2="89.01429" y2="829.27348" gradientTransform="matrix(1.00506, 0.55205, 0, 1, -6.2564, -679.27634)" xlink:href="#linear-gradient"/><linearGradient id="linear-gradient-18" x1="50.53339" y1="831.62641" x2="83.88393" y2="831.62641" gradientTransform="matrix(1.00506, 0.55205, 0, 1, -6.2564, -679.27634)" xlink:href="#linear-gradient-11"/><linearGradient id="linear-gradient-19" x1="2180.42212" y1="-375.06024" x2="2213.3013" y2="-375.06024" gradientTransform="matrix(-1.00506, 0.55205, 0, 1, 2392.4561, -679.27634)" xlink:href="#linear-gradient-5"/><linearGradient id="linear-gradient-20" x1="2175.81597" y1="-372.70747" x2="2208.17147" y2="-372.70747" gradientTransform="matrix(-1.00506, 0.55205, 0, 1, 2392.4561, -679.27634)" xlink:href="#linear-gradient-7"/></defs><polygon points="159.752 41.891 159.519 101.191 224.407 138.654 224.64 79.355 159.752 41.891" fill="#21313c" stroke="#0c1c27" stroke-linecap="round" stroke-linejoin="round"/><polygon points="224.407 138.654 231.595 134.477 231.763 75.215 224.64 79.355 224.407 138.654" fill="#21313c" stroke="#0c1c27" stroke-linecap="round" stroke-linejoin="round"/><path d="M224.63965,79.85449a.49794.49794,0,0,1-.25-.06738L159.502,42.32422a.49959.49959,0,0,1-.25-.43262V33.26953a.49946.49946,0,0,1,.75-.43262l64.8877,37.46387a.49957.49957,0,0,1,.25.43262v8.62109a.50093.50093,0,0,1-.5.5Z" fill="url(#linear-gradient)"/><path d="M159.75171,33.26953l64.88818,37.46338v8.62158L159.75171,41.89111V33.26953m0-1a.99956.99956,0,0,0-1,1v8.62158a1.00009,1.00009,0,0,0,.5.86621L224.13989,80.2207a1,1,0,0,0,1.5-.86621V70.73291a1.0001,1.0001,0,0,0-.5-.86621L160.25171,32.40332a.99871.99871,0,0,0-.5-.13379Z" fill="#0c1c27"/><polyline points="224.64 70.733 231.828 66.556 231.763 75.215 224.64 79.355 224.64 70.733" stroke="#0c1c27" stroke-linecap="round" stroke-linejoin="round" fill="url(#linear-gradient-2)"/><path d="M192.627,43.92334l39.20079,22.63257" stroke="#0c1c27" stroke-linecap="round" stroke-linejoin="round" fill="url(#linear-gradient-3)"/><path d="M224.63965,71.2334a.49794.49794,0,0,1-.25-.06738L159.502,33.70215a.4998.4998,0,0,1-.001-.86524l7.1875-4.17675a.49921.49921,0,0,1,.501,0l64.88867,37.46289a.4998.4998,0,0,1,.001.86523L224.89062,71.166A.49879.49879,0,0,1,224.63965,71.2334Z" fill="url(#linear-gradient-4)"/><path d="M166.93945,29.09277l64.88831,37.46338-7.18787,4.17676L159.75171,33.26953l7.18774-4.17676m0-1a.99865.99865,0,0,0-.50244.13526l-7.18774,4.17676a1.00027,1.00027,0,0,0,.00244,1.731l64.88818,37.46338a1.001,1.001,0,0,0,1.00244-.00146l7.18787-4.17676a1.00028,1.00028,0,0,0-.00244-1.731L167.43945,28.22656a.99881.99881,0,0,0-.5-.13379Z" fill="#0c1c27"/><polygon points="185.142 67.092 206.702 94.954 202.828 97.482 184.615 98.441 181.268 69.621 185.142 67.092" stroke="#0c1c27" stroke-linecap="round" stroke-linejoin="round" fill="url(#linear-gradient-5)"/><polygon points="181.268 69.621 202.828 97.482 181.268 100.645 181.268 69.621" stroke="#0c1c27" stroke-linecap="round" stroke-linejoin="round" fill="url(#linear-gradient-6)"/><polygon points="89.894 50.532 90.106 104.465 31.09 138.538 30.878 84.605 89.894 50.532" fill="#21313c" stroke="#0c1c27" stroke-linecap="round" stroke-linejoin="round"/><polygon points="31.09 138.538 24.552 134.739 24.399 80.84 30.878 84.605 31.09 138.538" fill="#21313c" stroke="#0c1c27" stroke-linecap="round" stroke-linejoin="round"/><polygon points="30.878 76.763 89.894 42.69 89.894 50.532 30.878 84.605 30.878 76.763" stroke="#0c1c27" stroke-linecap="round" stroke-linejoin="round" fill="url(#linear-gradient-7)"/><polyline points="30.878 76.763 24.341 72.964 24.399 80.84 30.878 84.605 30.878 76.763" stroke="#0c1c27" stroke-linecap="round" stroke-linejoin="round" fill="url(#linear-gradient-8)"/><path d="M59.99394,52.37989,24.34062,72.96433" stroke="#0c1c27" stroke-linecap="round" stroke-linejoin="round" fill="url(#linear-gradient-9)"/><polygon points="89.894 42.69 83.357 38.891 24.341 72.964 30.878 76.763 89.894 42.69" stroke="#0c1c27" stroke-linecap="round" stroke-linejoin="round" fill="url(#linear-gradient-10)"/><path d="M56.85964,113.172a.4961.4961,0,0,1-.21972-.05078l-4.53711-2.21484a.50082.50082,0,0,1-.28028-.44922V81.07334a.49951.49951,0,0,1,.63086-.48242l4.53711,1.22851a.49965.49965,0,0,1,.36914.48242V112.672a.50087.50087,0,0,1-.5.5Z" fill="url(#linear-gradient-11)"/><path d="M52.32205,81.07383l4.53723,1.22754V112.672l-4.53723-2.21484V81.07383m0-1a1.00029,1.00029,0,0,0-1,1v29.3833a.99947.99947,0,0,0,.56128.89844l4.53723,2.21484a.99981.99981,0,0,0,1.43872-.89844V82.30137a1.00031,1.00031,0,0,0-.73889-.96534l-4.53724-1.22754a.9931.9931,0,0,0-.2611-.03466Z" fill="#0c1c27"/><path d="M56.85964,113.172a.49272.49272,0,0,1-.17089-.03027.5.5,0,0,1-.32911-.46973V82.30185a.5.5,0,0,1,.5-.5.47853.47853,0,0,1,.1377.01954l20.5459,5.876a.499.499,0,0,1,.24511.80176L57.24246,112.99326A.50061.50061,0,0,1,56.85964,113.172Z" fill="url(#linear-gradient-12)"/><path d="M56.85928,82.30137l20.54663,5.87695L56.85928,112.672V82.30137m0-1a1.00024,1.00024,0,0,0-1,1V112.672a.99993.99993,0,0,0,1.76611.64258L78.172,88.8209a.99983.99983,0,0,0-.49109-1.604l-20.54663-5.877a.99932.99932,0,0,0-.275-.03857Z" fill="#0c1c27"/><polygon points="241.871 161.867 241.871 176.654 127.198 241.511 13.932 176.117 13.932 161.33 241.871 161.867" fill="#21313c" stroke="#0c1c27" stroke-linecap="round" stroke-linejoin="round"/><polygon points="127.198 95.936 241.871 161.867 127.198 226.724 13.932 161.33 127.198 95.936" fill="#21313c" stroke="#0c1c27" stroke-linecap="round" stroke-linejoin="round"/><line x1="127.19819" y1="226.72382" x2="127.19819" y2="241.51067" fill="#21313c" stroke="#0c1c27" stroke-linecap="round" stroke-linejoin="round"/><path d="M164.343,102.59785c-7.90826-39.84264-24.39451-59.45462-28.5989-68.65634-2.28757-5.00638-4.59609-11.87962-4.59609-11.87962l-9.82285,2.03086,1.51162,58.99339L98.23253,71.52c-1.76263,35.857,27.174,76.77457,31.00353,81.528l.02207.02318-.01339-.00608s-5.59342,13.3931-4.74942,23.14988l9.82286-4.06172a67.15866,67.15866,0,0,1,3.28849-15.22774C151.53544,156.02285,170.4976,142.41593,164.343,102.59785Z" stroke="#0c1c27" stroke-linecap="round" stroke-linejoin="round" fill="url(#linear-gradient-13)"/><path d="M154.52023,104.62876C146.612,64.78608,130.12571,45.174,125.9213,35.97241c-2.28756-5.00647-4.59608-11.87972-4.59608-11.87972-.22552,2.93987-.63009,4.65881-3.2679,5.358-5.2895,1.402-27.75636,5.64244-29.64764,44.10015-1.76262,35.857,27.17405,76.77458,31.0035,81.528,2.93826,3.28347,6.518,4.11015,8.27074,3.88493,13.93769-.84405,33.00546-14.42207,26.83631-54.335" stroke="#0c1c27" stroke-linecap="round" stroke-linejoin="round" fill="url(#linear-gradient-14)"/><path d="M122.523,137.34118c-.72753,8.69475-1.249,13.69432-3.10111,17.75469,0,0,1.21474,9.46732,2.0587,19.224l3.01471,1.895a119.65622,119.65622,0,0,1,3.289-17.26013C123.892,154.595,122.67141,145.46115,122.523,137.34118Z" stroke="#0c1c27" stroke-linecap="round" stroke-linejoin="round" fill="url(#linear-gradient-15)"/><path d="M127.79176,158.95944l-.00748-.00468c-3.9439-4.2927-5.08516-13.54638-5.26128-21.61358a359.66407,359.66407,0,0,0,.85-38.90745c-.20642-7.02928.09984-63.86052-1.69992-73.33516.72768,2.08694,2.48892,7.02677,4.25016,10.87147,4.20454,9.204,20.69252,28.81971,28.59566,68.66019C160.6761,144.44177,141.722,158.04983,127.79176,158.95944Z" stroke="#0c1c27" stroke-linecap="round" stroke-linejoin="round" fill="url(#linear-gradient-16)"/><path d="M67.44629,213.42773a.51658.51658,0,0,1-.13867-.01953.49748.49748,0,0,1-.30567-.25195l-7.67773-14.91406a.48781.48781,0,0,1-.05567-.22852V184.36133l-9.84667-5.40821a.50024.50024,0,0,1-.06934-.83105l11.62988-9.15723a.49152.49152,0,0,1,.17285-.08789l5.64551-1.60449a.47708.47708,0,0,1,.13672-.01953.50122.50122,0,0,1,.44141.26465l15.7705,29.61133a.50053.50053,0,0,1-.22168.68457l-5.15625,2.52441a.50012.50012,0,0,1-.64746-.19043l-4.54882-7.52832v17.56934a.50288.50288,0,0,1-.24512.43066l-4.62891,2.73926A.50247.50247,0,0,1,67.44629,213.42773Z" fill="url(#linear-gradient-17)"/><path d="M66.9375,167.75293l15.77,29.61182-5.15576,2.52343-5.47644-9.063V210.189l-4.62952,2.73829-7.67773-14.91358V184.06543l-10.106-5.55078,11.63025-9.15674,5.64514-1.605m.00012-1a.99675.99675,0,0,0-.27356.03809l-5.64514,1.605a1.00209,1.00209,0,0,0-.34521.17627L49.04346,177.729a1,1,0,0,0,.1372,1.66211l9.58741,5.26612v13.35644a.99938.99938,0,0,0,.11084.45752l7.67785,14.91358a1.00014,1.00014,0,0,0,1.3982.40332l4.62951-2.73829a1.00053,1.00053,0,0,0,.49085-.86084V194.41357l3.6206,5.9917a.99922.99922,0,0,0,1.29541.38086l5.15576-2.52343a.99968.99968,0,0,0,.44312-1.36817l-15.77-29.61182a1,1,0,0,0-.88257-.52978Z" fill="#0c1c27"/><path d="M67.44629,213.42773a.50336.50336,0,0,1-.24121-.06152l-12.30762-6.76074a.50123.50123,0,0,1-.25879-.43848V187.87305L44.792,182.46484a.5007.5007,0,0,1-.06738-.833l16.25977-12.669a.49938.49938,0,0,1,.30761-.10547.5425.5425,0,0,1,.10449.01074.50379.50379,0,0,1,.33692.25391l16.25976,30.53125a.50025.50025,0,0,1-.4414.73535.50915.50915,0,0,1-.24121-.06152l-9.36426-5.14551v17.74609a.50168.50168,0,0,1-.24512.43067A.50778.50778,0,0,1,67.44629,213.42773Z" fill="url(#linear-gradient-18)"/><path d="M61.29236,169.35791l16.2594,30.53027-10.106-5.55078v18.58985l-12.30713-6.75977V187.57715l-10.106-5.55078,16.25965-12.66846m0-1a1.00216,1.00216,0,0,0-.61463.21094L44.41809,181.2373a1.00021,1.00021,0,0,0,.13318,1.66553l9.5874,5.26612v17.99853a1.00026,1.00026,0,0,0,.51856.87647l12.30713,6.75976a.99983.99983,0,0,0,1.48144-.87646V196.02734l8.62451,4.73731a1.00008,1.00008,0,0,0,1.364-1.34668L62.17493,168.8877a1.00046,1.00046,0,0,0-.88257-.52979Z" fill="#0c1c27"/><polygon points="167.963 166.023 183.733 136.411 189.378 138.016 201.008 147.173 190.902 152.724 190.902 166.672 183.225 181.585 178.595 178.847 178.595 159.484 173.119 168.546 167.963 166.023" stroke="#0c1c27" stroke-linecap="round" stroke-linejoin="round" fill="url(#linear-gradient-19)"/><polygon points="173.119 168.546 189.378 138.016 205.638 150.685 195.532 156.236 195.532 174.526 183.225 181.585 183.225 162.996 173.119 168.546" stroke="#0c1c27" stroke-linecap="round" stroke-linejoin="round" fill="url(#linear-gradient-20)"/></svg>