<svg width="258" height="258" viewBox="0 0 258 258" fill="none" xmlns="http://www.w3.org/2000/svg">
<path d="M117.67 96.89H118.18V97.71H117.67V96.89ZM117.67 94.84H118.18V95.87H117.67V94.84ZM117.67 92.79H118.18V93.82H117.67V92.79ZM117.67 90.74H118.18V91.77H117.67V90.74ZM117.67 88.69H118.18V89.72H117.67V88.69ZM117.67 86.64H118.18V87.67H117.67V86.64ZM117.67 84.59H118.18V85.62H117.67V84.59ZM117.67 82.54H118.18V83.57H117.67V82.54ZM117.67 80.49H118.18V81.52H117.67V80.49ZM117.67 78.44H118.18V79.47H117.67V78.44ZM117.67 76.39H118.18V77.42H117.67V76.39ZM117.67 74.34H118.18V75.37H117.67V74.34ZM117.67 72.29H118.18V73.32H117.67V72.29ZM117.67 70.24H118.18V71.27H117.67V70.24ZM117.67 68.19H118.18V69.22H117.67V68.19ZM117.67 66.14H118.18V67.17H117.67V66.14ZM117.67 64.09H118.18V65.12H117.67V64.09ZM117.67 62.04H118.18V63.07H117.67V62.04ZM117.67 59.99H118.18V61.02H117.67V59.99ZM117.67 57.94H118.18V58.97H117.67V57.94ZM117.67 55.89H118.18V56.92H117.67V55.89ZM117.67 53.84H118.18V54.87H117.67V53.84ZM117.67 51.79H118.18V52.82H117.67V51.79ZM117.67 49.74H118.18V50.77H117.67V49.74ZM117.67 47.69H118.18V48.72H117.67V47.69ZM117.67 45.64H118.18V46.67H117.67V45.64ZM117.67 43.59H118.18V44.62H117.67V43.59ZM117.67 41.54H118.18V42.57H117.67V41.54ZM117.67 39.49H118.18V40.52H117.67V39.49ZM117.67 37.44H118.18V38.47H117.67V37.44ZM117.67 35.39H118.18V36.42H117.67V35.39ZM117.67 33.34H118.18V34.37H117.67V33.34ZM117.67 31.29H118.18V32.32H117.67V31.29ZM117.67 29.24H118.18V30.27H117.67V29.24ZM117.67 27.19H118.18V28.22H117.67V27.19ZM200.2 26H200.71V27.03H200.2V26ZM117.67 25.13H118.18V26.16H117.67V25.13ZM200.2 23.94H200.71V24.97H200.2V23.94ZM117.67 23.07H118.18V24.1H117.67V23.07ZM200.2 21.88H200.71V22.91H200.2V21.88ZM117.67 21.01H118.18V22.04H117.67V21.01ZM200.2 19.82H200.71V20.85H200.2V19.82ZM117.67 18.95H118.18V19.98H117.67V18.95ZM200.2 17.76H200.71V18.79H200.2V17.76ZM117.67 16.89H118.18V17.92H117.67V16.89ZM200.2 15.7H200.71V16.73H200.2V15.7ZM117.67 14.83H118.18V15.86H117.67V14.83ZM200.2 13.64H200.71V14.67H200.2V13.64ZM117.67 13.47C117.67 13.23 117.68 12.99 117.7 12.75L118.21 12.79C118.19 13.01 118.18 13.24 118.18 13.47V13.8H117.67V13.47ZM199.99 11.66L200.49 11.54C200.57 11.88 200.63 12.23 200.66 12.58L200.15 12.63C200.12 12.3 200.06 11.97 199.99 11.65V11.66ZM117.85 11.7C117.92 11.36 118.02 11.01 118.13 10.68L118.61 10.85C118.5 11.16 118.41 11.48 118.34 11.81L117.84 11.7H117.85ZM199.3 9.78999L199.76 9.54999C199.92 9.85999 200.07 10.19 200.19 10.52L199.71 10.7C199.6 10.39 199.46 10.09 199.31 9.78999H199.3ZM118.55 9.69999C118.71 9.38999 118.88 9.07999 119.08 8.77999L119.51 9.05999C119.33 9.33999 119.16 9.62999 119.01 9.91999L118.55 9.68999V9.69999ZM198.18 8.15999L198.56 7.81999C198.79 8.07999 199.01 8.35999 199.22 8.64999L198.8 8.93999C198.61 8.66999 198.4 8.39999 198.18 8.15999ZM119.72 7.93999C119.95 7.66999 120.2 7.41999 120.46 7.17999L120.8 7.55999C120.56 7.77999 120.32 8.01999 120.11 8.26999L119.72 7.93999ZM196.68 6.84999L196.97 6.41999C197.26 6.61999 197.54 6.82999 197.81 7.05999L197.47 7.44999C197.22 7.22999 196.96 7.02999 196.68 6.84999ZM121.28 6.51999C121.57 6.31999 121.87 6.12999 122.18 5.96999L122.42 6.41999C122.13 6.57999 121.84 6.74999 121.57 6.93999L121.28 6.51999ZM194.91 5.95999L195.08 5.47999C195.41 5.59999 195.74 5.73999 196.05 5.89999L195.82 6.35999C195.53 6.20999 195.22 6.07999 194.91 5.96999V5.95999ZM123.15 5.52999C123.48 5.39999 123.82 5.29999 124.16 5.21999L124.28 5.71999C123.96 5.79999 123.64 5.88999 123.33 6.00999L123.15 5.52999ZM192.97 5.52999L193.02 5.01999C193.37 5.04999 193.72 5.10999 194.07 5.17999L193.96 5.67999C193.64 5.60999 193.31 5.55999 192.98 5.52999H192.97ZM125.2 5.03999C125.51 5.00999 125.83 4.98999 126.14 4.98999H126.25V5.49999H126.14C125.85 5.49999 125.55 5.51999 125.26 5.54999L125.2 5.03999ZM127.28 4.98999H128.31V5.49999H127.28V4.98999ZM129.33 4.98999H130.36V5.49999H129.33V4.98999ZM131.38 4.98999H132.41V5.49999H131.38V4.98999ZM133.43 4.98999H134.46V5.49999H133.43V4.98999ZM135.48 4.98999H136.51V5.49999H135.48V4.98999ZM137.53 4.98999H138.56V5.49999H137.53V4.98999ZM139.58 4.98999H140.61V5.49999H139.58V4.98999ZM141.63 4.98999H142.66V5.49999H141.63V4.98999ZM143.68 4.98999H144.71V5.49999H143.68V4.98999ZM145.73 4.98999H146.76V5.49999H145.73V4.98999ZM147.78 4.98999H148.81V5.49999H147.78V4.98999ZM149.83 4.98999H150.86V5.49999H149.83V4.98999ZM151.88 4.98999H152.91V5.49999H151.88V4.98999ZM153.93 4.98999H154.96V5.49999H153.93V4.98999ZM155.98 4.98999H157.01V5.49999H155.98V4.98999ZM158.03 4.98999H159.06V5.49999H158.03V4.98999ZM160.08 4.98999H161.11V5.49999H160.08V4.98999ZM162.13 4.98999H163.16V5.49999H162.13V4.98999ZM164.18 4.98999H165.21V5.49999H164.18V4.98999ZM166.23 4.98999H167.26V5.49999H166.23V4.98999ZM168.28 4.98999H169.31V5.49999H168.28V4.98999ZM170.33 4.98999H171.36V5.49999H170.33V4.98999ZM172.38 4.98999H173.41V5.49999H172.38V4.98999ZM174.43 4.98999H175.46V5.49999H174.43V4.98999ZM176.48 4.98999H177.51V5.49999H176.48V4.98999ZM178.53 4.98999H179.56V5.49999H178.53V4.98999ZM180.58 4.98999H181.61V5.49999H180.58V4.98999ZM182.63 4.98999H183.66V5.49999H182.63V4.98999ZM184.68 4.98999H185.71V5.49999H184.68V4.98999ZM186.73 4.98999H187.76V5.49999H186.73V4.98999ZM188.78 4.98999H189.81V5.49999H188.78V4.98999ZM190.83 4.98999H191.86V5.49999H190.83V4.98999Z" fill="#001E2B"/>
<path d="M89.3699 195.5H88.0799V194.85H89.3699V195.5ZM86.7799 195.5H85.4899V194.85H86.7799V195.5ZM84.1899 195.5H82.8999V194.85H84.1899V195.5ZM81.5999 195.5H80.3099V194.85H81.5999V195.5ZM79.0099 195.5H77.7199V194.85H79.0099V195.5ZM76.4199 195.5H75.1299V194.85H76.4199V195.5ZM73.8299 195.5H72.5399V194.85H73.8299V195.5ZM71.2399 195.5H69.9499V194.85H71.2399V195.5ZM68.6499 195.5H67.3599V194.85H68.6499V195.5ZM66.0599 195.5H64.7699V194.85H66.0599V195.5ZM63.4699 195.5H62.1799V194.85H63.4699V195.5ZM60.8799 195.5H59.5899V194.85H60.8799V195.5ZM58.2899 195.5H56.9999V194.85H58.2899V195.5ZM55.6999 195.5H54.4099V194.85H55.6999V195.5ZM53.1099 195.5H51.8199V194.85H53.1099V195.5ZM50.5199 195.5H49.2299V194.85H50.5199V195.5ZM47.9299 195.5H46.6399V194.85H47.9299V195.5ZM45.3399 195.5H44.3599V194.85H45.3399V195.5Z" fill="#001E2B"/>
<path d="M4.6001 29.03V117.23H71.8101V52.4L48.4401 29.03H4.6001Z" fill="#00ED64" stroke="#001E2B" stroke-linecap="round" stroke-linejoin="round"/>
<path d="M51.0402 52.4L49.4102 57.54L71.8102 52.4H51.0402Z" fill="#001E2B" stroke="#001E2B" stroke-linejoin="round"/>
<path d="M48.4399 29.03V52.4H71.8099L48.4399 29.03Z" fill="white" stroke="#001E2B" stroke-linejoin="round"/>
<path d="M28.2301 107.01C34.377 107.01 39.3601 102.027 39.3601 95.88C39.3601 89.7331 34.377 84.75 28.2301 84.75C22.0832 84.75 17.1001 89.7331 17.1001 95.88C17.1001 102.027 22.0832 107.01 28.2301 107.01Z" fill="#001E2B"/>
<path d="M43.77 100.29C52.3525 100.29 59.31 93.3325 59.31 84.75C59.31 76.1675 52.3525 69.21 43.77 69.21C35.1875 69.21 28.23 76.1675 28.23 84.75C28.23 93.3325 35.1875 100.29 43.77 100.29Z" fill="#001E2B" stroke="#001E2B" stroke-miterlimit="10"/>
<path d="M43.77 98.22C52.3525 98.22 59.31 91.2625 59.31 82.68C59.31 74.0975 52.3525 67.14 43.77 67.14C35.1875 67.14 28.23 74.0975 28.23 82.68C28.23 91.2625 35.1875 98.22 43.77 98.22Z" fill="#00ED64" stroke="#001E2B" stroke-miterlimit="10"/>
<path d="M53.9399 78.7L50.2599 75.02L42.3099 82.97L38.5599 79.22L34.8799 82.9L38.6299 86.65L42.3099 90.33L45.9899 86.65L53.9399 78.7Z" fill="white" stroke="#001E2B" stroke-miterlimit="10"/>
<path d="M134.6 214.5C176.728 214.5 210.88 180.348 210.88 138.22C210.88 96.0917 176.728 61.9399 134.6 61.9399C92.4715 61.9399 58.3198 96.0917 58.3198 138.22C58.3198 180.348 92.4715 214.5 134.6 214.5Z" fill="#001E2B" stroke="#001E2B" stroke-linecap="round" stroke-linejoin="round"/>
<path d="M134.6 206.83C176.728 206.83 210.88 172.678 210.88 130.55C210.88 88.4217 176.728 54.27 134.6 54.27C92.4715 54.27 58.3198 88.4217 58.3198 130.55C58.3198 172.678 92.4715 206.83 134.6 206.83Z" fill="#FFC010" stroke="#001E2B" stroke-linecap="round" stroke-linejoin="round"/>
<path d="M169.385 159.068C172.276 147.199 167.299 135.793 158.268 133.593C149.237 131.394 139.573 139.232 136.681 151.102C133.79 162.971 138.767 174.377 147.798 176.577C156.829 178.776 166.494 170.938 169.385 159.068Z" fill="#001E2B" stroke="#001E2B" stroke-linecap="round" stroke-linejoin="round"/>
<path d="M154.63 142C154.45 141.93 154.27 141.87 154.08 141.82C154.12 141.82 154.16 141.84 154.21 141.85C154.35 141.89 154.49 141.93 154.63 142Z" fill="#00ED64" stroke="#001E2B" stroke-linecap="round" stroke-linejoin="round"/>
<path d="M148.16 166.16C148.35 166.2 148.54 166.23 148.73 166.25C148.58 166.25 148.43 166.23 148.29 166.19C148.25 166.18 148.21 166.17 148.17 166.16H148.16Z" fill="#00ED64" stroke="#001E2B" stroke-linecap="round" stroke-linejoin="round"/>
<path d="M105.01 126.38L111.29 100.6C114.76 86.36 129.11 77.63 143.35 81.1L153.9 83.67C168.14 87.14 176.87 101.49 173.4 115.73L167.12 141.51L158.17 142.86L164.45 117.08C167.92 102.84 159.19 88.49 144.95 85.02L134.4 82.45C120.16 78.98 105.81 87.71 102.34 101.95L96.0601 127.73L105.01 126.38Z" fill="white" stroke="#001E2B" stroke-linecap="round" stroke-linejoin="round"/>
<path d="M96.0601 127.73L102.34 101.95C105.81 87.71 120.16 78.98 134.4 82.45L144.95 85.02C159.19 88.49 167.92 102.84 164.45 117.08L158.17 142.86" stroke="#001E2B" stroke-width="4" stroke-linecap="round" stroke-linejoin="round"/>
<path d="M175.446 160.553C177.981 150.144 173.616 140.141 165.696 138.211C157.776 136.282 149.3 143.157 146.764 153.567C144.228 163.977 148.593 173.98 156.514 175.909C164.434 177.838 172.91 170.963 175.446 160.553Z" fill="white" stroke="#001E2B" stroke-linecap="round" stroke-linejoin="round"/>
<path d="M150.98 154.6C153.29 145.13 160.51 138.59 167.75 138.94C167.1 138.64 166.41 138.4 165.69 138.22C157.77 136.29 149.3 143.17 146.76 153.57C144.22 163.98 148.59 173.98 156.51 175.91C157.23 176.08 157.95 176.18 158.67 176.22C152.08 173.19 148.67 164.06 150.98 154.6Z" fill="#001E2B" stroke="#001E2B" stroke-linecap="round" stroke-linejoin="round"/>
<path d="M111.546 144.34C114.081 133.93 109.717 123.927 101.796 121.998C93.8762 120.068 85.4001 126.943 82.8643 137.353C80.3286 147.763 84.6935 157.766 92.6136 159.695C100.534 161.625 109.01 154.75 111.546 144.34Z" fill="#001E2B" stroke="#001E2B" stroke-linecap="round" stroke-linejoin="round"/>
<path d="M121.631 146.795C124.522 134.926 119.545 123.52 110.514 121.32C101.483 119.121 91.8183 126.959 88.927 138.829C86.0357 150.698 91.0129 162.104 100.044 164.304C109.075 166.503 118.739 158.665 121.631 146.795Z" fill="white" stroke="#001E2B" stroke-linecap="round" stroke-linejoin="round"/>
<path d="M93.53 139.96C96.17 129.12 104.47 121.64 112.76 122.11C112.04 121.79 111.29 121.52 110.51 121.33C101.48 119.13 91.82 126.97 88.92 138.84C86.03 150.71 91 162.12 100.03 164.32C100.81 164.51 101.6 164.62 102.38 164.66C94.8 161.26 90.87 150.8 93.51 139.96H93.53Z" fill="#001E2B" stroke="#001E2B" stroke-linecap="round" stroke-linejoin="round"/>
<path d="M114.53 145.72C112.89 152.44 108.37 157.11 104.44 156.15C104.37 156.13 104.3 156.12 104.24 156.1C106.25 156.4 109.13 151.41 110.75 144.8C112.36 138.19 112.09 132.43 110.17 131.77C110.24 131.78 110.31 131.8 110.38 131.82C114.32 132.78 116.18 139.01 114.54 145.73L114.53 145.72Z" fill="#001E2B" stroke="#001E2B" stroke-linecap="round" stroke-linejoin="round"/>
<path d="M111.995 145.1C113.633 138.377 112.751 132.388 110.025 131.724C107.299 131.06 103.761 135.972 102.124 142.696C100.486 149.419 101.368 155.408 104.094 156.072C106.82 156.736 110.357 151.824 111.995 145.1Z" fill="#FF9F10" stroke="#001E2B" stroke-linecap="round" stroke-linejoin="round"/>
<path d="M103.68 155.92C103.86 155.99 104.04 156.05 104.23 156.1C104.19 156.1 104.15 156.08 104.1 156.07C103.96 156.03 103.82 155.99 103.68 155.92Z" fill="#00ED64" stroke="#001E2B" stroke-linecap="round" stroke-linejoin="round"/>
<path d="M110.15 131.76C109.96 131.72 109.77 131.69 109.58 131.67C109.73 131.67 109.88 131.69 110.02 131.73C110.06 131.74 110.1 131.75 110.14 131.76H110.15Z" fill="#00ED64" stroke="#001E2B" stroke-linecap="round" stroke-linejoin="round"/>
<path d="M120.35 82.19C129.76 79.61 131.35 78.19 142.63 80.93C157.7 84.59 159.35 85.48 162.96 87.79L153.79 88.99C153.79 88.99 151 85.54 133.32 82.39C126.07 81.1 120.36 82.19 120.36 82.19H120.35Z" fill="#001E2B" stroke="#001E2B" stroke-linecap="round" stroke-linejoin="round"/>
<path d="M101.58 105.26L110.45 104.09C110.45 104.09 112.12 88.07 126.62 82.49C120.35 82.19 107.37 84.33 101.59 105.26H101.58Z" fill="#001E2B" stroke="#001E2B" stroke-linecap="round" stroke-linejoin="round"/>
<path d="M134.3 187.17L118.28 183.27C117.16 183 116.47 181.87 116.74 180.74C117.01 179.62 118.14 178.93 119.27 179.2L135.29 183.1C138.84 183.97 142.55 183.79 146 182.59C152.12 180.47 156.7 175.44 158.23 169.14L159.04 165.82C159.31 164.7 160.44 164.01 161.57 164.28C162.69 164.55 163.38 165.68 163.11 166.81L162.3 170.13C160.43 177.81 154.85 183.95 147.38 186.54C143.16 188 138.64 188.21 134.31 187.16L134.3 187.17Z" fill="white" stroke="#001E2B" stroke-linecap="round" stroke-linejoin="round"/>
<path d="M111.671 178.25L111.099 180.601C110.501 183.054 112.005 185.526 114.457 186.123L126.204 188.985C128.656 189.582 131.128 188.078 131.726 185.626L132.298 183.275C132.896 180.822 131.392 178.35 128.94 177.753L117.193 174.892C114.741 174.294 112.269 175.798 111.671 178.25Z" fill="#001E2B" stroke="#001E2B" stroke-linecap="round" stroke-linejoin="round"/>
<path d="M115.785 179.249L115.212 181.6C114.615 184.052 116.118 186.525 118.571 187.122L126.198 188.98C128.65 189.577 131.122 188.073 131.719 185.621L132.292 183.27C132.889 180.818 131.386 178.345 128.933 177.748L121.306 175.89C118.854 175.293 116.382 176.797 115.785 179.249Z" fill="white" stroke="#001E2B" stroke-linecap="round" stroke-linejoin="round"/>
<path d="M161.57 164.3C160.17 164.86 160.14 167.04 158.88 170.95C157.06 176.61 153.02 179.89 146.78 182.32C153.4 179.11 155.92 175.51 157.37 172.38C158.81 169.24 158.53 167.26 159.04 165.85C159.55 164.44 161.57 164.31 161.57 164.31V164.3Z" fill="#001E2B" stroke="#001E2B" stroke-linecap="round" stroke-linejoin="round"/>
<path d="M132.81 182.5C129.51 181.7 128.69 185.8 131.88 186.58L132.81 182.5Z" fill="white"/>
<path d="M132.81 182.5C129.51 181.7 128.69 185.8 131.88 186.58" stroke="#001E2B" stroke-linecap="round" stroke-linejoin="round"/>
<path d="M202.35 96.6199C199.28 99.3399 195.23 101 190.8 101C181.17 101 173.37 93.1999 173.37 83.5699C173.37 78.1899 175.81 73.3899 179.63 70.1899C189.5 76.6199 197.43 85.7899 202.35 96.6199Z" fill="#001E2B" stroke="#001E2B" stroke-linecap="round" stroke-linejoin="round"/>
<path d="M207.93 97.2C223.41 97.2 235.96 84.6506 235.96 69.17C235.96 53.6895 223.41 41.14 207.93 41.14C192.449 41.14 179.9 53.6895 179.9 69.17C179.9 84.6506 192.449 97.2 207.93 97.2Z" fill="#00ED64" stroke="#001E2B" stroke-linecap="round" stroke-linejoin="round"/>
<path d="M207.41 51.9301L212.58 62.4201L224.16 64.1001L215.78 72.2701L217.76 83.8001L207.41 78.3501L197.05 83.8001L199.03 72.2701L190.65 64.1001L202.23 62.4201L207.41 51.9301Z" fill="white" stroke="#001E2B" stroke-linecap="round" stroke-linejoin="round"/>
<path d="M28.7799 103.15C31.7622 103.15 34.1799 100.732 34.1799 97.75C34.1799 94.7676 31.7622 92.35 28.7799 92.35C25.7975 92.35 23.3799 94.7676 23.3799 97.75C23.3799 100.732 25.7975 103.15 28.7799 103.15Z" fill="#001E2B" stroke="#001E2B" stroke-linecap="round" stroke-linejoin="round"/>
<path d="M72.5399 181.08H71.2499V180.43H72.5399V181.08ZM69.9499 181.08H68.6599V180.43H69.9499V181.08ZM67.3599 181.08H66.0699V180.43H67.3599V181.08ZM64.7699 181.08H63.4799V180.43H64.7699V181.08ZM62.1799 181.08H60.8899V180.43H62.1799V181.08ZM59.5899 181.08H58.2999V180.43H59.5899V181.08ZM56.9999 181.08H55.7099V180.43H56.9999V181.08ZM54.4099 181.08H53.1199V180.43H54.4099V181.08ZM51.8199 181.08H50.5299V180.43H51.8199V181.08ZM49.2299 181.08H47.9399V180.43H49.2299V181.08ZM46.6399 181.08H45.3499V180.43H46.6399V181.08ZM44.0499 181.08H42.7599V180.43H44.0499V181.08ZM41.4599 181.08H40.1699V180.43H41.4599V181.08ZM38.8699 181.08C38.4299 181.08 37.9799 181.03 37.5399 180.97L37.6299 180.33C38.0399 180.39 38.4599 180.43 38.8799 180.43V181.08H38.8699ZM36.2299 180.69C35.7999 180.57 35.3799 180.42 34.9699 180.25L35.2199 179.65C35.5999 179.81 35.9999 179.95 36.3999 180.06L36.2299 180.68V180.69ZM33.7799 179.66C33.3899 179.44 33.0199 179.19 32.6699 178.92L33.0599 178.4C33.3899 178.65 33.7399 178.88 34.0999 179.09L33.7799 179.65V179.66ZM31.6599 178.06C31.3399 177.75 31.0399 177.42 30.7599 177.07L31.2699 176.67C31.5299 176.99 31.8099 177.31 32.1099 177.6L31.6599 178.06ZM29.9999 175.98C29.7699 175.6 29.5599 175.21 29.3699 174.8L29.9599 174.53C30.1299 174.91 30.3299 175.28 30.5499 175.64L29.9999 175.98ZM28.8999 173.56C28.7699 173.13 28.6599 172.7 28.5899 172.26L29.2299 172.15C29.2999 172.56 29.3999 172.97 29.5199 173.37L28.8999 173.56ZM28.4399 170.94C28.4399 170.76 28.4299 170.59 28.4299 170.41V169.63H29.0799V170.41C29.0799 170.58 29.0799 170.74 29.0899 170.91L28.4399 170.94ZM29.0699 168.34H28.4199V167.05H29.0699V168.34ZM29.0699 165.75H28.4199V164.46H29.0699V165.75ZM29.0699 163.16H28.4199V161.87H29.0699V163.16ZM29.0699 160.57H28.4199V159.28H29.0699V160.57ZM29.0699 157.98H28.4199V156.69H29.0699V157.98ZM29.0699 155.39H28.4199V154.1H29.0699V155.39ZM29.0699 152.8H28.4199V151.51H29.0699V152.8ZM29.0699 150.21H28.4199V148.92H29.0699V150.21ZM29.0699 147.62H28.4199V146.33H29.0699V147.62ZM29.0699 145.03H28.4199V143.74H29.0699V145.03ZM29.0699 142.44H28.4199V141.15H29.0699V142.44ZM29.0699 139.85H28.4199V138.56H29.0699V139.85ZM29.0699 137.26H28.4199V135.97H29.0699V137.26ZM29.0699 134.67H28.4199V133.38H29.0699V134.67ZM29.0699 132.08H28.4199V130.79H29.0699V132.08ZM29.0699 129.49H28.4199V128.2H29.0699V129.49ZM29.0699 126.9H28.4199V125.61H29.0699V126.9ZM29.0699 124.31H28.4199V123.02H29.0699V124.31ZM29.0699 121.72H28.4199V120.43H29.0699V121.72ZM29.0699 119.13H28.4199V117.84H29.0699V119.13ZM29.0699 116.54H28.4199V115.25H29.0699V116.54ZM29.0699 113.95H28.4199V112.66H29.0699V113.95ZM29.0699 111.36H28.4199V110.07H29.0699V111.36ZM29.0699 108.77H28.4199V107.48H29.0699V108.77ZM29.0699 106.18H28.4199V104.89H29.0699V106.18ZM29.0699 103.59H28.4199V102.3H29.0699V103.59ZM29.0699 101H28.4199V99.71H29.0699V101Z" fill="#001E2B"/>
<path d="M192.13 180.7V252.42H246.77V199.7L227.77 180.7H192.12H192.13Z" fill="#00ED64" stroke="#001E2B" stroke-linecap="round" stroke-linejoin="round"/>
<path d="M229.88 202.35L228.55 206.53L246.77 202.35H229.88Z" fill="#001E2B" stroke="#001E2B" stroke-linejoin="round"/>
<path d="M227.77 183.36V202.35H246.77L227.77 183.36Z" fill="white" stroke="#001E2B" stroke-linejoin="round"/>
<path d="M177.19 162.33V241.69H237.66V183.35L216.64 162.33H177.19Z" fill="#00ED64" stroke="#001E2B" stroke-linecap="round" stroke-linejoin="round"/>
<path d="M218.97 183.36L217.5 187.99L237.66 183.36H218.97Z" fill="#001E2B" stroke="#001E2B" stroke-linejoin="round"/>
<path d="M216.63 162.33V183.36H237.66L216.63 162.33Z" fill="white" stroke="#001E2B" stroke-linejoin="round"/>
<path d="M216.5 228.54C223.928 228.54 229.95 222.518 229.95 215.09C229.95 207.662 223.928 201.64 216.5 201.64C209.072 201.64 203.05 207.662 203.05 215.09C203.05 222.518 209.072 228.54 216.5 228.54Z" fill="#001E2B"/>
<path d="M235.29 220.42C245.662 220.42 254.07 212.012 254.07 201.64C254.07 191.268 245.662 182.86 235.29 182.86C224.918 182.86 216.51 191.268 216.51 201.64C216.51 212.012 224.918 220.42 235.29 220.42Z" fill="#001E2B" stroke="#001E2B" stroke-miterlimit="10"/>
<path d="M235.29 217.91C245.662 217.91 254.07 209.502 254.07 199.13C254.07 188.758 245.662 180.35 235.29 180.35C224.918 180.35 216.51 188.758 216.51 199.13C216.51 209.502 224.918 217.91 235.29 217.91Z" fill="#00ED64" stroke="#001E2B" stroke-miterlimit="10"/>
<path d="M247.57 194.33L243.12 189.88L233.51 199.49L228.99 194.96L224.54 199.41L229.07 203.94L233.51 208.39L237.96 203.94L247.57 194.33Z" fill="white" stroke="#001E2B" stroke-miterlimit="10"/>
<path d="M192.33 246.93H241.91V219.19H237.66V241.69H192.33V246.93Z" fill="#001E2B" stroke="#001E2B" stroke-linejoin="round"/>
<path d="M235.385 135.579L230.384 145.902L240.706 150.903L245.707 140.58L235.385 135.579Z" fill="#001E2B" stroke="#001E2B" stroke-linecap="round" stroke-linejoin="round"/>
<path d="M230.736 137.196L225.735 147.518L236.058 152.519L241.059 142.197L230.736 137.196Z" fill="#00D2FF" stroke="#001E2B" stroke-linecap="round" stroke-linejoin="round"/>
<path d="M235.385 135.579L230.384 145.902L240.706 150.903L245.707 140.58L235.385 135.579Z" fill="#001E2B" stroke="#001E2B" stroke-linecap="round" stroke-linejoin="round"/>
<path d="M230.736 137.196L225.735 147.518L236.058 152.519L241.059 142.197L230.736 137.196Z" fill="#00ED64" stroke="#001E2B" stroke-linecap="round" stroke-linejoin="round"/>
<path d="M205.119 117.616L200.118 127.938L210.44 132.94L215.442 122.617L205.119 117.616Z" fill="white" stroke="#001E2B" stroke-linecap="round" stroke-linejoin="round"/>
<path d="M45.04 232.07L58.66 237.64L58.64 233.89L50.22 230.59L58.59 227.15L58.56 223.41L45.02 229.19L45.04 232.07Z" fill="#001E2B" stroke="#001E2B" stroke-miterlimit="10"/>
<path d="M78.75 224.91L78.77 228.65L87.19 231.97L78.82 235.39L78.85 239.13L92.39 233.38L92.37 230.5L78.75 224.91Z" fill="#001E2B" stroke="#001E2B" stroke-miterlimit="10"/>
<path d="M71.9599 218.57L62.1999 233.86L61.6499 234.72L65.9699 234.69L67.6799 232L70.4599 227.64L76.2399 218.54L71.9599 218.57Z" fill="#001E2B" stroke="#001E2B" stroke-miterlimit="10"/>
<path d="M43.6802 229.02L57.3002 234.59L57.2802 230.84L48.8602 227.54L57.2302 224.1L57.2002 220.36L43.6602 226.13L43.6802 229.02Z" fill="white" stroke="#001E2B" stroke-miterlimit="10"/>
<path d="M77.3901 221.86L77.4101 225.59L85.8301 228.92L77.4601 232.34L77.4901 236.08L91.0401 230.32L91.0201 227.44L77.3901 221.86Z" fill="white" stroke="#001E2B" stroke-miterlimit="10"/>
<path d="M70.61 215.52L60.84 230.81L60.29 231.67L64.61 231.64L66.32 228.95L69.1 224.58L74.88 215.49L70.61 215.52Z" fill="white" stroke="#001E2B" stroke-miterlimit="10"/>
<path d="M207.93 27.12L200.05 34.19L192.46 27.12" stroke="#001E2B" stroke-miterlimit="10"/>
<path d="M45.4301 202.91L38.3501 195.04L45.4301 187.44" stroke="#001E2B" stroke-miterlimit="10"/>
</svg>
