<svg width="171" height="171" viewBox="0 0 171 171" fill="none" xmlns="http://www.w3.org/2000/svg">
<path d="M134.04 136.71C123.11 132.95 105.77 130.53 86.2499 130.53C66.7299 130.53 49.3899 132.96 38.4599 136.71H26.3799V147.6C26.3799 147.6 26.3799 147.63 26.3799 147.65C26.3799 156.24 53.1899 163.2 86.2499 163.2C119.31 163.2 146.12 156.24 146.12 147.65V136.71H134.04Z" fill="#001F2C"/>
<path d="M86.2499 152.34C119.315 152.34 146.12 145.378 146.12 136.79C146.12 128.202 119.315 121.24 86.2499 121.24C53.1846 121.24 26.3799 128.202 26.3799 136.79C26.3799 145.378 53.1846 152.34 86.2499 152.34Z" fill="#B1FF05" stroke="#001E2B" stroke-miterlimit="10"/>
<path d="M91.3099 140.35C107.426 140.35 120.49 136.956 120.49 132.77C120.49 128.584 107.426 125.19 91.3099 125.19C75.1942 125.19 62.1299 128.584 62.1299 132.77C62.1299 136.956 75.1942 140.35 91.3099 140.35Z" fill="#001E2B" stroke="#001E2B" stroke-width="0.75" stroke-miterlimit="10"/>
<path d="M57.2095 116.55L58.7695 122.46C60.4395 128.76 74.3695 130.54 89.8995 126.44C105.419 122.33 116.659 113.9 114.989 107.59L113.429 101.68L57.2095 116.55Z" fill="#001E2B" stroke="#001E2B" stroke-miterlimit="10"/>
<path d="M52.1996 97.6L58.0296 119.64C59.6996 125.94 73.6296 127.72 89.1596 123.62C104.68 119.51 115.92 111.08 114.25 104.77L108.42 82.73C106.75 76.43 92.8196 74.65 77.2896 78.75C61.7696 82.86 50.5296 91.29 52.1996 97.6Z" fill="#00ED64"/>
<path d="M108.42 82.73L114.25 104.77C115.92 111.07 104.68 119.51 89.1597 123.62C73.6397 127.73 59.6997 125.94 58.0297 119.64L52.1997 97.6" stroke="#231F20" stroke-miterlimit="10"/>
<path d="M111.4 93.99C113.07 100.29 101.83 108.73 86.3097 112.84C70.7897 116.95 56.8497 115.16 55.1797 108.86" stroke="#231F20" stroke-miterlimit="10"/>
<path d="M101.16 77.41L110.57 112.98C113.51 110.18 114.92 107.3 114.25 104.77L108.42 82.73C107.75 80.2 105.1 78.4 101.16 77.41Z" fill="#001E2B" stroke="#001E2B" stroke-miterlimit="10"/>
<path d="M83.3293 101.594C98.8562 97.4884 110.092 89.0486 108.424 82.7428C106.757 76.437 92.8186 74.6531 77.2917 78.7584C61.7648 82.8637 50.5293 91.3035 52.1965 97.6093C53.8638 103.915 67.8024 105.699 83.3293 101.594Z" fill="white" stroke="#231F20" stroke-miterlimit="10"/>
<path d="M74.2498 88.31L75.3298 92.39C75.6398 93.56 78.2198 93.89 81.0898 93.13C83.9598 92.37 86.0399 90.81 85.7298 89.64L84.6498 85.56C84.3398 84.39 81.7598 84.06 78.8898 84.82C76.0198 85.58 73.9398 87.14 74.2498 88.31Z" fill="#B1FF05" stroke="#001E2B" stroke-width="0.75" stroke-miterlimit="10"/>
<path d="M81.46 84.4199L82.57 92.6399C84.64 91.8099 85.98 90.59 85.73 89.64L84.65 85.5599C84.44 84.7599 83.16 84.3599 81.46 84.4199Z" fill="#001E2B" stroke="#001E2B" stroke-width="0.75" stroke-miterlimit="10"/>
<path d="M99.84 50.3C98.17 44 84.24 42.22 68.71 46.32C53.19 50.43 41.95 58.86 43.62 65.17" stroke="#231F20" stroke-width="0.75" stroke-miterlimit="10"/>
<path d="M43.1102 63.23L48.9402 85.27C50.6102 91.57 64.5402 93.35 80.0702 89.25C95.5902 85.14 106.83 76.71 105.16 70.4L99.3302 48.36C97.6602 42.06 83.7302 40.28 68.2002 44.38C52.6802 48.49 41.4402 56.92 43.1102 63.23Z" fill="#00ED64"/>
<path d="M92.0698 43.04L101.48 78.61C104.42 75.81 105.83 72.93 105.16 70.4L99.3298 48.36C98.6598 45.83 96.0098 44.03 92.0698 43.04Z" fill="#001E2B" stroke="#001E2B" stroke-miterlimit="10"/>
<path d="M74.2336 67.2094C89.7605 63.1041 100.996 54.6643 99.3287 48.3585C97.6615 42.0527 83.7229 40.2688 68.196 44.3741C52.6691 48.4794 41.4336 56.9192 43.1008 63.225C44.7681 69.5308 58.7067 71.3147 74.2336 67.2094Z" fill="white" stroke="#231F20" stroke-miterlimit="10"/>
<path d="M99.3299 48.36L105.16 70.4C106.83 76.7 95.5899 85.14 80.0699 89.25C64.5499 93.36 50.6099 91.57 48.9399 85.27L43.1099 63.23" stroke="#231F20" stroke-miterlimit="10"/>
<path d="M65.16 53.94L66.24 58.02C66.55 59.19 69.13 59.52 72 58.76C74.87 58 76.95 56.44 76.64 55.27L75.56 51.19C75.25 50.02 72.67 49.69 69.8 50.45C66.93 51.21 64.85 52.77 65.16 53.94Z" fill="#B1FF05" stroke="#001E2B" stroke-miterlimit="10"/>
<path d="M72.3701 50.05L73.4801 58.27C75.5501 57.44 76.8901 56.22 76.6401 55.27L75.5601 51.19C75.3501 50.39 74.0701 49.99 72.3701 50.05Z" fill="#001E2B" stroke="#001E2B" stroke-miterlimit="10"/>
<path d="M34.0199 28.85L39.8499 50.89C41.5199 57.19 55.4499 58.97 70.9799 54.87C86.4999 50.76 97.7399 42.33 96.0699 36.02L90.2399 13.98C88.5699 7.67999 74.6399 5.9 59.1099 10C43.5899 14.11 32.3499 22.54 34.0199 28.85Z" fill="#00ED64"/>
<path d="M90.2399 13.99C88.5699 7.69 74.6399 5.91001 59.1099 10.01C43.5899 14.12 32.3499 22.55 34.0199 28.86" stroke="#231F20" stroke-width="0.75" stroke-miterlimit="10"/>
<path d="M90.24 13.99L96.07 36.03C97.74 42.33 86.5 50.77 70.98 54.88C55.46 58.99 41.52 57.2 39.85 50.9L34.02 28.86" stroke="#231F20" stroke-miterlimit="10"/>
<path d="M93.1497 25.01C94.8197 31.31 83.5797 39.75 68.0597 43.86C52.5397 47.97 38.5997 46.18 36.9297 39.88" stroke="#231F20" stroke-miterlimit="10"/>
<path d="M102.24 59.38C103.91 65.68 92.67 74.12 77.15 78.23C61.63 82.34 47.69 80.55 46.02 74.25" stroke="#231F20" stroke-miterlimit="10"/>
<path d="M82.98 8.66998L92.39 44.24C95.33 41.44 96.74 38.56 96.07 36.03L90.24 13.99C89.57 11.46 86.92 9.65998 82.98 8.66998Z" fill="#001E2B" stroke="#001E2B" stroke-width="0.75" stroke-miterlimit="10"/>
<path d="M65.1501 32.8447C80.677 28.7395 91.9124 20.2996 90.2452 13.9938C88.578 7.68801 74.6394 5.90414 59.1125 10.0094C43.5856 14.1147 32.3501 22.5545 34.0173 28.8603C35.6846 35.1661 49.6232 36.95 65.1501 32.8447Z" fill="white" stroke="#231F20" stroke-miterlimit="10"/>
<path d="M113.11 73.18L118.97 95.32" stroke="#001E2B" stroke-miterlimit="10"/>
<path d="M99.8398 23L111.24 66.11" stroke="#001E2B" stroke-miterlimit="10"/>
<path d="M37.3896 66.3L43.1497 88.1" stroke="#001E2B" stroke-miterlimit="10"/>
<path d="M33.5899 62.94C38.4003 62.94 42.2999 59.0404 42.2999 54.23C42.2999 49.4196 38.4003 45.52 33.5899 45.52C28.7795 45.52 24.8799 49.4196 24.8799 54.23C24.8799 59.0404 28.7795 62.94 33.5899 62.94Z" fill="white" stroke="#001E2B" stroke-miterlimit="10"/>
<path d="M40.1798 48.54C40.2798 49.18 40.3398 49.85 40.3398 50.52C40.3398 56.31 36.3798 61.17 31.0098 62.55C31.8198 62.8 32.6898 62.94 33.5898 62.94C38.3998 62.94 42.2998 59.04 42.2998 54.23C42.2998 52.06 41.4998 50.07 40.1798 48.54Z" fill="#001E2B"/>
</svg>
