<svg width="170" height="162" viewBox="0 0 170 162" fill="none" xmlns="http://www.w3.org/2000/svg">
<path d="M169.962 93.2439C169.957 93.2215 169.948 93.2009 169.942 93.1788C169.92 93.1005 169.891 93.0244 169.855 92.9513C169.841 92.924 169.827 92.8979 169.812 92.8714C169.772 92.803 169.726 92.7383 169.674 92.678C169.658 92.659 169.644 92.6389 169.627 92.6208C169.555 92.5444 169.474 92.4766 169.387 92.4187L169.38 92.4133L128.174 65.9107V26.6266C128.172 26.5198 128.159 26.4135 128.132 26.31C128.125 26.2809 128.115 26.2536 128.106 26.2251C128.083 26.1517 128.054 26.0805 128.019 26.0122C128.004 25.9839 127.99 25.9561 127.974 25.9287C127.928 25.8546 127.876 25.7851 127.818 25.7211C127.806 25.708 127.797 25.6931 127.784 25.6805C127.711 25.6072 127.63 25.5426 127.542 25.488C127.533 25.4826 127.527 25.4746 127.518 25.4694L85.6933 0.374852C85.4834 0.249446 85.2435 0.183228 84.999 0.183228C84.7545 0.183228 84.5145 0.249446 84.3046 0.374852L42.4809 25.4694C42.4722 25.4746 42.466 25.4826 42.4575 25.488C42.3694 25.5426 42.2879 25.6072 42.2146 25.6805C42.2021 25.6931 42.1929 25.708 42.181 25.7211C42.1226 25.7851 42.0706 25.8546 42.0255 25.9287C42.0089 25.9561 41.9947 25.9839 41.9801 26.0122C41.9451 26.0805 41.916 26.1517 41.8932 26.2251C41.8843 26.2536 41.8738 26.2809 41.8668 26.31C41.8405 26.4135 41.8267 26.5198 41.8255 26.6266V65.9107L0.619512 92.4133L0.612912 92.4187C0.525335 92.4766 0.444792 92.5444 0.372912 92.6208C0.355612 92.6389 0.341812 92.659 0.325612 92.678C0.274175 92.7383 0.228163 92.803 0.188112 92.8714C0.172712 92.8978 0.158112 92.9239 0.144712 92.9513C0.108746 93.0244 0.0795567 93.1005 0.0575117 93.1788C0.0512117 93.2009 0.0424117 93.2215 0.0375117 93.2439C0.0133382 93.3434 0.000589137 93.4453 -0.000488252 93.5477V133.566C-0.000535006 133.792 0.056223 134.014 0.164565 134.212C0.272906 134.41 0.429352 134.578 0.619512 134.7L42.4134 161.581L42.4319 161.592L42.4455 161.601L42.4613 161.608C42.5547 161.666 42.6548 161.712 42.7594 161.745C42.784 161.753 42.8078 161.761 42.8327 161.768C42.944 161.799 43.0588 161.815 43.1743 161.817H43.1754H43.178C43.2916 161.815 43.4044 161.799 43.5139 161.768C43.5419 161.761 43.5687 161.752 43.5963 161.743C43.6938 161.711 43.7874 161.668 43.8751 161.615C43.8851 161.609 43.8958 161.608 43.9051 161.602L84.999 135.17L126.067 161.584L126.074 161.589L126.094 161.602C126.102 161.606 126.11 161.607 126.117 161.612C126.208 161.667 126.305 161.711 126.406 161.744C126.432 161.752 126.457 161.761 126.484 161.768C126.706 161.833 126.943 161.833 127.165 161.768C127.191 161.761 127.216 161.752 127.242 161.744C127.343 161.712 127.44 161.667 127.532 161.612C127.539 161.607 127.547 161.606 127.555 161.601L127.575 161.588L127.582 161.584L169.381 134.7C169.571 134.578 169.727 134.41 169.836 134.212C169.944 134.014 170.001 133.792 170.001 133.566V93.5477C169.999 93.4453 169.987 93.3434 169.962 93.2439ZM126.824 117.069L87.5551 93.5076L106.012 81.6367L126.824 68.2511L166.094 93.5076L126.824 117.069ZM44.5238 119.407L83.6495 95.9313V132.829L44.5238 157.995V119.407ZM44.5249 65.9108V29.0103L83.6495 52.4855V91.0756L46.3812 67.1047L44.5249 65.9108ZM125.474 65.9108L122.47 67.8426L86.3486 91.0754V52.4855L125.474 29.0103V65.9108ZM84.9989 3.10585L124.201 26.6266L84.9989 50.1479L45.7979 26.6266L84.9989 3.10585ZM43.175 68.2511L64.7374 82.1196L82.4428 93.5076L43.1752 117.069L3.90541 93.5076L43.175 68.2511ZM2.69891 95.9313L41.8243 119.405V157.994L2.69891 132.829V95.9313ZM86.3489 95.9313L125.474 119.406V157.995L86.3486 132.829L86.3489 95.9313ZM128.174 157.995V119.406L167.3 95.9313V132.829L128.174 157.995Z" fill="url(#paint0_linear)"/>
<defs>
<linearGradient id="paint0_linear" x1="-0.000488252" y1="81" x2="170" y2="81" gradientUnits="userSpaceOnUse">
<stop stop-color="#7DC5DB"/>
<stop offset="1" stop-color="#6E60F9"/>
</linearGradient>
</defs>
</svg>
