<?xml version="1.0" encoding="utf-8"?>
<!-- Generator: Adobe Illustrator 26.2.1, SVG Export Plug-In . SVG Version: 6.00 Build 0)  -->
<svg version="1.1" id="Layer_1" xmlns="http://www.w3.org/2000/svg" xmlns:xlink="http://www.w3.org/1999/xlink" x="0px" y="0px"
	 viewBox="0 0 49 49" style="enable-background:new 0 0 49 49;" xml:space="preserve">
<style type="text/css">
	.st0{fill:none;stroke:#FFFFFF;stroke-miterlimit:10;}
	.st1{fill:#00ED64;stroke:#FFFFFF;stroke-miterlimit:10;}
</style>
<g>
	<path class="st0" d="M24.5,48.5c13.255,0,24-10.745,24-24s-10.745-24-24-24s-24,10.745-24,24S11.245,48.5,24.5,48.5z"/>
	<path class="st1" d="M24.319,32.684l-6.801,3.765c-0.272,0.164-0.622-0.082-0.583-0.45l1.282-7.979
		c0.039-0.123-0.039-0.286-0.117-0.368l-5.48-5.647c-0.233-0.246-0.117-0.655,0.233-0.696l7.617-1.146
		c0.117,0,0.233-0.123,0.311-0.205l3.42-7.243c0.155-0.286,0.544-0.286,0.7,0l3.342,7.202c0.039,0.123,0.155,0.205,0.311,0.205
		l7.617,1.146c0.311,0.041,0.428,0.45,0.233,0.696l-5.557,5.688c-0.078,0.082-0.117,0.245-0.117,0.368l1.282,7.979
		c0.039,0.327-0.272,0.573-0.583,0.45l-6.762-3.765C24.552,32.602,24.435,32.602,24.319,32.684z"/>
</g>
</svg>
