<svg width="48" height="48" viewBox="0 0 48 48" fill="none" xmlns="http://www.w3.org/2000/svg">
<path d="M47.5 35.9001L22.7 19L29.5 17.9C29.9 17.8 30.3 17.5 30.4 17C30.5 16.6 30.2 16.1 29.9 15.9L20.8 11.2L22.3 1.10005C22.4 0.700048 22.1 0.200048 21.7 4.79296e-05C21.3 -0.199952 20.8 -0.0999521 20.5 0.200048L13.3 7.40005L4.30002 2.80005C3.90002 2.70005 3.40002 2.70005 3.10002 3.10005C2.70002 3.40005 2.70002 3.90005 2.90002 4.30005L7.50002 13.3L0.300024 20.5C2.3514e-05 20.8 -0.0999765 21.3 0.100024 21.7C0.300024 22.1 0.700024 22.3 1.20002 22.3L11.3 20.8L16 29.9C16.2 30.2 16.5 30.5 16.9 30.5C17 30.5 17 30.5 17.1 30.5C17.5 30.4 17.9 30.1 18 29.6L19.1 22.5L35.9 47.6C36.1 47.9 36.4 48.1 36.8 48.1C36.9 48.1 36.9 48.1 37 48.1C37.4 48 37.7 47.7001 37.8 47.4001L39.9 39.9001L47.4 37.9001C47.8 37.8001 48.1 37.5 48.1 37.1C48.1 36.5 47.9 36.1001 47.5 35.9001ZM16.4 26.1L12.8 19.1C12.6 18.8 12.3 18.5 11.9 18.5C11.8 18.5 11.8 18.5 11.7 18.5L4.00002 19.7L9.50002 14.2C9.80002 13.9 9.90002 13.4 9.70002 13L6.10002 6.10005L13 9.60005C13.4 9.80005 13.9 9.70005 14.2 9.40005L19.7 4.00005L18.6 11.8C18.5 12.2 18.8 12.7 19.2 12.9L26.1 16.5L18.5 17.7C18.1 17.8 17.7 18.1 17.6 18.6L17.5 19C17.3 19.2 17.3 19.5 17.4 19.8L16.4 26.1ZM38.7 37.9001C38.3 38 38.1 38.3 38 38.6L36.4 44.5L19.6 19.5H19.8L44.6 36.3L38.7 37.9001Z" fill="url(#paint0_linear)"/>
<defs>
<linearGradient id="paint0_linear" x1="2.35151e-05" y1="23.9996" x2="48" y2="23.9996" gradientUnits="userSpaceOnUse">
<stop stop-color="#7ACEDC"/>
<stop offset="0.5004" stop-color="#0ACF5B"/>
<stop offset="1" stop-color="#13A952"/>
</linearGradient>
</defs>
</svg>
