<svg width="16" height="15" viewBox="0 0 16 15" fill="none" xmlns="http://www.w3.org/2000/svg">
<path fill-rule="evenodd" clip-rule="evenodd" d="M14.5528 3.11244H11.3562V2.05238C11.3562 0.925297 10.4308 0 9.30378 0H6.66255C5.53546 0 4.61017 0.925331 4.61017 2.05238V3.11244H1.43006C0.639454 3.11244 0 3.7519 0 4.5425V6.76313C0 6.96488 0.134725 7.15022 0.336484 7.18373C1.74945 7.45319 3.56656 7.68846 5.80435 7.78967C5.80435 6.89785 6.51083 6.20847 7.40265 6.20847H8.61386C9.48858 6.20847 10.1951 6.91495 10.2122 7.78967C12.4328 7.70555 14.25 7.47028 15.6629 7.18373C15.8646 7.15021 15.9993 6.96488 15.9993 6.76313L16 4.55882C15.9829 3.75178 15.327 3.11233 14.5528 3.11233L14.5528 3.11244ZM6.24195 3.11244V2.05238C6.24195 1.81711 6.4437 1.61469 6.67965 1.61469H9.32088C9.55614 1.61469 9.75857 1.81644 9.75857 2.05238V3.11244H6.24195ZM10.2119 9.01724C10.2119 9.90906 9.48837 10.6155 8.61365 10.6155H7.40244C6.51062 10.6155 5.80414 9.89197 5.80414 9.01724V8.93312C4.28996 8.86609 2.60754 8.71427 1.04272 8.479V12.9203C1.04272 13.7109 1.68218 14.3503 2.47278 14.3503H13.5098C14.3004 14.3503 14.9398 13.7109 14.9398 12.9203V8.479C13.3922 8.73137 11.7098 8.86609 10.1956 8.93312V9.01724H10.2119ZM9.06769 9.01738C9.06769 9.28684 8.84885 9.48859 8.59648 9.48859H7.38527C7.11582 9.48859 6.91406 9.26974 6.91406 9.01738V7.80617C6.91406 7.53672 7.13291 7.33496 7.38527 7.33496H8.59648C8.86594 7.33496 9.06769 7.55381 9.06769 7.80617V9.01738Z" fill="#F9FBFA"/>
</svg>
