<svg width="64" height="52" viewBox="0 0 64 52" fill="none" xmlns="http://www.w3.org/2000/svg">
<path d="M57.5555 0.725342H6.4436C4.73523 0.727221 3.09736 1.4067 1.88936 2.6147C0.68136 3.82271 0.0018793 5.46057 0 7.16894L0 44.8301C0.00174678 46.5386 0.681156 48.1767 1.88916 49.3848C3.09717 50.593 4.7351 51.2727 6.4436 51.2746H57.5555C59.2641 51.2728 60.9022 50.5932 62.1104 49.385C63.3185 48.1768 63.9981 46.5388 64 44.8301V7.16894C63.998 5.46045 63.3184 3.82251 62.1102 2.6145C60.902 1.4065 59.264 0.727089 57.5555 0.725342V0.725342ZM6.4436 2.85214H57.5555C58.7 2.85341 59.7973 3.30862 60.6065 4.11791C61.4158 4.92719 61.871 6.02445 61.8723 7.16894V14.176H2.1268V7.16894C2.12815 6.02447 2.58339 4.92726 3.39265 4.11799C4.20192 3.30873 5.29913 2.85349 6.4436 2.85214ZM57.5555 49.1469H6.4436C5.2991 49.1457 4.20185 48.6905 3.39256 47.8812C2.58328 47.0719 2.12807 45.9746 2.1268 44.8301V16.3028H61.8723V44.8301C61.8711 45.9747 61.4159 47.072 60.6066 47.8813C59.7973 48.6906 58.7 49.1458 57.5555 49.1469ZM10.4788 11.9861C10.9348 11.9862 11.3863 11.8964 11.8075 11.7219C12.2288 11.5474 12.6115 11.2917 12.9339 10.9693C13.2564 10.6468 13.5121 10.2641 13.6866 9.84284C13.8611 9.42159 13.9509 8.9701 13.9509 8.51414C13.9509 7.82742 13.7473 7.15612 13.3658 6.58512C12.9843 6.01412 12.442 5.56908 11.8076 5.30627C11.1731 5.04346 10.475 4.97468 9.80149 5.10864C9.12796 5.24261 8.50928 5.57328 8.02369 6.05886C7.5381 6.54444 7.2074 7.16311 7.07342 7.83663C6.93944 8.51016 7.0082 9.20828 7.27099 9.84273C7.53378 10.4772 7.97881 11.0195 8.54979 11.401C9.12078 11.7825 9.79208 11.9861 10.4788 11.9861ZM10.4771 7.16904H10.4789C10.8353 7.16928 11.177 7.31106 11.4289 7.5632C11.6808 7.81534 11.8222 8.15719 11.8221 8.51359C11.822 8.86999 11.6803 9.21175 11.4283 9.46372C11.1762 9.71569 10.8344 9.85724 10.478 9.85724C10.1216 9.85724 9.77979 9.71569 9.52774 9.46372C9.27568 9.21175 9.13402 8.86999 9.1339 8.51359C9.13378 8.15719 9.27521 7.81534 9.5271 7.5632C9.77899 7.31106 10.1207 7.16928 10.4771 7.16904ZM18.5492 11.9861C19.2359 11.9862 19.9072 11.7825 20.4782 11.401C21.0492 11.0195 21.4943 10.4773 21.7571 9.84283C22.0199 9.20838 22.0887 8.51026 21.9547 7.83673C21.8207 7.1632 21.4901 6.54452 21.0045 6.05893C20.5189 5.57334 19.9002 5.24264 19.2267 5.10866C18.5532 4.97468 17.8551 5.04344 17.2206 5.30623C16.5862 5.56902 16.0439 6.01405 15.6624 6.58504C15.2808 7.15602 15.0772 7.82732 15.0772 8.51404C15.0772 8.97 15.167 9.4215 15.3415 9.84275C15.5159 10.264 15.7717 10.6468 16.0941 10.9692C16.4165 11.2916 16.7993 11.5474 17.2205 11.7218C17.6418 11.8963 18.0932 11.9861 18.5492 11.9861ZM18.5474 7.16904H18.5493C18.9057 7.16929 19.2475 7.31109 19.4993 7.56325C19.7512 7.81541 19.8927 8.1573 19.8925 8.51372C19.8924 8.87014 19.7507 9.21192 19.4987 9.4639C19.2466 9.71589 18.9048 9.85744 18.5483 9.85744C18.1919 9.85744 17.8501 9.71589 17.598 9.4639C17.346 9.21192 17.2043 8.87014 17.2041 8.51372C17.204 8.1573 17.3455 7.81541 17.5974 7.56325C17.8492 7.31109 18.191 7.16929 18.5474 7.16904ZM26.6194 11.9861C27.0754 11.9862 27.5269 11.8964 27.9481 11.7219C28.3694 11.5474 28.7521 11.2917 29.0746 10.9693C29.397 10.6469 29.6527 10.2641 29.8272 9.84286C30.0017 9.4216 30.0915 8.9701 30.0915 8.51414C30.0915 7.82742 29.8879 7.15612 29.5064 6.58512C29.1249 6.01412 28.5826 5.56908 27.9482 5.30627C27.3137 5.04346 26.6156 4.97468 25.9421 5.10864C25.2686 5.24261 24.6499 5.57328 24.1643 6.05886C23.6787 6.54444 23.348 7.16311 23.214 7.83663C23.08 8.51016 23.1488 9.20828 23.4116 9.84273C23.6744 10.4772 24.1194 11.0195 24.6904 11.401C25.2614 11.7825 25.9327 11.9861 26.6194 11.9861ZM26.6177 7.16904H26.62C26.9764 7.16929 27.3182 7.31109 27.57 7.56325C27.8219 7.81541 27.9634 8.1573 27.9632 8.51372C27.9631 8.87014 27.8214 9.21192 27.5694 9.4639C27.3173 9.71589 26.9755 9.85744 26.619 9.85744C26.2626 9.85744 25.9208 9.71589 25.6687 9.4639C25.4167 9.21192 25.275 8.87014 25.2749 8.51372C25.2747 8.1573 25.4162 7.81541 25.6681 7.56325C25.9199 7.31109 26.2617 7.16929 26.6181 7.16904H26.6177ZM42.76 27.6262H35.9309L32.9941 20.7453C32.9123 20.554 32.7761 20.3909 32.6025 20.2761C32.4289 20.1614 32.2255 20.1 32.0174 20.0996H32.0156C31.8078 20.0996 31.6046 20.1604 31.431 20.2746C31.2574 20.3888 31.1211 20.5514 31.0389 20.7422L28.0745 27.626H21.239C21.0204 27.6261 20.807 27.6934 20.6281 27.819C20.4491 27.9446 20.3132 28.1223 20.2388 28.3279C20.1644 28.5335 20.1552 28.757 20.2124 28.9681C20.2696 29.1791 20.3905 29.3674 20.5585 29.5072L26.4358 34.401L23.4728 42.3058C23.3927 42.5192 23.3833 42.7526 23.446 42.9717C23.5086 43.1908 23.6399 43.3839 23.8207 43.5227C24.0014 43.6615 24.2219 43.7386 24.4497 43.7426C24.6776 43.7465 24.9006 43.6772 25.0861 43.5448L32 38.6105L38.9166 43.5453C39.1021 43.6776 39.3252 43.7467 39.5529 43.7427C39.7807 43.7386 40.0012 43.6616 40.1819 43.5229C40.3625 43.3841 40.4939 43.1911 40.5567 42.9721C40.6194 42.7531 40.6102 42.5197 40.5304 42.3063L37.5664 34.4015L43.4411 29.5077C43.6089 29.3677 43.7296 29.1794 43.7866 28.9684C43.8437 28.7574 43.8344 28.534 43.76 28.3284C43.6856 28.1229 43.5497 27.9453 43.3708 27.8197C43.1919 27.6941 42.9787 27.6267 42.7601 27.6265L42.76 27.6262ZM35.6247 33.2498C35.4556 33.3913 35.3344 33.5816 35.278 33.7947C35.2215 34.0079 35.2325 34.2332 35.3095 34.4398L37.3153 39.7898L32.6174 36.4375C32.4371 36.3089 32.2212 36.2397 31.9997 36.2397C31.7782 36.2397 31.5623 36.3089 31.382 36.4375L26.6877 39.7875L28.6925 34.4393C28.7701 34.2328 28.7814 34.0073 28.7249 33.794C28.6685 33.5808 28.547 33.3904 28.3774 33.2493L24.1784 29.7534H28.7743C28.9821 29.7534 29.1854 29.6925 29.359 29.5782C29.5325 29.464 29.6688 29.3013 29.751 29.1104L32.011 23.8616L34.25 29.1073C34.3317 29.2991 34.468 29.4626 34.6418 29.5776C34.8157 29.6926 35.0196 29.7539 35.228 29.7539H39.8221L35.6247 33.2498Z" fill="url(#paint0_linear)"/>
<defs>
<linearGradient id="paint0_linear" x1="0" y1="26" x2="64" y2="26" gradientUnits="userSpaceOnUse">
<stop stop-color="#7DC5DB"/>
<stop offset="1" stop-color="#6E60F9"/>
</linearGradient>
</defs>
</svg>
