<svg width="66" height="66" viewBox="0 0 66 66" fill="none" xmlns="http://www.w3.org/2000/svg">
<path d="M21 37C25.4183 37 29 33.4183 29 29C29 24.5817 25.4183 21 21 21C16.5817 21 13 24.5817 13 29C13 33.4183 16.5817 37 21 37Z" fill="#00ED64" stroke="white" stroke-miterlimit="10" stroke-linecap="round" stroke-linejoin="round"/>
<path d="M37 26H53M37 32H53" stroke="white" stroke-miterlimit="10"/>
<path d="M33 49V59M5 11V48.05C5 48.62 5.4 49 6 49H60C60.6 49 61 48.62 61 48.05V11M1 49H65M63.9051 11H2.09487C1.49767 11 1 10.375 1 9.625V2.375C1 1.625 1.49767 1 2.09487 1H63.9051C64.5023 1 65 1.625 65 2.375V9.625C65 10.375 64.5023 11 63.9051 11Z" stroke="white" stroke-miterlimit="10"/>
<path d="M33 65C34.6569 65 36 63.6569 36 62C36 60.3431 34.6569 59 33 59C31.3431 59 30 60.3431 30 62C30 63.6569 31.3431 65 33 65Z" fill="#00ED64" stroke="white" stroke-miterlimit="10" stroke-linecap="round" stroke-linejoin="round"/>
</svg>
