<svg width="337" height="338" viewBox="0 0 337 338" fill="none" xmlns="http://www.w3.org/2000/svg">
<path d="M336.183 169.082C336.183 261.916 260.926 337.173 168.092 337.173C75.2572 337.173 0 261.916 0 169.082C0 76.2473 75.2572 0.990112 168.092 0.990112C260.926 0.990112 336.183 76.2473 336.183 169.082Z" fill="#3D4F58"/>
<path d="M73.8549 86.369C74.1199 85.3847 75.5164 85.3847 75.7814 86.369L81.6522 108.173C81.7447 108.517 82.0128 108.785 82.3561 108.877L104.161 114.748C105.145 115.013 105.145 116.41 104.161 116.675L82.3561 122.545C82.0128 122.638 81.7447 122.906 81.6522 123.249L75.7814 145.054C75.5164 146.038 74.1199 146.038 73.8549 145.054L67.9841 123.249C67.8917 122.906 67.6235 122.638 67.2802 122.545L45.4758 116.675C44.4915 116.41 44.4915 115.013 45.4758 114.748L67.2802 108.877C67.6235 108.785 67.8917 108.517 67.9841 108.173L73.8549 86.369Z" fill="#FFEB99"/>
<path fill-rule="evenodd" clip-rule="evenodd" d="M71.9284 85.8497C72.7234 82.8968 76.913 82.8969 77.708 85.8497L83.4295 107.1L104.679 112.821C107.632 113.616 107.632 117.806 104.679 118.601L83.4295 124.322L77.708 145.572C76.9129 148.525 72.7234 148.525 71.9284 145.572L66.2069 124.322L44.9571 118.601C42.0042 117.806 42.0042 113.616 44.9571 112.821L66.2069 107.1L71.9284 85.8497ZM74.8182 90.4648L69.9107 108.692C69.6334 109.721 68.8289 110.526 67.7989 110.803L49.5722 115.711L67.7989 120.618C68.8289 120.896 69.6334 121.7 69.9107 122.73L74.8182 140.957L79.7257 122.73C80.003 121.7 80.8075 120.896 81.8375 120.618L100.064 115.711L81.8375 110.803C80.8075 110.526 80.003 109.722 79.7257 108.692L74.8182 90.4648Z" fill="#0C1C27"/>
<path d="M86.8235 225.032C87.0885 224.048 88.485 224.048 88.7501 225.032L91.8698 236.619C91.9623 236.963 92.2304 237.231 92.5737 237.323L104.161 240.443C105.145 240.708 105.145 242.105 104.161 242.37L92.5737 245.489C92.2304 245.582 91.9623 245.85 91.8698 246.193L88.7501 257.78C88.485 258.764 87.0885 258.764 86.8235 257.78L83.7038 246.193C83.6113 245.85 83.3432 245.582 82.9998 245.489L71.4129 242.37C70.4286 242.105 70.4286 240.708 71.4129 240.443L82.9998 237.323C83.3432 237.231 83.6113 236.963 83.7038 236.619L86.8235 225.032Z" fill="#FFEB99"/>
<path fill-rule="evenodd" clip-rule="evenodd" d="M84.8969 224.514C85.692 221.561 89.8815 221.561 90.6765 224.514L93.647 235.546L104.679 238.516C107.632 239.311 107.632 243.501 104.679 244.296L93.647 247.266L90.6765 258.299C89.8815 261.252 85.6919 261.252 84.8969 258.299L81.9265 247.266L70.8941 244.296C67.9412 243.501 67.9412 239.311 70.8941 238.516L81.9265 235.546L84.8969 224.514ZM87.7867 229.129L85.6302 237.138C85.3529 238.168 84.5484 238.972 83.5185 239.25L75.5092 241.406L83.5185 243.563C84.5484 243.84 85.3529 244.645 85.6302 245.674L87.7867 253.684L89.9432 245.674C90.2205 244.645 91.025 243.84 92.0549 243.563L100.064 241.406L92.0549 239.25C91.025 238.972 90.2205 238.168 89.9432 237.138L87.7867 229.129Z" fill="#0C1C27"/>
<path d="M267.385 154.204C267.65 153.22 269.046 153.22 269.311 154.204L273.701 170.507C273.793 170.85 274.061 171.118 274.405 171.211L290.707 175.6C291.692 175.865 291.692 177.262 290.707 177.527L274.405 181.916C274.061 182.009 273.793 182.277 273.701 182.62L269.311 198.923C269.046 199.907 267.65 199.907 267.385 198.923L262.995 182.62C262.903 182.277 262.635 182.009 262.291 181.916L245.989 177.527C245.004 177.262 245.004 175.865 245.989 175.6L262.291 171.211C262.635 171.118 262.903 170.85 262.995 170.507L267.385 154.204Z" fill="#FFEB99"/>
<path fill-rule="evenodd" clip-rule="evenodd" d="M265.458 153.686C266.253 150.733 270.443 150.733 271.238 153.686L275.478 169.434L291.226 173.674C294.179 174.469 294.179 178.659 291.226 179.454L275.478 183.694L271.238 199.442C270.443 202.395 266.253 202.395 265.458 199.442L261.218 183.694L245.47 179.454C242.517 178.659 242.517 174.469 245.47 173.674L261.218 169.434L265.458 153.686ZM268.348 158.301L264.922 171.026C264.644 172.056 263.84 172.86 262.81 173.138L250.085 176.564L262.81 179.99C263.84 180.267 264.644 181.072 264.922 182.102L268.348 194.827L271.774 182.102C272.051 181.072 272.856 180.267 273.886 179.99L286.611 176.564L273.886 173.138C272.856 172.86 272.051 172.056 271.774 171.026L268.348 158.301Z" fill="#0C1C27"/>
<path d="M171.469 80.7003C210.528 121.879 265.211 214.246 171.469 254.279C77.7269 214.246 132.41 121.879 171.469 80.7003Z" fill="#FFDD49"/>
<path fill-rule="evenodd" clip-rule="evenodd" d="M171.469 74.6225L174.503 77.8219C194.282 98.6741 218.307 132.743 225.366 167.077C228.915 184.337 228.227 201.932 220.252 217.925C212.263 233.947 197.23 247.825 173.111 258.125L171.469 258.827L169.826 258.125C145.708 247.825 130.674 233.947 122.686 217.925C114.711 201.932 114.022 184.337 117.571 167.077C124.631 132.743 148.655 98.6741 168.434 77.8219L171.469 74.6225ZM171.469 80.7003C170.526 81.6942 169.574 82.718 168.616 83.7701C129.856 126.308 79.9895 215.212 171.469 254.279C262.948 215.212 213.081 126.308 174.322 83.7701C173.363 82.718 172.412 81.6942 171.469 80.7003Z" fill="#0C1C27"/>
<mask id="mask0" mask-type="alpha" maskUnits="userSpaceOnUse" x="119" y="80" width="105" height="175">
<path d="M171.671 80.7003C210.883 122.004 265.78 214.648 171.671 254.801C77.5627 214.648 132.459 122.004 171.671 80.7003Z" fill="#FFDD49"/>
</mask>
<g mask="url(#mask0)">
<path d="M114.01 221.213L212.697 122.527L230.24 140.07L131.553 238.757L114.01 221.213Z" fill="url(#paint0_linear)"/>
<path d="M112.452 196.35L201.577 107.224L210.373 116.019L121.247 205.145L112.452 196.35Z" fill="url(#paint1_linear)"/>
</g>
<path fill-rule="evenodd" clip-rule="evenodd" d="M172.15 176.258C173.252 176.258 174.145 177.152 174.145 178.254V286.989C174.145 288.091 173.252 288.985 172.15 288.985C171.048 288.985 170.155 288.091 170.155 286.989V178.254C170.155 177.152 171.048 176.258 172.15 176.258Z" fill="#0C1C27"/>
<defs>
<linearGradient id="paint0_linear" x1="229.141" y1="139.821" x2="170.947" y2="126.307" gradientUnits="userSpaceOnUse">
<stop stop-color="white" stop-opacity="0.56"/>
<stop offset="1" stop-color="white" stop-opacity="0.21"/>
</linearGradient>
<linearGradient id="paint1_linear" x1="209.651" y1="116.066" x2="179.654" y2="101.487" gradientUnits="userSpaceOnUse">
<stop stop-color="white" stop-opacity="0.56"/>
<stop offset="1" stop-color="white" stop-opacity="0.21"/>
</linearGradient>
</defs>
</svg>
