<svg width="64" height="60" viewBox="0 0 64 60" fill="none" xmlns="http://www.w3.org/2000/svg">
<path d="M52.2 24.1V13.7C52.2 6.49998 46.4 0.699976 39.1 0.599976H13.1C5.8 0.599976 0 6.39998 0 13.7V24.2C0 31.4 5.8 37.2 13.1 37.3V45.1C13.1 46.5 14.3 47.7 15.7 47.7C16.3 47.7 17 47.5 17.4 47L28.4 37.2H39.2C46.4 37.2 52.2 31.3 52.2 24.1ZM27.4 34.6L15.7 45V34.6H13.1C7.3 34.6 2.6 29.9 2.6 24.1V13.7C2.6 7.89998 7.3 3.19998 13.1 3.19998H39.2C45 3.19998 49.7 7.89998 49.7 13.7V24.2C49.6 29.9 45 34.6 39.2 34.6H27.4ZM56.2 30.6C55.5 30.6 54.9 31.2 54.9 31.9C54.9 32.6 55.5 33.2 56.2 33.2C59.1 33.2 61.4 35.5 61.4 38.4V43.6C61.4 46.5 59.1 48.8 56.2 48.8H52.3C51.6 48.8 51 49.4 51 50.1V54.8L45.4 49.2C45.2 49 44.8 48.8 44.5 48.8H38C35.1 48.8 32.8 46.5 32.8 43.6C32.8 42.9 32.2 42.3 31.5 42.3C30.8 42.3 30.2 42.9 30.2 43.6C30.2 47.9 33.7 51.4 38 51.4H44L51.5 58.9C51.7 59.1 52.1 59.3 52.4 59.3C52.6 59.3 52.7 59.3 52.9 59.2C53.4 59 53.7 58.5 53.7 58V51.5H56.3C60.6 51.5 64.1 48 64.1 43.7V38.5C64 34.2 60.5 30.6 56.2 30.6Z" fill="url(#paint0_linear)"/>
<defs>
<linearGradient id="paint0_linear" x1="0" y1="29.95" x2="64.1" y2="29.95" gradientUnits="userSpaceOnUse">
<stop stop-color="#7DC5DB"/>
<stop offset="1" stop-color="#6E60F9"/>
</linearGradient>
</defs>
</svg>
