<svg width="170" height="112" viewBox="0 0 170 112" fill="none" xmlns="http://www.w3.org/2000/svg">
<path d="M168.5 111.95H1.5C0.6 111.95 0 111.25 0 110.45V77.75C0 76.85 0.7 76.25 1.5 76.25C12.7 76.25 21.7 67.15 21.7 56.05C21.7 44.9501 12.7 35.75 1.5 35.75C0.6 35.75 0 35.05 0 34.25V1.55005C0 0.750049 0.7 0.0500488 1.5 0.0500488H168.4C169.3 0.0500488 169.9 0.750049 169.9 1.55005V34.25C169.9 35.1501 169.2 35.75 168.4 35.75C157.2 35.75 148.2 44.8501 148.2 55.9501C148.2 67.05 157.3 76.15 168.4 76.15C169.3 76.15 169.9 76.85 169.9 77.65V110.35C170 111.35 169.3 111.95 168.5 111.95ZM3.1 108.95H166.9V79.25C154.8 78.45 145.1 68.3501 145.1 55.9501C145.1 43.55 154.7 33.45 166.9 32.65V3.15005H3.1V32.75C15.2 33.55 24.9 43.65 24.9 56.05C24.9 68.4501 15.2 78.45 3.1 79.25V108.95ZM135.8 12.45H128.5V19.75H135.8V12.45ZM135.8 26.95H128.5V34.25H135.8V26.95ZM135.8 41.55H128.5V48.75H135.8V41.55ZM135.8 56.05H128.5V63.25H135.8V56.05ZM135.8 70.55H128.5V77.75H135.8V70.55ZM135.8 85.05H128.5V92.3501H135.8V85.05ZM135.8 99.55H128.5V106.85H135.8V99.55ZM110.4 90.25H45.1C44.2 90.25 43.6 89.55 43.6 88.75V23.35C43.6 22.45 44.3 21.85 45.1 21.85H110.4C111.3 21.85 111.9 22.55 111.9 23.35V88.65C111.9 89.55 111.3 90.25 110.4 90.25ZM46.6 87.15H108.8V24.95H46.6V87.15ZM88.6 46.65H66.9C66 46.65 65.4 45.95 65.4 45.15C65.4 44.25 66.1 43.65 66.9 43.65H88.7C89.6 43.65 90.2 44.35 90.2 45.15C90.2 45.95 89.5 46.65 88.6 46.65ZM88.6 68.4501H66.9C66 68.4501 65.4 67.7501 65.4 66.9501C65.4 66.15 66.1 65.4501 66.9 65.4501H88.7C89.6 65.4501 90.2 66.15 90.2 66.9501C90.2 67.7501 89.5 68.4501 88.6 68.4501Z" fill="url(#paint0_linear)"/>
<defs>
<linearGradient id="paint0_linear" x1="0" y1="56" x2="169.909" y2="56" gradientUnits="userSpaceOnUse">
<stop stop-color="#7ACEDC"/>
<stop offset="0.5004" stop-color="#0ACF5B"/>
<stop offset="1" stop-color="#13A952"/>
</linearGradient>
</defs>
</svg>
