<svg width="171" height="171" viewBox="0 0 171 171" fill="none" xmlns="http://www.w3.org/2000/svg">
<path d="M148.46 60.73L146.37 58.64C144.45 60.56 141.33 60.56 139.4 58.64C137.47 56.72 137.48 53.6 139.4 51.67L135.69 47.96C133.77 49.88 130.65 49.88 128.72 47.96C126.79 46.04 126.8 42.92 128.72 40.99L125.01 37.28C123.09 39.2 119.97 39.2 118.04 37.28C116.12 35.36 116.12 32.24 118.04 30.31L114.33 26.6C112.41 28.52 109.29 28.52 107.36 26.6C105.43 24.68 105.44 21.56 107.36 19.63L105.27 17.54C102.45 20.36 97.8904 20.36 95.0704 17.54L23.1304 89.54C25.9504 92.36 25.9504 96.92 23.1304 99.74L25.2204 101.83C27.1404 99.91 30.2604 99.91 32.1904 101.83C34.1204 103.75 34.1104 106.87 32.1904 108.8L35.9004 112.51C37.8204 110.59 40.9404 110.59 42.8704 112.51C44.8004 114.43 44.7904 117.55 42.8704 119.48L46.5804 123.19C48.5004 121.27 51.6204 121.27 53.5504 123.19C55.4804 125.11 55.4704 128.23 53.5504 130.16L57.2604 133.87C59.1804 131.95 62.3004 131.95 64.2304 133.87C66.1604 135.79 66.1504 138.91 64.2304 140.84L66.3204 142.93C69.1404 140.11 73.7004 140.11 76.5204 142.93L148.49 70.96C145.67 68.14 145.67 63.58 148.49 60.76L148.46 60.73Z" fill="#00C954" stroke="#231F20" stroke-miterlimit="10"/>
<path d="M85.5801 27.09L138.94 80.45" stroke="#001E2B" stroke-miterlimit="10"/>
<path d="M138.35 71.76L134.64 68.05C132.72 69.97 129.6 69.97 127.67 68.05C125.75 66.13 125.75 63.01 127.67 61.08L123.96 57.37C122.04 59.29 118.92 59.29 116.99 57.37C115.07 55.45 115.07 52.33 116.99 50.4L113.28 46.69C111.36 48.61 108.24 48.61 106.31 46.69C104.39 44.77 104.39 41.65 106.31 39.72L104.22 37.63C101.4 40.45 96.8403 40.45 94.0203 37.63L30.8203 100.87C31.3103 101.11 31.7803 101.42 32.1903 101.83C34.1103 103.75 34.1103 106.87 32.1903 108.8L35.9003 112.51C37.8203 110.59 40.9403 110.59 42.8703 112.51C44.7903 114.43 44.7903 117.55 42.8703 119.48L46.5803 123.19C48.5003 121.27 51.6203 121.27 53.5503 123.19C55.4703 125.11 55.4703 128.23 53.5503 130.16L57.2603 133.87C59.1803 131.95 62.3003 131.95 64.2303 133.87C66.1503 135.79 66.1503 138.91 64.2303 140.84L66.3203 142.93C69.1403 140.11 73.7003 140.11 76.5203 142.93L139.74 79.71C139.25 79.47 138.78 79.16 138.38 78.75C136.46 76.83 136.46 73.71 138.38 71.78L138.35 71.76Z" fill="#001E2B" stroke="#001E2B" stroke-miterlimit="10"/>
<path d="M147.4 84.02L145.31 81.93C143.39 83.85 140.27 83.85 138.34 81.93C136.41 80.01 136.42 76.89 138.34 74.96L134.63 71.25C132.71 73.17 129.59 73.17 127.66 71.25C125.73 69.33 125.74 66.21 127.66 64.28L123.95 60.57C122.03 62.49 118.91 62.49 116.98 60.57C115.05 58.65 115.06 55.53 116.98 53.6L113.27 49.89C111.35 51.81 108.23 51.81 106.3 49.89C104.37 47.97 104.38 44.85 106.3 42.92L104.21 40.83C101.39 43.65 96.8303 43.65 94.0103 40.83L22.0703 112.83C24.8903 115.65 24.8903 120.21 22.0703 123.03L24.1603 125.12C26.0803 123.2 29.2003 123.2 31.1303 125.12C33.0603 127.04 33.0503 130.16 31.1303 132.09L34.8403 135.8C36.7603 133.88 39.8803 133.88 41.8103 135.8C43.7403 137.72 43.7303 140.84 41.8103 142.77L45.5203 146.48C47.4403 144.56 50.5603 144.56 52.4903 146.48C54.4203 148.4 54.4103 151.52 52.4903 153.45L56.2003 157.16C58.1203 155.24 61.2403 155.24 63.1703 157.16C65.1003 159.08 65.0903 162.2 63.1703 164.13L65.2603 166.22C68.0803 163.4 72.6403 163.4 75.4603 166.22L147.43 94.25C144.61 91.43 144.61 86.87 147.43 84.05L147.4 84.02Z" fill="#006CFA" stroke="#001E2B" stroke-miterlimit="10"/>
<path d="M84.5205 50.38L137.881 103.74" stroke="#001E2B" stroke-miterlimit="10"/>
<path d="M78.9096 72.8881L39.4601 112.338C38.0464 113.751 38.0464 116.043 39.4601 117.457L70.792 148.789C72.2057 150.203 74.4978 150.203 75.9115 148.789L115.361 109.339C116.775 107.926 116.775 105.634 115.361 104.22L84.0291 72.8881C82.6154 71.4744 80.3233 71.4744 78.9096 72.8881Z" fill="white" stroke="#001E2B" stroke-miterlimit="10"/>
<path d="M81.3458 111.264L62.2964 130.314C61.8668 130.743 61.8668 131.44 62.2964 131.87L62.3034 131.877C62.733 132.306 63.4295 132.306 63.8591 131.877L82.9085 112.827C83.3381 112.398 83.3381 111.701 82.9085 111.272L82.9015 111.264C82.4719 110.835 81.7754 110.835 81.3458 111.264Z" fill="white" stroke="#001E2B" stroke-miterlimit="10"/>
<path d="M81.618 120.615L67.1011 135.131C66.6715 135.561 66.6715 136.257 67.1011 136.687L67.1081 136.694C67.5377 137.124 68.2342 137.124 68.6638 136.694L83.1807 122.177C83.6102 121.748 83.6102 121.051 83.1807 120.622L83.1736 120.615C82.744 120.185 82.0475 120.185 81.618 120.615Z" fill="white" stroke="#001E2B" stroke-miterlimit="10"/>
<path d="M90.9596 111.272L85.4936 116.738C85.0641 117.167 85.0641 117.864 85.4936 118.294L85.5007 118.301C85.9303 118.73 86.6268 118.73 87.0563 118.301L92.5223 112.835C92.9519 112.405 92.9519 111.709 92.5223 111.279L92.5152 111.272C92.0856 110.842 91.3892 110.842 90.9596 111.272Z" fill="white" stroke="#001E2B" stroke-miterlimit="10"/>
<path d="M95.2536 97.3589L85.2622 107.35C84.8326 107.78 84.8326 108.476 85.2622 108.906L85.2693 108.913C85.6988 109.343 86.3953 109.343 86.8249 108.913L96.8163 98.9216C97.2459 98.4921 97.2459 97.7956 96.8163 97.366L96.8092 97.3589C96.3797 96.9294 95.6832 96.9294 95.2536 97.3589Z" fill="white" stroke="#001E2B" stroke-miterlimit="10"/>
<path d="M87.3895 127.587L106.439 108.538C106.869 108.108 106.869 107.412 106.439 106.982L106.432 106.975C106.002 106.545 105.306 106.545 104.876 106.975L85.8268 126.025C85.3972 126.454 85.3972 127.151 85.8268 127.58L85.8339 127.587C86.2635 128.017 86.9599 128.017 87.3895 127.587Z" fill="white" stroke="#001E2B" stroke-miterlimit="10"/>
<path d="M73.472 141.497L83.4634 131.505C83.893 131.076 83.893 130.379 83.4634 129.95L83.4563 129.942C83.0267 129.513 82.3303 129.513 81.9007 129.942L71.9093 139.934C71.4797 140.363 71.4797 141.06 71.9093 141.49L71.9163 141.497C72.3459 141.926 73.0424 141.926 73.472 141.497Z" fill="white" stroke="#001E2B" stroke-miterlimit="10"/>
<path d="M20.9302 83.06L52.9602 51.02" stroke="#001E2B" stroke-miterlimit="10"/>
<path d="M56.3799 47.61L64.1899 39.79" stroke="#001E2B" stroke-miterlimit="10"/>
<path d="M118.04 132.64L150.07 100.6" stroke="#001E2B" stroke-miterlimit="10"/>
<path d="M78.6997 6.49L67.3197 4.81L60.1797 13.83L64.4097 24.52L75.7897 26.2L82.9397 17.19L78.6997 6.49Z" fill="white" stroke="#001E2B" stroke-width="0.75" stroke-miterlimit="10"/>
<path d="M64.4097 24.52L75.7897 26.2L71.5597 15.51L60.1797 13.83L64.4097 24.52Z" fill="#001E2B" stroke="#001E2B" stroke-width="0.75" stroke-miterlimit="10"/>
<path d="M78.6996 6.48999L71.5596 15.51" stroke="#001E2B" stroke-width="0.75" stroke-miterlimit="10"/>
<path d="M75.2203 39.75L86.6003 41.43L93.7403 32.42L89.9203 22.76L74.5703 38.11L75.2203 39.75Z" fill="#001E2B" stroke="#001E2B" stroke-miterlimit="10"/>
</svg>
