<?xml version="1.0" encoding="utf-8"?>
<!-- Generator: Adobe Illustrator 26.2.1, SVG Export Plug-In . SVG Version: 6.00 Build 0)  -->
<svg version="1.1" id="Layer_1" xmlns="http://www.w3.org/2000/svg" xmlns:xlink="http://www.w3.org/1999/xlink" x="0px" y="0px"
	 viewBox="0 0 64.015 56.138" style="enable-background:new 0 0 64.015 56.138;" xml:space="preserve">
<style type="text/css">
	.st0{fill:none;stroke:#FFFFFF;stroke-miterlimit:10;}
	.st1{fill:#FFFFFF;}
	.st2{fill:#00ED64;stroke:#FFFFFF;}
</style>
<g>
	<path class="st0" d="M32.008,37.409c4.754,0,8.608-3.854,8.608-8.608c0-4.754-3.854-8.608-8.608-8.608s-8.608,3.854-8.608,8.608
		C23.399,33.555,27.253,37.409,32.008,37.409z M32.008,37.409c-9.748,0-17.723,8.203-17.723,18.229h35.446
		C49.731,45.482,41.755,37.409,32.008,37.409z"/>
	<path class="st1" d="M0.5,55.638H0.008c0,0.272,0.22,0.492,0.492,0.492V55.638z M17.731,37.915c0,2.991-2.425,5.415-5.415,5.415
		v0.985c3.535,0,6.4-2.865,6.4-6.4H17.731z M12.315,43.331c-2.991,0-5.415-2.425-5.415-5.415H5.915c0,3.535,2.865,6.4,6.4,6.4
		V43.331z M6.9,37.915c0-2.991,2.425-5.415,5.415-5.415v-0.985c-3.535,0-6.4,2.865-6.4,6.4H6.9z M12.315,32.5
		c2.991,0,5.415,2.425,5.415,5.415h0.985c0-3.535-2.865-6.4-6.4-6.4V32.5z M14.285,55.146H0.5v0.985h13.785V55.146z M0.992,55.638
		c0-6.292,5.031-11.323,11.323-11.323v-0.985c-6.836,0-12.308,5.472-12.308,12.308H0.992z M12.315,44.315
		c1.877,0,3.641,0.448,5.191,1.241l0.449-0.876c-1.687-0.864-3.604-1.349-5.64-1.349V44.315z"/>
	<path class="st1" d="M63.515,55.638h0.492c0,0.272-0.22,0.492-0.492,0.492V55.638z M46.285,37.915c0,2.991,2.425,5.415,5.415,5.415
		v0.985c-3.535,0-6.4-2.865-6.4-6.4H46.285z M51.7,43.331c2.991,0,5.415-2.425,5.415-5.415H58.1c0,3.535-2.865,6.4-6.4,6.4V43.331z
		 M57.115,37.915c0-2.991-2.425-5.415-5.415-5.415v-0.985c3.535,0,6.4,2.865,6.4,6.4H57.115z M51.7,32.5
		c-2.991,0-5.415,2.425-5.415,5.415H45.3c0-3.535,2.865-6.4,6.4-6.4V32.5z M49.731,55.146h13.785v0.985H49.731V55.146z
		 M63.023,55.638c0-6.292-5.031-11.323-11.323-11.323v-0.985c6.836,0,12.308,5.472,12.308,12.308H63.023z M51.7,44.315
		c-1.877,0-3.641,0.448-5.191,1.241L46.06,44.68c1.687-0.864,3.604-1.349,5.64-1.349V44.315z"/>
	<path class="st2" d="M61.546,0.5H2.469C1.382,0.5,0.5,1.382,0.5,2.469v7.877c0,1.088,0.882,1.969,1.969,1.969h24.615l3.41,4.092
		c0.787,0.945,2.238,0.945,3.026,0l3.41-4.092h3.446h21.169c1.088,0,1.969-0.882,1.969-1.969V2.469
		C63.515,1.382,62.634,0.5,61.546,0.5z"/>
</g>
</svg>
