<svg width="56" height="64" viewBox="0 0 56 64" fill="none" xmlns="http://www.w3.org/2000/svg">
<path d="M28 2.3C31.6 2.3 34.4 5.2 34.4 8.7C34.4 12.3 31.5 15.1 28 15.1C24.4 15.1 21.6 12.2 21.6 8.7C21.6 5.2 24.5 2.3 28 2.3ZM28 0C23.2 0 19.3 3.9 19.3 8.8C19.3 13.6 23.2 17.5 28.1 17.5C32.9 17.5 36.8 13.6 36.8 8.8C36.8 3.9 32.9 0 28 0ZM28 18.2C33.7 18.2 38.3 22.8 38.3 28.5H17.7C17.7 22.8 22.4 18.2 28 18.2ZM28 15.9C21 15.9 15.4 21.6 15.4 28.5C15.4 29.8 16.4 30.8 17.7 30.8H38.3C39.6 30.8 40.6 29.8 40.6 28.5C40.6 21.5 35 15.9 28 15.9ZM10.5 41.2C13.1 41.2 15.1 43.3 15.1 45.8C15.1 48.4 13 50.4 10.5 50.4C8 50.4 5.9 48.3 5.9 45.8C5.9 43.2 8 41.2 10.5 41.2ZM10.5 38.9C6.7 38.9 3.5 42 3.5 45.9C3.5 49.7 6.6 52.9 10.5 52.9C14.3 52.9 17.5 49.8 17.5 45.9C17.5 42 14.4 38.9 10.5 38.9ZM10.5 53.5C15 53.5 18.7 57.2 18.7 61.7H2.3C2.3 57.1 6 53.5 10.5 53.5ZM10.5 51.2C4.7 51.2 0 55.9 0 61.7C0 63 1 64 2.3 64H18.8C20.1 64 21.1 63 21.1 61.7C21.1 55.9 16.4 51.2 10.5 51.2ZM45.3 41.2C47.9 41.2 49.9 43.3 49.9 45.8C49.9 48.4 47.8 50.4 45.3 50.4C42.7 50.4 40.7 48.3 40.7 45.8C40.7 43.2 42.8 41.2 45.3 41.2ZM45.3 38.9C41.5 38.9 38.3 42 38.3 45.9C38.3 49.7 41.4 52.9 45.3 52.9C49.1 52.9 52.3 49.8 52.3 45.9C52.3 42 49.2 38.9 45.3 38.9ZM45.3 53.5C49.8 53.5 53.5 57.2 53.5 61.7H37.1C37.1 57.1 40.8 53.5 45.3 53.5ZM45.3 51.2C39.5 51.2 34.8 55.9 34.8 61.7C34.8 63 35.8 64 37.1 64H53.6C54.9 64 55.9 63 55.9 61.7C55.9 55.9 51.2 51.2 45.3 51.2ZM45.3 41.2C47.9 41.2 49.9 43.3 49.9 45.8C49.9 48.4 47.8 50.4 45.3 50.4C42.7 50.4 40.7 48.3 40.7 45.8C40.7 43.2 42.8 41.2 45.3 41.2ZM45.3 38.9C41.5 38.9 38.3 42 38.3 45.9C38.3 49.7 41.4 52.9 45.3 52.9C49.1 52.9 52.3 49.8 52.3 45.9C52.3 42 49.2 38.9 45.3 38.9ZM45.3 53.5C49.8 53.5 53.5 57.2 53.5 61.7H37.1C37.1 57.1 40.8 53.5 45.3 53.5ZM45.3 51.2C39.5 51.2 34.8 55.9 34.8 61.7C34.8 63 35.8 64 37.1 64H53.6C54.9 64 55.9 63 55.9 61.7C55.9 55.9 51.2 51.2 45.3 51.2ZM28 41.2C30.6 41.2 32.6 43.3 32.6 45.8C32.6 48.3 30.5 50.4 28 50.4C25.4 50.4 23.4 48.3 23.4 45.8C23.4 43.2 25.5 41.2 28 41.2ZM28 38.9C24.2 38.9 21 42 21 45.9C21 49.8 24.1 52.9 28 52.9C31.9 52.9 35 49.8 35 45.9C35 42 31.9 38.9 28 38.9ZM28 53.5C32.5 53.5 36.2 57.2 36.2 61.7H19.8C19.8 57.1 23.5 53.5 28 53.5ZM28 51.2C22.2 51.2 17.5 55.9 17.5 61.7C17.5 63 18.5 64 19.8 64H36.2C37.5 64 38.5 63 38.5 61.7C38.6 55.9 33.9 51.2 28 51.2ZM29.2 32.4V29.5C29.2 28.9 28.7 28.3 28 28.3C27.3 28.3 26.8 28.8 26.8 29.5V32.4C26.8 33 27.3 33.6 28 33.6C28.7 33.6 29.2 33 29.2 32.4ZM46.6 35.4V33.1C46.6 32.5 46.1 31.9 45.4 31.9H10.6C10 31.9 9.4 32.4 9.4 33.1V35.4C9.4 36 9.9 36.6 10.6 36.6C11.3 36.6 11.8 36.1 11.8 35.4V34.3H44.3V35.4C44.3 36 44.8 36.6 45.5 36.6C46.1 36.6 46.6 36.1 46.6 35.4Z" fill="url(#paint0_linear)"/>
<defs>
<linearGradient id="paint0_linear" x1="0" y1="32" x2="55.8855" y2="32" gradientUnits="userSpaceOnUse">
<stop stop-color="#7DC5DB"/>
<stop offset="1" stop-color="#6E60F9"/>
</linearGradient>
</defs>
</svg>
