<svg width="12" height="12" viewBox="0 0 12 12" fill="none" xmlns="http://www.w3.org/2000/svg">
<path d="M8.59031 8.572C8.33233 8.55025 8.10557 8.74175 8.08383 8.99973C8.06208 9.25771 8.25359 9.48447 8.51156 9.50621C9.1062 9.55001 9.69741 9.63189 10.2816 9.75137C10.3351 9.76332 10.3732 9.81086 10.3732 9.86575C10.3732 9.92063 10.3351 9.96817 10.2816 9.98012C8.9946 10.2274 7.68526 10.3391 6.375 10.3134C5.0649 10.3391 3.75572 10.2274 2.46891 9.98012C2.41534 9.96817 2.37724 9.92063 2.37724 9.86575C2.37724 9.81086 2.41534 9.76332 2.46891 9.75137C3.04687 9.63291 3.63181 9.55149 4.22016 9.50762C4.4724 9.47907 4.65608 9.25492 4.6345 9.00198C4.61291 8.74905 4.3939 8.55926 4.14047 8.57387C0.75 8.86028 0.75 9.5634 0.75 9.86528C0.75 11.1159 4.64859 11.2509 6.375 11.2509C8.10141 11.2509 12 11.1159 12 9.86528C12 9.5634 12 8.86028 8.59031 8.572Z" fill="#B8C4C2"/>
<path d="M6.375 10.1259C6.5348 10.1259 6.68356 10.0444 6.76969 9.90984C7.6875 8.47406 9.82219 4.97109 9.82219 3.44766C9.82219 1.54357 8.27862 0 6.37454 0C4.47045 0 2.92688 1.54357 2.92688 3.44766C2.92688 4.97109 5.06157 8.47453 5.97985 9.90984C6.06563 10.045 6.21489 10.1267 6.375 10.1259ZM4.73438 3.28219C4.73438 2.3761 5.46891 1.64156 6.375 1.64156C7.2811 1.64156 8.01563 2.3761 8.01563 3.28219C8.01563 4.18828 7.2811 4.92281 6.375 4.92281C5.46891 4.92281 4.73438 4.18828 4.73438 3.28219Z" fill="#B8C4C2"/>
</svg>
