<svg width="15" height="16" viewBox="0 0 15 16" fill="none" xmlns="http://www.w3.org/2000/svg">
<path d="M10.4537 11.4294C10.1098 11.4004 9.80743 11.6557 9.77844 11.9997C9.74944 12.3437 10.0048 12.646 10.3488 12.675C11.1416 12.7334 11.9299 12.8426 12.7087 13.0019C12.7802 13.0178 12.831 13.0812 12.831 13.1544C12.831 13.2276 12.7802 13.2909 12.7087 13.3069C10.9928 13.6366 9.24701 13.7856 7.5 13.7512C5.7532 13.7855 4.00762 13.6365 2.29187 13.3069C2.22045 13.2909 2.16965 13.2276 2.16965 13.1544C2.16965 13.0812 2.22045 13.0178 2.29187 13.0019C3.06249 12.8439 3.84241 12.7354 4.62687 12.6769C4.9632 12.6388 5.20811 12.3399 5.17933 12.0027C5.15055 11.6654 4.85854 11.4124 4.52063 11.4319C0 11.8137 0 12.7512 0 13.1537C0 14.8212 5.19812 15.0012 7.5 15.0012C9.80188 15.0012 15 14.8212 15 13.1537C15 12.7512 15 11.8137 10.4537 11.4294Z" fill="#F9FBFA"/>
<path d="M7.49984 13.5013C7.7129 13.5013 7.91125 13.3926 8.02609 13.2131C9.24984 11.2987 12.0961 6.62812 12.0961 4.59687C12.0961 2.05809 10.038 0 7.49922 0C4.96043 0 2.90234 2.05809 2.90234 4.59687C2.90234 6.62812 5.74859 11.2994 6.97297 13.2131C7.08735 13.3934 7.28635 13.5022 7.49984 13.5013ZM5.31234 4.37625C5.31234 3.16813 6.29172 2.18875 7.49984 2.18875C8.70797 2.18875 9.68734 3.16813 9.68734 4.37625C9.68734 5.58437 8.70797 6.56375 7.49984 6.56375C6.29172 6.56375 5.31234 5.58437 5.31234 4.37625Z" fill="#F9FBFA"/>
</svg>
