<svg width="34" height="64" viewBox="0 0 34 64" fill="none" xmlns="http://www.w3.org/2000/svg">
<path d="M32.7 14.4C31.9 6.3 25.2 0 16.9 0C8.8 0 2 6.3 1.3 14.4C0.6 14.4 0 14.9 0 15.7C0 16.5 0.5 17 1.3 17C1.7 22.3 4.9 26.9 9.3 29.4L11.4 53.7C11.7 56.1 13.4 58.1 15.7 58.6V62.6C15.7 63.3 16.2 63.9 17 63.9C17.8 63.9 18.3 63.4 18.3 62.6V58.6C20.6 58.1 22.3 56.2 22.6 53.7L24.6 29.3C29 26.8 32.1 22.2 32.6 16.9H32.7C33.4 16.9 34 16.4 34 15.6C34 14.8 33.3 14.4 32.7 14.4ZM16.9 2.7C23.7 2.7 29.3 7.9 29.8 14.4H4C4.7 7.7 10.3 2.7 16.9 2.7ZM20 53.5C19.9 55 18.7 56.2 17.1 56.2C15.5 56.2 14.3 55 14.2 53.4L12 30.5C13.6 31 15.2 31.3 16.9 31.3C18.6 31.3 20.2 31 21.8 30.5L20 53.5ZM24.5 26.3C24.2 26 24 25.8 23.6 25.8C22.9 25.8 22.3 26.3 22.1 27L22 27.7C20.4 28.4 18.7 28.8 16.8 28.8C14.9 28.8 13.2 28.4 11.6 27.7L11.5 26.9C11.5 26.2 10.8 25.7 10 25.7C9.6 25.7 9.2 26 9.1 26.2C6.2 24.1 4 20.7 3.8 16.9H29.8C29.6 20.8 27.6 24.1 24.5 26.3ZM15.7 36.5V41.7C15.7 42.4 16.2 43 17 43C17.8 43 18.3 42.5 18.3 41.7V36.5C18.3 35.8 17.8 35.2 17 35.2C16.3 35.2 15.7 35.9 15.7 36.5Z" fill="url(#paint0_linear)"/>
<defs>
<linearGradient id="paint0_linear" x1="0" y1="31.95" x2="33.9584" y2="31.95" gradientUnits="userSpaceOnUse">
<stop stop-color="#7DC5DB"/>
<stop offset="1" stop-color="#6E60F9"/>
</linearGradient>
</defs>
</svg>
