<?xml version="1.0" encoding="UTF-8"?><svg id="a" xmlns="http://www.w3.org/2000/svg" viewBox="0 0 65 65"><defs><style>.b{fill:#00ed64;}.c{fill:none;stroke:#fff;stroke-miterlimit:10;}</style></defs><path class="c" d="M60.5,32.5H4.5c-2.2,0-4-1.8-4-4V4.5C.5,2.3,2.3,.5,4.5,.5H60.5c2.2,0,4,1.8,4,4V28.5c0,2.2-1.8,4-4,4Z"/><path class="b" d="M32.5,26.786c4.418,0,8-3.582,8-8s-3.582-8-8-8-8,3.582-8,8,3.582,8,8,8Z"/><path class="b" d="M48.5,42.786c-.1-8.855-7.2-16-16-16s-15.9,7.145-16,16H48.5Z"/><path class="c" d="M32.5,26.786c4.418,0,8-3.582,8-8s-3.582-8-8-8-8,3.582-8,8,3.582,8,8,8Zm0,0c8.8,0,15.9,7.145,16,16H16.5c.1-8.855,7.2-16,16-16Z"/><path class="c" d="M55.071,42.786l-5.6,20.234c-.2,.888-1,1.481-1.9,1.481H18.571c-.9,0-1.7-.592-1.9-1.481l-5.6-20.234m-6,0H61.071"/></svg>