<svg width="171" height="171" viewBox="0 0 171 171" fill="none" xmlns="http://www.w3.org/2000/svg">
<path d="M67.28 46.14C72.013 46.14 75.85 42.3031 75.85 37.57C75.85 32.8369 72.013 29 67.28 29C62.5469 29 58.71 32.8369 58.71 37.57C58.71 42.3031 62.5469 46.14 67.28 46.14Z" fill="white" stroke="#001E2B" stroke-miterlimit="10"/>
<path d="M62.0698 44.38C62.0698 44.38 72.8698 40.78 74.4198 32.83C76.2698 35.31 76.9698 40.99 72.9298 44.01C68.8898 47.03 64.9698 45.98 62.0798 44.38H62.0698Z" fill="#023430"/>
<path d="M86.5802 41.13L24.9902 129.51L115.61 132.4L164.9 61.67L153.45 43.26L86.5802 41.13Z" fill="white" stroke="#231F20" stroke-miterlimit="10"/>
<path d="M142.09 60.44L153.43 44.17L163.98 61.14L142.09 60.44Z" fill="white"/>
<path d="M153.4 45.08L163.06 60.61L143.03 59.97L153.41 45.08H153.4ZM153.46 43.26L141.16 60.91L164.91 61.67L153.46 43.27V43.26Z" fill="#231F20"/>
<path d="M150.8 47.07L88.5302 45.08L31.9102 126.32L113.06 128.91L160.03 61.51L141.15 60.91L150.8 47.07Z" fill="#FFE212" stroke="#001F2C" stroke-linejoin="round"/>
<path d="M143.79 60.99L139.43 64.83L164.9 61.67L143.79 60.99Z" fill="#001E2B"/>
<path d="M108.2 69.92L84.2002 69.16L91.6202 58.51L115.61 59.27L108.2 69.92Z" fill="#FF9F10" stroke="#001F2C" stroke-linejoin="round"/>
<path d="M92.8599 92.18L68.8599 91.42L76.2799 80.77L100.28 81.54L92.8599 92.18Z" fill="#FF9F10" stroke="#001F2C" stroke-linejoin="round"/>
<path d="M77.3501 114.44L53.3501 113.67L60.7701 103.03L84.7701 103.79L77.3501 114.44Z" fill="#FF9F10" stroke="#001F2C" stroke-linejoin="round"/>
<path d="M112.08 64.6L120.5 64.87L89.4801 109.38L81.0601 109.12" stroke="#001E2B" stroke-miterlimit="10"/>
<path d="M96.5703 86.86L141.37 88.29" stroke="#001E2B" stroke-miterlimit="10"/>
<path d="M87.49 85.23L73.67 72.4L68.79 82.77L87.49 85.23Z" fill="#00ED64" stroke="#001E2B" stroke-linejoin="round"/>
<path d="M85.86 83.7199L87.49 85.2299L68.79 82.7699L69.37 81.5499L85.86 83.7199Z" fill="#001F2C"/>
<path d="M82.5902 82.93C82.8502 82.37 83.0702 81.82 83.2402 81.28L87.5002 85.24L81.7402 84.48C82.0502 84.01 82.3402 83.49 82.6002 82.93H82.5902Z" fill="#001F2C"/>
<path d="M20.7301 47.49L73.6701 72.4C74.8901 72.97 74.7801 75.76 73.4301 78.62C72.0801 81.48 70.0001 83.34 68.7901 82.77L15.8501 57.86L20.7301 47.49Z" fill="#00ED64" stroke="#001E2B" stroke-linejoin="round"/>
<path d="M72.4901 80.29C71.2401 82.16 69.7501 83.22 68.7901 82.77L15.8501 57.86L17.4801 54.4L72.5001 80.29H72.4901Z" fill="#001F2C"/>
<path d="M11.8302 43.3L20.7302 47.49C21.9502 48.06 21.8402 50.85 20.4902 53.71C19.1402 56.57 17.0602 58.43 15.8502 57.86L6.9502 53.67L11.8302 43.3Z" fill="#00ED64" stroke="#001E2B" stroke-linejoin="round"/>
<path d="M11.5921 49.5243C12.9395 46.6609 13.0474 43.8765 11.833 43.305C10.6187 42.7336 8.54202 44.5916 7.1946 47.455C5.84718 50.3185 5.73929 53.1029 6.95361 53.6744C8.16794 54.2458 10.2446 52.3877 11.5921 49.5243Z" fill="#00885A" stroke="#001E2B" stroke-linejoin="round"/>
<path d="M74.1202 76.83L21.1802 51.92" stroke="#231F20" stroke-linejoin="round"/>
<path d="M19.5503 55.38L72.4903 80.29" stroke="#231F20" stroke-linejoin="round"/>
<path d="M71.13 90.32C71.13 90.32 71.08 90.32 71.05 90.33C71 90.34 70.95 90.35 70.9 90.37C70.88 90.37 70.86 90.38 70.84 90.39C70.77 90.42 70.71 90.45 70.65 90.49L34.49 115.86L24.98 129.5L33.33 129.77L76.8 99.27C76.97 99.15 77.09 98.98 77.17 98.78L86.21 86.89L87.47 85.23L71.24 90.3C71.24 90.3 71.16 90.3 71.12 90.31L71.13 90.32Z" fill="#001E2B"/>
<path d="M39.6201 139.79L109.2 142" stroke="#001E2B" stroke-miterlimit="10"/>
<path d="M146.94 103.03L161.67 81.89" stroke="#001E2B" stroke-miterlimit="10"/>
<path d="M134.26 121.23L142.51 109.38" stroke="#001E2B" stroke-miterlimit="10"/>
<path d="M81.7304 49.76C81.3304 49.76 80.9304 49.77 80.5404 49.8L75.6904 56.75C77.2404 57.48 79.3704 57.93 81.7204 57.93C86.4504 57.93 90.2904 56.1 90.2904 53.84C90.2904 51.58 86.4504 49.75 81.7204 49.75L81.7304 49.76Z" fill="#023430"/>
</svg>
