<svg width="68" height="69" viewBox="0 0 68 69" fill="none" xmlns="http://www.w3.org/2000/svg">
<path d="M67.8299 43.1904L60.5736 35.934C60.3468 35.7072 59.9216 35.7072 59.6949 35.934L53.8558 41.7164L37.8975 57.6747C37.8408 57.7314 37.8124 57.7881 37.7841 57.8448C37.7841 57.8731 37.7557 57.8732 37.7557 57.9015C37.7557 57.9298 37.7274 57.9298 37.7274 57.9298L34.8362 68.1058C34.7795 68.3042 34.8362 68.5593 35.0062 68.7293C35.1196 68.8427 35.2897 68.8994 35.4598 68.8994C35.5165 68.8994 35.5732 68.8994 35.6298 68.8711L45.8057 65.9799C45.8341 65.9799 45.8341 65.9515 45.8341 65.9515C45.8341 65.9515 45.8624 65.9232 45.8908 65.9232C45.9475 65.8948 46.0042 65.8665 46.0609 65.8098L67.8299 44.0124C68.0567 43.814 68.0567 43.4171 67.8299 43.1904ZM36.3385 67.3688L38.6344 59.3188L44.3885 65.0728L36.3385 67.3688ZM45.6073 64.5059L39.2297 58.1283L54.3093 43.0486L60.6869 49.4263L45.6073 64.5059ZM61.5656 48.5193L55.188 42.1416L60.12 37.2095L66.4977 43.5872L61.5656 48.5193ZM9.32555 45.6847H23.8383C24.1784 45.6847 24.4619 45.4013 24.4619 45.0611V36.3592C24.4619 36.019 24.1784 35.7356 23.8383 35.7356H9.32555C8.98541 35.7356 8.70196 36.019 8.70196 36.3592V45.0611C8.70196 45.4013 8.98541 45.6847 9.32555 45.6847ZM9.94914 36.9828H23.2147V44.4376H9.94914V36.9828ZM28.1751 67.6522H1.24719V2.1466H31.9166V18.9269C31.9166 19.2671 32.2001 19.5505 32.5402 19.5505H49.3205V37.7764C49.3205 38.1166 49.604 38.4 49.9441 38.4C50.2843 38.4 50.5677 38.1166 50.5677 37.7764V18.9553C50.5677 18.8702 50.5394 18.7852 50.511 18.7002C50.4827 18.6435 50.4544 18.5584 50.3977 18.5017C50.3977 18.5017 50.3977 18.5017 50.3977 18.4734L32.9937 1.09783C32.9371 1.04114 32.8804 0.984449 32.7953 0.956104C32.7386 0.927759 32.6253 0.899414 32.5402 0.899414H0.623593C0.283451 0.927759 0 1.21121 0 1.52301V68.2475C0 68.5876 0.283451 68.8711 0.623593 68.8711H28.2034C28.5436 68.8711 28.827 68.5876 28.827 68.2475C28.7987 67.9357 28.5436 67.6522 28.1751 67.6522ZM33.1638 3.05364L48.4418 18.3317H33.1638V3.05364ZM40.4202 39.2787C40.4202 38.9386 40.1367 38.6551 39.7966 38.6551H33.1638V24.766C33.1638 24.4259 32.8804 24.1424 32.5402 24.1424H24.4619V21.8748C24.4619 21.5347 24.1784 21.2512 23.8383 21.2512H9.32555C8.98541 21.2512 8.70196 21.5347 8.70196 21.8748V30.5768C8.70196 30.9169 8.98541 31.2004 9.32555 31.2004H23.8383C24.1784 31.2004 24.4619 30.9169 24.4619 30.5768V25.3896H31.9166V53.1395H24.4619V50.8436C24.4619 50.5034 24.1784 50.22 23.8383 50.22H9.32555C8.98541 50.22 8.70196 50.5034 8.70196 50.8436V59.5739C8.70196 59.914 8.98541 60.1975 9.32555 60.1975H23.8383C24.1784 60.1975 24.4619 59.914 24.4619 59.5739V54.3867H32.5402C32.8804 54.3867 33.1638 54.1032 33.1638 53.7631V39.874H39.8249C40.1367 39.9023 40.4202 39.6189 40.4202 39.2787ZM23.2147 24.766V29.9532H9.94914V29.9248V22.4701H23.2147V24.766ZM23.2147 53.7915V58.9786H9.94914V58.9503V51.4955H23.2147V53.7915Z" fill="url(#paint0_linear)"/>
<defs>
<linearGradient id="paint0_linear" x1="0" y1="34.9136" x2="67.9885" y2="34.9136" gradientUnits="userSpaceOnUse">
<stop stop-color="#7ACEDC"/>
<stop offset="0.5004" stop-color="#0ACF5B"/>
<stop offset="1" stop-color="#13A952"/>
</linearGradient>
</defs>
</svg>
