<svg width="171" height="171" viewBox="0 0 171 171" fill="none" xmlns="http://www.w3.org/2000/svg">
<path d="M138.67 36.58H36.6698C34.2453 36.58 32.2798 38.5455 32.2798 40.97V129.9C32.2798 132.325 34.2453 134.29 36.6698 134.29H138.67C141.094 134.29 143.06 132.325 143.06 129.9V40.97C143.06 38.5455 141.094 36.58 138.67 36.58Z" fill="#00C954" stroke="#231F20" stroke-miterlimit="10"/>
<path d="M131.96 122.03H43.3797C41.1897 122.03 39.4097 123.81 39.4097 126V134.28H135.93V126C135.93 123.81 134.15 122.03 131.96 122.03Z" fill="white" stroke="#001E2B" stroke-miterlimit="10"/>
<path d="M32.2798 49.44H143.06" stroke="#231F20" stroke-miterlimit="10"/>
<path d="M38.9397 45.06C40.0388 45.06 40.9297 44.1691 40.9297 43.07C40.9297 41.971 40.0388 41.08 38.9397 41.08C37.8407 41.08 36.9497 41.971 36.9497 43.07C36.9497 44.1691 37.8407 45.06 38.9397 45.06Z" stroke="#231F20" stroke-miterlimit="10"/>
<path d="M44.5999 45.06C45.6989 45.06 46.5899 44.1691 46.5899 43.07C46.5899 41.971 45.6989 41.08 44.5999 41.08C43.5008 41.08 42.6099 41.971 42.6099 43.07C42.6099 44.1691 43.5008 45.06 44.5999 45.06Z" stroke="#231F20" stroke-miterlimit="10"/>
<path d="M50.2498 45.06C51.3488 45.06 52.2398 44.1691 52.2398 43.07C52.2398 41.971 51.3488 41.08 50.2498 41.08C49.1507 41.08 48.2598 41.971 48.2598 43.07C48.2598 44.1691 49.1507 45.06 50.2498 45.06Z" stroke="#231F20" stroke-miterlimit="10"/>
<path d="M131.96 55.79H43.3797C41.1871 55.79 39.4097 57.5674 39.4097 59.76V80.91C39.4097 83.1026 41.1871 84.88 43.3797 84.88H131.96C134.152 84.88 135.93 83.1026 135.93 80.91V59.76C135.93 57.5674 134.152 55.79 131.96 55.79Z" fill="white" stroke="#001E2B" stroke-miterlimit="10"/>
<path d="M46.5796 64.36H101.7" stroke="#001E2B" stroke-miterlimit="10"/>
<path d="M46.5796 70.34H115.36" stroke="#001E2B" stroke-miterlimit="10"/>
<path d="M46.5796 76.32H75.5296" stroke="#001E2B" stroke-miterlimit="10"/>
<path d="M79.3594 76.32H108.309" stroke="#001E2B" stroke-miterlimit="10"/>
<path d="M131.96 88.91H43.3797C41.1871 88.91 39.4097 90.6875 39.4097 92.88V114.03C39.4097 116.223 41.1871 118 43.3797 118H131.96C134.152 118 135.93 116.223 135.93 114.03V92.88C135.93 90.6875 134.152 88.91 131.96 88.91Z" fill="white" stroke="#001E2B" stroke-miterlimit="10"/>
<path d="M46.5796 97.48H101.7" stroke="#001E2B" stroke-miterlimit="10"/>
<path d="M46.5796 103.46H115.36" stroke="#001E2B" stroke-miterlimit="10"/>
<path d="M46.5796 109.44H75.5296" stroke="#001E2B" stroke-miterlimit="10"/>
<path d="M79.3594 109.44H108.309" stroke="#001E2B" stroke-miterlimit="10"/>
<path d="M46.5796 130.6H101.7" stroke="#001E2B" stroke-miterlimit="10"/>
<path d="M24.3298 105.69C35.5191 105.69 44.5898 96.6193 44.5898 85.43C44.5898 74.2407 35.5191 65.17 24.3298 65.17C13.1405 65.17 4.06982 74.2407 4.06982 85.43C4.06982 96.6193 13.1405 105.69 24.3298 105.69Z" fill="#FFC010" stroke="#231F20" stroke-miterlimit="10"/>
<path d="M24.3297 83.08C27.7262 83.08 30.4797 80.3265 30.4797 76.93C30.4797 73.5334 27.7262 70.78 24.3297 70.78C20.9331 70.78 18.1797 73.5334 18.1797 76.93C18.1797 80.3265 20.9331 83.08 24.3297 83.08Z" fill="#FFE212" stroke="#231F20" stroke-miterlimit="10"/>
<path d="M24.33 105.7C29.68 105.7 34.54 103.62 38.16 100.24C37.92 92.81 31.82 86.85 24.33 86.85C16.84 86.85 10.74 92.8 10.5 100.23C14.12 103.62 18.98 105.69 24.33 105.69V105.7Z" fill="#FFE212" stroke="#231F20" stroke-miterlimit="10"/>
<path d="M141.48 64.65C152.669 64.65 161.74 55.5793 161.74 44.39C161.74 33.2007 152.669 24.13 141.48 24.13C130.29 24.13 121.22 33.2007 121.22 44.39C121.22 55.5793 130.29 64.65 141.48 64.65Z" fill="#FFC010" stroke="#231F20" stroke-miterlimit="10"/>
<path d="M141.48 42.04C144.876 42.04 147.63 39.2865 147.63 35.89C147.63 32.4934 144.876 29.74 141.48 29.74C138.083 29.74 135.33 32.4934 135.33 35.89C135.33 39.2865 138.083 42.04 141.48 42.04Z" fill="#FFE212" stroke="#231F20" stroke-miterlimit="10"/>
<path d="M141.48 64.66C146.83 64.66 151.69 62.58 155.31 59.2C155.07 51.77 148.97 45.81 141.48 45.81C133.99 45.81 127.89 51.76 127.65 59.19C131.27 62.58 136.13 64.65 141.48 64.65V64.66Z" fill="#FFE212" stroke="#231F20" stroke-miterlimit="10"/>
<path d="M143.06 152.06C154.249 152.06 163.32 142.989 163.32 131.8C163.32 120.611 154.249 111.54 143.06 111.54C131.871 111.54 122.8 120.611 122.8 131.8C122.8 142.989 131.871 152.06 143.06 152.06Z" fill="#FFC010" stroke="#231F20" stroke-miterlimit="10"/>
<path d="M143.06 129.44C146.456 129.44 149.21 126.687 149.21 123.29C149.21 119.893 146.456 117.14 143.06 117.14C139.663 117.14 136.91 119.893 136.91 123.29C136.91 126.687 139.663 129.44 143.06 129.44Z" fill="#FFE212" stroke="#231F20" stroke-miterlimit="10"/>
<path d="M143.06 152.06C148.41 152.06 153.27 149.98 156.89 146.6C156.65 139.17 150.55 133.21 143.06 133.21C135.57 133.21 129.47 139.16 129.23 146.59C132.85 149.98 137.71 152.05 143.06 152.05V152.06Z" fill="#FFE212" stroke="#231F20" stroke-miterlimit="10"/>
<path d="M59.02 36.58L61.78 39.33L68.92 46.47L71.53 36.72L71.57 36.58H59.02Z" fill="#001E2B"/>
<path d="M80.9297 22.59L78.3197 32.34L75.7097 42.1L68.5697 34.96L61.4297 27.82L71.1797 25.21L80.9297 22.59Z" fill="white" stroke="#001E2B" stroke-width="0.75" stroke-miterlimit="10"/>
<path d="M72.9197 30.61L61.4297 27.82L75.7097 42.1L72.9197 30.61Z" fill="#001E2B"/>
<path d="M72.9199 30.61L80.9299 22.59" stroke="#001E2B" stroke-width="0.75" stroke-miterlimit="10"/>
<path d="M26.2998 46.47V61.34" stroke="#001E2B" stroke-miterlimit="10"/>
<path d="M26.2998 109.7V118.89" stroke="#001E2B" stroke-miterlimit="10"/>
<path d="M122.16 27.82C126.83 22.38 133.75 18.94 141.48 18.94C155.54 18.94 166.93 30.34 166.93 44.39C166.93 49.17 165.61 53.64 163.32 57.46" stroke="#001E2B" stroke-miterlimit="10"/>
</svg>
