<svg width="170" height="156" viewBox="0 0 170 156" fill="none" xmlns="http://www.w3.org/2000/svg">
<path d="M85 39.65C74.1 39.65 65.3 30.85 65.3 19.95C65.3 9.05 74.1 0.25 85 0.25C95.9 0.25 104.7 9.05 104.7 19.95C104.7 30.85 95.9 39.65 85 39.65ZM85 3.35C75.8 3.35 68.4 10.75 68.4 19.95C68.4 29.15 75.8 36.55 85 36.55C94.2 36.55 101.6 29.15 101.6 19.95C101.6 10.75 94.2 3.35 85 3.35ZM135.8 39.65C128.9 39.65 123.4 34.05 123.4 27.25C123.4 20.45 129 14.85 135.8 14.85C142.6 14.85 148.2 20.45 148.2 27.25C148.2 34.05 142.7 39.65 135.8 39.65ZM135.8 17.85C130.7 17.85 126.5 22.05 126.5 27.15C126.5 32.25 130.7 36.45 135.8 36.45C140.9 36.45 145.1 32.25 145.1 27.15C145.1 22.05 140.9 17.85 135.8 17.85ZM34.2 39.65C27.3 39.65 21.8 34.05 21.8 27.25C21.8 20.45 27.4 14.85 34.2 14.85C41 14.85 46.6 20.45 46.6 27.25C46.6 34.05 41.1 39.65 34.2 39.65ZM34.2 17.85C29 17.85 24.9 22.05 24.9 27.15C24.9 32.25 29.1 36.45 34.2 36.45C39.3 36.45 43.5 32.25 43.5 27.15C43.5 22.05 39.4 17.85 34.2 17.85ZM85 155.75C62.6 155.75 41.6 154.25 25.7 151.45C8.7 148.45 0 144.55 0 139.65C0 130.15 33.8 126.25 48.3 125.05C49.1 124.95 49.9 125.65 50 126.45C50.1 127.35 49.4 128.05 48.6 128.15C15.3 130.95 3.1 136.55 3.1 139.65C3.1 145.05 34.3 152.65 85 152.65C135.7 152.65 166.9 145.05 166.9 139.65C166.9 136.55 154.7 130.95 121.1 128.15C120.2 128.05 119.6 127.35 119.7 126.45C119.8 125.55 120.5 124.95 121.4 125.05C136 126.25 170 130.15 170 139.65C170 144.55 161.3 148.45 144.3 151.45C128.4 154.25 107.4 155.75 85 155.75ZM103.1 119.45H66.9C66 119.45 65.4 118.75 65.4 117.95V70.75C65.4 59.85 74.2 51.05 85.1 51.05C96 51.05 104.8 59.85 104.8 70.75V117.95C104.7 118.75 104 119.45 103.1 119.45ZM68.4 116.35H101.6V70.75C101.6 61.55 94.2 54.15 85 54.15C75.8 54.15 68.4 61.55 68.4 70.75V116.35ZM146.7 104.95H124.9C124 104.95 123.4 104.25 123.4 103.45V63.45C123.4 56.55 129 51.05 135.8 51.05C142.6 51.05 148.2 56.65 148.2 63.45V103.35C148.2 104.25 147.5 104.95 146.7 104.95ZM126.5 101.85H145.2V63.45C145.2 58.25 141 54.15 135.9 54.15C130.8 54.15 126.6 58.35 126.6 63.45L126.5 101.85ZM45.1 104.95H23.3C22.4 104.95 21.8 104.25 21.8 103.45V63.45C21.8 56.55 27.4 51.05 34.2 51.05C41.1 51.05 46.6 56.65 46.6 63.45V103.35C46.6 104.25 45.9 104.95 45.1 104.95ZM24.9 101.85H43.6V63.45C43.6 58.25 39.4 54.15 34.3 54.15C29.1 54.15 25 58.35 25 63.45V101.85H24.9Z" fill="url(#paint0_linear)"/>
<defs>
<linearGradient id="paint0_linear" x1="0" y1="78" x2="170" y2="78" gradientUnits="userSpaceOnUse">
<stop stop-color="#F87216"/>
<stop offset="1" stop-color="#D24F93"/>
</linearGradient>
</defs>
</svg>
