<?xml version="1.0" encoding="UTF-8"?><svg id="a" xmlns="http://www.w3.org/2000/svg" viewBox="0 0 43 49"><defs><style>.b{fill:#00ed64;}.b,.c{stroke:#fff;stroke-miterlimit:10;}.c{fill:none;}</style></defs><path class="c" d="M21.425,48.5c1.275,0,5.25-1.425,5.25-1.425,9.825-3.75,15.825-13.05,15.825-23.55V7.175c0-3-1.875-3.975-3.375-4.425C33.35,1.175,27.425,.5,21.425,.5c-5.775,0-10.8,.825-16.05,1.95-.45,.075-.975,.225-1.5,.3-1.5,.375-3.375,1.35-3.375,4.425V23.525c0,10.5,6,19.8,15.825,23.55,0,0,3.975,1.425,5.25,1.425"/><path class="b" d="M33.064,16.959l-12.597,12.427-2.149,2.12-.222,.219c-.074,.073-.148,.073-.222,.146q-.074,0-.148,.073c-.519,.146-1.111,0-1.482-.365l-2.223-2.193-4.076-4.02c-.593-.585-.593-1.535,0-2.047l2.075-2.047c.593-.585,1.556-.585,2.075,0l2.964,2.924c.074,.073,.296,.073,.37,0l11.412-11.257c.593-.585,1.556-.585,2.075,0l2.075,2.047c.667,.512,.667,1.389,.074,1.974Z"/></svg>