<svg width="44" height="48" viewBox="0 0 44 48" fill="none" xmlns="http://www.w3.org/2000/svg">
<path d="M22.0001 48C21.9034 47.9997 21.8073 47.9863 21.7142 47.96C4.27462 43.0723 1.14592 32.371 1.02192 31.9179C0.996409 31.8266 0.983391 31.7322 0.983215 31.6374V2.07689C0.983295 1.88325 1.03646 1.69333 1.13694 1.52779C1.23742 1.36225 1.38136 1.22743 1.55311 1.13798C1.72485 1.04854 1.91784 1.00789 2.11108 1.02046C2.30431 1.03303 2.4904 1.09834 2.64912 1.20929C6.16082 3.66419 9.05842 4.75929 12.0459 4.75929H12.0477C13.798 4.76337 15.5265 4.37128 17.1037 3.61239C18.681 2.85351 20.066 1.74752 21.155 0.377291C21.2612 0.258591 21.3912 0.163632 21.5366 0.0986181C21.682 0.0336046 21.8395 0 21.9988 0C22.158 0 22.3155 0.0336046 22.4609 0.0986181C22.6063 0.163632 22.7363 0.258591 22.8425 0.377291C23.9322 1.74762 25.3178 2.85364 26.8956 3.61249C28.4734 4.37134 30.2024 4.76336 31.9532 4.75919C34.938 4.75919 37.8366 3.66419 41.3518 1.20919C41.5106 1.09851 41.6966 1.03343 41.8897 1.02103C42.0828 1.00862 42.2757 1.04936 42.4473 1.13882C42.6189 1.22827 42.7627 1.36303 42.8631 1.52847C42.9635 1.6939 43.0167 1.88367 43.0168 2.07719V31.6372C43.0167 31.732 43.0037 31.8264 42.9782 31.9177C42.8541 32.3708 39.7245 43.0721 22.2858 47.9602C22.1928 47.9864 22.0967 47.9998 22.0001 48ZM3.10132 31.4747C3.87514 33.4869 5.0327 35.3295 6.50962 36.9C8.99372 39.6709 13.6903 43.4558 22.0001 45.84C37.0816 41.5138 40.5177 32.6133 40.8989 31.476V4.03859C38.2501 5.82125 35.1453 6.80618 31.9532 6.87639C30.0924 6.88116 28.25 6.50678 26.5386 5.77608C24.8272 5.04539 23.2826 3.9737 21.999 2.62639C20.7158 3.97344 19.1716 5.04499 17.4607 5.77568C15.7498 6.50637 13.9079 6.88089 12.0475 6.87639H12.0457C8.8542 6.80665 5.74978 5.8222 3.10132 4.03999V31.4747ZM15.7068 38.9947C15.5343 38.9945 15.3644 38.9521 15.2119 38.8714C15.0594 38.7906 14.929 38.6738 14.8319 38.5312C14.7348 38.3885 14.674 38.2243 14.6548 38.0529C14.6355 37.8814 14.6584 37.7078 14.7215 37.5472L19.2356 26.0872H14.7592C14.5742 26.0871 14.3924 26.0385 14.2319 25.9462C14.0715 25.854 13.938 25.7213 13.8448 25.5614C13.7516 25.4016 13.7019 25.2201 13.7006 25.035C13.6994 24.85 13.7467 24.6678 13.8377 24.5067L21.7547 10.5367C21.8472 10.3738 21.9812 10.2383 22.1431 10.144C22.3049 10.0497 22.4889 10 22.6762 9.99999H30.0295C30.2172 9.99994 30.4015 10.0498 30.5636 10.1444C30.7257 10.2391 30.8597 10.3751 30.9519 10.5386C31.0442 10.702 31.0912 10.8871 31.0884 11.0748C31.0855 11.2624 31.0329 11.446 30.9357 11.6066L25.8732 19.9786H31.548C31.7545 19.9785 31.9566 20.0388 32.1293 20.1521C32.3019 20.2654 32.4377 20.4268 32.5198 20.6163C32.6019 20.8058 32.6267 21.0152 32.5912 21.2187C32.5558 21.4222 32.4616 21.6108 32.3202 21.7614L16.4791 38.6589C16.3802 38.7647 16.2607 38.8491 16.1278 38.9068C15.995 38.9645 15.8517 38.9943 15.7068 38.9943V38.9947ZM16.5762 23.97H20.7909C20.9634 23.97 21.1333 24.0122 21.2858 24.0929C21.4383 24.1735 21.5688 24.2902 21.6659 24.4328C21.763 24.5754 21.8239 24.7395 21.8431 24.911C21.8623 25.0824 21.8394 25.2559 21.7763 25.4165L18.7213 33.1726L29.1044 22.0959H23.996C23.8083 22.0959 23.624 22.0461 23.4619 21.9515C23.2998 21.8568 23.1658 21.7208 23.0736 21.5573C22.9814 21.3938 22.9343 21.2088 22.9371 21.0211C22.94 20.8334 22.9927 20.6499 23.0898 20.4893L28.1523 12.1165H23.2932L16.5762 23.97Z" fill="url(#paint0_linear)"/>
<defs>
<linearGradient id="paint0_linear" x1="0.983215" y1="24" x2="43.017" y2="24" gradientUnits="userSpaceOnUse">
<stop stop-color="#7ACFDD"/>
<stop offset="0.5004" stop-color="#4AB85B"/>
<stop offset="1" stop-color="#12AA51"/>
</linearGradient>
</defs>
</svg>
