<svg width="52" height="40" viewBox="0 0 52 40" fill="none" xmlns="http://www.w3.org/2000/svg">
<path d="M46.7389 25.9005C46.7389 28.4939 45.7859 30.6779 43.88 32.4524C42.0422 34.2268 39.7619 35.1141 37.0392 35.1141C34.3164 35.1141 32.0702 34.2268 30.3004 32.4524C28.5306 30.6779 27.6458 28.4939 27.6458 25.9005C27.6458 24.3308 27.85 22.761 28.2584 21.1913C28.7348 19.5533 29.5517 17.5741 30.7088 15.2536L38.0602 0H47.1473L42.7569 18.1201C45.4115 20.0311 46.7389 22.6245 46.7389 25.9005Z" fill="url(#paint0_linear)"/>
<path d="M29.2279 23.7982L29.2239 23.8119L29.2203 23.8257C28.7912 25.4749 28.5754 27.1292 28.5754 28.7867C28.5754 31.6346 29.5582 34.0757 31.5221 36.0448C33.4966 38.0246 36.0058 39.0003 38.9688 39.0003C41.9288 39.0003 44.4615 38.0272 46.4978 36.0643C48.6015 34.1026 49.6686 31.656 49.6686 28.7867C49.6686 25.4196 48.3703 22.6669 45.8123 20.6069L50.0488 3.12171L50.3482 1.88623H49.077H39.9899H39.3617L39.089 2.45208L31.7406 17.6997C30.5705 20.0466 29.7269 22.0828 29.2279 23.7982Z" fill="#061621" stroke="url(#paint1_linear)" stroke-width="2"/>
<path d="M20.0162 25.9005C20.0162 28.4939 19.0633 30.6779 17.1573 32.4524C15.3195 34.2268 13.0392 35.1141 10.3165 35.1141C7.59377 35.1141 5.34752 34.2268 3.57775 32.4524C1.80798 30.6779 0.923096 28.4939 0.923096 25.9005C0.923096 24.3308 1.1273 22.761 1.53571 21.1913C2.01219 19.5533 2.829 17.5741 3.98616 15.2536L11.3375 0H20.4246L16.0342 18.1201C18.6889 20.0311 20.0162 22.6245 20.0162 25.9005Z" fill="url(#paint2_linear)"/>
<path d="M2.5052 23.7982L2.50121 23.8119L2.49762 23.8257C2.06853 25.4749 1.85278 27.1292 1.85278 28.7867C1.85278 31.6346 2.83551 34.0757 4.7994 36.0448C6.77393 38.0246 9.28311 39.0003 12.2462 39.0003C15.2061 39.0003 17.7389 38.0272 19.7751 36.0643C21.8789 34.1026 22.9459 31.656 22.9459 28.7867C22.9459 25.4196 21.6476 22.6669 19.0896 20.6069L23.3262 3.12171L23.6255 1.88623H22.3543H13.2672H12.6391L12.3664 2.45208L5.01793 17.6997C3.84786 20.0466 3.0042 22.0828 2.5052 23.7982Z" fill="#061621" stroke="url(#paint3_linear)" stroke-width="2"/>
<defs>
<linearGradient id="paint0_linear" x1="46.9831" y1="34.9959" x2="17.3457" y2="18.4521" gradientUnits="userSpaceOnUse">
<stop stop-color="#F7A76F"/>
<stop offset="0.377511" stop-color="#E55F55"/>
<stop offset="0.53806" stop-color="#E55F55"/>
<stop offset="0.728707" stop-color="#D34F94"/>
<stop offset="1" stop-color="#D34F94"/>
</linearGradient>
<linearGradient id="paint1_linear" x1="48.9128" y1="37.8821" x2="19.2754" y2="21.3383" gradientUnits="userSpaceOnUse">
<stop stop-color="#F7A76F"/>
<stop offset="0.377511" stop-color="#E55F55"/>
<stop offset="0.53806" stop-color="#E55F55"/>
<stop offset="0.728707" stop-color="#D34F94"/>
<stop offset="1" stop-color="#D34F94"/>
</linearGradient>
<linearGradient id="paint2_linear" x1="20.2605" y1="34.9959" x2="-9.37696" y2="18.4521" gradientUnits="userSpaceOnUse">
<stop stop-color="#F7A76F"/>
<stop offset="0.377511" stop-color="#E55F55"/>
<stop offset="0.53806" stop-color="#E55F55"/>
<stop offset="0.728707" stop-color="#D34F94"/>
<stop offset="1" stop-color="#D34F94"/>
</linearGradient>
<linearGradient id="paint3_linear" x1="22.1902" y1="37.8821" x2="-7.44727" y2="21.3383" gradientUnits="userSpaceOnUse">
<stop stop-color="#F7A76F"/>
<stop offset="0.377511" stop-color="#E55F55"/>
<stop offset="0.53806" stop-color="#E55F55"/>
<stop offset="0.728707" stop-color="#D34F94"/>
<stop offset="1" stop-color="#D34F94"/>
</linearGradient>
</defs>
</svg>
