<svg width="64" height="64" viewBox="0 0 64 64" fill="none" xmlns="http://www.w3.org/2000/svg">
<path d="M61.9 0C61.8 0 61.5 0 61.4 0C61.3 0 61 0 60.9 0C58.9 0.4 48.4 2.3 44.9 5.7C43.8 6.8 35.1 15.5 27.1 23.7C21.8 23.7 18.2 24.1 16.5 24.6H16.4C14.1 25.7 12 27.1 10.3 28.9L0.600017 38.6C1.70469e-05 39 -0.099983 39.7 0.100017 40.2C0.300017 40.7 0.800017 40.9 1.30002 40.9H1.40002L12 39.6C12 40.3 12.3 41.1 12.8 41.5L14.7 43.4C12.6 42.2 9.60002 42.9 7.40002 45.3C4.60002 48.1 1.70002 60.1 1.30002 61.4C1.20002 61.9 1.30002 62.3 1.70002 62.7C2.00002 63 2.20002 63.1 2.60002 63.1C2.70002 63.1 2.90002 63.1 3.00002 63.1C4.30002 62.7 16.2 59.8 19.1 57C21.5 54.6 22.2 51.8 21 49.7L22.6 51.3C23.1 51.8 23.8 52 24.3 52.1L23 62.5C22.9 63 23.3 63.7 23.7 64C24.1 63.9 24.2 63.9 24.5 63.9C24.9 63.9 25.2 63.8 25.4 63.5L35.1 53.8C36.8 52.1 38.3 49.9 39.2 47.5C39.7 45.8 40.1 42.2 40.3 37L58.3 19C61.6 15.7 63.5 5.2 63.9 3C64.4 1.6 63.3 0.3 61.9 0ZM5.50002 37.4L12.4 30.6C14 29 15.7 27.9 17.6 26.9C18.5 26.6 20.4 26.4 24.5 26.2C20 30.7 16.1 34.6 14.4 36.3L5.50002 37.4ZM18.1 47.9C17.6 48.4 17.6 49.4 18.1 49.8C20 51.7 17.6 54.2 17.2 54.6C15.6 56.2 9.30002 58.2 4.70002 59.4C6.00002 54.6 8.00002 48.3 9.50002 46.7C10 46.2 12.4 43.9 14.3 45.8C14.8 46.3 15.8 46.3 16.2 45.8C16.5 45.5 16.6 45 16.5 44.6L19.4 47.5C18.9 47.5 18.4 47.6 18.1 47.9ZM25.3 46.8L25 48.4C24.9 48.8 24.7 48.9 24.7 48.9L15.1 39.2C15.1 39.2 15.2 39.1 15.5 38.8L17.1 38.5C17.8 38.4 18.4 37.7 18.3 36.9C18.3 36.5 18 36.4 17.9 36.2C17.9 36.2 17.9 36.2 18 36.1L27.6 45.7L27.5 45.8C27.2 45.5 27 45.4 26.7 45.4C26.1 45.5 25.4 46.2 25.3 46.8ZM37.1 46.6C36.3 48.6 35.1 50.3 33.5 51.9L26.7 58.7L27.8 49.9L37.9 39.8C37.7 43.1 37.5 45.5 37.1 46.6ZM56.6 17.2C54.6 19.2 46.1 27.7 38.2 35.6C35 38.8 31.9 41.9 29.6 44.2L20 34.6C22.4 32.2 25.3 29.3 28.4 26.2C28.8 26.1 28.9 25.8 29.1 25.5C37.1 17.5 45.9 8.6 46.9 7.7C50 4.6 61.5 2.6 61.5 2.6C61.5 2.6 59.5 14.2 56.6 17.2Z" fill="url(#paint0_linear)"/>
<defs>
<linearGradient id="paint0_linear" x1="0.362517" y1="32" x2="64.1495" y2="32" gradientUnits="userSpaceOnUse">
<stop stop-color="#7DC5DB"/>
<stop offset="1" stop-color="#6E60F9"/>
</linearGradient>
</defs>
</svg>
