<?xml version="1.0" encoding="utf-8"?>
<!-- Generator: Adobe Illustrator 26.2.1, SVG Export Plug-In . SVG Version: 6.00 Build 0)  -->
<svg version="1.1" id="Layer_1" xmlns="http://www.w3.org/2000/svg" xmlns:xlink="http://www.w3.org/1999/xlink" x="0px" y="0px"
	 viewBox="0 0 66 55" style="enable-background:new 0 0 66 55;" xml:space="preserve">
<style type="text/css">
	.st0{fill:none;stroke:#FFFFFF;stroke-miterlimit:10;}
	.st1{fill:#00ED64;stroke:#FFFFFF;stroke-miterlimit:10;}
</style>
<path class="st0" d="M33,46V22 M33,1C15.267,1,1,15.177,1,32.8C1,40.882,4.067,48.435,9.133,54h47.733
	C61.933,48.435,65,40.882,65,32.8C65,15.177,50.733,1,33,1z M33,1v7 M51,15l5-5 M58,33h7 M15,15l-5-5 M8,33H1"/>
<path class="st1" d="M33,46c2.761,0,5-2.239,5-5s-2.239-5-5-5s-5,2.239-5,5S30.239,46,33,46z"/>
</svg>
