<svg width="16" height="15" viewBox="0 0 16 15" fill="none" xmlns="http://www.w3.org/2000/svg">
<path d="M14.4 0H1.6C0.692993 0 0 0.692993 0 1.6V9.06702C0 9.92001 0.692993 10.667 1.6 10.667H10.133L13.866 14.4V10.667H14.399C15.306 10.667 15.999 9.92001 15.999 9.06702L16 1.6C16 0.692993 15.307 0 14.4 0H14.4ZM12 3.733C12.747 3.733 13.333 4.32001 13.333 5.06599C13.333 5.813 12.746 6.39898 12 6.39898C11.253 6.39998 10.667 5.81297 10.667 5.06699C10.667 4.31998 11.253 3.733 12 3.733ZM3.46701 6.40001C2.72 6.40001 2.13402 5.813 2.13402 5.06702C2.13402 4.32001 2.72103 3.73402 3.46701 3.73402C4.21402 3.73402 4.80001 4.32103 4.80001 5.06702C4.80001 5.81303 4.213 6.40001 3.46701 6.40001ZM7.733 6.40001C6.98599 6.40001 6.40001 5.813 6.40001 5.06702C6.40001 4.32001 6.98702 3.73402 7.733 3.73402C8.48001 3.73402 9.066 4.32103 9.066 5.06702C9.067 5.81303 8.47999 6.40001 7.733 6.40001Z" fill="#F9FBFA"/>
</svg>
