<?xml version="1.0" encoding="utf-8"?>
<!-- Generator: Adobe Illustrator 26.2.1, SVG Export Plug-In . SVG Version: 6.00 Build 0)  -->
<svg version="1.1" id="Layer_1" xmlns="http://www.w3.org/2000/svg" xmlns:xlink="http://www.w3.org/1999/xlink" x="0px" y="0px"
	 viewBox="0 0 65 64" style="enable-background:new 0 0 65 64;" xml:space="preserve">
<style type="text/css">
	.st0{fill:#00ED64;stroke:#001E2B;stroke-miterlimit:10;}
	.st1{fill:#001E2B;}
</style>
<path class="st0" d="M31,60c16.569,0,30-13.208,30-29.5S47.569,1,31,1S1,14.208,1,30.5S14.432,60,31,60z"/>
<path class="st1" d="M31.139,60.037c16.533,0,29.935-13.306,29.935-29.72c0-7.375-2.706-14.123-7.186-19.318
	C60.789,16.444,65,24.849,65,34.28C65,50.694,51.598,64,35.065,64C25.961,64,17.49,59.538,12,53.171
	C17.189,57.458,23.86,60.037,31.139,60.037z"/>
<path class="st1" d="M23,32.72h5.436v5.436h4.284V32.72h5.4v-4.284h-5.4V23h-4.284v5.436H23V32.72z"/>
</svg>
