<?xml version="1.0" encoding="UTF-8"?><svg id="a" xmlns="http://www.w3.org/2000/svg" viewBox="0 0 49 49"><defs><style>.b{fill:#00ed64;}.c{fill:none;stroke:#fff;stroke-miterlimit:10;}</style></defs><path class="c" d="M21.562,21.5c5.799,0,10.5-4.701,10.5-10.5S27.361,.5,21.562,.5,11.062,5.201,11.062,11s4.701,10.5,10.5,10.5Z"/><path class="c" d="M42.5,42.5H.5c0-11.55,9.45-21,21-21s21,9.3,21,21Z"/><path class="b" d="M38.715,48.5c.592,0,2.437-.668,2.437-.668,4.562-1.758,7.347-6.117,7.347-11.039v-7.664c0-1.406-.871-1.863-1.567-2.074-2.681-.738-5.432-1.055-8.218-1.055-2.681,0-5.014,.387-7.452,.914-.209,.035-.453,.105-.696,.141-.696,.176-1.567,.633-1.567,2.074v7.664c0,4.922,2.786,9.281,7.347,11.039,0,0,1.846,.668,2.437,.668"/><path class="c" d="M38.715,48.5c.592,0,2.437-.668,2.437-.668,4.562-1.758,7.347-6.117,7.347-11.039v-7.664c0-1.406-.871-1.863-1.567-2.074-2.681-.738-5.432-1.055-8.218-1.055-2.681,0-5.014,.387-7.452,.914-.209,.035-.453,.105-.696,.141-.696,.176-1.567,.633-1.567,2.074v7.664c0,4.922,2.786,9.281,7.347,11.039,0,0,1.846,.668,2.437,.668"/></svg>