<svg width="42" height="48" viewBox="0 0 42 48" fill="none" xmlns="http://www.w3.org/2000/svg">
<path d="M14.4 12.6C11.4 13 8.4 15.6 8.4 19.9C8.4 26.5 19.9 34.9 20.4 35.2C20.6 35.3 20.8 35.4 21 35.4C21.2 35.4 21.4 35.3 21.6 35.2C22.1 34.8 33.6 26.5 33.6 19.9C33.6 15.6 30.6 13 27.6 12.6C25.4 12.3 22.7 13.2 21 16.3C19.4 13.3 16.6 12.4 14.4 12.6ZM21 20.2C21.5 20.2 21.9 19.9 22 19.4C23 15.5 25.4 14.3 27.4 14.6C29.5 14.9 31.6 16.8 31.6 19.9C31.6 24.3 24.4 30.6 21 33.2C17.6 30.6 10.4 24.3 10.4 19.9C10.4 16.7 12.5 14.8 14.6 14.6C14.8 14.6 14.9 14.6 15.1 14.6C17 14.6 19.1 15.9 20 19.5C20.1 19.9 20.5 20.2 21 20.2ZM41.3 9.1C41.2 9.1 26.5 5.1 21.8 0.3C21.4 -0.1 20.7 -0.1 20.4 0.3C15.5 5 0.9 9 0.7 9.1C0.3 9.2 0 9.6 0 10C0 27.1 1.5 40.8 20.7 47.9C20.8 47.9 20.9 48 21 48C21.1 48 21.2 48 21.3 47.9C40.5 40.9 42 27.2 42 10C42 9.6 41.7 9.2 41.3 9.1ZM21 45.9C3.6 39.4 2 27.2 2 10.8C5 9.9 16.1 6.6 21 2.3C26 6.5 37 9.9 40 10.8C40 27.2 38.4 39.4 21 45.9Z" fill="url(#paint0_linear)"/>
<defs>
<linearGradient id="paint0_linear" x1="0" y1="24" x2="41.9385" y2="24" gradientUnits="userSpaceOnUse">
<stop stop-color="#7ACEDC"/>
<stop offset="0.5004" stop-color="#0ACF5B"/>
<stop offset="1" stop-color="#13A952"/>
</linearGradient>
</defs>
</svg>
