<svg width="108" height="170" viewBox="0 0 108 170" fill="none" xmlns="http://www.w3.org/2000/svg">
<path d="M107.068 56.0976L55.1616 0.482946C55.0094 0.329957 54.8283 0.208559 54.629 0.125723C54.4297 0.0428867 54.2159 0.000244141 54.0001 0.000244141C53.7842 0.000244141 53.5705 0.0428867 53.3712 0.125723C53.1718 0.208559 52.9908 0.329957 52.8385 0.482946L0.931736 56.0976C0.720493 56.3239 0.579975 56.607 0.527455 56.9121C0.474934 57.2172 0.512699 57.531 0.636109 57.8149C0.759518 58.0988 0.963193 58.3405 1.2221 58.5102C1.48101 58.6799 1.78386 58.7703 2.09344 58.7702H33.8734V90.5516C33.8734 90.973 34.0408 91.377 34.3387 91.675C34.6366 91.9729 35.0407 92.1402 35.462 92.1402C35.8834 92.1402 36.2874 91.9729 36.5853 91.675C36.8833 91.377 37.0506 90.973 37.0506 90.5516V57.1816C37.0507 56.973 37.0096 56.7664 36.9298 56.5737C36.8499 56.381 36.7329 56.2058 36.5854 56.0583C36.4379 55.9108 36.2627 55.7938 36.07 55.714C35.8772 55.6342 35.6707 55.5931 35.462 55.5931H5.74944L54 3.89545L102.251 55.593H72.5381C72.1168 55.593 71.7126 55.7604 71.4146 56.0583C71.1166 56.3561 70.9491 56.7602 70.9488 57.1815V90.5515C70.9522 90.9709 71.1211 91.3719 71.4187 91.6672C71.7164 91.9625 72.1188 92.1282 72.5381 92.1282C72.9574 92.1282 73.3597 91.9625 73.6574 91.6672C73.9551 91.3719 74.124 90.9709 74.1273 90.5515V58.7702H105.907C106.216 58.7703 106.519 58.6799 106.778 58.5102C107.037 58.3404 107.24 58.0988 107.364 57.8149C107.487 57.531 107.525 57.2172 107.473 56.9122C107.42 56.6071 107.28 56.324 107.068 56.0977V56.0976Z" fill="url(#paint0_linear)"/>
<path d="M35.462 103.792C35.0406 103.792 34.6366 103.959 34.3387 104.257C34.0408 104.555 33.8734 104.96 33.8734 105.381V123.919C33.8734 124.34 34.0408 124.744 34.3387 125.042C34.6366 125.34 35.0407 125.508 35.462 125.508C35.8833 125.508 36.2874 125.34 36.5853 125.042C36.8832 124.744 37.0506 124.34 37.0506 123.919V105.381C37.0506 104.96 36.8833 104.555 36.5854 104.257C36.2875 103.959 35.8834 103.792 35.462 103.792Z" fill="url(#paint1_linear)"/>
<path d="M72.5381 103.792C72.1167 103.792 71.7125 103.959 71.4145 104.257C71.1165 104.555 70.949 104.959 70.9488 105.381V123.919C70.9472 124.129 70.987 124.337 71.0662 124.531C71.1453 124.725 71.2621 124.902 71.4098 125.051C71.5576 125.2 71.7333 125.318 71.927 125.399C72.1206 125.479 72.3283 125.521 72.5381 125.521C72.7478 125.521 72.9555 125.479 73.1492 125.399C73.3428 125.318 73.5186 125.2 73.6663 125.051C73.8141 124.902 73.9309 124.725 74.01 124.531C74.0891 124.337 74.129 124.129 74.1273 123.919V105.381C74.1271 104.959 73.9597 104.555 73.6617 104.257C73.3637 103.959 72.9596 103.792 72.5381 103.792Z" fill="url(#paint2_linear)"/>
<path d="M35.462 137.16C35.0406 137.16 34.6366 137.328 34.3387 137.626C34.0408 137.924 33.8734 138.328 33.8734 138.749V149.873C33.8734 150.294 34.0408 150.698 34.3387 150.996C34.6366 151.294 35.0407 151.461 35.462 151.461C35.8833 151.461 36.2874 151.294 36.5853 150.996C36.8832 150.698 37.0506 150.294 37.0506 149.873V138.75C37.0506 138.328 36.8833 137.924 36.5854 137.626C36.2875 137.328 35.8834 137.16 35.462 137.16Z" fill="url(#paint3_linear)"/>
<path d="M72.5381 137.16C72.1167 137.16 71.7126 137.328 71.4146 137.626C71.1166 137.924 70.949 138.328 70.9488 138.749V149.873C70.9472 150.083 70.987 150.291 71.0662 150.485C71.1453 150.679 71.2621 150.856 71.4098 151.005C71.5576 151.154 71.7333 151.272 71.927 151.352C72.1206 151.433 72.3283 151.475 72.5381 151.475C72.7478 151.475 72.9555 151.433 73.1492 151.352C73.3428 151.272 73.5186 151.154 73.6663 151.005C73.8141 150.856 73.9309 150.679 74.01 150.485C74.0891 150.291 74.129 150.083 74.1273 149.873V138.75C74.1272 138.328 73.9597 137.924 73.6617 137.626C73.3637 137.328 72.9596 137.16 72.5381 137.16Z" fill="url(#paint4_linear)"/>
<path d="M35.462 163.115C35.0406 163.115 34.6366 163.282 34.3387 163.58C34.0408 163.878 33.8734 164.282 33.8734 164.704V168.411C33.8734 168.832 34.0408 169.236 34.3387 169.534C34.6366 169.832 35.0407 170 35.462 170C35.8833 170 36.2874 169.832 36.5853 169.534C36.8832 169.236 37.0506 168.832 37.0506 168.411V164.704C37.0506 164.282 36.8832 163.878 36.5853 163.58C36.2874 163.282 35.8834 163.115 35.462 163.115Z" fill="url(#paint5_linear)"/>
<path d="M72.5381 163.115C72.1167 163.115 71.7126 163.282 71.4146 163.58C71.1166 163.878 70.949 164.282 70.9488 164.704V168.411C70.9522 168.83 71.1211 169.231 71.4187 169.527C71.7164 169.822 72.1188 169.988 72.5381 169.988C72.9574 169.988 73.3597 169.822 73.6574 169.527C73.9551 169.231 74.124 168.83 74.1273 168.411V164.704C74.1271 164.282 73.9596 163.878 73.6616 163.58C73.3636 163.282 72.9596 163.115 72.5381 163.115Z" fill="url(#paint6_linear)"/>
<defs>
<linearGradient id="paint0_linear" x1="0.504536" y1="46.0705" x2="107.496" y2="46.0705" gradientUnits="userSpaceOnUse">
<stop stop-color="#7DC5DB"/>
<stop offset="1" stop-color="#6E60F9"/>
</linearGradient>
<linearGradient id="paint1_linear" x1="139.893" y1="2593.51" x2="149.988" y2="2593.51" gradientUnits="userSpaceOnUse">
<stop stop-color="#7DC5DB"/>
<stop offset="1" stop-color="#6E60F9"/>
</linearGradient>
<linearGradient id="paint2_linear" x1="294.863" y1="2595.04" x2="304.967" y2="2595.04" gradientUnits="userSpaceOnUse">
<stop stop-color="#7DC5DB"/>
<stop offset="1" stop-color="#6E60F9"/>
</linearGradient>
<linearGradient id="paint3_linear" x1="139.893" y1="2200.97" x2="149.988" y2="2200.97" gradientUnits="userSpaceOnUse">
<stop stop-color="#7DC5DB"/>
<stop offset="1" stop-color="#6E60F9"/>
</linearGradient>
<linearGradient id="paint4_linear" x1="294.863" y1="2202.89" x2="304.967" y2="2202.89" gradientUnits="userSpaceOnUse">
<stop stop-color="#7DC5DB"/>
<stop offset="1" stop-color="#6E60F9"/>
</linearGradient>
<linearGradient id="paint5_linear" x1="139.893" y1="1309.89" x2="149.988" y2="1309.89" gradientUnits="userSpaceOnUse">
<stop stop-color="#7DC5DB"/>
<stop offset="1" stop-color="#6E60F9"/>
</linearGradient>
<linearGradient id="paint6_linear" x1="294.856" y1="1307.91" x2="304.959" y2="1307.91" gradientUnits="userSpaceOnUse">
<stop stop-color="#7DC5DB"/>
<stop offset="1" stop-color="#6E60F9"/>
</linearGradient>
</defs>
</svg>
