<svg width="171" height="171" viewBox="0 0 171 171" fill="none" xmlns="http://www.w3.org/2000/svg">
<path d="M129.2 64.49H31.8904L17.1104 53.7H114.42L129.2 64.49Z" fill="#B45AF2" stroke="#001E2B" stroke-linejoin="round"/>
<path d="M129.201 64.52H31.8906V82.26H129.201V64.52Z" fill="#7C25FF" stroke="#231F20" stroke-linejoin="round"/>
<path d="M31.8904 125.64L17.1104 114.85V53.7L31.8904 64.49V125.64Z" fill="#7C25FF" stroke="#231F20" stroke-linejoin="round"/>
<path d="M143.981 93.06H46.6706L31.8906 82.26H129.201L143.981 93.06Z" fill="#00ED64" stroke="#001E2B" stroke-linejoin="round"/>
<path d="M144.02 93.09H46.71V110.78H144.02V93.09Z" fill="#00C954" stroke="#231F20" stroke-miterlimit="10"/>
<path d="M46.6706 136.44L31.8906 125.64V82.26L46.6706 93.06V136.44Z" fill="#00C954" stroke="#231F20" stroke-miterlimit="10"/>
<path d="M52.1706 49.18C57.2958 49.18 61.4506 45.0252 61.4506 39.9C61.4506 34.7748 57.2958 30.62 52.1706 30.62C47.0454 30.62 42.8906 34.7748 42.8906 39.9C42.8906 45.0252 47.0454 49.18 52.1706 49.18Z" fill="white" stroke="#001E2B" stroke-miterlimit="10"/>
<path d="M158.8 121.58H61.49L46.71 110.78H144.02L158.8 121.58Z" fill="#B45AF2" stroke="#001E2B" stroke-linejoin="round"/>
<path d="M158.8 121.6H61.4902V147.18H158.8V121.6Z" fill="#7C25FF" stroke="#231F20" stroke-linejoin="round"/>
<path d="M61.49 147.24L46.71 136.44V110.78L61.49 121.58V147.24Z" fill="#7C25FF" stroke="#231F20" stroke-linejoin="round"/>
<path d="M132.74 116.18C132.74 116.18 131.01 73.89 119.39 73.89C111.45 73.89 108.65 87.67 108.65 87.67" stroke="#001E2B" stroke-miterlimit="10"/>
<path d="M108.651 87.66C108.651 87.66 106.921 45.37 95.3006 45.37C87.3606 45.37 84.5605 59.15 84.5605 59.15" stroke="#001E2B" stroke-miterlimit="10"/>
<path d="M84.5597 59.18C84.5597 59.18 82.8297 16.89 71.2097 16.89C63.2697 16.89 60.4697 30.67 60.4697 30.67" stroke="#001E2B" stroke-miterlimit="10"/>
<path d="M52.1705 60.29C57.1079 60.29 61.1105 58.9961 61.1105 57.4C61.1105 55.8039 57.1079 54.51 52.1705 54.51C47.233 54.51 43.2305 55.8039 43.2305 57.4C43.2305 58.9961 47.233 60.29 52.1705 60.29Z" fill="#001E2B"/>
<path d="M59.1899 33.84C59.2999 34.53 59.3599 35.23 59.3599 35.95C59.3599 42.12 55.1299 47.31 49.4199 48.77C50.2899 49.04 51.2099 49.18 52.1699 49.18C57.2999 49.18 61.4499 45.02 61.4499 39.9C61.4499 37.58 60.5999 35.46 59.1899 33.84Z" fill="#001E2B"/>
<path d="M12.2002 66.52V110.78" stroke="#001E2B" stroke-miterlimit="10"/>
<path d="M40.0206 138.49L31.8906 132.58" stroke="#001E2B" stroke-miterlimit="10"/>
<path d="M44.8506 142.01L61.4906 154.12H93.1306" stroke="#001E2B" stroke-miterlimit="10"/>
<path d="M31.8906 82.26H129.201L133.581 85.46L31.8906 82.26Z" fill="#001E2B"/>
<path d="M46.71 110.78H144.02L148.4 113.98L46.71 110.78Z" fill="#001E2B"/>
</svg>
