<svg height="350" viewBox="0 0 403 350" width="403" xmlns="http://www.w3.org/2000/svg" xmlns:xlink="http://www.w3.org/1999/xlink"><linearGradient id="a"><stop offset="0" stop-color="#0ad05b"/><stop offset=".16" stop-color="#15d162"/><stop offset=".43" stop-color="#34d475"/><stop offset=".8" stop-color="#65d894"/><stop offset="1" stop-color="#83dba7"/></linearGradient><linearGradient id="b" x1="17.032875%" x2="84.577323%" xlink:href="#a" y1="62.565792%" y2="36.823206%"/><linearGradient id="c" x1="0%" x2="100%" y1="49.993465%" y2="49.993465%"><stop offset="0" stop-color="#36367f"/><stop offset="1" stop-color="#6e60f9"/></linearGradient><linearGradient id="d" x1="0%" x2="100.008017%" xlink:href="#a" y1="50.004064%" y2="50.004064%"/><linearGradient id="e"><stop offset="0" stop-color="#0ad05b"/><stop offset=".31" stop-color="#0ea354"/><stop offset=".6" stop-color="#117f4e"/><stop offset=".84" stop-color="#12694a"/><stop offset="1" stop-color="#136149"/></linearGradient><linearGradient id="f" x1="95.450644%" x2="-121.094421%" xlink:href="#e" y1="34.839655%" y2="107.076063%"/><linearGradient id="g" x1="77.240802%" x2="2.7571%" xlink:href="#e" y1="-12.112806%" y2="157.682231%"/><linearGradient id="h" x1="50.022885%" x2="49.926986%" xlink:href="#e" y1="-14.64182%" y2="265.513069%"/><linearGradient id="i" x1="0%" x2="99.975192%" xlink:href="#a" y1="50%" y2="50%"/><g fill="none" fill-rule="evenodd" transform="translate(1 1)"><path d="m150.117913 209 134.882087-77.102408-47.117913-26.897592-134.882087 77.102408z" fill="url(#b)" fill-rule="nonzero" opacity=".5"/><path d="m151.5 209v90" stroke="#ed5d75" stroke-linecap="round" stroke-linejoin="round" stroke-width="1.25"/><path d="m103.5 182v90" stroke="#ed5d75" stroke-linecap="round" stroke-linejoin="round" stroke-width="1.25"/><path d="m66.262927 13.062942h239.656811v211.507585h-239.656811z" fill="#b8c4c2" fill-rule="nonzero" opacity=".05805382"/><path d="m287 196.97422-31.974941-18.97422-32.025059 19.008593 31.974941 18.991407z" stroke="#0ad05b" stroke-width=".63"/><g opacity=".3" stroke="#0ad05b" stroke-width=".63" transform="translate(0 131)"><path d="m309.27021 83.0065278 29.121833-16.75875-29.121833-16.7436111-29.121833 16.7436111z"/><path d="m134.934185 183.695278-29.106642 16.75875 29.106642 16.743611 29.121834-16.743611z"/><path d="m163.676235 66.2780556-29.137025 16.75875 29.137025 16.75875 29.106642-16.75875z"/><path d="m163.676235 99.7652778-29.137025 16.7587502 29.137025 16.743611 29.106642-16.743611z"/><path d="m134.53921 116.463472-29.106642 16.75875 29.106642 16.75875 29.137025-16.75875z"/><path d="m367.513877 83.0065278-29.121834-16.75875-29.121833 16.75875 29.121833 16.75875z"/><path d="m309.27021 116.524028 29.121833-16.7587502-29.121833-16.75875-29.121833 16.75875z"/><path d="m87.3852346 34.3955556 29.1218334-16.75875-29.1218334-16.74361116-29.1218334 16.74361116z"/><path d="m145.628901 34.3955556-29.121833-16.75875-29.1218334 16.75875 29.1218334 16.75875z"/><path d="m87.3852346 67.8979167 29.1218334-16.7436111-29.1218334-16.75875-29.1218334 16.75875z"/><path d="m58.2026358 17.6216667-29.0610679-16.72847226-29.12183333 16.75874996 29.06106793 16.7284723z"/></g><path d="m105 11 20.5-11 20.5 11" stroke="#6e60f9" stroke-linecap="round" stroke-linejoin="round" stroke-width=".63"/><circle cx="126" cy="24" r="8" stroke="#6e60f9" stroke-linecap="round" stroke-linejoin="round" stroke-width=".63"/><path d="m125 21v6h5" stroke="#6e60f9" stroke-linecap="round" stroke-linejoin="round" stroke-width=".63"/><path d="m125.951111 7.00042274h.146738c1.602814 0 2.902151 1.32810961 2.902151 2.96641584v2.03316142h-6v-2.01649616c-.004451-.79836759.306083-1.56488532.861453-2.12628082.555369-.5613955 1.308685-.87026938 2.089658-.85680028z" fill="#6e60f9" fill-rule="nonzero"/><path d="m125.5 37v9" stroke="#6e60f9" stroke-linecap="round" stroke-linejoin="round" stroke-width=".63"/><circle cx="126" cy="51" fill="#6e60f9" fill-rule="nonzero" r="5"/><path d="m140 9v28h-28v-28" stroke="#6e60f9" stroke-linecap="round" stroke-linejoin="round" stroke-width=".63"/><path d="m189.721344 165 39.278656-22.977539-13.721344-8.022461-39.278656 22.992676z" style="stroke:#fff;stroke-width:1.25;fill:#fff;fill-rule:nonzero;stroke-linecap:round;stroke-linejoin:round"/><path d="m220 150s-10.632406-.839853-12.72917-.55462c-1.155696.158463-2.757161-2.519559-2.129783-2.89987.627378-.38031 6.108681-2.060016 6.026131-3.296026 0-.269387-2.080253-.744776-2.360923-.919085-.610868-.38031-.247649-.776468.495299-.887392l3.05434-.427849c1.650995-.285233 6.818609 3.549567 6.818609 3.549567" fill="#d18b5a" fill-rule="nonzero"/><path d="m312.830313 163-83.830313 32.317344 61.690255 97.682656 15.078721-.084956-40.892017-86.553392 101.123041-43.361652h-28.245348" fill="url(#c)" fill-rule="nonzero"/><path d="m195.580875 290h12.419125l-3.043744 11h-12.956256z" fill="#d18b5a" fill-rule="nonzero"/><path d="m206.983723 312h-31.983723c.000467-1.620926.951426-3.035839 2.311292-3.438926l10.433367-3.044295c3.150778-.925614 5.569761-3.842365 6.233978-7.516779h13.021363z" fill="#2f9fc5" fill-rule="nonzero"/><path d="m315.265193 163.622089-81.341149-6.622089-36.924044 131h12.905655l41.660065-100.32045 78.533365 11.416815c20.601688 2.246481 38.446336-14.93742 37.888162-35.474276z" fill="#4f4fbf" fill-rule="nonzero"/><path d="m384 94-15.406321 69h-54.446952s-1.202032-21.138337-1.202032-38.756439c0-1.912435-2.522573-1.69242-5.891648 2.25092l-14.695259 14.927153c-6.027088 6.769683-8.465011 8.834437-11.698646 8.834437h-60.812641l-.846501-5.805004 56.309255-7.328183 18.961625-26.791022c7.635441-11.1022814 10.615125-15.2317884 19.825057-16.331862" fill="#ed5d75" fill-rule="nonzero"/><path d="m327 63.7753223.114372 13.01539c.02535 3.682643 2.695803 6.7967991 6.290469 7.335646 1.601362.2444541 2.841101 1.5484376 3.022693 3.1793319l1.225416 10.8792763c.228744 1.9870825 7.172768 2.8150335 7.172768 2.8150335 1.957382-.233705 3.364032-2.0212482 3.153404-4.0072829l-3.921331-34.7739427c-.222144-1.9885061-1.991688-3.418768-3.954009-3.1958909l-9.934039 1.1425724c-1.805304.2177507-3.165956 1.7673307-3.169743 3.6098664z" fill="#d18b5a" fill-rule="nonzero"/><path d="m339.312159 72.8173781c1.485787-2.0930233 3.592221-2.2648386 4.795897-1.0933704 1.655055 1.5619578 1.297713 6.7007986-3.573414 6.2478309-4.871127-.4529678-1.222483-5.1544605-1.222483-5.1544605z" fill="#d18b5a" fill-rule="nonzero"/><path d="m336.743952 68.8220886c-1.830456-2.4954728-11.73545-.3418456-11.769664-3.418456-.034214-3.0766103-2.668703-6.170313.872461-11.2296278 4.178051-5.6772678 11.723323-7.7249168 18.201922-4.9396689 9.100962 3.9825012 11.803879 23.5018848 9.562853 31.7916405-1.950206 7.2129422 7.270504 9.2127389 10.452419 13.5029011 3.181915 4.2901623-2.206812 11.4518275-9.254925 8.9563545-9.802351-3.418456-22.35894 2.529658-25.900104-.37603-9.990528-8.2042943 9.990529-12.8021176 3.849091-19.4510145-4.08859-4.4098082 8.05743-9.2127388 3.985947-14.8360989z" fill="#6e60f7" fill-rule="nonzero"/><path d="m370.978953 102.045216-22.683903 38.429391-38.157027-48.474607-3.138023 5.1513928 35.886968 60.4258382c1.303445 1.629481 3.281735 2.525219 5.330169 2.413417 2.048435-.111802 3.923488-1.217854 5.052014-2.98007l36.721549-43.168672c1.746963-2.572795 2.392926-5.76959 1.787367-8.845465s-2.409749-5.7621755-4.992157-7.4329367c-2.643579-1.694134-5.855454-2.1735731-8.858063-1.3222501-3.002609.8513231-5.522232 2.9558012-6.948894 5.8039618z" fill="#d3509b" fill-rule="nonzero"/><path d="m307.72896 98s-8.204412-8.0889236-10.152736-9.2951666c-1.072472-.6740769-.464738-4.0622006.339616-3.9557674s6.559955 2.4657025 7.400058 1.3481539c.178745-.2483442-1.197594-2.0754475-1.304841-2.4302249-.232369-.7450324.35749-.8337267 1.054597-.4257328.697107.407994 2.466686 1.5432815 2.842051 1.7738868 1.644458.9578988 3.092295 7.7696239 3.092295 7.7696239" fill="#d18b5a" fill-rule="nonzero"/><path d="m291 293h14.893372l2.106628 9h-11.153698z" fill="#d18b5a" fill-rule="nonzero"/><path d="m311 316h-33c.000464-1.620926.945103-3.035839 2.295933-3.438926l10.364038-3.044295c3.131865-.921579 5.536306-3.840189 6.192552-7.516779h11.059285z" fill="#2f9fc5" fill-rule="nonzero"/><path d="m339 208-43 108" stroke="#ed5d75" stroke-linecap="round" stroke-linejoin="round" stroke-width="1.25"/><path d="m355 209 46 106" stroke="#ed5d75" stroke-linecap="round" stroke-linejoin="round" stroke-width="1.25"/><g fill-rule="nonzero"><path d="m391.251572 89c-9.853256 0-20.397081 85.000792-36.431781 94.650074-28.077567 16.902995-79.819791-1.792488-79.819791 8.292351 0 9.532017 70.134967 42.533901 106.465689 6.868413 26.241662-25.781675 19.841256-109.810838 9.785883-109.810838z" fill="url(#d)" opacity=".5"/><path d="m170.860572 167.529088 4.20044 3.253244c.593587.481201.938988 1.208765.938988 1.977912s-.345401 1.496711-.938988 1.977912l-.846132.702578c-.917728.745688-2.225047.745688-3.142775 0l-4.094674-3.283791c-.61635-.48-.977431-1.221963-.977431-2.008459s.361081-1.528458.977431-2.008458l.846132-.626212c.898944-.690722 2.144908-.684456 3.037009.015274z" fill="#fff" stroke="#fff"/><path d="m157.812446 66.4235775h.015236l26.084121-15.0643361 19.654506-11.3592414 4.433691 2.561547-23.143562 13.3718855-23.158799 13.3718855h-.015236l-20.248712 11.694682-4.433691-2.561547z" fill="url(#f)"/><path d="m141 80.5076283 23.294347-13.3800277 20.411306-11.7170597v-.0305132l23.294347-13.3800277v60.492372l-23.294347 13.380027v.030514l-23.309681 13.380027v-.015256l-20.395972 11.732316z" fill="url(#g)"/><path d="m137 78 5 2.5462246v60.4537754l-5-2.561471z" fill="url(#h)"/><path d="m2.19501348.07560976.16579065 58.08341464 58.38845467-33.8580488.0150718 2.5102439-60.57387687 35.1131707-.18086254-60.57853654z" fill="url(#i)" opacity=".5" transform="translate(140 87)"/><path d="m151 92.6759494 16-9.6759494v4.3240506l-15.983211 9.6759494z" fill="#0ad05b"/><path d="m169.981258 90 .018742 3.9762963-13.981258 7.0237037-.018742-3.9925926z" fill="#d83a6c"/><path d="m176.985366 85 .014634 4.0441989-2.985366 1.9558011-.014634-4.0607735z" fill="#0ad05b"/><path d="m189 71v4.0607735l-4.97549 1.9392265-.02451-4.0441989z" fill="#0ad05b"/><path d="m186.97549 63 .02451 4.7375691-4.97549 2.2624309-.02451-4.7375691z" fill="#0ad05b"/><path d="m199.985366 62 .014634 4.0495868-2.985366 1.9504132-.014634-4.0495868z" fill="#0ad05b"/><path d="m160.985294 115 .014706 4.044199-2.985294 1.955801-.014706-4.060773z" fill="#0ad05b"/><path d="m153.985366 126 .014634 4.055402-2.985366 1.944598-.014634-4.055402z" fill="#0ad05b"/><path d="m180 67v4.1996558l-9.982847 5.8003442-.017153-4.2168675z" fill="#f97216"/><path d="m182.981432 74 .018568 3.9587021-13.981432 7.0412979-.018568-3.9587021z" fill="#f97216"/><path d="m160.985401 84 .014599 3.8184664-9.985401 6.1815336-.014599-3.8341158z" fill="#6e60f9"/><path d="m167 64v4.4871795l-7 5.5128205v-4.4688645z" fill="#d83a6c"/><path d="m166.983211 73 .016789 4.3144654-16 9.6855346v-4.3144654z" fill="#0ad05b"/><path d="m194.985401 64 .014599 3.8184664-9.985401 6.1815336-.014599-3.8184664z" fill="#d83a6c"/><path d="m178.982792 59 .017208 4.0384615-9 4.9615385v-4.0384615z" fill="#6e60f9"/><path d="m141 83.5871267 76.831275-43.5871267.168725 60.397796-2.208765 1.251378-74.607171 42.350826-.168725-57.9101189zm15.96753 17.5042043v3.678747l14.60239-8.231951v-3.6787475zm14.587052-15.8909831-14.602391 8.2922587v3.6938242l14.617729-8.2922586v-3.6938243m13.973506 3.4073645v-3.6787475l-11.55 6.5433459v3.5882865l11.55-6.5433459m-11.427291 14.0817626v-3.6787473l-11.442629 6.4830383v3.678748zm20.538447-34.5711798v-3.6938243l-10.491634 6.0307335v3.6787475l10.491634-6.0307336m-44.113945 21.3337199v3.6938243l10.491634-5.9553493v-3.6787475zm23.406773-5.6387358v3.8144389l8.927092-5.080893v-3.6787474l-8.94243 5.0658161m-10.414941-1.718759v3.6938243l8.006773-4.5230502v-3.6938243zm10.506973-6.0307336v3.6938243l8.006772-4.5230501v-3.7089012l-8.006772 4.5230502m25.860956-10.975935v-3.6938243l-3.067729 1.7790664v3.6938242zm-8.896415 20.2180342v-3.6938243l-3.067729 1.7790664v3.6787474zm-5.491235-4.4175124 3.067729-1.7639895v-3.6636706l-3.067729 1.7639895v3.6938243m-5.966733 18.6651203v-3.6787474l-3.067729 1.7790664v3.6787476zm-25.738247 29.8822846v-3.678747l-3.067729 1.763989v3.693825l3.067729-1.76399m6.641634-11.413163v-3.708901l-3.067729 1.763989v3.693824l3.067729-1.779066" fill="#21313c" opacity=".79169"/></g><path d="m241.5 94v124" stroke="#d83a6c" stroke-linecap="round" stroke-linejoin="round" stroke-width="1.25"/><path d="m287.5 120v108" stroke="#d83a6c" stroke-linecap="round" stroke-linejoin="round" stroke-width="1.25"/><path d="m347.5 204v68" stroke="#ed5d75" stroke-linecap="round" stroke-linejoin="round" stroke-width="1.25"/></g></svg>