<svg height="168" viewBox="0 0 136 168" width="136" xmlns="http://www.w3.org/2000/svg" xmlns:xlink="http://www.w3.org/1999/xlink"><linearGradient id="a"><stop offset="0" stop-color="#0ad05b"/><stop offset=".16" stop-color="#15d162"/><stop offset=".43" stop-color="#34d475"/><stop offset=".8" stop-color="#65d894"/><stop offset="1" stop-color="#83dba7"/></linearGradient><linearGradient id="b" x1="48.980815%" x2="52.233213%" xlink:href="#a" y1="36.625496%" y2="79.244186%"/><linearGradient id="c" x1=".014988%" x2="100%" xlink:href="#a" y1="50%" y2="50%"/><linearGradient id="d" x1="50.196297%" x2="50.196297%" xlink:href="#a" y1="100.001576%" y2="-31.295285%"/><linearGradient id="e" x1="29.018888%" x2="78.977801%" xlink:href="#a" y1="69.18582%" y2="23.802104%"/><linearGradient id="f" x1="966219%" x2="966219%" y1="-2225.98312%" y2="-2225.98312%"><stop offset="0" stop-color="#b9eacd"/><stop offset="1" stop-color="#13aa52"/></linearGradient><g fill="none" fill-rule="evenodd" transform="translate(1 1)"><g opacity=".1" stroke="#0ad05b" stroke-width=".63"><path d="m20 129.014475-20 11.505196 20 11.494804 20-11.494804z"/><path d="m103 .01447471-20 11.49999999 20 11.5 20-11.5z"/><path d="m103 23.0144747-20 11.5051966 20 11.4948034 20-11.4948034z"/><path d="m83 35.0144747-20 11.5 20 11.5 20-11.5z"/></g><g fill-rule="nonzero"><path d="m100.5 167 34.5-20-34.5-20-34.5 20z" fill="url(#b)" opacity=".5"/><path d="m100.5 154 34.5-20-34.5-20-34.5 20z" fill="url(#c)" opacity=".5"/><path d="m1.05.97227273s-1.26 27.59999997 17.031 20.80454547c9.1455-17.8668182-17.031-20.80454547-17.031-20.80454547z" fill="url(#d)" transform="translate(76 83.014475)"/><path d="m8.56375 0s-18.753125 20.8834615.10625 26.6573077c18.413125-8.5465385-.10625-26.6573077-.10625-26.6573077z" fill="url(#e)" transform="translate(91 60.014475)"/></g><path d="m86 96c3.666725 3.2168318 6.7146082 7.066453 8.9956555 11.361939 3.3841202 6.355339 5.1034095 13.45199 4.9999354 20.638061" stroke="#13aa52" stroke-linecap="round" stroke-linejoin="round" stroke-width=".63"/><path d="m99.5 77v57" style="stroke:#13aa52;stroke-width:.63;fill-rule:nonzero;stroke-linecap:round;stroke-linejoin:round;fill:url(#f)"/></g></svg>