<?xml version="1.0" encoding="UTF-8"?>
<svg width="500px" height="500px" viewBox="0 0 500 500" version="1.1" xmlns="http://www.w3.org/2000/svg" xmlns:xlink="http://www.w3.org/1999/xlink">
    <title>Academia</title>
    <defs>
        <linearGradient x1="17.0328749%" y1="62.4111378%" x2="84.577323%" y2="36.9853806%" id="linearGradient-1">
            <stop stop-color="#0AD05B" offset="0%"></stop>
            <stop stop-color="#15D162" offset="16%"></stop>
            <stop stop-color="#34D475" offset="43%"></stop>
            <stop stop-color="#65D894" offset="80%"></stop>
            <stop stop-color="#83DBA7" offset="100%"></stop>
        </linearGradient>
        <linearGradient x1="0%" y1="49.9934649%" x2="100%" y2="49.9934649%" id="linearGradient-2">
            <stop stop-color="#36367F" offset="0%"></stop>
            <stop stop-color="#6E60F9" offset="100%"></stop>
        </linearGradient>
        <linearGradient x1="0%" y1="50.0040635%" x2="100.008017%" y2="50.0040635%" id="linearGradient-3">
            <stop stop-color="#0AD05B" offset="0%"></stop>
            <stop stop-color="#15D162" offset="16%"></stop>
            <stop stop-color="#34D475" offset="43%"></stop>
            <stop stop-color="#65D894" offset="80%"></stop>
            <stop stop-color="#83DBA7" offset="100%"></stop>
        </linearGradient>
        <linearGradient x1="95.4506438%" y1="35.1549396%" x2="-121.094421%" y2="105.889072%" id="linearGradient-4">
            <stop stop-color="#0AD05B" offset="0%"></stop>
            <stop stop-color="#0EA354" offset="31%"></stop>
            <stop stop-color="#117F4E" offset="60%"></stop>
            <stop stop-color="#12694A" offset="84%"></stop>
            <stop stop-color="#136149" offset="100%"></stop>
        </linearGradient>
        <linearGradient x1="77.6488984%" y1="-12.1128063%" x2="2.04935127%" y2="157.682231%" id="linearGradient-5">
            <stop stop-color="#0AD05B" offset="0%"></stop>
            <stop stop-color="#0EA354" offset="31%"></stop>
            <stop stop-color="#117F4E" offset="60%"></stop>
            <stop stop-color="#12694A" offset="84%"></stop>
            <stop stop-color="#136149" offset="100%"></stop>
        </linearGradient>
        <linearGradient x1="50.0289638%" y1="-14.6418199%" x2="49.9075917%" y2="265.513069%" id="linearGradient-6">
            <stop stop-color="#0AD05B" offset="0%"></stop>
            <stop stop-color="#0EA354" offset="31%"></stop>
            <stop stop-color="#117F4E" offset="60%"></stop>
            <stop stop-color="#12694A" offset="84%"></stop>
            <stop stop-color="#136149" offset="100%"></stop>
        </linearGradient>
        <linearGradient x1="0%" y1="50%" x2="99.9751923%" y2="50%" id="linearGradient-7">
            <stop stop-color="#0AD05B" offset="0%"></stop>
            <stop stop-color="#15D162" offset="16%"></stop>
            <stop stop-color="#34D475" offset="43%"></stop>
            <stop stop-color="#65D894" offset="80%"></stop>
            <stop stop-color="#83DBA7" offset="100%"></stop>
        </linearGradient>
    </defs>
    <g id="Page-1" stroke="none" stroke-width="1" fill="none" fill-rule="evenodd">
        <g id="Academia-Page-MVP" transform="translate(-797.000000, -90.000000)">
            <g id="Academia" transform="translate(797.000000, 90.000000)">
                <path d="M0,0 L500,0 L500,500 L0,500 L0,0 Z" id="Rectangle"></path>
                <g id="Academia_Hero" transform="translate(72.000000, 95.000000)">
                    <polygon id="Path" fill="url(#linearGradient-1)" fill-rule="nonzero" opacity="0.5" points="132.940121 185 253 116.794024 211.059879 93 91 161.205976"></polygon>
                    <line x1="134.5" y1="185" x2="134.5" y2="265" id="Path" stroke="#ED5D75" stroke-width="1.25" stroke-linecap="round" stroke-linejoin="round"></line>
                    <line x1="91.5" y1="161" x2="91.5" y2="241" id="Path" stroke="#ED5D75" stroke-width="1.25" stroke-linecap="round" stroke-linejoin="round"></line>
                    <g id="Group" opacity="0.22" style="mix-blend-mode: lighten;" transform="translate(58.000000, 12.000000)" fill="#B8C4C2" fill-rule="nonzero">
                        <g id="Rectangle" opacity="0.263881138">
                            <rect x="0.23334794" y="0.055519161" width="212.69542" height="186.565653"></rect>
                        </g>
                    </g>
                    <polygon id="Path" stroke="#0AD05B" stroke-width="0.63" points="254 173.976934 225.522318 157 197 174.007689 225.477682 191"></polygon>
                    <g id="Group" opacity="0.3" transform="translate(0.000000, 116.000000)" stroke="#0AD05B" stroke-width="0.63">
                        <polygon id="Path" points="273.973066 73.4874306 299.771212 58.6505556 273.973066 43.8270833 248.174921 58.6505556"></polygon>
                        <polygon id="Path" points="119.534088 162.629306 93.7493997 177.466181 119.534088 192.289653 145.332234 177.466181"></polygon>
                        <polygon id="Path" points="144.995795 58.6773611 119.184191 73.5142361 144.995795 88.3511111 170.780483 73.5142361"></polygon>
                        <polygon id="Path" points="144.995795 88.3243056 119.184191 103.161181 144.995795 117.984653 170.780483 103.161181"></polygon>
                        <polygon id="Path" points="119.184191 103.107569 93.3995031 117.944444 119.184191 132.781319 144.995795 117.944444"></polygon>
                        <polygon id="Path" points="325.569358 73.4874306 299.771212 58.6505556 273.973066 73.4874306 299.771212 88.3243056"></polygon>
                        <polygon id="Path" points="273.973066 103.161181 299.771212 88.3243056 273.973066 73.4874306 248.174921 88.3243056"></polygon>
                        <polygon id="Path" points="77.4119198 30.4511111 103.210066 15.6142361 77.4119198 0.790763889 51.6137739 15.6142361"></polygon>
                        <polygon id="Path" points="129.008211 30.4511111 103.210066 15.6142361 77.4119198 30.4511111 103.210066 45.2879861"></polygon>
                        <polygon id="Path" points="77.4119198 60.1114583 103.210066 45.2879861 77.4119198 30.4511111 51.6137739 45.2879861"></polygon>
                        <polygon id="Path" points="51.5599437 15.6008333 25.8156281 0.790763889 0.0174822531 15.6276389 25.7617978 30.4377083"></polygon>
                    </g>
                    <polyline id="Path" stroke="#6E60F9" stroke-width="0.63" stroke-linecap="round" stroke-linejoin="round" points="93 10 111 0 129 10"></polyline>
                    <circle id="Oval" stroke="#6E60F9" stroke-width="0.63" stroke-linecap="round" stroke-linejoin="round" cx="111.5" cy="20.5" r="7.5"></circle>
                    <polyline id="Path" stroke="#6E60F9" stroke-width="0.63" stroke-linecap="round" stroke-linejoin="round" points="111 18 111 23 116 23"></polyline>
                    <path d="M111.45926,6.00042274 L111.581541,6.00042274 C112.917219,6.00042274 114,7.32853235 114,8.96683858 L114,11 L109,11 L109,8.98350384 C108.996291,8.18513625 109.255069,7.41861852 109.717877,6.85722302 C110.180685,6.29582752 110.808448,5.98695364 111.45926,6.00042274 L111.45926,6.00042274 Z" id="Path" fill="#6E60F9" fill-rule="nonzero"></path>
                    <line x1="111.5" y1="33" x2="111.5" y2="42" id="Path" stroke="#6E60F9" stroke-width="0.63" stroke-linecap="round" stroke-linejoin="round"></line>
                    <circle id="Oval" fill="#6E60F9" fill-rule="nonzero" cx="111.5" cy="45.5" r="4.5"></circle>
                    <polyline id="Path" stroke="#6E60F9" stroke-width="0.63" stroke-linecap="round" stroke-linejoin="round" points="124 9 124 33 100 33 100 9"></polyline>
                    <polygon id="Path" stroke="#FFFFFF" stroke-width="1.25" fill="#FFFFFF" fill-rule="nonzero" stroke-linecap="round" stroke-linejoin="round" points="168.167984 146 203 125.246094 190.832016 118 156 138.767578"></polygon>
                    <path d="M194,133 C194,133 184.785248,132.160147 182.968053,132.44538 C181.966449,132.603843 180.578513,129.925821 181.122241,129.54551 C181.665968,129.1652 186.416431,127.485494 186.344888,126.249484 C186.344888,125.980097 184.542001,125.504708 184.298755,125.330399 C183.769336,124.950089 184.084125,124.553931 184.728013,124.443007 L187.375108,124.015158 C188.80597,123.729925 193.284569,127.564725 193.284569,127.564725" id="Path" fill="#D18B5A" fill-rule="nonzero"></path>
                    <polyline id="Path" fill="url(#linearGradient-2)" fill-rule="nonzero" points="277.651812 143 203 171.837015 257.935847 259 271.363614 258.924193 234.948825 181.691936 325 143 299.847209 143"></polyline>
                    <polygon id="Path" fill="#D18B5A" fill-rule="nonzero" points="173.35707 257 185 257 182.14649 267 170 267"></polygon>
                    <path d="M183.985758,276 L156,276 C156.000408,274.610635 156.832497,273.397852 158.02238,273.052349 L167.151577,270.442953 C169.908508,269.64957 172.025117,267.149498 172.606307,264 L184,264 L183.985758,276 Z" id="Path" fill="#2F9FC5" fill-rule="nonzero"></path>
                    <path d="M279.124616,143.863834 L206.821372,138 L174,254 L185.471694,254 L222.502862,165.166624 L292.310298,175.276171 C310.62291,177.265421 326.484819,162.049143 325.988664,143.863834 L279.124616,143.863834 Z" id="Path" fill="#4F4FBF" fill-rule="nonzero"></path>
                    <path d="M340,84 L326.367741,145 L278.190437,145 C278.190437,145 277.126821,126.312485 277.126821,110.737062 C277.126821,109.046358 274.894726,109.240863 271.913606,112.727005 L258.910527,125.923473 C253.577468,131.908266 251.420275,133.733628 248.558999,133.733628 L194.749025,133.733628 L194,128.601668 L243.825159,122.12313 L260.603324,98.4383125 C267.359532,88.6232524 269.996101,84.9725288 278.145496,84" id="Path" fill="#ED5D75" fill-rule="nonzero"></path>
                    <path d="M289,56.3205297 L289.098033,68.0963587 C289.119761,71.4282739 291.408722,74.2458437 294.489864,74.7333718 L294.489864,74.7333718 C295.86246,74.9545446 296.925093,76.1343392 297.080743,77.6099102 L298.1311,87.453065 C298.327166,89.2509015 304.279187,90 304.279187,90 C305.956943,89.7885523 307.162643,88.1712516 306.982105,86.3743631 L303.620964,54.9122244 C303.430555,53.1130999 301.913803,51.8190534 300.231813,52.0207041 L291.716922,53.0544601 C290.169519,53.2514726 289.003246,54.6534736 289,56.3205297 L289,56.3205297 Z" id="Path" fill="#D18B5A" fill-rule="nonzero"></path>
                    <path d="M300.124707,64.5577527 C301.39824,62.7637327 303.203754,62.6164624 304.235477,63.6205781 C305.654095,64.959399 305.347802,69.3641197 301.17255,68.9758616 C296.997299,68.5876036 300.124707,64.5577527 300.124707,64.5577527 Z" id="Path" fill="#D18B5A" fill-rule="nonzero"></path>
                    <path d="M298.189812,61.5911505 C296.582582,59.3630498 287.885514,61.2859313 287.855473,58.5389577 C287.825431,55.7919842 285.512221,53.0297496 288.621536,48.5125043 C292.290068,43.4435152 298.915186,41.6152571 304.603711,44.1020856 C312.594799,47.6578903 314.968092,65.0859113 313.000362,72.487479 C311.287986,78.9276059 319.38422,80.7131387 322.178097,84.5436407 C324.971973,88.3741427 320.240408,94.7684867 314.051821,92.5403859 C305.444879,89.4881931 294.419581,94.7990086 291.310266,92.2046447 C282.538095,84.8793819 300.082438,80.7741825 294.689956,74.8376675 C291.099975,70.9003387 301.764772,66.6120078 298.189812,61.5911505 Z" id="Path" fill="#6E60F7" fill-rule="nonzero"></path>
                    <path d="M328.452017,88.8634259 L308.436809,122.771712 L274.768844,80 L272,84.5453466 L303.664972,137.862263 C304.81507,139.30004 306.56062,140.090397 308.368062,139.991748 C310.175505,139.893099 311.829963,138.917171 312.825722,137.362274 L345.227088,99.2722697 C346.768526,97.0021565 347.338494,94.1814551 346.804177,91.4674476 C346.26986,88.7534402 344.677928,86.3831754 342.399332,84.9089744 L342.399332,84.9089744 C340.066763,83.4141503 337.232755,82.9911157 334.583395,83.7422831 C331.934034,84.4934505 329.710837,86.350343 328.452017,88.8634259 Z" id="Path" fill="#D3509B" fill-rule="nonzero"></path>
                    <path d="M272.196251,86 C272.196251,86 265.163899,78.9895996 263.493906,77.944189 C262.574645,77.3599889 263.09556,74.4236151 263.785006,74.5158572 C264.474452,74.6080993 269.407824,76.6527994 270.127912,75.6842572 C270.281123,75.4690256 269.101403,73.8855361 269.009477,73.5780624 C268.810304,72.9323676 269.315898,72.8554992 269.913418,73.2090939 C270.510938,73.5626887 272.02772,74.5466045 272.349462,74.7464624 C273.758997,75.5766414 275,81.4801366 275,81.4801366" id="Path" fill="#D18B5A" fill-rule="nonzero"></path>
                    <polygon id="Path" fill="#D18B5A" fill-rule="nonzero" points="258 259 271.14121 259 273 268 263.158501 268"></polygon>
                    <path d="M275,280 L246,280 C246.000407,278.610635 246.830545,277.397852 248.017638,277.052349 L257.125429,274.442953 C259.877674,273.653029 261.990667,271.151362 262.567369,268 L272.286134,268 L275,280 Z" id="Path" fill="#2F9FC5" fill-rule="nonzero"></path>
                    <line x1="300" y1="184" x2="262" y2="280" id="Path" stroke="#ED5D75" stroke-width="1.25" stroke-linecap="round" stroke-linejoin="round"></line>
                    <line x1="315" y1="185" x2="355" y2="279" id="Path" stroke="#ED5D75" stroke-width="1.25" stroke-linecap="round" stroke-linejoin="round"></line>
                    <path d="M346.231396,79 C337.481705,79 328.118788,154.55626 313.879975,163.133399 C288.947095,178.158284 243,161.540076 243,170.504378 C243,178.977282 305.279851,208.31229 337.541532,176.609634 C360.844127,153.692589 355.160567,79 346.231396,79 Z" id="Path" fill="url(#linearGradient-3)" fill-rule="nonzero" opacity="0.5"></path>
                    <path d="M151.374515,147.529088 L155.154911,150.782332 C155.689139,151.263533 156,151.991097 156,152.760244 C156,153.529391 155.689139,154.256955 155.154911,154.738156 L154.393392,155.440734 C153.567437,156.186422 152.39085,156.186422 151.564894,155.440734 L147.879688,152.156943 C147.324973,151.676943 147,150.93498 147,150.148484 C147,149.361988 147.324973,148.620026 147.879688,148.140026 L148.641206,147.513814 C149.450256,146.823092 150.571624,146.829358 151.374515,147.529088 L151.374515,147.529088 Z" id="Path" stroke="#FFFFFF" fill="#FFFFFF" fill-rule="nonzero"></path>
                    <polygon id="Path" fill="url(#linearGradient-4)" fill-rule="nonzero" points="140.467382 59.20119 140.480901 59.20119 163.625966 45.973968 181.06588 36 185 38.2491633 164.464163 49.990331 143.914807 61.7314987 143.901288 61.7314987 125.93412 72 122 69.7508367"></polygon>
                    <polygon id="Path" fill="url(#linearGradient-5)" fill-rule="nonzero" points="125 72.2290029 145.860609 60.3356449 145.860609 60.3356449 164.139391 49.9204808 164.139391 49.893358 185 38 185 91.7709971 164.139391 103.664355 164.139391 103.691478 143.265049 115.584836 143.265049 115.571274 125 126"></polygon>
                    <polygon id="Path" fill="url(#linearGradient-6)" fill-rule="nonzero" points="122 69 127 71.2633107 127 125 122 122.723136"></polygon>
                    <g id="Group" opacity="0.5" transform="translate(124.000000, 77.000000)" fill="url(#linearGradient-7)" fill-rule="nonzero">
                        <polygon id="Path" points="1.90714286 0.0670731707 2.05119048 51.5926829 52.7821429 21.5573171 52.7952381 23.7841463 0.16547619 54.9329268 0.00833333333 1.19390244"></polygon>
                    </g>
                    <polygon id="Path" fill="#0AD05B" fill-rule="nonzero" points="134 82.2936709 149 74 149 77.7063291 134.01574 86"></polygon>
                    <polygon id="Path" fill="#D83A6C" fill-rule="nonzero" points="150.983936 80 151 83.6148148 139.016064 90 139 86.3703704"></polygon>
                    <polygon id="Path" fill="#0AD05B" fill-rule="nonzero" points="156.990244 75 157 78.3701657 155.009756 80 155 76.6160221"></polygon>
                    <polygon id="Path" fill="#0AD05B" fill-rule="nonzero" points="168 63 168 66.3839779 163.02451 68 163 64.6298343"></polygon>
                    <polygon id="Path" fill="#0AD05B" fill-rule="nonzero" points="164.97549 56 165 60.0607735 160.02451 62 160 57.9392265"></polygon>
                    <polygon id="Path" fill="#0AD05B" fill-rule="nonzero" points="176.990244 55 177 58.3746556 175.009756 60 175 56.6253444"></polygon>
                    <polygon id="Path" fill="#0AD05B" fill-rule="nonzero" points="141.990196 102 142 105.370166 140.009804 107 140 103.616022"></polygon>
                    <polygon id="Path" fill="#0AD05B" fill-rule="nonzero" points="135.990244 112 136 115.379501 134.009756 117 134 113.620499"></polygon>
                    <polygon id="Path" fill="#F97216" fill-rule="nonzero" points="160 59 160 62.7796902 151.015437 68 151 64.2048193"></polygon>
                    <polygon id="Path" fill="#F97216" fill-rule="nonzero" points="161.984085 66 162 69.5988201 150.015915 76 150 72.4011799"></polygon>
                    <polygon id="Path" fill="#6E60F9" fill-rule="nonzero" points="141.986861 74 142 77.4366197 133.013139 83 133 79.5492958"></polygon>
                    <polygon id="Path" fill="#D83A6C" fill-rule="nonzero" points="148 57 148 61.0384615 142 66 142 61.978022"></polygon>
                    <polygon id="Path" fill="#0AD05B" fill-rule="nonzero" points="148.98426 65 149 68.6981132 134 77 134 73.3018868"></polygon>
                    <polygon id="Path" fill="#D83A6C" fill-rule="nonzero" points="172.986861 57 173 60.4366197 164.013139 66 164 62.5633803"></polygon>
                    <polygon id="Path" fill="#6E60F9" fill-rule="nonzero" points="159.982792 52 160 56.0384615 151 61 151 56.9615385"></polygon>
                    <path d="M125,74.5578429 L192.850996,36 L193,89.4288199 L191.049402,90.5358075 L125.16255,128 L125.013546,76.7718179 L125,74.5578429 Z M139.101195,90.0423311 L139.101195,93.2966077 L151.996813,86.014497 L151.996813,82.7602204 L139.101195,90.0423311 M151.983267,75.9849232 L139.087649,83.3203827 L139.087649,86.5879965 L151.996813,79.252537 L151.996813,75.9849232 M164.337052,78.9991302 L164.337052,75.7448536 L154.137052,81.533198 L154.137052,84.7074514 L164.337052,78.919107 M154.245418,91.376051 L154.245418,88.1217744 L144.140239,93.8567701 L144.140239,97.1110467 L154.245418,91.376051 M172.383267,60.7938533 L172.383267,57.5262395 L163.117928,62.8611192 L163.117928,66.1153958 L172.383267,60.7805161 M133.425498,79.6526529 L133.425498,82.9202667 L142.690837,77.6520731 L142.690837,74.3977965 L133.425498,79.6526529 M154.096414,74.6645404 L154.096414,78.0388518 L161.98008,73.5442157 L161.98008,70.2899391 L154.082869,74.771238 M144.885259,73.2507973 L144.885259,76.5184111 L151.956175,72.5172514 L151.956175,69.2496376 L144.885259,73.2507973 M154.164143,67.9159177 L154.164143,71.1835315 L161.23506,67.1823717 L161.23506,63.9014207 L154.164143,67.9025805 M177.00239,58.1930994 L177.00239,54.9254856 L174.293227,56.4992752 L174.293227,59.766889 L177.00239,58.1930994 M169.145817,76.0782836 L169.145817,72.8106698 L166.436653,74.3844593 L166.436653,77.6387359 L169.145817,76.0782836 M164.296414,72.1704842 L167.005578,70.6100319 L167.005578,67.3690925 L164.296414,68.9295448 L164.296414,72.1971586 M159.027092,88.7086112 L159.027092,85.4543346 L156.317928,87.0281241 L156.317928,90.2824007 L159.027092,88.7086112 M136.297211,115.14294 L136.297211,111.888663 L133.588048,113.449116 L133.588048,116.716729 L136.297211,115.156277 M142.16255,105.060017 L142.16255,101.779066 L139.453386,103.339519 L139.453386,106.607133 L142.16255,105.033343" id="Shape" fill="#21313C" fill-rule="nonzero" opacity="0.791689918"></path>
                    <line x1="214" y1="84" x2="214" y2="193" id="Path" stroke="#D83A6C" stroke-width="1.25" stroke-linecap="round" stroke-linejoin="round"></line>
                    <line x1="254.5" y1="106" x2="254.5" y2="202" id="Path" stroke="#D83A6C" stroke-width="1.25" stroke-linecap="round" stroke-linejoin="round"></line>
                    <line x1="308.5" y1="181" x2="308.5" y2="241" id="Path" stroke="#ED5D75" stroke-width="1.25" stroke-linecap="round" stroke-linejoin="round"></line>
                </g>
            </g>
        </g>
    </g>
</svg>