<svg height="500" width="500" 
    xmlns="http://www.w3.org/2000/svg" 
    xmlns:xlink="http://www.w3.org/1999/xlink">
    <rect width="100%" height="100%" fill="#0C1C27"/>
    <linearGradient id="a">
        <stop offset="0" stop-color="#0ad05b"/>
        <stop offset=".16" stop-color="#15d162"/>
        <stop offset=".43" stop-color="#34d475"/>
        <stop offset=".8" stop-color="#65d894"/>
        <stop offset="1" stop-color="#83dba7"/>
    </linearGradient>
    <linearGradient id="c" x1="17.027%" x2="84.581%" xlink:href="#a" y1="62.849%" y2="36.528%"/>
    <linearGradient id="d" x1="46.173%" x2="53.827%" xlink:href="#a" y1="42.179%" y2="57.732%"/>
    <linearGradient id="e" x1="0%" x2="100%" xlink:href="#a" y1="50%" y2="50%"/>
    <linearGradient id="f" x1="0%" x2="100%" y1="50%" y2="50%">
        <stop offset="0" stop-color="#36367f"/>
        <stop offset="1" stop-color="#6e60f9"/>
    </linearGradient>
    <linearGradient id="g" x1="0%" x2="99.992%" xlink:href="#a" y1="50.003%" y2="50.003%"/>
    <linearGradient id="b">
        <stop offset="0" stop-color="#0ad05b"/>
        <stop offset=".31" stop-color="#0ea354"/>
        <stop offset=".6" stop-color="#117f4e"/>
        <stop offset=".84" stop-color="#12694a"/>
        <stop offset="1" stop-color="#136149"/>
    </linearGradient>
    <linearGradient id="h" x1="95.449%" x2="-121.094%" xlink:href="#b" y1="34.407%" y2="108.69%"/>
    <linearGradient id="i" x1="74.12%" x2="7.88%" xlink:href="#b" y1="-9.04%" y2="152.542%"/>
    <linearGradient id="j" x1="74.12%" x2="7.88%" xlink:href="#b" y1="-8.757%" y2="152.542%"/>
    <linearGradient id="k" x1="94.039%" x2="-26.528%" xlink:href="#b" y1="1.048%" y2="134.932%"/>
    <linearGradient id="l" x1="97.266%" x2="-32.031%" xlink:href="#b" y1="-19.963%" y2="171.455%"/>
    <linearGradient id="m" x1="91.23%" x2="-21.604%" xlink:href="#b" y1=".911%" y2="135.237%"/>
    <linearGradient id="n" x1="91.123%" x2="-21.283%" xlink:href="#b" y1=".823%" y2="135.347%"/>
    <linearGradient id="o" x1="93.169%" x2="-25%" xlink:href="#b" y1="-12.323%" y2="158.018%"/>
    <linearGradient id="p" x1="74.3%" x2="7.88%" xlink:href="#b" y1="-9.014%" y2="152.113%"/>
    <linearGradient id="q" x1="97.076%" x2="-31.774%" xlink:href="#b" y1="-19.963%" y2="171.269%"/>
    <linearGradient id="r" x1="95.804%" x2="-29.545%" xlink:href="#b" y1="-21.228%" y2="173.684%"/>
    <linearGradient id="s" x1="93.099%" x2="-24.899%" xlink:href="#b" y1="-12.453%" y2="158.126%"/>
    <linearGradient id="t" x1="74.3%" x2="7.88%" xlink:href="#b" y1="-8.732%" y2="152.394%"/>
    <linearGradient id="u" x1="94.048%" x2="-26.339%" xlink:href="#b" y1="1.073%" y2="134.85%"/>
    <linearGradient id="v" x1="74.269%" x2="8%" xlink:href="#b" y1="-8.708%" y2="152.247%"/>
    <linearGradient id="w" x1="68.169%" x2="-5.586%" xlink:href="#b" y1="-20.541%" y2="149.253%"/>
    <linearGradient id="x" x1="50.015%" x2="49.952%" xlink:href="#b" y1="-14.635%" y2="265.548%"/>
    <linearGradient id="y" x1="0%" x2="100%" xlink:href="#a" y1="50.012%" y2="50.012%"/>
    <g fill="none" fill-rule="evenodd">
        <path d="M0 0h500v500H0z"/>
        <g transform="translate(61 77)">
            <path d="M150.597 208L284 130.892 237.403 104 104 181.108z" fill="url(#c)" fill-rule="nonzero" opacity=".6"/>
            <path d="M237.5 104v98M277.5 128v95" stroke="#d83a6c" stroke-linecap="round" stroke-linejoin="round" stroke-width="1.25"/>
            <path d="M151.5 207v90M104.5 182v88" stroke="#ed5d75" stroke-linecap="round" stroke-linejoin="round" stroke-width="1.25"/>
            <g opacity=".3" stroke="#0ad05b" stroke-width=".63">
                <path d="M307.81 212.835l28.91-16.621-28.91-16.637-28.912 16.637zM134.728 312.762l-28.896 16.621 28.896 16.621 28.91-16.621zM163.254 196.244l-28.91 16.622 28.91 16.636 28.911-16.636z"/>
                <path d="M163.254 229.471l-28.91 16.622 28.91 16.621 28.911-16.621z"/>
                <path d="M134.344 246.047l-28.911 16.621 28.91 16.621 28.911-16.62zM365.63 212.835l-28.91-16.621-28.91 16.62 28.91 16.637z"/>
                <path d="M307.81 246.093l28.91-16.622-28.91-16.636-28.912 16.636zM87.517 164.595l28.911-16.621-28.91-16.637-28.912 16.637z"/>
                <path d="M145.339 164.595l-28.911-16.621-28.91 16.62 28.91 16.622zM87.517 197.853l28.911-16.637-28.91-16.621-28.912 16.621zM58.56 147.958l-28.865-16.606L.785 147.99l28.864 16.59z"/>
            </g>
            <path d="M23 50h9v47h-9zM44 50h9v47h-9zM53 56h9v42h-9z" stroke="#6e60f9" stroke-linecap="round" stroke-linejoin="round" stroke-width=".63"/>
            <path d="M69.1 55.528l7.075-.001-.008 42.205-7.074.001z" fill="url(#d)" fill-rule="nonzero" transform="rotate(-18.84 72.634 76.63)"/>
            <path d="M30 44h15v54H30z" fill="url(#e)" fill-rule="nonzero"/>
            <path d="M4 96h98v7H4z" stroke="#6e60f9" stroke-width="1.25" fill="#6e60f9" fill-rule="nonzero" stroke-linecap="round" stroke-linejoin="round"/>
            <path d="M106 12l20.492-12L147 12" stroke="#6e60f9" stroke-linecap="round" stroke-linejoin="round" stroke-width=".63"/>
            <circle cx="125" cy="24" r="8" stroke="#6e60f9" stroke-linecap="round" stroke-linejoin="round" stroke-width=".63"/>
            <path d="M125 20v5h4" stroke="#6e60f9" stroke-linecap="round" stroke-linejoin="round" stroke-width=".63"/>
            <path d="M125.514 8A2.48 2.48 0 01128 10.458V12h-5v-1.542a2.465 2.465 0 01.743-1.749A2.493 2.493 0 01125.514 8z" fill="#6e60f9" fill-rule="nonzero"/>
            <path d="M126.5 37v8" stroke="#6e60f9" stroke-linecap="round" stroke-linejoin="round" stroke-width=".63"/>
            <circle cx="125.5" cy="50.5" fill="#6e60f9" fill-rule="nonzero" r="5.5"/>
            <path d="M140 9v28h-28V9" stroke="#6e60f9" stroke-linecap="round" stroke-linejoin="round" stroke-width=".63"/>
            <path d="M189.72 163L229 140.754 215.28 133 176 155.246z" stroke="#fff" stroke-width="1.25" fill="#fff" fill-rule="nonzero" stroke-linecap="round" stroke-linejoin="round"/>
            <path d="M216 154s-9.214-.747-11.022-.488c-1.02.143-2.406-2.242-1.852-2.572.554-.33 5.293-1.839 5.22-2.945 0-.244-1.793-.646-2.056-.819-.525-.33-.204-.675.438-.79l2.638-.373c1.458-.245 5.92 3.16 5.92 3.16" fill="#d18b5a" fill-rule="nonzero"/>
            <path d="M301.259 166L226 194.597 281.373 281l13.544-.077L258.2 204.36 349 166h-25.352" fill="url(#f)" fill-rule="nonzero"/>
            <path d="M197.361 277H209l-2.848 11H194z" fill="#d18b5a" fill-rule="nonzero"/>
            <path d="M205 297h-29a2.775 2.775 0 012.092-2.701l9.466-2.4A7.717 7.717 0 00193.2 286h11.739z" fill="#2f9fc5" fill-rule="nonzero"/>
            <path d="M302.077 165.909L229.798 160 197 277h11.464l37.028-89.594 69.781 10.2c18.392 2 34.162-13.345 33.718-31.697z" fill="#4f4fbf" fill-rule="nonzero"/>
            <path d="M363 104l-13.719 62h-48.508s-1.06-18.988-1.06-34.813c0-1.72-2.262-1.442-5.26 2.03l-13.089 13.408c-5.367 5.998-7.46 7.92-10.427 7.92h-54.183l-.754-5.207 50.169-6.572 16.918-24.056c6.797-9.982 9.458-13.64 17.656-14.679" fill="#ed5d75" fill-rule="nonzero"/>
            <path d="M312 75.341l.111 11.77c.032 3.322 2.568 6.13 5.982 6.624 1.524.223 2.706 1.398 2.888 2.87l1.159 9.846c.222 1.786 6.839 2.549 6.839 2.549 1.87-.207 3.212-1.833 2.999-3.633l-3.73-31.46c-.215-1.8-1.905-3.091-3.776-2.885l-9.52 1.038c-1.706.216-2.975 1.626-2.952 3.281z" fill="#d18b5a" fill-rule="nonzero"/>
            <path d="M322.935 83.794c1.068-2.054 2.574-2.242 3.423-1.082 1.19 1.568.93 6.602-2.547 6.273-3.478-.33-.876-5.19-.876-5.19z" fill="#d18b5a" fill-rule="nonzero"/>
            <path d="M322.188 81.28c-1.622-2.18-10.302-.29-10.333-3.05s-2.342-5.398.766-9.836c3.667-4.96 10.284-6.75 15.966-4.315 7.99 3.477 10.363 20.572 8.404 27.815-1.714 6.313 6.383 8.067 9.185 11.818 2.801 3.752-1.944 10.02-8.129 7.839-8.603-3.05-19.625 2.21-22.717-.336-8.771-7.182 8.756-11.193 3.368-17.018-3.597-3.813 7.103-8.022 3.49-12.917z" fill="#6e60f7" fill-rule="nonzero"/>
            <path d="M353.963 108.732l-20.538 33.378-34.59-42.11-2.835 4.427 32.479 52.47a5.888 5.888 0 004.823 2.095 5.87 5.87 0 004.575-2.582l33.311-37.515a9.879 9.879 0 001.61-7.69 9.98 9.98 0 00-4.522-6.458 10.203 10.203 0 00-8.044-1.114 10.064 10.064 0 00-6.27 5.1z" fill="#d3509b" fill-rule="nonzero"/>
            <path d="M296.2 105s-7.037-7.013-8.695-8.048c-.938-.58-.407-3.53.282-3.436.688.095 5.63 2.134 6.35 1.177.156-.22-1.017-1.804-1.127-2.118-.188-.643.313-.722.907-.36s2.127 1.333 2.44 1.568c1.407.832 2.643 6.73 2.643 6.73M281 280h14.01l1.99 8h-10.515z" fill="#d18b5a" fill-rule="nonzero"/>
            <path d="M300 300h-30a2.759 2.759 0 012.085-2.701l9.435-2.4a7.706 7.706 0 005.625-5.899h10.065z" fill="#2f9fc5" fill-rule="nonzero"/>
            <path d="M325 205l-38 95M338 207l41 92M330.5 202v61" stroke="#ed5d75" stroke-linecap="round" stroke-linejoin="round" stroke-width="1.25"/>
            <g fill-rule="nonzero">
                <path d="M370.159 98c-8.833 0-18.28 76.237-32.637 84.893-25.16 15.153-71.522-1.609-71.522 7.446 0 8.534 62.843 38.134 95.403 6.129C384.915 173.378 379.16 98 370.16 98z" fill="url(#g)" opacity=".6"/>
                <path d="M170.375 166.577l4.597 3.237c.65.485 1.028 1.214 1.028 1.984s-.378 1.5-1.028 1.984l-.913.685a2.944 2.944 0 01-3.38 0l-4.597-3.315c-.682-.48-1.082-1.225-1.082-2.015s.4-1.535 1.082-2.015l.912-.622a2.925 2.925 0 013.38.077z" fill="#fff" stroke="#fff"/>
                <path d="M157.525 66.422h.015l25.718-15.06L202.635 40 207 42.564l-22.823 13.367-22.823 13.366h-.015L141.365 81 137 78.436z" fill="url(#h)"/>
                <path d="M152.985 127l.015 3.376-3 1.624v-3.376z" fill="url(#i)"/>
                <path d="M159.985 115l.015 3.376-3 1.624v-3.376z" fill="url(#j)"/>
                <path d="M161 88.445L150 94v-3.445L160.984 85z" fill="url(#k)"/>
                <path d="M172 78v3.582L164 86v-3.582z" fill="url(#l)"/>
                <path d="M172 89.697L157 98v-3.697L171.984 86z" fill="url(#m)"/>
                <path d="M172 97.716L157.016 106l-.016-3.7 14.984-8.3z" fill="url(#n)"/>
                <path d="M162 106.012L174 99v3.971L162.016 110z" fill="url(#o)"/>
                <path d="M177 97.62l3-1.62v3.38l-2.985 1.62z" fill="url(#p)"/>
                <path d="M182 76.582L174.016 81 174 77.418 181.984 73z" fill="url(#q)"/>
                <path d="M173 84.21l8.984-5.21.016 3.79-9 5.21z" fill="url(#r)"/>
                <path d="M173 91.036L185 84v3.947L173.016 95z" fill="url(#s)"/>
                <path d="M188 78.38L185.015 80 185 76.62l3-1.62z" fill="url(#p)"/>
                <path d="M189.985 82l.015 3.38-3 1.62v-3.38z" fill="url(#t)"/>
                <path d="M193.984 65l.016 3.44L183.016 74 183 70.56z" fill="url(#u)"/>
                <path d="M199.985 62l.015 3.385L197.015 67 197 63.63z" fill="url(#v)"/>
                <path d="M207 42v3.604l-65.784 37.98v2.51l.154 53.69-.37.216V80.119l22.95-13.246v.016l20.1-11.613v-.03l22.904-13.215z" fill="url(#w)"/>
                <path d="M137 78l4 2.51V140l-4-2.494z" fill="url(#x)"/>
                <path d="M60.878 27.044L.321 62.032l-.03-8.882v-.015L.137 1.66 2.09.538l.015-.016L2.319.4l.154 53.565.015 4.302L60.863 24.54v.031z" fill="url(#y)" opacity=".5" transform="translate(139 86)"/>
                <path d="M172 97.716L157.016 106l-.016-3.7 14.984-8.3z" fill="#0ad05b"/>
                <path d="M174 99v3.971L162.016 110l-.016-3.988z" fill="#d83a6c"/>
                <path d="M180 96v3.38l-2.985 1.62-.015-3.38zM190 85.38L187 87v-3.38l2.985-1.62zM188 75v3.38L185.015 80 185 76.62zM200 65.385L197.015 67 197 63.63l2.985-1.63zM160 118.376L157 120v-3.376l2.985-1.624zM153 130.376L150 132v-3.376l2.985-1.624z" fill="#0ad05b"/>
                <path d="M182 82.79L173 88v-3.79l8.984-5.21zM185 84v3.947L173.016 95 173 91.036z" fill="#f97216"/>
                <path d="M161 88.445L150 94v-3.445L160.984 85z" fill="#6e60f9"/>
                <path d="M172 78v3.582L164 86v-3.582z" fill="#d83a6c"/>
                <path d="M172 89.697L157 98v-3.697L171.984 86z" fill="#0ad05b"/>
                <path d="M194 68.44L183.016 74 183 70.56 193.984 65z" fill="#d83a6c"/>
                <path d="M182 76.582L174.016 81 174 77.418 181.984 73z" fill="#6e60f9"/>
            </g>
        </g>
    </g>
</svg>
