<svg height="723" viewBox="0 0 691 723" width="691" xmlns="http://www.w3.org/2000/svg" xmlns:xlink="http://www.w3.org/1999/xlink"><linearGradient id="a"><stop offset="0" stop-color="#0ad05b"/><stop offset=".16" stop-color="#15d162"/><stop offset=".43" stop-color="#34d475"/><stop offset=".8" stop-color="#65d894"/><stop offset="1" stop-color="#83dba7"/></linearGradient><linearGradient id="b" x1="50.196297%" x2="50.196297%" xlink:href="#a" y1="100.001576%" y2="-31.295285%"/><linearGradient id="c" x1="30.947117%" x2="76.31465%" xlink:href="#a" y1="69.18582%" y2="23.802104%"/><linearGradient id="d" x1="966219%" x2="966219%" y1="-2225.98312%" y2="-2225.98312%"><stop offset="0" stop-color="#b9eacd"/><stop offset="1" stop-color="#13aa52"/></linearGradient><linearGradient id="e" x1="0%" x2="100%" xlink:href="#a" y1="50%" y2="50%"/><linearGradient id="f" x1="0%" x2="100%" xlink:href="#a" y1="49.932157%" y2="49.932157%"/><linearGradient id="g" x1="0%" x2="100%" xlink:href="#a" y1="50.067843%" y2="50.067843%"/><linearGradient id="h" x1="100%" x2="0%" y1="50%" y2="50%"><stop offset="0" stop-color="#36367f"/><stop offset="1" stop-color="#6e60f9"/></linearGradient><linearGradient id="i" x1="48.946205%" x2="52.306559%" xlink:href="#a" y1="35.459475%" y2="81.781754%"/><linearGradient id="j" x1="0%" x2="100%" xlink:href="#a" y1="49.987657%" y2="49.987657%"/><g fill="none" fill-rule="evenodd" transform="translate(1 1)"><path d="m.6.54954545s-.72 15.60000005 9.732 11.75909095c5.226-10.0986364-9.732-11.75909095-9.732-11.75909095z" fill="url(#b)" fill-rule="nonzero" transform="translate(167 371)"/><path d="m4.53375 0s-9.928125 11.6019231.05625 14.8096154c9.748125-4.7480769-.05625-14.8096154-.05625-14.8096154z" fill="url(#c)" fill-rule="nonzero" transform="translate(176 358)"/><path d="m173 378c2.095271 1.909994 3.836919 4.195706 5.140375 6.746151 1.933783 3.773483 2.916234 7.987119 2.857106 12.253849" stroke="#13aa52" stroke-linecap="round" stroke-linejoin="round" stroke-width=".63"/><path d="m181 368-2 32" style="stroke:#13aa52;stroke-width:.63;fill-rule:nonzero;stroke-linecap:round;stroke-linejoin:round;fill:url(#d)"/><g opacity=".1" stroke="#0ad05b" stroke-width=".63" transform="translate(0 364)"><path d="m510 135 48-27.512427-48-27.487573-48 27.487573z"/><path d="m221.987477 302-47.987477 27.512427 47.987477 27.487573 48.012523-27.487573z"/><path d="m270.025039 107-48.025039 27.5 48.025039 27.5 47.974961-27.5z"/><path d="m270.025039 162-48.025039 27.512427 48.025039 27.487573 47.974961-27.487573z"/><path d="m221.974961 191-47.974961 27.5 47.974961 27.5 48.025039-27.5z"/><path d="m606 134.5-48-27.5-48 27.5 48 27.5z"/><path d="m510 191 48-27.5-48-27.5-48 27.5z"/><path d="m144 55 48-27.5124266-48-27.4875734-48 27.4875734z"/><path d="m241 54.5-48-27.5-48 27.5 48 27.5z"/><path d="m144 109 48-27.4875734-48-27.5124266-48 27.5124266z"/><path d="m96 27.4751356-47.9498695-27.4751356-48.0501305 27.5248644 47.9498695 27.4751356z"/></g><path d="m256 0h424c4.970563 0 9 4.02943725 9 9v296h-442v-296c0-4.97056275 4.029437-9 9-9z" fill="#21313c" opacity=".2"/><path d="m680-.25c5.108634 0 9.25 4.14136606 9.25 9.25v19.25h-442.5v-19.25c0-5.10863394 4.141366-9.25 9.25-9.25zm0 .5h-424c-4.832492 0-8.75 3.91750844-8.75 8.75v18.75h441.5v-18.75c0-4.74619707-3.778847-8.60979722-8.492009-8.74626948z" fill="#3d4f58" fill-rule="nonzero" opacity=".05"/><path d="m401 79h114v118h-114z" fill="#061621"/><path d="m406 74h114v118h-114z" fill="#21313c"/><path d="m3.57647059 8 .42352941-.65240642-3.32235294-2.34224599 3.32235294-2.32085561-.38588235-.68449198-3.61411765 2.53475936v.93048128zm2.11178852 1 4.31174089-8.68421053-.67813765-.31578947-4.32186235 8.70394737zm6.73527029-1 3.5764706-2.53475936v-.91978609l-3.6141176-2.54545455-.3858824.68449198 3.3223529 2.32085561-3.3223529 2.33155081z" fill="#f9fbfa" fill-rule="nonzero" transform="translate(491 119)"/><path d="m466 86h17v3h-17z" fill="#13aa52"/><path d="m485 86h22v3h-22z" fill="#3d4f58"/><path d="m466 92h41v3h-41z" fill="#3d4f58"/><path d="m466 98h41v3h-41z" fill="#3d4f58"/><path d="m466 104h41v3h-41z" fill="#3d4f58"/><path d="m466 110h29v3h-29z" fill="#3d4f58"/><path d="m459 86h3v36h-3z" fill="#3d4f58"/><path d="m345.5 344v54" stroke="#f97216"/><path d="m224 344v54" stroke="#f97216"/><path d="m207 332h159v19h-159z" fill="url(#e)" fill-rule="nonzero" opacity=".5"/><path d="m207 274h159v10h-159z" fill="url(#f)" fill-rule="nonzero" opacity=".5"/><path d="m207 292h159v9h-159z" fill="url(#g)" fill-rule="nonzero" opacity=".5"/><path d="m377 397v9h24c-.002636-1.036832-.715161-1.94083-1.732899-2.198571l-7.81759-1.954286c-2.358306-.591429-6.65798-2.455714-7.153094-4.808572z" fill="#6e60f7" fill-rule="nonzero"/><path d="m401.59434 371-7.59434 3.653846 3.537736 5.346154 6.462264-1.5z" fill="#c17a49" fill-rule="nonzero"/><path d="m397 380.004802 2.640306 7.995198 22.359694-6.67467c-.316873-.922789-1.254275-1.529035-2.283163-1.476591l-7.895408.444178c-2.372449.132053-6.938776-.336134-8.112245-2.292917z" fill="#6e60f7" fill-rule="nonzero"/><path d="m306.602444 310.952381 61.633809-.952381 13.763747 80h-10.177597l-23.852953-57.993651-52.516904 4.139683-6.452546-25.193651" fill="url(#h)" fill-rule="nonzero"/><path d="m382.530653 390h-10.530653l5.487437 8h7.512563z" fill="#c17a49" fill-rule="nonzero"/><path d="m330.667075 301.912886 36.470588-10.912886 34.862337 80.455535-8.256536 3.544465-32.924837-64.079855-65.216503 25.205082c-14.461601 1.600726-26.985702-10.607986-26.593137-25.205082h37.787582z" fill="#4f4fbf" fill-rule="nonzero"/><path d="m306 277.853565s22.515455 24.146435 24.850768 24.146435l36.552712-10.758189.59652-4.032755-31.412487 4.082852-26.0565-28.291908" fill="#c17a49" fill-rule="nonzero"/><path d="m259 263 10.760796 48 35.158661-.037667 6.080543-47.962333z" fill="#ffdd49" fill-rule="nonzero"/><path d="m367.158949 291s7.152703-1.847427 8.619924-1.9048c.819198 0 1.552809-2.008073 1.063735-2.180194-.489073-.17212-4.438344-.642583-4.548385-1.480236 0-.19507 1.320499-.745856 1.491675-.906501.366805-.321292.073361-.539311-.452394-.527837-.342351 0-1.870706.080323-2.151924.080323-1.222684 0-4.18158 3.189967-4.18158 3.189967" fill="#c17a49" fill-rule="nonzero"/><path d="m386 264h3v28h-3z" fill="#13aa52" fill-rule="nonzero" transform="matrix(-1 0 0 -1 775 556)"/><path d="m375 277h3v26h-3z" fill="#13aa52" fill-rule="nonzero" transform="matrix(0 -1 1 0 86.5 666.5)"/><path d="m303.312785 267s2.619985-6.317974 3.576279-7.591862c.497797-.694849-.812195-2.663586-1.309992-2.3805-.497797.283087-3.471479 3.281229-4.309874 2.805129-.183399-.115808.196498-1.608445.157199-1.865796 0-.527571-.445398-.42463-.772896 0-.327498.424629-1.152793 1.621313-1.309992 1.852929-.772895 1.029405 0 5.726065 0 5.726065" fill="#c17a49" fill-rule="nonzero"/><path d="m256.366205 266 21.12634 27.67694 22.654627-27.324688 3.852828 1.409008s-16.027764 30.482375-23.399508 41.51541c-.676662 1.024031-1.816859 1.664555-3.060867 1.719492-1.244009.054936-2.438416-.482489-3.206399-1.442723-7.114889-8.806299-24.606727-30.884949-25.22318-34.407468-.370322-2.170346.203195-4.393479 1.581637-6.130926s3.436079-2.830731 5.674522-3.015045z" fill="#c17a49" fill-rule="nonzero"/><path d="m293.095823 235 .904177 18.741093-6.656839 2.512211v10.274943c0 2.469671-2.088604 4.471753-4.665028 4.471753-1.239512.00332-2.429449-.466334-3.307148-1.305309s-1.370985-1.978287-1.370985-3.166444v-31.528247z" fill="#c17a49" fill-rule="nonzero"/><path d="m293.841993 242.000116h-2.912702c-.500308-.007939-.914189.39395-.929291.902365 0 .986963.09709 2.481507.970901 2.960888 1.15819.182175 2.337053.182175 3.495243 0 .297712-.022202.52786-.274629.52706-.578078v-1.988024c.035598-.3317-.069785-.663073-.289657-.910819-.219872-.247745-.533322-.3883-.861554-.386332z" stroke="#0b3b35"/><path d="m290 243.5h-7" stroke="#0b3b35"/><g fill-rule="nonzero"><path d="m291.396835 232.91418c5.563915 2.35386 3.979656 7.086099 0 6.64475-5.766699-.625244-4.993581 1.005294-4.157093 3.248817.304177.809139-2.192613 2.550014-2.192613 2.550014h-1.49554s-1.571584-4.021177-3.612109-1.973809c-1.571584 1.581499 1.08997 5.529118 1.08997 5.529118-1.49554 1.005294-9.340786-6.877684-4.435923-14.895518 2.750272-4.560603 9.999838-3.11396 14.803308-1.103372z" fill="#21313c"/><path d="m293.569805 239s2.690196-2.813296.691405-5.193777c-1.143962-1.374823-2.137072-.356435-3.48217-.865629-1.345099-.509194-1.257102-1.61669-2.514203-1.960396-1.697087-.458274-1.634232.407355-3.029614.216407-1.395383-.190947-1.395383-1.196605-3.017044-1.196605-1.973649 0-2.325637 1.272984-3.218179 1.565771" fill="#21313c"/><path d="m285.193965 246s1.02099 5.049261 5.551631 4.076355c1.786732-2.315271 3.075731-1.711823 3.075731-1.711823l.178673 5.172414-6.483284 2.463054s-6.623669-3.263547-3.82871-9.950739z" fill="#21313c"/><path d="m272 279c0-6.899083-5.60049-16-12.5-16s-12.5 9.100917-12.5 16z" fill="#ffdd49"/><g opacity=".5" transform="translate(560 193)"><path d="m46.5552371 72.7561885 45.5067059-27.5067884-45.5067059-27.4932116-45.49329408 27.4932116z" fill="url(#i)" opacity=".49"/><path d="m46.5552371 54.7561885 45.5067059-27.5067884-45.5067059-27.49321158-45.49329408 27.49321158z" fill="url(#j)" opacity=".4"/></g><path d="m497.068869 164s-8.922182-3.522428-10.812239-3.856673c-1.056209-.179978-1.639903-2.828227-.972824-2.969639.667079-.141411 5.878634-.102844 6.170481-1.157002 0-.2314-1.570415-1.157002-1.76498-1.388402-.416924-.475657 0-.707057.694874-.604212l2.779496.449945c1.570415.218545 4.836323 4.756564 4.836323 4.756564" fill="#f5a56e"/><path d="m562 173.116576-23.91314 23.883424-43.08686-33.340619 2.119911-4.261081 38.266425 20.03643 24.628779-26.43473" fill="#f5a56e"/><path d="m558.444744 342h9.555256l-.040431 8h-9.959569z" fill="#f5a56e"/><path d="m568 359h-24c-.000876-1.043144.715272-1.952555 1.735891-2.204348l7.824657-1.969565c2.363154-.587453 4.18091-2.461293 4.681644-4.826087h9.705205z" fill="#4f4fbf"/><path d="m631 332.793496 4.143585-8.793496 8.856415 8.455285-3.812627 7.544715z" fill="#f5a56e"/><path d="m643.3 332-3.3 8.228188c2.438892 1.598675 4.019215 4.271134 4.278261 7.234899l-.117391 8.241611c-.006613 1.072499.689663 2.015006 1.695652 2.295302l6.143478-23.651007z" fill="#4f4fbf"/><path d="m601.700486 278.219933-7.212647-68.504516-13.036692-.25647v-.256471h-13.252398l-10.246004-.202476v.202476h-5.945379l-14.007366 65.791333 20.896456 67.006191h9.558443l-7.967616-63.780067 9.949409-40.913732c.024028-.584055.487577-1.054102 1.070552-1.085559s1.094293.385987 1.180873.964073l5.810563 47.446971 52.281584 48.013904 4.219736-9.124936z" fill="#4f4fbf"/><path d="m619 164.952424c-7.353914-11.010421-16.447756-14.952424-29.68752-14.952424h-28.219457c-3.060942.003238-6.055002.895784-8.61808 2.569098l-16.474943 10.738559c2.905794 8.010391 9.76983 13.93207 18.119718 15.63208l-2.392401 30.638877 42.73698.421386 8.155913-30.21749c5.478054-4.676031 16.37979-14.830086 16.37979-14.830086z" fill="#ed5d75"/><path d="m594 210s9 18.200212 0 38" fill="#4f4fbf"/><path d="m571 218.201329s-7.055651 5.96299-8.164949 7.446868c-.632042.838116-3.224703 0-3.057019-.659501.167685-.659501 2.579763-5.152354 1.728441-5.962991-.180583-.178614-1.728441.783158-2.012215.838117-.606244.109916-.619143-.37097-.232178-.920554l1.62525-2.170858c.890018-1.250305 6.333318-1.77241 6.333318-1.77241" fill="#f7a76f"/><path d="m602.472551 179.778947-7.949567 21.965414-27.522984 13.330827 2.813764 3.924812 36.401366-9.879699 12.78487-44.120301z" fill="#f5a56e"/><path d="m566.490005 120.211553-1.465523 14.456953c-.23241 2.329606 1.211654 4.487951 3.40635 5.091244l2.640581.748712c.608876.148125 1.033343.716502 1.016624 1.361295v9.529066c-.003508 1.219054.463715 2.389419 1.298516 3.252701.834802.863282 1.968524 1.348476 3.150864 1.348476 2.464617 0 4.462583-2.060017 4.462583-4.601177v-31.037528c0-.751822-.591114-1.361295-1.320291-1.361295h-11.882617c-.670988.002721-1.233283.523918-1.307087 1.211553z" fill="#f5a56e"/><path d="m566.280668 120.316468c-.669992 2.156015-.535994 3.840402 4.957938 4.568057 6.244323.835456 6.016526 6.252445 6.244323 8.287184s-4.689942 12.828291 1.554381 12.828291c21.439734 0 13.574031-20.819023 6.619518-27.853023-8.173899-8.260233-17.888779-2.385092-19.37616 2.169491z" fill="#543e07"/><path d="m576.216831 130.554168c1.214907-1.957394 2.672795-1.942452 3.377441-.642503.984075 1.807974.255131 6.903176-3.037267 5.976775-3.292399-.9264-.340174-5.334272-.340174-5.334272z" fill="#f5a56e"/></g><circle cx="261.5" cy="14.5" fill="#e5e5e5" opacity=".1" r="4.5"/><circle cx="274.5" cy="14.5" fill="#e5e5e5" opacity=".1" r="4.5"/><circle cx="287.5" cy="14.5" fill="#e5e5e5" opacity=".1" r="4.5"/></g></svg>